<svg width="200" height="200" viewBox="0 0 500 500" fill="none" xmlns="http://www.w3.org/2000/svg">
<g clip-path="url(#clip0_2619_17020)">
<path d="M495 382.4H-5V382.65H495V382.4Z" fill="#EBEBEB"/>
<path d="M444.901 398.49H411.781V398.74H444.901V398.49Z" fill="#EBEBEB"/>
<path d="M326.221 401.21H317.531V401.46H326.221V401.21Z" fill="#EBEBEB"/>
<path d="M410.78 389.21H391.59V389.46H410.78V389.21Z" fill="#EBEBEB"/>
<path d="M90.6509 390.89H47.4609V391.14H90.6509V390.89Z" fill="#EBEBEB"/>
<path d="M105.889 390.89H99.5586V391.14H105.889V390.89Z" fill="#EBEBEB"/>
<path d="M220.149 395.11H126.469V395.36H220.149V395.11Z" fill="#EBEBEB"/>
<path d="M232.001 337.8H38.9109C37.3983 337.797 35.9485 337.195 34.8798 336.124C33.8112 335.053 33.2109 333.603 33.2109 332.09V60.66C33.2241 59.156 33.8301 57.718 34.8974 56.6582C35.9646 55.5985 37.4069 55.0026 38.9109 55H232.001C233.515 55 234.968 55.6016 236.039 56.6724C237.109 57.7433 237.711 59.1956 237.711 60.71V332.09C237.711 333.604 237.109 335.057 236.039 336.128C234.968 337.198 233.515 337.8 232.001 337.8ZM38.9109 55.2C37.4646 55.2026 36.0784 55.7791 35.0566 56.8027C34.0348 57.8264 33.4609 59.2136 33.4609 60.66V332.09C33.4609 333.536 34.0348 334.924 35.0566 335.947C36.0784 336.971 37.4646 337.547 38.9109 337.55H232.001C233.448 337.547 234.835 336.971 235.859 335.948C236.882 334.924 237.458 333.537 237.461 332.09V60.66C237.458 59.2127 236.882 57.8255 235.859 56.8021C234.835 55.7787 233.448 55.2026 232.001 55.2H38.9109Z" fill="#EBEBEB"/>
<path d="M448.31 337.8H255.21C253.696 337.797 252.246 337.195 251.175 336.125C250.105 335.054 249.503 333.604 249.5 332.09V60.66C249.516 59.1551 250.124 57.7171 251.193 56.6576C252.262 55.5981 253.705 55.0025 255.21 55H448.31C449.812 55.0052 451.252 55.6022 452.317 56.6617C453.382 57.7212 453.987 59.1578 454 60.66V332.09C454 333.601 453.401 335.05 452.335 336.121C451.268 337.191 449.821 337.795 448.31 337.8ZM255.21 55.2C253.763 55.2026 252.375 55.7787 251.352 56.8021C250.329 57.8255 249.753 59.2127 249.75 60.66V332.09C249.753 333.537 250.329 334.924 251.352 335.948C252.375 336.971 253.763 337.547 255.21 337.55H448.31C449.757 337.547 451.145 336.971 452.168 335.948C453.191 334.924 453.767 333.537 453.77 332.09V60.66C453.767 59.2127 453.191 57.8255 452.168 56.8021C451.145 55.7787 449.757 55.2026 448.31 55.2H255.21Z" fill="#EBEBEB"/>
<path d="M253.348 382.4H282.238V279.48H253.348V382.4Z" fill="#E6E6E6"/>
<path d="M258.83 382.4H253.34V372.86H264.58L258.83 382.4Z" fill="#F0F0F0"/>
<path d="M418.18 382.4H447.07V279.48H418.18V382.4Z" fill="#E6E6E6"/>
<path d="M253.349 379.89H422.969V279.47H253.349V379.89Z" fill="#F0F0F0"/>
<path d="M367.039 285.44V374.32H417.319V285.44H367.039Z" fill="#E6E6E6"/>
<path d="M387.211 290.54H397.151C399.365 290.501 401.541 289.965 403.52 288.971C405.498 287.978 407.228 286.552 408.581 284.8H375.781C377.136 286.551 378.866 287.975 380.844 288.968C382.822 289.962 384.998 290.499 387.211 290.54Z" fill="#F0F0F0"/>
<path d="M313.012 285.45V374.33H363.292V285.45H313.012Z" fill="#E6E6E6"/>
<path d="M332.67 290.54H342.62C344.825 290.494 346.992 289.954 348.961 288.961C350.93 287.967 352.652 286.546 354 284.8H321.25C322.602 286.551 324.33 287.976 326.307 288.969C328.284 289.963 330.458 290.5 332.67 290.54Z" fill="#F0F0F0"/>
<path d="M258.98 285.45V374.33H309.26V285.45H258.98Z" fill="#E6E6E6"/>
<path d="M278.639 290.54H288.589C290.799 290.498 292.972 289.961 294.946 288.967C296.921 287.974 298.648 286.55 299.999 284.8H267.219C268.571 286.551 270.299 287.976 272.276 288.969C274.252 289.963 276.427 290.5 278.639 290.54Z" fill="#F0F0F0"/>
<path d="M417.479 382.4H422.959V372.86H411.719L417.479 382.4Z" fill="#F0F0F0"/>
<path d="M71.6505 252.72L265.48 252.72V87.69L71.6505 87.69L71.6505 252.72Z" fill="#E6E6E6"/>
<path d="M67.2881 252.72L263.578 252.72V87.69L67.2881 87.69L67.2881 252.72Z" fill="#F5F5F5"/>
<path d="M255.75 244.8V95.61L75.12 95.61V244.8H255.75Z" fill="#FAFAFA"/>
<path d="M233.592 244.8L162.502 95.61H138.352L209.442 244.8H233.592Z" fill="white"/>
<path d="M202.599 244.8L131.499 95.61H114.879L185.969 244.8H202.599Z" fill="white"/>
<path d="M142.199 244.79V95.6H132.859V244.79H142.199Z" fill="#E6E6E6"/>
<path d="M204.281 244.79V95.6H194.941V244.79H204.281Z" fill="#E6E6E6"/>
<path d="M140.512 249.83V89.72H128.702V249.83H140.512Z" fill="#F5F5F5"/>
<path d="M202.59 249.83V89.72H190.78V249.83H202.59Z" fill="#F5F5F5"/>
<path d="M75.9492 244.8L75.9492 95.61H75.1192L75.1192 244.8H75.9492Z" fill="#E6E6E6"/>
<path d="M64 77.5H274C274.265 77.5 274.52 77.6054 274.707 77.7929C274.895 77.9804 275 78.2348 275 78.5C275 78.7652 274.895 79.0196 274.707 79.2071C274.52 79.3946 274.265 79.5 274 79.5H64C63.7348 79.5 63.4804 79.3946 63.2929 79.2071C63.1054 79.0196 63 78.7652 63 78.5C63 78.2348 63.1054 77.9804 63.2929 77.7929C63.4804 77.6054 63.7348 77.5 64 77.5Z" fill="#E6E6E6"/>
<path d="M265.479 84.17C265.841 84.1674 266.187 84.0219 266.442 83.7652C266.696 83.5086 266.839 83.1616 266.839 82.8V79.87C266.839 79.5093 266.696 79.1634 266.441 78.9083C266.186 78.6533 265.84 78.51 265.479 78.51C265.118 78.51 264.771 78.653 264.514 78.9077C264.258 79.1625 264.112 79.5084 264.109 79.87V82.8C264.112 83.1625 264.257 83.5095 264.514 83.7659C264.77 84.0222 265.117 84.1674 265.479 84.17Z" fill="#E6E6E6"/>
<path d="M79.2311 84.17C79.5936 84.1674 79.9406 84.0222 80.1969 83.7659C80.4533 83.5095 80.5985 83.1625 80.6011 82.8V79.87C80.5984 79.5084 80.453 79.1625 80.1963 78.9077C79.9397 78.653 79.5927 78.51 79.2311 78.51C78.8704 78.51 78.5245 78.6533 78.2694 78.9083C78.0144 79.1634 77.8711 79.5093 77.8711 79.87V82.8C77.8711 83.1616 78.014 83.5086 78.2688 83.7652C78.5236 84.0219 78.8695 84.1674 79.2311 84.17Z" fill="#E6E6E6"/>
<path opacity="0.6" d="M64.3187 160.42L260.469 160.42V78.51L64.3187 78.51V160.42Z" fill="#E0E0E0"/>
<path d="M67.0108 382.4H72.0508L72.0508 299.76H67.0108L67.0108 382.4Z" fill="#E6E6E6"/>
<path d="M185.239 283.67H157.949V299.75H185.239V283.67Z" fill="#E6E6E6"/>
<path d="M49.5592 299.76H157.949V283.68H49.5592V299.76Z" fill="#F5F5F5"/>
<path d="M185.239 309.75H157.949V325.83H185.239V309.75Z" fill="#E6E6E6"/>
<path d="M49.5592 325.84H157.949V309.76H49.5592V325.84Z" fill="#F5F5F5"/>
<path d="M185.239 335.84H157.949V351.92H185.239V335.84Z" fill="#E6E6E6"/>
<path d="M49.5592 351.92H157.949V335.84H49.5592V351.92Z" fill="#F5F5F5"/>
<path d="M175.401 382.4H180.441V299.76H175.401V382.4Z" fill="#E6E6E6"/>
<path d="M152.909 382.4H157.949V299.76H152.909V382.4Z" fill="#F5F5F5"/>
<path d="M49.5616 382.4H54.6016L54.6016 299.76H49.5616L49.5616 382.4Z" fill="#F5F5F5"/>
<path d="M249.999 427.56C357.082 427.56 443.889 422.492 443.889 416.24C443.889 409.988 357.082 404.92 249.999 404.92C142.917 404.92 56.1094 409.988 56.1094 416.24C56.1094 422.492 142.917 427.56 249.999 427.56Z" fill="#F5F5F5"/>
<path d="M396 370.84H233.6C232.004 370.859 230.421 370.543 228.955 369.912C227.489 369.281 226.171 368.348 225.088 367.176C224.005 366.003 223.18 364.616 222.667 363.104C222.154 361.592 221.964 359.99 222.11 358.4L242 97.63C242.31 94.2703 243.849 91.143 246.321 88.8475C248.794 86.552 252.027 85.2496 255.4 85.19H417.8C419.397 85.1692 420.98 85.4843 422.447 86.115C423.914 86.7457 425.232 87.6778 426.316 88.8509C427.399 90.024 428.224 91.4118 428.736 92.9242C429.249 94.4366 429.437 96.0399 429.29 97.63L409.4 358.4C409.088 361.759 407.549 364.885 405.077 367.18C402.604 369.475 399.373 370.778 396 370.84Z" fill="#407BFF"/>
<path opacity="0.5" d="M396 370.84H233.6C232.004 370.859 230.421 370.543 228.955 369.912C227.489 369.281 226.171 368.348 225.088 367.176C224.005 366.003 223.18 364.616 222.667 363.104C222.154 361.592 221.964 359.99 222.11 358.4L242 97.63C242.31 94.2703 243.849 91.143 246.321 88.8475C248.794 86.552 252.027 85.2496 255.4 85.19H417.8C419.397 85.1692 420.98 85.4843 422.447 86.115C423.914 86.7457 425.232 87.6778 426.316 88.8509C427.399 90.024 428.224 91.4118 428.736 92.9242C429.249 94.4366 429.437 96.0399 429.29 97.63L409.4 358.4C409.088 361.759 407.549 364.885 405.077 367.18C402.604 369.475 399.373 370.778 396 370.84Z" fill="white"/>
<path d="M393.592 370.84H231.182C229.586 370.859 228.003 370.543 226.537 369.912C225.071 369.281 223.753 368.348 222.67 367.176C221.587 366.003 220.762 364.616 220.249 363.104C219.736 361.592 219.546 359.99 219.692 358.4L239.592 97.63C239.902 94.2686 241.442 91.14 243.917 88.8442C246.392 86.5485 249.627 85.2472 253.002 85.19H415.402C416.999 85.1692 418.582 85.4843 420.049 86.115C421.516 86.7457 422.834 87.6778 423.918 88.8509C425.001 90.024 425.826 91.4118 426.338 92.9242C426.851 94.4366 427.039 96.0399 426.892 97.63L407.002 358.4C406.692 361.761 405.152 364.89 402.677 367.186C400.203 369.482 396.967 370.783 393.592 370.84Z" fill="#407BFF"/>
<path opacity="0.7" d="M393.592 370.84H231.182C229.586 370.859 228.003 370.543 226.537 369.912C225.071 369.281 223.753 368.348 222.67 367.176C221.587 366.003 220.762 364.616 220.249 363.104C219.736 361.592 219.546 359.99 219.692 358.4L239.592 97.63C239.902 94.2686 241.442 91.14 243.917 88.8442C246.392 86.5485 249.627 85.2472 253.002 85.19H415.402C416.999 85.1692 418.582 85.4843 420.049 86.115C421.516 86.7457 422.834 87.6778 423.918 88.8509C425.001 90.024 425.826 91.4118 426.338 92.9242C426.851 94.4366 427.039 96.0399 426.892 97.63L407.002 358.4C406.692 361.761 405.152 364.89 402.677 367.186C400.203 369.482 396.967 370.783 393.592 370.84Z" fill="white"/>
<path d="M231.502 366.69C230.437 366.706 229.381 366.497 228.402 366.078C227.423 365.658 226.544 365.037 225.821 364.255C225.099 363.473 224.549 362.547 224.208 361.538C223.867 360.53 223.742 359.46 223.842 358.4L243.472 101.09C243.674 98.8494 244.698 96.7629 246.347 95.2323C247.996 93.7017 250.153 92.8353 252.402 92.8H414.802C415.867 92.784 416.923 92.9927 417.902 93.4122C418.881 93.8318 419.76 94.4528 420.483 95.235C421.205 96.0171 421.755 96.9428 422.096 97.9516C422.437 98.9604 422.562 100.03 422.462 101.09L402.832 358.4C402.63 360.639 401.607 362.724 399.961 364.254C398.314 365.785 396.16 366.652 393.912 366.69H231.502Z" fill="#407BFF"/>
<path opacity="0.2" d="M392.76 136.08H276.54C275.909 136.088 275.283 135.964 274.703 135.714C274.123 135.465 273.602 135.096 273.173 134.632C272.745 134.168 272.419 133.619 272.217 133.021C272.015 132.423 271.941 131.789 272 131.16C272.125 129.835 272.733 128.602 273.709 127.696C274.685 126.791 275.959 126.276 277.29 126.25H393.51C394.141 126.24 394.767 126.363 395.347 126.612C395.927 126.86 396.448 127.228 396.877 127.691C397.305 128.154 397.631 128.703 397.833 129.301C398.035 129.898 398.109 130.532 398.05 131.16C397.932 132.489 397.326 133.726 396.349 134.635C395.372 135.543 394.094 136.058 392.76 136.08Z" fill="black"/>
<path opacity="0.3" d="M343.18 90.26H324.41C324.254 90.262 324.1 90.2314 323.957 90.1701C323.814 90.1088 323.686 90.0182 323.581 89.9041C323.475 89.79 323.395 89.6551 323.344 89.5079C323.294 89.3608 323.276 89.2048 323.29 89.05C323.321 88.7244 323.471 88.4216 323.71 88.1987C323.95 87.9758 324.263 87.8482 324.59 87.84H343.37C343.524 87.8393 343.677 87.871 343.819 87.9329C343.961 87.9949 344.088 88.0857 344.192 88.1996C344.297 88.3135 344.376 88.448 344.426 88.5944C344.475 88.7409 344.494 88.896 344.48 89.05C344.452 89.3772 344.304 89.6826 344.064 89.9063C343.823 90.13 343.508 90.2561 343.18 90.26Z" fill="#407BFF"/>
<path d="M276.001 131.16C276.168 129.421 275.965 127.666 275.407 126.01C274.849 124.355 273.947 122.836 272.762 121.552C271.577 120.268 270.134 119.249 268.528 118.562C266.922 117.874 265.188 117.532 263.441 117.56H381.441C383.188 117.532 384.922 117.874 386.528 118.562C388.134 119.249 389.577 120.268 390.762 121.552C391.947 122.836 392.849 124.355 393.407 126.01C393.965 127.666 394.168 129.421 394.001 131.16H276.001Z" fill="#F0F0F0"/>
<path d="M263.47 117.56C259.779 117.617 256.24 119.038 253.535 121.549C250.83 124.06 249.15 127.484 248.82 131.16L236.73 289.63C236.402 293.305 234.724 296.729 232.02 299.24C229.317 301.752 225.779 303.173 222.09 303.23H340.09C343.78 303.173 347.319 301.752 350.024 299.241C352.729 296.73 354.409 293.306 354.74 289.63L366.83 131.16C367.158 127.485 368.836 124.061 371.539 121.55C374.243 119.038 377.78 117.617 381.47 117.56H263.47Z" fill="white"/>
<path d="M327.521 289.63C327.355 291.369 327.558 293.124 328.116 294.78C328.674 296.435 329.575 297.954 330.761 299.238C331.946 300.522 333.389 301.541 334.995 302.228C336.601 302.916 338.334 303.258 340.081 303.23H222.081C220.334 303.258 218.601 302.916 216.995 302.228C215.389 301.541 213.946 300.522 212.761 299.238C211.575 297.954 210.674 296.435 210.116 294.78C209.558 293.124 209.355 291.369 209.521 289.63H327.521Z" fill="#F0F0F0"/>
<path d="M258.451 286.5C258.901 280.71 257.081 276.03 251.301 276.03H342.161C347.941 276.03 352.291 281.32 349.321 286.5H258.451Z" fill="#E0E0E0"/>
<path d="M327.52 289.63C327.841 285.949 329.515 282.518 332.22 280.001C334.924 277.483 338.465 276.058 342.16 276H224.16C220.47 276.057 216.932 277.478 214.229 279.99C211.525 282.501 209.848 285.925 209.52 289.6L327.52 289.63Z" fill="#F0F0F0"/>
<path d="M383.311 328.92H247.861C247.402 328.926 246.948 328.836 246.527 328.655C246.105 328.474 245.727 328.207 245.416 327.87C245.104 327.533 244.868 327.135 244.72 326.701C244.573 326.267 244.519 325.806 244.561 325.35C244.649 324.387 245.09 323.49 245.798 322.831C246.507 322.172 247.433 321.798 248.401 321.78H383.861C384.318 321.775 384.772 321.867 385.192 322.048C385.612 322.23 385.989 322.497 386.299 322.834C386.609 323.17 386.845 323.568 386.992 324.001C387.139 324.435 387.193 324.894 387.151 325.35C387.062 326.313 386.622 327.21 385.913 327.869C385.205 328.528 384.278 328.902 383.311 328.92Z" fill="white"/>
<path d="M314.913 346.08H246.553C246.094 346.088 245.639 345.998 245.217 345.818C244.795 345.638 244.416 345.37 244.104 345.033C243.793 344.696 243.556 344.297 243.409 343.863C243.263 343.428 243.209 342.967 243.253 342.51C243.342 341.547 243.782 340.65 244.491 339.991C245.199 339.332 246.126 338.958 247.093 338.94H315.453C315.911 338.934 316.366 339.024 316.787 339.205C317.209 339.386 317.587 339.653 317.898 339.99C318.209 340.327 318.446 340.725 318.594 341.159C318.741 341.593 318.795 342.054 318.753 342.51C318.665 343.473 318.224 344.37 317.515 345.029C316.807 345.688 315.88 346.062 314.913 346.08Z" fill="white"/>
<path d="M362.243 346.08H334.553C334.094 346.088 333.639 345.998 333.217 345.818C332.795 345.638 332.416 345.37 332.104 345.033C331.793 344.696 331.556 344.297 331.409 343.863C331.263 343.428 331.209 342.967 331.253 342.51C331.342 341.547 331.782 340.65 332.491 339.991C333.199 339.332 334.126 338.958 335.093 338.94H362.783C363.241 338.935 363.695 339.027 364.115 339.208C364.536 339.39 364.914 339.657 365.225 339.993C365.535 340.33 365.772 340.727 365.92 341.161C366.068 341.594 366.124 342.054 366.083 342.51C365.995 343.473 365.554 344.37 364.845 345.029C364.137 345.688 363.21 346.062 362.243 346.08Z" fill="white"/>
<path d="M352.362 186.55H254.832L255.032 183.85H352.572L352.362 186.55Z" fill="#407BFF"/>
<path d="M352.361 186.55H254.831L254.191 194.84H351.731L352.361 186.55Z" fill="#F0F0F0"/>
<path d="M351.1 203.12H253.56L252.93 211.4H350.47L351.1 203.12Z" fill="#F0F0F0"/>
<path d="M349.832 219.68H252.302L251.672 227.97H349.202L349.832 219.68Z" fill="#F0F0F0"/>
<path d="M348.572 236.25H251.032L250.402 244.53H347.942L348.572 236.25Z" fill="#F0F0F0"/>
<path d="M347.103 255.52H249.562L249.773 252.81H347.312L347.103 255.52Z" fill="#407BFF"/>
<path d="M335.94 136.08H356.21L355.29 148.17H335.02L335.94 136.08Z" fill="#F0F0F0"/>
<path d="M137.18 213L140.8 214.45C142.121 214.981 143.28 215.85 144.16 216.97L145.82 219.07C146.355 219.744 146.637 220.586 146.615 221.447C146.593 222.308 146.269 223.134 145.7 223.78L143.94 225.78C143.617 226.147 143.226 226.446 142.787 226.661C142.348 226.875 141.872 227 141.384 227.029C140.897 227.058 140.409 226.99 139.948 226.829C139.487 226.668 139.063 226.416 138.7 226.09L137 224.59C137 224.59 131.8 220.94 130.27 216.11L131.27 215.11C132.018 214.317 132.944 213.712 133.971 213.345C134.998 212.979 136.098 212.86 137.18 213Z" fill="#FFB573"/>
<path d="M147.099 177.92L145.919 178.7L144.609 179.6C143.739 180.22 142.859 180.86 142.009 181.51C140.299 182.84 138.639 184.21 137.099 185.67C134.059 188.401 131.449 191.577 129.359 195.09C129.109 195.51 128.889 195.93 128.679 196.36L128.519 196.68C128.56 196.545 128.593 196.408 128.619 196.27C128.653 196.105 128.653 195.935 128.619 195.77C128.529 195.48 128.519 196.23 128.749 196.97C129.362 198.891 130.163 200.746 131.139 202.51C133.199 206.45 135.779 210.51 138.219 214.51L138.279 214.62C138.763 215.416 138.912 216.371 138.692 217.277C138.473 218.182 137.904 218.964 137.109 219.45C136.497 219.818 135.787 219.992 135.074 219.951C134.36 219.91 133.676 219.655 133.109 219.22C131.111 217.665 129.204 215.996 127.399 214.22C125.553 212.424 123.81 210.524 122.179 208.53C120.363 206.35 118.821 203.956 117.589 201.4C117.22 200.602 116.906 199.781 116.649 198.94C116.32 197.846 116.145 196.712 116.129 195.57C116.122 194.796 116.206 194.024 116.379 193.27C116.48 192.839 116.607 192.415 116.759 192L116.949 191.49C117.199 190.8 117.479 190.13 117.769 189.49C120.105 184.393 123.337 179.756 127.309 175.8C129.188 173.879 131.193 172.085 133.309 170.43C134.369 169.61 135.439 168.81 136.549 168.06C137.109 167.68 137.669 167.3 138.249 166.94L139.139 166.4L140.139 165.82C141.709 164.972 143.544 164.756 145.268 165.216C146.992 165.676 148.476 166.776 149.415 168.293C150.355 169.81 150.68 171.628 150.324 173.377C149.968 175.125 148.957 176.672 147.499 177.7L147.099 177.92Z" fill="#FFB573"/>
<path d="M147.221 162.05C141.381 162.05 134.981 164.58 126.781 174.75C126.781 180.82 139.591 188.89 139.591 188.89C139.591 188.89 160.591 162 147.221 162.05Z" fill="#263238"/>
<path d="M103.829 402.44C103.724 402.437 103.619 402.42 103.519 402.39C102.309 401.96 101.169 398.88 101.099 397.16C101.094 397.106 101.106 397.053 101.132 397.006C101.159 396.96 101.2 396.923 101.249 396.9C101.295 396.871 101.349 396.855 101.404 396.855C101.459 396.855 101.512 396.871 101.559 396.9C101.689 397.01 104.699 399.48 104.839 401.14C104.858 401.301 104.845 401.463 104.798 401.618C104.752 401.773 104.674 401.917 104.569 402.04C104.482 402.156 104.371 402.253 104.243 402.322C104.115 402.391 103.974 402.431 103.829 402.44ZM101.739 397.83C102.009 399.46 102.939 401.58 103.739 401.83C103.818 401.856 103.904 401.854 103.982 401.825C104.06 401.796 104.126 401.741 104.169 401.67C104.225 401.604 104.266 401.528 104.29 401.445C104.314 401.362 104.321 401.275 104.309 401.19C104.199 400.24 102.719 398.71 101.739 397.83Z" fill="#263238"/>
<path d="M105.711 398.77C104.124 398.683 102.583 398.209 101.221 397.39C101.177 397.359 101.142 397.316 101.121 397.267C101.1 397.218 101.093 397.163 101.101 397.11C101.11 397.056 101.135 397.005 101.172 396.964C101.21 396.924 101.258 396.894 101.311 396.88C101.471 396.88 105.241 395.88 106.661 396.72C106.803 396.798 106.928 396.905 107.026 397.034C107.124 397.163 107.194 397.312 107.231 397.47C107.282 397.653 107.274 397.848 107.21 398.027C107.145 398.206 107.027 398.361 106.871 398.47C106.522 398.683 106.119 398.787 105.711 398.77ZM102.141 397.26C103.611 398 105.881 398.5 106.551 398.04C106.651 397.97 106.741 397.87 106.681 397.6C106.663 397.514 106.625 397.434 106.572 397.364C106.518 397.295 106.449 397.239 106.371 397.2C105.541 396.69 103.431 397 102.141 397.26Z" fill="#263238"/>
<path d="M90.7397 396.49C93.702 393.32 96.2124 389.757 98.1997 385.9C98.1997 385.9 107.48 388.18 105.66 390.9C102.35 395.75 100.74 405.72 105 411.06C107.43 414.11 103.59 414.62 101 413.31C96.9997 411.24 97.1297 410.46 94.9997 407.03C93.1997 404.1 92.4897 402.95 89.9997 401.69C87.9997 400.6 88.9997 398.56 90.7397 396.49Z" fill="#407BFF"/>
<path d="M169.441 222.33C169.441 222.33 156.001 287.93 146.141 316C135.801 345.42 107.251 390.83 106.141 392.78C102.081 391.69 98.4608 390.27 96.0508 387.92C96.0508 387.92 109.451 338.67 122.511 306.72C127.511 240.02 138.401 222.38 138.401 222.38L169.441 222.33Z" fill="#263238"/>
<path opacity="0.2" d="M148.911 257.43C148.301 270.12 147.911 287.57 148.481 308.81C152.591 295.57 157.061 277.62 160.821 261.51C158.311 258.16 154.411 256.55 148.911 257.43Z" fill="black"/>
<path d="M149.719 141.89C151.129 147.6 152.509 156.89 150.259 161.89C150.259 161.89 158.679 162.27 169.439 170.89C174.509 163.45 168.639 161.99 168.639 161.99C164.169 160.99 164.389 154.99 164.399 150.74L149.719 141.89Z" fill="#FFB573"/>
<path d="M147.599 164.44C143.399 163.98 146.299 156 148.479 156.78C153.999 158.78 166.379 156.56 170.209 158.67C174.039 160.78 173.069 165.11 173.069 165.11C173.069 165.11 152.119 164.94 147.599 164.44Z" fill="#407BFF"/>
<path opacity="0.7" d="M147.599 164.44C143.399 163.98 146.299 156 148.479 156.78C153.999 158.78 166.379 156.56 170.209 158.67C174.039 160.78 173.069 165.11 173.069 165.11C173.069 165.11 152.119 164.94 147.599 164.44Z" fill="white"/>
<path d="M172.099 131.82C172.239 132.58 172.749 133.13 173.249 133.04C173.749 132.95 174.039 132.26 173.909 131.5C173.779 130.74 173.259 130.19 172.759 130.28C172.259 130.37 171.999 131.06 172.099 131.82Z" fill="#263238"/>
<path d="M172.551 130.36L174.291 129.51C174.291 129.51 173.601 131.11 172.551 130.36Z" fill="#263238"/>
<path d="M173.121 125.72C173.143 125.666 173.155 125.608 173.155 125.55C173.155 125.492 173.143 125.434 173.121 125.38C173.088 125.264 173.011 125.165 172.906 125.105C172.801 125.046 172.677 125.029 172.561 125.06C171.859 125.232 171.208 125.568 170.662 126.041C170.116 126.514 169.691 127.11 169.421 127.78C169.388 127.895 169.399 128.019 169.453 128.126C169.507 128.234 169.599 128.317 169.711 128.36C169.826 128.398 169.952 128.389 170.061 128.335C170.169 128.28 170.252 128.185 170.291 128.07C170.508 127.54 170.85 127.07 171.286 126.699C171.723 126.329 172.243 126.068 172.801 125.94C172.866 125.928 172.929 125.902 172.984 125.864C173.039 125.826 173.086 125.777 173.121 125.72Z" fill="#263238"/>
<path d="M173 133.68C173.873 135.366 174.973 136.924 176.27 138.31C175.906 138.633 175.476 138.872 175.009 139.01C174.542 139.149 174.051 139.183 173.57 139.11L173 133.68Z" fill="#ED893E"/>
<path d="M146 131.43C148.23 140.71 149 144.68 154.47 148.67C162.74 154.67 173.42 149.93 173.96 140.19C174.44 131.41 170.72 117.72 161.06 115.58C151.4 113.44 143.77 122.15 146 131.43Z" fill="#FFB573"/>
<path d="M163.999 133.14C169.459 125.92 172.999 120.08 170.329 113.69C168.079 108.35 161.849 109.91 160.979 112.58C144.419 111.17 138.469 117.17 141.889 127.09C144.069 133.42 135.609 130.09 137.669 138.17C139.239 144.33 133.669 146.68 136.499 150.22C140.579 155.33 148.999 148.67 158.609 152.5C166.449 155.64 178.269 150.89 163.999 133.14Z" fill="#263238"/>
<path d="M163.089 134.6C163.54 135.341 164.143 135.979 164.858 136.47C165.574 136.961 166.385 137.295 167.239 137.45C169.409 137.77 170.159 135.33 169.239 133.07C168.439 131.07 166.349 128.42 164.299 129.15C162.249 129.88 161.859 132.65 163.089 134.6Z" fill="#FFB573"/>
<path d="M166.321 408.56C164.576 408.347 162.932 407.627 161.591 406.49C161.552 406.454 161.525 406.407 161.51 406.356C161.496 406.305 161.497 406.251 161.511 406.2C161.528 406.147 161.559 406.1 161.602 406.065C161.644 406.029 161.696 406.007 161.751 406C161.911 406 165.751 405.57 167.071 406.63C167.202 406.727 167.311 406.851 167.389 406.995C167.466 407.138 167.512 407.297 167.521 407.46C167.563 407.659 167.536 407.865 167.445 408.047C167.354 408.229 167.205 408.374 167.021 408.46C166.798 408.543 166.559 408.578 166.321 408.56ZM162.511 406.5C163.871 407.45 166.041 408.28 166.771 407.92C166.881 407.86 166.981 407.77 166.961 407.5C166.955 407.413 166.929 407.328 166.886 407.252C166.842 407.176 166.783 407.11 166.711 407.06C166.001 406.44 163.831 406.42 162.511 406.5Z" fill="#263238"/>
<path d="M161.779 406.57C161.734 406.568 161.69 406.556 161.651 406.535C161.611 406.515 161.576 406.485 161.549 406.45C161.519 406.404 161.504 406.35 161.504 406.295C161.504 406.24 161.519 406.186 161.549 406.14C161.629 406 163.549 402.62 165.179 402.21C165.336 402.162 165.501 402.149 165.663 402.172C165.825 402.194 165.981 402.251 166.119 402.34C166.298 402.43 166.442 402.578 166.529 402.758C166.616 402.939 166.64 403.144 166.599 403.34C166.379 404.61 163.519 406.24 161.849 406.59L161.779 406.57ZM165.509 402.73H165.309C164.369 402.97 163.099 404.68 162.389 405.79C163.949 405.25 165.899 403.99 166.039 403.19C166.039 403.07 166.039 402.93 165.809 402.78C165.715 402.738 165.611 402.721 165.509 402.73Z" fill="#263238"/>
<path d="M173.751 412.07C165.651 411.44 160.191 405.88 160.751 399.99C161.061 396.74 150.681 396.45 150.681 396.45C152.321 406.52 150.261 407.96 149.581 410.56C148.901 413.16 149.071 416.04 151.221 416.09C153.791 416.16 154.991 415.67 158.221 415.79C161.961 415.94 166.001 416.08 172.651 416.09C175.281 416.1 177.351 412.35 173.751 412.07Z" fill="#407BFF"/>
<path d="M183.438 222.33C183.438 222.33 182.728 272.02 178.808 304.67C174.888 337.32 161.408 401.36 161.408 401.36C157.863 402.197 154.167 402.163 150.638 401.26C150.638 401.26 146.378 351.26 153.528 302.89C148.278 252.22 144.988 222.33 144.988 222.33H183.438Z" fill="#263238"/>
<path d="M185.281 176.37C185.111 180.21 191.171 189.09 183.691 194.23C185.091 197.36 186.271 218.55 183.441 222.33C179.311 225.33 156.961 224.78 138.441 222.33C137.651 214.67 141.871 198.8 136.701 174.06C136.418 172.705 136.423 171.306 136.715 169.954C137.008 168.601 137.581 167.325 138.399 166.209C139.216 165.092 140.26 164.16 141.461 163.473C142.662 162.786 143.994 162.359 145.371 162.22C146.931 162.07 148.581 161.93 150.271 161.85C156.174 161.435 162.098 161.435 168.001 161.85C169.911 162.03 171.891 162.27 173.781 162.54C177.074 163.004 180.076 164.678 182.202 167.234C184.328 169.791 185.425 173.048 185.281 176.37Z" fill="#407BFF"/>
<g opacity="0.3">
<path d="M137.161 172.72L136.751 172.95C136.714 172.961 136.681 172.98 136.652 173.006C136.623 173.032 136.601 173.064 136.586 173.099C136.572 173.135 136.565 173.173 136.567 173.211C136.569 173.25 136.579 173.287 136.597 173.321C136.615 173.355 136.64 173.385 136.671 173.408C136.702 173.431 136.738 173.446 136.775 173.454C136.813 173.461 136.852 173.461 136.889 173.451C136.927 173.442 136.961 173.424 136.991 173.4L137.451 173.15C139.451 173.88 141.581 175.54 142.811 175.71C140.811 173.96 139.401 172.71 137.811 172.93C138.281 172.65 138.741 172.37 139.201 172.07C141.021 172.75 143.001 174.27 144.131 174.42C142.291 172.8 140.971 171.64 139.521 171.86L140.521 171.17L141.081 170.76C142.731 171.47 144.471 172.98 145.511 173.19C143.851 171.55 142.681 170.39 141.281 170.62C141.721 170.29 142.151 169.96 142.571 169.62C144.081 170.28 145.681 171.62 146.631 171.85C145.111 170.34 144.041 169.28 142.751 169.48L143.831 168.58L144.091 168.36C145.421 169.06 146.741 170.44 147.611 170.69C146.351 169.18 145.471 168.13 144.151 168.3C144.491 168.01 144.831 167.71 145.151 167.4C146.381 168.05 147.591 169.32 148.391 169.55C147.231 168.16 146.391 167.2 145.211 167.35L146.271 166.35C147.341 167.01 148.361 168.21 149.071 168.46C148.071 167.14 147.431 166.23 146.341 166.28C146.531 166.09 146.721 165.91 146.901 165.72L147.221 165.39C148.221 166 149.151 167.11 149.801 167.34C148.921 166.13 148.291 165.28 147.291 165.34C147.581 165.04 147.871 164.73 148.151 164.42C149.051 164.91 149.901 165.84 150.501 166.02C149.711 165.02 149.151 164.28 148.191 164.38L148.351 164.21L148.951 163.51C149.639 164.03 150.353 164.514 151.091 164.96C150.371 164.03 149.861 163.38 149.001 163.45C149.231 163.17 149.461 162.87 149.661 162.57C149.67 162.563 149.677 162.553 149.681 162.543C149.686 162.533 149.688 162.521 149.688 162.51C149.688 162.499 149.686 162.487 149.681 162.477C149.677 162.467 149.67 162.458 149.661 162.45C149.645 162.438 149.626 162.431 149.606 162.431C149.586 162.431 149.567 162.438 149.551 162.45C149.351 162.73 149.141 163 148.921 163.26C148.967 162.789 148.835 162.318 148.551 161.94H148.211C148.424 162.422 148.608 162.916 148.761 163.42C148.581 163.63 148.391 163.83 148.211 164.03L148.081 164.17C148.271 163.44 147.891 162.81 147.311 162.01H147.121C147.281 162.63 147.751 163.48 147.941 164.3L147.141 165.11C147.401 164.19 146.761 163.38 145.871 162.23C145.871 162.92 146.711 164.11 147.031 165.23L146.751 165.51L146.201 166.03C146.451 165.03 145.771 164.16 144.801 162.93C144.801 163.67 145.711 164.93 146.061 166.16L145.061 167.03C145.271 166.03 144.601 165.03 143.691 163.73C143.691 164.52 144.501 165.92 144.831 167.23L144.041 167.9C144.271 166.82 143.551 165.76 142.561 164.31C142.561 165.17 143.441 166.69 143.791 168.11L143.581 168.28C143.221 168.58 142.851 168.87 142.481 169.16C142.771 168.05 142.081 166.8 141.131 165.1C141.061 166.02 141.881 167.82 142.131 169.41C141.711 169.73 141.291 170.03 140.861 170.34C141.341 169.08 140.561 167.67 139.481 165.71C139.391 166.71 140.331 168.77 140.601 170.52L140.221 170.78L139.031 171.55C139.581 170.28 138.911 168.78 137.931 166.74C137.881 166.81 137.831 166.88 137.791 166.95C137.861 168.15 138.561 170.07 138.711 171.74C138.271 172.02 137.811 172.28 137.361 172.53C137.881 171.47 137.581 170.27 136.941 168.77C136.794 169.195 136.677 169.629 136.591 170.07C136.849 170.937 137.04 171.823 137.161 172.72Z" fill="#263238"/>
<path d="M162.711 165.79C161.201 164.79 159.711 163.06 158.711 162.69C160.081 164.57 161.061 165.9 162.481 165.9C161.991 166.15 161.481 166.41 161.041 166.68C159.661 165.79 158.301 164.17 157.391 163.83C158.651 165.56 159.551 166.78 160.851 166.83C160.441 167.06 160.041 167.3 159.641 167.54L159.351 167.72C158.141 166.82 157.061 165.25 156.241 164.86C157.241 166.56 157.951 167.73 159.241 167.77C158.851 168 158.471 168.25 158.091 168.5C156.991 167.67 155.991 166.22 155.241 165.87C156.161 167.42 156.801 168.5 158.031 168.54L156.831 169.35C155.881 168.53 155.061 167.18 154.401 166.82C155.141 168.27 155.661 169.29 156.751 169.41L156.101 169.87L155.741 170.14C154.861 169.39 154.101 168.14 153.491 167.81C154.181 169.15 154.661 170.08 155.661 170.2C155.321 170.45 154.991 170.7 154.661 170.96C153.841 170.34 153.151 169.29 152.581 169.02C153.211 170.16 153.641 170.95 154.581 171.02L154.401 171.16L153.691 171.76C152.951 171.18 152.321 170.23 151.801 169.98C152.371 170.98 152.801 171.74 153.631 171.81C153.361 172.05 153.091 172.31 152.831 172.58C152.822 172.587 152.816 172.595 152.811 172.604C152.806 172.614 152.804 172.624 152.804 172.635C152.804 172.646 152.806 172.656 152.811 172.666C152.816 172.675 152.822 172.683 152.831 172.69C152.846 172.704 152.865 172.712 152.886 172.712C152.906 172.712 152.926 172.704 152.941 172.69C153.176 172.441 153.427 172.208 153.691 171.99C153.441 172.67 153.801 173.36 154.281 174.3C154.199 173.472 154.062 172.65 153.871 171.84C154.081 171.66 154.291 171.5 154.511 171.33L154.661 171.21C154.321 171.98 154.711 172.75 155.261 173.83C155.163 172.912 155.013 172.001 154.811 171.1C155.121 170.86 155.421 170.64 155.741 170.42C155.341 171.28 155.841 172.19 156.541 173.42C156.611 172.74 156.001 171.42 155.871 170.28L156.191 170.05L156.811 169.63C156.411 170.56 156.941 171.54 157.701 172.91C157.771 172.17 157.121 170.76 156.971 169.52L158.061 168.82C157.691 169.77 158.191 170.82 158.881 172.29C159.001 171.51 158.431 170 158.311 168.66L159.201 168.12C158.801 169.12 159.341 170.31 160.101 171.9C160.231 171.05 159.601 169.4 159.481 167.95L159.711 167.82L160.941 167.12C160.481 168.17 160.941 169.51 161.621 171.35C161.841 170.45 161.321 168.54 161.301 166.93C161.771 166.68 162.231 166.44 162.711 166.21C162.031 167.38 162.571 168.89 163.341 171C163.581 170 162.981 167.85 162.991 166.08L163.401 165.88L164.711 165.3C163.931 166.52 164.421 168.2 165.121 170.53C165.441 169.45 164.921 167.09 165.051 165.16C165.531 164.96 166.051 164.78 166.511 164.6C165.571 165.93 166.111 167.78 166.881 170.36C167.241 169.19 166.661 166.59 166.811 164.5L167.261 164.34C167.294 164.33 167.324 164.313 167.35 164.291C167.377 164.268 167.398 164.241 167.413 164.21C167.428 164.179 167.436 164.145 167.438 164.111C167.439 164.076 167.433 164.042 167.421 164.01C167.396 163.947 167.348 163.895 167.287 163.865C167.226 163.836 167.156 163.83 167.091 163.85L166.601 164.03C165.443 163.292 164.334 162.481 163.281 161.6H162.481C163.781 163.15 164.851 164.19 166.181 164.21C165.671 164.4 165.181 164.62 164.671 164.84C162.981 163.84 161.271 162.07 160.181 161.73C161.741 163.63 162.861 164.98 164.331 164.99L163.211 165.51L162.711 165.79Z" fill="#263238"/>
<path d="M150.223 184.49C149.123 183.29 148.353 182.49 147.273 182.62L147.773 182.01L148.053 181.65C149.053 182.14 150.153 183.14 150.833 183.29C149.833 182.19 149.103 181.41 148.103 181.57C148.363 181.24 148.613 180.91 148.863 180.57C149.813 180.95 150.763 181.78 151.383 181.89C150.473 180.96 149.843 180.31 148.893 180.52C148.945 180.461 148.992 180.397 149.033 180.33C149.213 180.08 149.383 179.83 149.553 179.57C150.298 180.014 151.066 180.418 151.853 180.78C151.023 179.93 150.453 179.34 149.603 179.51C149.803 179.2 149.993 178.88 150.163 178.51C150.172 178.49 150.173 178.467 150.166 178.447C150.158 178.426 150.143 178.409 150.123 178.4C150.103 178.391 150.08 178.39 150.06 178.397C150.039 178.405 150.022 178.42 150.013 178.44C149.852 178.741 149.672 179.032 149.473 179.31C149.533 178.59 149.003 178.02 148.283 177.24C148.586 178.019 148.94 178.778 149.343 179.51L148.863 180.17L148.743 180.32C148.873 179.49 148.283 178.85 147.473 177.96C147.808 178.823 148.195 179.665 148.633 180.48L147.923 181.38C148.073 180.43 147.353 179.7 146.333 178.65C146.453 179.33 147.333 180.43 147.823 181.5L147.573 181.81L147.083 182.38C147.223 181.38 146.453 180.58 145.353 179.46C145.483 180.19 146.483 181.38 146.963 182.53L146.103 183.53C146.203 182.53 145.433 181.62 144.373 180.4C144.473 181.19 145.433 182.49 145.903 183.75L145.193 184.51C145.303 183.41 144.463 182.44 143.313 181.11C143.413 181.96 144.453 183.38 144.963 184.74L144.773 184.94C144.453 185.28 144.113 185.61 143.773 185.94C143.943 184.81 143.123 183.65 141.993 182.06C141.993 182.98 142.993 184.68 143.483 186.23C143.103 186.59 142.713 186.95 142.323 187.29C142.663 185.99 141.733 184.68 140.433 182.85C140.433 183.85 141.623 185.79 142.083 187.5L141.733 187.8C141.373 188.11 141.003 188.41 140.633 188.71C141.063 187.32 140.133 185.84 138.843 183.78C138.843 184.9 139.953 187.04 140.343 188.93C139.936 189.25 139.516 189.56 139.083 189.86C139.216 189.391 139.25 188.899 139.185 188.416C139.12 187.932 138.956 187.467 138.703 187.05C138.823 188.24 138.923 189.4 139.003 190.54L139.143 190.44C141.193 190.95 143.513 192.35 144.753 192.38C142.593 190.86 141.033 189.78 139.503 190.18C139.943 189.85 140.373 189.51 140.793 189.18C142.683 189.65 144.793 190.94 145.953 190.97C143.953 189.56 142.503 188.55 141.083 188.97C141.403 188.7 141.713 188.44 142.023 188.16L142.533 187.69C144.253 188.22 146.153 189.53 147.203 189.61C145.383 188.17 144.083 187.15 142.713 187.53C143.113 187.16 143.503 186.78 143.893 186.39C145.463 186.88 147.213 188.08 148.173 188.16C146.493 186.83 145.303 185.89 144.043 186.24C144.373 185.9 144.703 185.57 145.043 185.24L145.273 184.99C146.673 185.54 148.143 186.76 149.033 186.92C147.613 185.56 146.623 184.61 145.333 184.92C145.633 184.59 145.943 184.25 146.233 183.92C147.523 184.43 148.873 185.55 149.693 185.69C148.393 184.44 147.483 183.58 146.293 183.86C146.613 183.5 146.923 183.13 147.223 182.76C148.343 183.24 149.493 184.32 150.223 184.49Z" fill="#263238"/>
<path d="M167.632 183.76C166.912 184.08 165.942 185.37 164.872 186.19L163.942 185.73C165.032 185.52 165.712 184.44 166.652 182.95C165.862 183.29 164.812 184.7 163.652 185.59L163.412 185.46C162.992 185.25 162.582 185.02 162.172 184.8C163.302 184.63 164.172 183.5 165.362 181.95C164.482 182.25 163.162 183.72 161.812 184.6C161.352 184.34 160.902 184.08 160.452 183.8C161.792 183.75 162.782 182.47 164.152 180.69C163.152 181.03 161.682 182.69 160.152 183.63L159.762 183.39L158.582 182.6C160.022 182.6 161.172 181.29 162.762 179.45C161.682 179.75 159.972 181.45 158.282 182.39C157.848 182.09 157.428 181.78 157.022 181.46C158.642 181.54 159.912 180.09 161.682 178.05C160.492 178.37 158.612 180.26 156.762 181.26L156.392 180.96C156.342 180.913 156.275 180.887 156.207 180.887C156.138 180.887 156.072 180.913 156.022 180.96C155.975 181.008 155.949 181.073 155.949 181.14C155.949 181.207 155.975 181.272 156.022 181.32L156.432 181.64C156.552 183.75 155.882 186.38 156.212 187.58C157.032 185.06 157.622 183.25 156.792 181.91C157.232 182.23 157.682 182.54 158.132 182.84C158.232 184.84 157.622 187.2 157.932 188.3C158.692 185.97 159.232 184.3 158.442 183.05L159.442 183.71L160.042 184.07C160.042 185.86 159.342 188.07 159.562 189.07C160.412 186.91 161.012 185.37 160.252 184.18C160.722 184.45 161.252 184.71 161.682 184.97C161.682 186.62 161.042 188.63 161.242 189.58C162.022 187.58 162.572 186.17 161.872 185.07L163.132 185.71L163.432 185.86C163.322 187.35 162.582 189.12 162.692 190.01C163.582 188.26 164.192 187.01 163.512 185.89L164.742 186.46C164.632 187.84 163.952 189.46 164.062 190.29C164.872 188.67 165.432 187.55 164.812 186.5C165.252 186.7 165.692 186.89 166.142 187.07C165.962 188.31 165.262 189.73 165.312 190.48C166.142 189.07 166.712 188.09 166.232 187.11L166.972 187.41L167.392 187.57C167.232 188.72 166.592 190.02 166.632 190.71C167.392 189.42 167.922 188.51 167.482 187.6C167.872 187.75 168.262 187.9 168.662 188.03C168.582 189.03 168.062 190.2 168.142 190.83C168.762 189.69 169.142 188.89 168.722 188.05L168.942 188.13C169.232 188.22 169.522 188.32 169.822 188.4C169.618 189.241 169.457 190.092 169.342 190.95C169.902 189.95 170.342 189.19 169.892 188.42C170.245 188.531 170.606 188.618 170.972 188.68C170.991 188.683 171.012 188.679 171.028 188.668C171.045 188.656 171.057 188.639 171.062 188.62C171.065 188.599 171.061 188.577 171.05 188.559C171.039 188.541 171.022 188.527 171.002 188.52C170.662 188.45 170.332 188.36 170.002 188.26C170.702 188.1 171.092 187.44 171.622 186.52C171.122 186.74 170.492 187.63 169.772 188.19L169.002 187.93L168.822 187.86C169.652 187.74 170.092 186.99 170.702 185.95C170.132 186.2 169.442 187.19 168.632 187.79C168.282 187.66 167.922 187.53 167.572 187.38C168.512 187.25 169.012 186.38 169.702 185.07C169.092 185.38 168.312 186.59 167.422 187.32L167.052 187.17L166.362 186.87C167.362 186.72 167.902 185.74 168.652 184.37C167.992 184.7 167.152 186 166.192 186.8C165.792 186.63 165.402 186.45 165.012 186.26C166.142 186.12 166.772 185.13 167.632 183.76Z" fill="#263238"/>
<path d="M161.86 197.09C162.628 197.484 163.415 197.838 164.22 198.15C163.35 197.36 162.73 196.81 161.9 197.02C162.08 196.7 162.25 196.38 162.4 196.02C162.404 196.01 162.407 196 162.408 195.989C162.408 195.978 162.406 195.967 162.403 195.957C162.399 195.947 162.393 195.937 162.386 195.929C162.379 195.921 162.37 195.915 162.36 195.91C162.35 195.905 162.339 195.903 162.328 195.902C162.318 195.902 162.307 195.904 162.297 195.907C162.286 195.911 162.277 195.917 162.269 195.924C162.261 195.931 162.254 195.94 162.25 195.95C162.1 196.26 161.94 196.56 161.77 196.86C161.77 196.14 161.21 195.6 160.45 194.86C160.798 195.615 161.196 196.347 161.64 197.05L161.21 197.74L161.1 197.9C161.17 197.06 160.55 196.46 159.68 195.63C160.07 196.464 160.507 197.276 160.99 198.06L160.35 199.01C160.44 198.06 159.67 197.36 158.59 196.39C158.75 197.06 159.75 198.1 160.25 199.14L160.02 199.46C159.88 199.66 159.72 199.86 159.57 200.06C159.65 199.06 158.83 198.3 157.66 197.26C157.84 197.98 158.91 199.1 159.46 200.26C159.2 200.61 158.93 200.95 158.66 201.26C158.66 200.26 157.88 199.4 156.74 198.26C156.89 199.03 157.93 200.26 158.47 201.5C158.257 201.773 158.037 202.043 157.81 202.31C157.81 201.2 156.96 200.31 155.73 199.03C155.88 199.87 157.01 201.22 157.61 202.55L157.43 202.76C157.12 203.12 156.81 203.47 156.49 203.81C156.59 202.68 155.69 201.56 154.49 200.05C154.57 200.97 155.7 202.6 156.24 204.12C155.88 204.5 155.52 204.88 155.15 205.25C155.4 203.94 154.39 202.68 152.98 200.94C153.08 201.94 154.36 203.8 154.92 205.48L154.6 205.8L153.55 206.8C153.89 205.39 152.87 203.97 151.46 202C151.46 203.12 152.77 205.19 153.28 207C152.89 207.35 152.49 207.69 152.08 208C152.53 206.44 151.42 204.87 149.84 202.68C149.84 203.91 151.28 206.17 151.84 208.2L151.46 208.5C151.433 208.521 151.41 208.547 151.394 208.577C151.377 208.607 151.366 208.639 151.362 208.673C151.358 208.707 151.36 208.742 151.369 208.774C151.378 208.807 151.394 208.838 151.415 208.865C151.436 208.892 151.462 208.914 151.492 208.931C151.521 208.948 151.554 208.959 151.588 208.963C151.622 208.967 151.656 208.965 151.689 208.956C151.722 208.947 151.753 208.931 151.78 208.91L152.18 208.58C154.26 208.95 156.67 210.21 157.91 210.16C155.65 208.78 154.03 207.79 152.53 208.29C152.94 207.94 153.35 207.57 153.75 207.2C155.66 207.55 157.87 208.7 159.01 208.66C156.92 207.38 155.41 206.47 154.01 206.95C154.31 206.66 154.61 206.38 154.9 206.08L155.39 205.58C157.13 206 159.11 207.18 160.16 207.2C158.25 205.88 156.9 204.94 155.55 205.41C155.93 205.01 156.29 204.61 156.65 204.2C158.26 204.58 160.07 205.67 161.04 205.69C159.28 204.47 158.04 203.61 156.8 204.03C157.11 203.68 157.41 203.32 157.71 202.96L157.92 202.69C159.36 203.15 160.92 204.28 161.8 204.38C160.29 203.11 159.25 202.23 157.98 202.63L158.82 201.57C160.14 201.99 161.55 203.02 162.38 203.11C161 201.95 160.04 201.11 158.87 201.5C159.16 201.12 159.45 200.73 159.73 200.34C160.9 200.8 162.12 201.81 162.86 201.93C161.68 200.81 160.86 200.02 159.79 200.26C159.95 200.05 160.1 199.83 160.25 199.62C160.4 199.41 160.42 199.36 160.51 199.24C161.58 199.66 162.7 200.59 163.39 200.7C162.3 199.7 161.54 198.94 160.56 199.16C160.8 198.813 161.03 198.463 161.25 198.11C162.25 198.43 163.25 199.2 163.85 199.27C162.85 198.4 162.21 197.79 161.28 198.06L161.41 197.86L161.86 197.09Z" fill="#263238"/>
<path d="M167.92 208.25C168.133 207.977 168.353 207.717 168.58 207.47C168.43 208.17 168.86 208.81 169.46 209.69C169.27 208.877 169.033 208.076 168.75 207.29L169.32 206.71L169.45 206.57C169.21 207.38 169.69 208.1 170.37 209.09C170.16 208.193 169.9 207.308 169.59 206.44L170.42 205.65C170.14 206.56 170.74 207.4 171.6 208.58C171.6 207.89 170.82 206.66 170.54 205.58L170.84 205.32L171.4 204.82C171.11 205.82 171.76 206.7 172.68 207.97C172.68 207.22 171.85 205.9 171.54 204.7C171.87 204.41 172.2 204.14 172.54 203.86C172.29 204.86 172.92 205.86 173.78 207.21C173.78 206.42 173.05 204.98 172.78 203.67L173.6 203.03C173.32 204.1 174.01 205.18 174.95 206.67C174.95 205.81 174.15 204.25 173.85 202.83L174.07 202.66L175.2 201.83C174.87 202.92 175.51 204.19 176.4 205.93C176.5 205.01 175.75 203.18 175.54 201.59C175.97 201.29 176.4 200.99 176.84 200.7C176.31 201.94 177.04 203.38 178.06 205.38C178.18 204.38 177.31 202.29 177.06 200.53L177.44 200.29C177.85 200.04 178.26 199.79 178.67 199.56C178.04 200.86 178.74 202.46 179.67 204.69C179.86 203.58 179.06 201.3 178.95 199.38C179.4 199.12 179.86 198.87 180.33 198.64C179.56 200.07 180.33 201.84 181.41 204.31C181.62 203.1 180.73 200.59 180.62 198.5L181.04 198.29C181.071 198.276 181.098 198.256 181.121 198.231C181.144 198.207 181.161 198.177 181.172 198.146C181.183 198.114 181.188 198.08 181.186 198.047C181.184 198.013 181.175 197.98 181.16 197.95C181.145 197.919 181.124 197.891 181.098 197.868C181.072 197.846 181.042 197.828 181.01 197.817C180.977 197.806 180.943 197.801 180.909 197.803C180.874 197.806 180.841 197.815 180.81 197.83L180.35 198.07C178.4 197.27 176.3 195.53 175.08 195.32C177 197.14 178.38 198.45 179.95 198.32C179.47 198.57 179 198.85 178.53 199.12C176.73 198.38 174.81 196.79 173.69 196.6C175.47 198.29 176.75 199.49 178.21 199.32L177.16 199.98L176.58 200.37C174.96 199.59 173.27 198.02 172.25 197.78C173.84 199.48 174.97 200.68 176.38 200.5C175.93 200.81 175.49 201.13 175.05 201.5C173.56 200.79 172.05 199.35 171.05 199.13C172.52 200.69 173.56 201.79 174.85 201.64C174.48 201.92 174.1 202.2 173.74 202.49L173.47 202.71C172.17 201.96 170.9 200.53 170.04 200.25C171.24 201.81 172.04 202.88 173.41 202.76L172.36 203.62C171.16 202.94 169.99 201.62 169.2 201.36C170.31 202.79 171.08 203.78 172.3 203.68C171.93 203.99 171.57 204.3 171.21 204.68C170.21 203.98 169.21 202.74 168.49 202.47C169.4 203.82 170.05 204.76 171.14 204.75L170.55 205.28L170.22 205.6C169.22 204.95 168.36 203.81 167.71 203.6C168.56 204.84 169.15 205.71 170.16 205.7C169.85 205.99 169.55 206.28 169.26 206.58C168.38 206.07 167.56 205.11 166.96 204.91C167.72 205.91 168.25 206.69 169.22 206.63L169.06 206.79C168.85 207.01 168.63 207.24 168.43 207.47C167.62 206.99 166.88 206.12 166.34 205.94C167.03 206.89 167.51 207.56 168.34 207.53C168.09 207.8 167.857 208.084 167.64 208.38C167.631 208.388 167.625 208.397 167.62 208.407C167.615 208.417 167.613 208.429 167.613 208.44C167.613 208.451 167.615 208.463 167.62 208.473C167.625 208.483 167.631 208.493 167.64 208.5C167.646 208.508 167.655 208.515 167.664 208.52C167.674 208.524 167.684 208.527 167.695 208.527C167.705 208.527 167.716 208.524 167.725 208.52C167.735 208.515 167.743 208.508 167.75 208.5L167.92 208.25Z" fill="#263238"/>
<path d="M156.202 222.5C156.602 222.127 156.992 221.747 157.372 221.36C158.952 221.85 160.692 223.05 161.662 223.13C159.982 221.8 158.792 220.86 157.532 221.2C157.862 220.87 158.192 220.53 158.532 220.2L158.762 219.95C160.162 220.5 161.622 221.72 162.522 221.88C161.102 220.51 160.112 219.57 158.812 219.88C159.122 219.55 159.422 219.21 159.722 218.88C161.012 219.39 162.362 220.51 163.182 220.65C161.872 219.4 160.962 218.53 159.782 218.82L160.712 217.72C161.852 218.25 163.002 219.33 163.712 219.5C162.612 218.31 161.832 217.5 160.712 217.64L161.212 217.03L161.492 216.67C162.542 217.16 163.602 218.15 164.282 218.31C163.282 217.2 162.552 216.43 161.552 216.59C161.812 216.26 162.062 215.93 162.302 215.59C163.302 215.97 164.202 216.8 164.822 216.91C163.922 215.98 163.292 215.33 162.342 215.54L162.482 215.35C162.652 215.1 162.832 214.85 163.002 214.59C163.745 215.029 164.509 215.429 165.292 215.79C164.472 214.95 163.892 214.36 163.042 214.52C163.246 214.214 163.433 213.897 163.602 213.57C163.607 213.561 163.611 213.551 163.612 213.54C163.614 213.53 163.613 213.519 163.61 213.509C163.607 213.499 163.602 213.489 163.596 213.481C163.589 213.472 163.581 213.465 163.572 213.46C163.563 213.455 163.553 213.451 163.542 213.45C163.532 213.449 163.521 213.449 163.511 213.452C163.501 213.455 163.491 213.46 163.483 213.466C163.474 213.473 163.467 213.481 163.462 213.49C163.296 213.79 163.116 214.08 162.922 214.36C162.922 213.64 162.452 213.07 161.732 212.29C162.021 213.066 162.355 213.823 162.732 214.56L162.262 215.22L162.142 215.37C162.272 214.54 161.682 213.9 160.862 213.01C161.204 213.867 161.591 214.705 162.022 215.52C161.792 215.83 161.562 216.13 161.322 216.42C161.472 215.48 160.752 214.74 159.732 213.7C159.852 214.38 160.782 215.48 161.222 216.55C161.132 216.65 161.052 216.76 160.972 216.86L160.482 217.43C160.622 216.43 159.852 215.63 158.752 214.51C158.882 215.24 159.882 216.42 160.362 217.58L159.502 218.58C159.602 217.58 158.832 216.67 157.772 215.45C157.862 216.23 158.772 217.54 159.292 218.8L158.582 219.56C158.692 218.45 157.862 217.49 156.712 216.16C156.812 217.01 157.852 218.43 158.362 219.79L158.172 219.99L157.172 220.99C157.342 219.86 156.512 218.69 155.382 217.11C155.382 218.03 156.432 219.73 156.872 221.28L155.722 222.34C156.052 221.04 155.132 219.73 153.822 217.9C153.822 218.9 155.022 220.84 155.482 222.55L155.132 222.85C154.772 223.16 154.402 223.46 154.032 223.75C154.462 222.37 153.532 220.89 152.242 218.83C152.242 219.94 153.322 222.04 153.722 223.91H154.492C154.802 223.65 155.112 223.39 155.412 223.12C155.712 222.85 155.762 222.81 155.932 222.65C157.114 223.096 158.27 223.61 159.392 224.19H160.152C158.652 223 157.452 222.15 156.202 222.5Z" fill="#263238"/>
<path d="M150.672 219.42C150.672 220.42 151.422 222.06 151.952 223.73L152.712 223.79C152.622 222.55 151.772 221.18 150.672 219.42Z" fill="#263238"/>
<path d="M154.641 223.93L156.151 224.02C155.666 223.847 155.142 223.816 154.641 223.93Z" fill="#263238"/>
<path d="M183.742 221.83C183.773 221.772 183.799 221.712 183.822 221.65L183.462 221.52L183.282 221.46C183.564 221.413 183.827 221.288 184.042 221.1C184.132 220.84 184.222 220.56 184.302 220.25C183.928 220.66 183.523 221.041 183.092 221.39L182.002 221C182.942 220.86 183.442 220 184.132 218.68C183.522 218.99 182.742 220.2 181.852 220.94L181.482 220.79L180.792 220.49C181.792 220.33 182.332 219.36 183.082 217.98C182.422 218.32 181.582 219.62 180.622 220.42L179.442 219.88C180.442 219.67 181.062 218.68 181.922 217.31C181.202 217.63 180.232 218.93 179.162 219.75L178.232 219.29C179.322 219.07 180.002 217.99 180.942 216.5C180.152 216.85 179.102 218.26 177.942 219.14L177.702 219.02L176.462 218.35C177.592 218.18 178.462 217.05 179.652 215.51C178.772 215.81 177.452 217.28 176.102 218.15C175.642 217.9 175.192 217.63 174.742 217.36C176.082 217.3 177.072 216.03 178.442 214.25C177.442 214.58 175.972 216.25 174.442 217.19L174.052 216.95C173.652 216.69 173.262 216.43 172.872 216.15C174.312 216.15 175.462 214.84 177.052 213.01C175.972 213.31 174.262 215.01 172.572 215.95L171.302 215.01C172.932 215.09 174.202 213.64 175.972 211.6C174.782 211.93 172.902 213.81 171.052 214.81L170.682 214.52C170.655 214.499 170.624 214.484 170.591 214.474C170.558 214.465 170.524 214.463 170.49 214.467C170.421 214.475 170.359 214.511 170.317 214.565C170.274 214.619 170.255 214.688 170.264 214.757C170.272 214.825 170.307 214.888 170.362 214.93L170.772 215.24C170.892 217.35 170.222 219.99 170.552 221.18C171.372 218.67 171.962 216.86 171.132 215.51C171.572 215.84 172.022 216.15 172.472 216.45C172.572 218.39 171.962 220.81 172.272 221.91C173.032 219.57 173.572 217.91 172.782 216.66C173.132 216.88 173.472 217.11 173.782 217.32L174.382 217.68C174.382 219.47 173.682 221.68 173.902 222.68C174.752 220.51 175.352 218.98 174.592 217.78C175.062 218.06 175.592 218.32 176.022 218.57C176.022 220.22 175.382 222.24 175.582 223.18C176.362 221.18 176.912 219.78 176.212 218.68L177.472 219.31L177.772 219.46C177.662 220.96 176.922 222.72 177.032 223.62C177.922 221.86 178.532 220.62 177.852 219.5L179.082 220.07C178.982 221.41 178.342 222.96 178.392 223.81H178.442C179.232 222.25 179.762 221.15 179.152 220.11L180.482 220.69C180.332 221.69 179.852 222.81 179.702 223.6L179.972 223.55C180.612 222.43 180.972 221.55 180.572 220.73L181.302 221.02L181.732 221.19C181.594 221.896 181.406 222.591 181.172 223.27L181.632 223.13C181.815 222.851 181.928 222.531 181.962 222.198C181.995 221.866 181.947 221.53 181.822 221.22L183.002 221.65C182.967 221.988 182.903 222.323 182.812 222.65C182.964 222.574 183.111 222.487 183.252 222.39C183.256 222.134 183.191 221.881 183.062 221.66L183.282 221.73L183.742 221.83Z" fill="#263238"/>
<path d="M145.261 201C145.326 200.979 145.381 200.935 145.414 200.875C145.447 200.816 145.457 200.746 145.441 200.68C145.423 200.614 145.378 200.558 145.318 200.524C145.258 200.49 145.188 200.482 145.121 200.5L144.621 200.65C142.851 199.5 141.121 197.4 139.961 196.96C141.501 199.11 142.611 200.65 144.191 200.78C143.671 200.94 143.191 201.12 142.641 201.31C141.441 200.52 140.261 199.31 139.291 198.51C139.291 198.74 139.291 198.96 139.291 199.19C140.291 200.49 141.161 201.36 142.291 201.44C141.901 201.58 141.521 201.73 141.141 201.89L140.491 202.16C140.064 201.838 139.66 201.487 139.281 201.11C139.281 201.39 139.281 201.66 139.281 201.94C139.586 202.121 139.928 202.23 140.281 202.26L139.281 202.73C139.281 202.87 139.281 203.01 139.281 203.15L140.631 202.57C139.881 203.69 140.331 205.24 140.951 207.39C141.261 206.39 140.791 204.22 140.951 202.45L141.371 202.28L142.711 201.79C141.851 202.96 142.231 204.67 142.781 207.03C143.171 205.98 142.781 203.59 143.051 201.68C143.551 201.51 144.051 201.35 144.551 201.21C143.551 202.48 143.951 204.35 144.551 206.99C144.981 205.84 144.551 203.21 144.861 201.13L145.261 201Z" fill="#263238"/>
<path d="M139.082 207.23C139.082 207.35 139.142 207.46 139.182 207.59C139.31 206.721 139.31 205.839 139.182 204.97C139.152 205.74 139.122 206.5 139.082 207.23Z" fill="#263238"/>
<path d="M142.622 221.86L142.252 221.27C143.062 219.67 144.682 218.02 144.942 217C143.202 218.55 141.942 219.65 142.122 221.06C141.822 220.6 141.512 220.16 141.202 219.71C141.952 218.24 143.432 216.71 143.682 215.8C142.082 217.22 140.952 218.23 141.072 219.53L140.242 218.39L140.042 218.12C140.812 216.84 142.272 215.6 142.582 214.75C140.992 215.91 139.892 216.75 139.992 218.06L139.152 216.99C139.872 215.81 141.212 214.67 141.492 213.89C140.032 214.96 139.022 215.7 139.102 216.89L138.482 216.15V216.57L138.842 217.01C138.717 216.98 138.59 216.96 138.462 216.95C138.462 217.1 138.462 217.24 138.462 217.39L139.042 217.25L139.672 218.09C139.267 217.971 138.837 217.971 138.432 218.09V218.71C138.908 218.543 139.396 218.412 139.892 218.32L140.052 218.53L140.862 219.69C140.035 219.51 139.171 219.627 138.422 220.02C138.422 220.2 138.422 220.39 138.422 220.57C139.305 220.342 140.2 220.162 141.102 220.03C141.392 220.47 141.672 220.91 141.942 221.36C140.992 220.92 139.942 221.25 138.492 221.87C138.492 222 138.492 222.15 138.492 222.27H138.712C139.822 221.985 140.947 221.762 142.082 221.6L142.322 221.99L142.752 222.76L143.312 222.83C143.052 222.56 142.842 222.21 142.622 221.86Z" fill="#263238"/>
<path d="M138.711 212.78V213.25C138.992 212.987 139.229 212.68 139.411 212.34L138.711 212.78Z" fill="#263238"/>
<path d="M144.59 223.06L145.48 223.16C146.23 222.162 146.839 221.065 147.29 219.9C146.25 220.825 145.341 221.888 144.59 223.06Z" fill="#263238"/>
<path d="M143.582 223C144.412 221.31 145.882 219.57 146.092 218.51C144.352 220.25 143.092 221.51 143.252 222.96L143.582 223Z" fill="#263238"/>
<path d="M138.581 214.57C138.581 214.84 138.581 215.1 138.531 215.36C139.241 214.687 139.883 213.946 140.451 213.15C139.768 213.538 139.139 214.016 138.581 214.57Z" fill="#263238"/>
</g>
<path d="M208 190.12L212.42 185.43L218.55 194.06C218.55 194.06 213.38 197.72 208.43 197.58L207.86 196.31C207.402 195.338 207.177 194.273 207.201 193.199C207.225 192.124 207.499 191.071 208 190.12Z" fill="#FFB573"/>
<path d="M219.551 185.89L221.281 189.14C221.66 189.854 221.742 190.689 221.508 191.463C221.274 192.237 220.743 192.886 220.031 193.27L218.591 194.06L212.461 185.43L215.971 184.43C216.645 184.224 217.369 184.257 218.021 184.523C218.673 184.789 219.213 185.272 219.551 185.89Z" fill="#FFB573"/>
<path d="M184.681 173.29L185.061 175.2L185.481 177.2C185.781 178.55 186.071 179.91 186.411 181.2C187.061 183.88 187.841 186.51 188.671 189.05C189.499 191.489 190.502 193.865 191.671 196.16C192.606 198.047 193.842 199.77 195.331 201.26L193.211 200.26C192.591 200.18 192.471 200.37 192.801 200.36C193.327 200.304 193.838 200.155 194.311 199.92C195.81 199.232 197.237 198.398 198.571 197.43C200.061 196.43 201.571 195.25 203.061 194.04C204.551 192.83 206.061 191.54 207.521 190.35L207.681 190.23C208.307 189.719 209.09 189.439 209.898 189.436C210.707 189.434 211.491 189.71 212.12 190.218C212.748 190.726 213.183 191.435 213.351 192.226C213.519 193.016 213.409 193.841 213.041 194.56C212.037 196.476 210.919 198.329 209.691 200.11C208.441 201.914 207.078 203.637 205.611 205.27C204.011 207.072 202.201 208.677 200.221 210.05C198.98 210.887 197.636 211.56 196.221 212.05C195.309 212.368 194.363 212.576 193.401 212.67C192.208 212.776 191.006 212.688 189.841 212.41C189.16 212.246 188.518 211.951 187.951 211.54L187.711 211.36C184.64 209.06 182.053 206.174 180.101 202.87C179.188 201.383 178.368 199.883 177.641 198.37C176.915 196.857 176.248 195.343 175.641 193.83C174.484 190.843 173.502 187.791 172.701 184.69C172.311 183.15 171.941 181.62 171.631 180.07C171.481 179.29 171.321 178.52 171.191 177.73C171.061 176.94 170.941 176.2 170.811 175.26C170.58 173.463 171.054 171.647 172.134 170.193C173.214 168.738 174.816 167.759 176.603 167.462C178.39 167.164 180.223 167.57 181.716 168.596C183.21 169.621 184.247 171.185 184.611 172.96L184.681 173.29Z" fill="#FFB573"/>
<path d="M175.089 162.79C180.909 163.39 185.559 167.25 188.809 179.54C186.309 183 170.559 190.59 170.559 190.59C170.559 190.59 161.789 161.42 175.089 162.79Z" fill="#263238"/>
<path d="M288.213 160.981C288.213 161.152 288.276 161.276 288.403 161.353C288.529 161.446 288.799 161.542 289.211 161.641C289.645 161.746 289.962 161.889 290.16 162.07C290.363 162.252 290.465 162.513 290.465 162.854C290.465 163.211 290.33 163.5 290.061 163.72C289.797 163.94 289.45 164.049 289.021 164.049C288.4 164.049 287.839 163.83 287.339 163.39L287.768 162.878C288.186 163.236 288.609 163.414 289.038 163.414C289.252 163.414 289.426 163.368 289.557 163.274C289.689 163.175 289.755 163.049 289.755 162.895C289.755 162.741 289.695 162.62 289.574 162.532C289.459 162.444 289.25 162.364 288.947 162.293C288.425 162.172 288.062 162.029 287.859 161.864C287.622 161.682 287.504 161.405 287.504 161.031C287.504 160.668 287.636 160.385 287.9 160.181C288.164 159.973 288.502 159.868 288.914 159.868C289.47 159.868 289.945 160.03 290.341 160.355L289.978 160.866C289.857 160.756 289.695 160.668 289.492 160.602C289.288 160.531 289.087 160.495 288.889 160.495C288.686 160.495 288.521 160.539 288.395 160.627C288.274 160.709 288.213 160.827 288.213 160.981ZM291.858 161.452V163.01C291.858 163.159 291.897 163.277 291.974 163.365C292.056 163.447 292.166 163.489 292.304 163.489C292.43 163.489 292.562 163.42 292.7 163.282L292.964 163.744C292.733 163.948 292.483 164.049 292.213 164.049C291.933 164.049 291.696 163.953 291.504 163.761C291.311 163.563 291.215 163.307 291.215 162.994V161.452H290.828V160.932H291.215V159.967H291.858V160.932H292.667V161.452H291.858ZM295.811 164H295.226V163.588C294.967 163.896 294.626 164.049 294.203 164.049C293.879 164.049 293.612 163.959 293.403 163.777C293.2 163.59 293.098 163.348 293.098 163.052C293.098 162.755 293.208 162.529 293.428 162.375C293.648 162.221 293.95 162.144 294.335 162.144H295.176V162.029C295.176 161.622 294.948 161.419 294.492 161.419C294.206 161.419 293.909 161.523 293.601 161.732L293.312 161.328C293.692 161.031 294.115 160.882 294.582 160.882C294.962 160.882 295.261 160.979 295.481 161.171C295.701 161.358 295.811 161.641 295.811 162.021V164ZM295.168 162.598H294.442C293.975 162.598 293.741 162.744 293.741 163.035C293.741 163.184 293.799 163.299 293.914 163.381C294.03 163.458 294.192 163.497 294.401 163.497C294.615 163.497 294.797 163.439 294.945 163.324C295.094 163.203 295.168 163.046 295.168 162.854V162.598ZM297.359 161.452V163.01C297.359 163.159 297.398 163.277 297.475 163.365C297.557 163.447 297.667 163.489 297.805 163.489C297.931 163.489 298.063 163.42 298.2 163.282L298.464 163.744C298.233 163.948 297.983 164.049 297.714 164.049C297.433 164.049 297.197 163.953 297.005 163.761C296.812 163.563 296.716 163.307 296.716 162.994V161.452H296.328V160.932H296.716V159.967H297.359V160.932H298.167V161.452H297.359ZM301.683 162.746H299.275C299.291 162.966 299.393 163.145 299.58 163.282C299.767 163.42 299.984 163.489 300.232 163.489C300.622 163.489 300.913 163.368 301.106 163.126L301.477 163.53C301.147 163.876 300.715 164.049 300.182 164.049C299.742 164.049 299.374 163.904 299.077 163.612C298.78 163.321 298.632 162.936 298.632 162.458C298.632 161.99 298.783 161.611 299.085 161.32C299.388 161.028 299.753 160.882 300.182 160.882C300.611 160.882 300.968 161.012 301.254 161.27C301.54 161.529 301.683 161.872 301.683 162.301V162.746ZM301.04 162.235C301.04 161.988 300.96 161.792 300.801 161.649C300.647 161.507 300.446 161.435 300.199 161.435C299.951 161.435 299.734 161.509 299.547 161.658C299.366 161.806 299.275 161.999 299.275 162.235H301.04ZM302.891 164H302.248V160.932H302.891V161.485C302.985 161.298 303.125 161.152 303.312 161.047C303.499 160.937 303.699 160.882 303.914 160.882C304.403 160.882 304.733 161.083 304.903 161.485C305.206 161.083 305.585 160.882 306.042 160.882C306.393 160.882 306.674 160.99 306.883 161.204C307.092 161.419 307.196 161.724 307.196 162.12V164H306.553V162.318C306.553 161.751 306.317 161.468 305.844 161.468C305.613 161.468 305.418 161.542 305.258 161.691C305.104 161.834 305.024 162.034 305.019 162.293V164H304.367V162.318C304.367 162.026 304.315 161.812 304.211 161.674C304.106 161.537 303.944 161.468 303.724 161.468C303.488 161.468 303.29 161.545 303.13 161.699C302.971 161.847 302.891 162.059 302.891 162.334V164ZM310.809 162.746H308.401C308.417 162.966 308.519 163.145 308.706 163.282C308.893 163.42 309.11 163.489 309.357 163.489C309.748 163.489 310.039 163.368 310.231 163.126L310.603 163.53C310.273 163.876 309.841 164.049 309.308 164.049C308.868 164.049 308.499 163.904 308.203 163.612C307.906 163.321 307.757 162.936 307.757 162.458C307.757 161.99 307.908 161.611 308.211 161.32C308.513 161.028 308.879 160.882 309.308 160.882C309.737 160.882 310.094 161.012 310.38 161.27C310.666 161.529 310.809 161.872 310.809 162.301V162.746ZM310.165 162.235C310.165 161.988 310.086 161.792 309.926 161.649C309.772 161.507 309.572 161.435 309.324 161.435C309.077 161.435 308.86 161.509 308.673 161.658C308.491 161.806 308.401 161.999 308.401 162.235H310.165ZM312.017 164H311.373V160.932H312.017V161.485C312.121 161.298 312.264 161.152 312.446 161.047C312.633 160.937 312.831 160.882 313.039 160.882C313.397 160.882 313.68 160.99 313.889 161.204C314.098 161.419 314.202 161.724 314.202 162.12V164H313.551V162.318C313.551 161.751 313.317 161.468 312.85 161.468C312.613 161.468 312.415 161.545 312.256 161.699C312.097 161.847 312.017 162.059 312.017 162.334V164ZM315.74 161.452V163.01C315.74 163.159 315.778 163.277 315.855 163.365C315.938 163.447 316.048 163.489 316.185 163.489C316.312 163.489 316.444 163.42 316.581 163.282L316.845 163.744C316.614 163.948 316.364 164.049 316.094 164.049C315.814 164.049 315.578 163.953 315.385 163.761C315.193 163.563 315.096 163.307 315.096 162.994V161.452H314.709V160.932H315.096V159.967H315.74V160.932H316.548V161.452H315.74Z" fill="#222222"/>
</g>
<defs>
<clipPath id="clip0_2619_17020">
<rect width="500" height="500" fill="white"/>
</clipPath>
</defs>
</svg>
