<svg width="20" height="20" viewBox="0 0 20 20" fill="none" xmlns="http://www.w3.org/2000/svg">
<g id="bell" clip-path="url(#clip0_1245_1589)">
<path id="Vector" d="M18.7946 11.3851L17.2113 5.6884C16.7472 4.01951 15.7385 2.55364 14.3457 1.52379C12.9529 0.493945 11.2558 -0.0407771 9.52415 0.00462298C7.79253 0.0500231 6.12577 0.67294 4.78882 1.77436C3.45186 2.87578 2.52143 4.39249 2.14543 6.0834L0.919597 11.5959C0.784194 12.205 0.787324 12.8368 0.928758 13.4445C1.07019 14.0522 1.34632 14.6205 1.73675 15.1072C2.12718 15.5939 2.62195 15.9868 3.18452 16.2567C3.7471 16.5266 4.36312 16.6668 4.9871 16.6667H5.91543C6.10669 17.6086 6.61771 18.4555 7.36188 19.0637C8.10606 19.672 9.03763 20.0042 9.99876 20.0042C10.9599 20.0042 11.8915 19.672 12.6356 19.0637C13.3798 18.4555 13.8908 17.6086 14.0821 16.6667H14.7804C15.4228 16.6668 16.0564 16.5183 16.6319 16.2329C17.2074 15.9476 17.7091 15.533 18.0978 15.0216C18.4865 14.5103 18.7517 13.9159 18.8728 13.2851C18.9938 12.6543 18.9665 12.004 18.7946 11.3851ZM9.99876 18.3334C9.48355 18.3313 8.98157 18.17 8.56151 17.8717C8.14146 17.5733 7.82383 17.1525 7.6521 16.6667H12.3454C12.1737 17.1525 11.8561 17.5733 11.436 17.8717C11.016 18.17 10.514 18.3313 9.99876 18.3334ZM16.7704 14.0126C16.5382 14.3206 16.2374 14.5703 15.8918 14.7417C15.5462 14.9131 15.1654 15.0016 14.7796 15.0001H4.9871C4.61275 15 4.2432 14.9159 3.90571 14.7539C3.56823 14.5919 3.27144 14.3562 3.03723 14.0641C2.80303 13.7721 2.6374 13.4312 2.55257 13.0666C2.46773 12.702 2.46586 12.323 2.5471 11.9576L3.7721 6.44423C4.06739 5.11607 4.79819 3.92474 5.84831 3.05961C6.89843 2.19448 8.20762 1.70521 9.56774 1.66958C10.9279 1.63395 12.2609 2.054 13.3549 2.86296C14.4488 3.67192 15.241 4.82336 15.6054 6.13423L17.1888 11.8309C17.2934 12.202 17.31 12.5925 17.2374 12.9712C17.1648 13.3499 17.0049 13.7064 16.7704 14.0126Z" fill="#0166E4"/>
</g>
<defs>
<clipPath id="clip0_1245_1589">
<rect width="20" height="20" fill="white"/>
</clipPath>
</defs>
</svg>
