<svg width="16" height="16" viewBox="0 0 24 24" fill="none" xmlns="http://www.w3.org/2000/svg">
<g clipPath="url(#clip0_1224_929)">
<path d="M8.50003 9.49997C8.50003 10.051 8.62803 10.573 8.85603 11.037C8.36603 11.665 8.06103 12.444 8.02003 13.293C7.07903 12.305 6.50003 10.969 6.50003 9.50097C6.50003 6.08997 9.62203 3.39397 13.159 4.11997C15.241 4.54797 16.928 6.22497 17.372 8.30397C17.506 8.93197 17.531 9.54697 17.463 10.135C17.405 10.633 16.968 11.001 16.466 11.001H16.421C15.829 11.001 15.413 10.474 15.478 9.88597C15.522 9.49097 15.499 9.07597 15.398 8.65297C15.1 7.39997 14.078 6.38497 12.823 6.09597C10.537 5.57097 8.49903 7.30297 8.49903 9.50097L8.50003 9.49997ZM4.61003 8.20497C4.88403 6.61197 5.66303 5.15997 6.87103 4.02697C8.40003 2.59397 10.402 1.88597 12.501 2.01597C16.454 2.27197 19.545 5.73497 19.499 9.88097C19.48 11.617 18.026 12.999 16.291 12.999H13.885C13.641 12.17 12.883 11.56 11.975 11.56C10.87 11.56 9.97503 12.455 9.97503 13.56C9.97503 14.665 10.87 15.56 11.975 15.56C12.513 15.56 13 15.345 13.359 14.999H16.291C19.11 14.999 21.459 12.754 21.499 9.93597C21.573 4.71497 17.651 0.344971 12.63 0.0209707C9.96603 -0.152029 7.43903 0.752971 5.50403 2.56897C4.00503 3.97397 3.00803 5.83397 2.64903 7.83497C2.54003 8.44297 3.02103 9.00097 3.63803 9.00097C4.11003 9.00097 4.53103 8.67197 4.61003 8.20597V8.20497ZM12 17C8.30503 17 5.10803 19.292 4.04503 22.702C3.88003 23.229 4.17503 23.79 4.70203 23.955C5.22803 24.114 5.78903 23.824 5.95403 23.298C6.74303 20.768 9.22803 19 11.999 19C14.77 19 17.256 20.768 18.044 23.298C18.178 23.726 18.572 24 18.999 24C19.098 24 19.197 23.985 19.297 23.955C19.824 23.79 20.118 23.229 19.954 22.702C18.891 19.292 15.694 17 11.999 17H12Z" fill="currentColor"/>
</g>
<defs>
<clipPath id="clip0_1224_929">
<rect width="24" height="24" fill="currentColor"/>
</clipPath>
</defs>
</svg>