<svg width="40" height="40" viewBox="0 0 40 40" fill="none" xmlns="http://www.w3.org/2000/svg">
<rect width="40" height="40" rx="8" fill="#E6F0FC"/>
<g clip-path="url(#clip0_2131_16069)">
<path d="M23.334 21.3333C23.334 21.5101 23.2637 21.6797 23.1387 21.8047C23.0137 21.9298 22.8441 22 22.6673 22H17.334C17.1572 22 16.9876 21.9298 16.8626 21.8047C16.7376 21.6797 16.6673 21.5101 16.6673 21.3333C16.6673 21.1565 16.7376 20.987 16.8626 20.8619C16.9876 20.7369 17.1572 20.6667 17.334 20.6667H22.6673C22.8441 20.6667 23.0137 20.7369 23.1387 20.8619C23.2637 20.987 23.334 21.1565 23.334 21.3333ZM20.6673 23.3333H17.334C17.1572 23.3333 16.9876 23.4036 16.8626 23.5286C16.7376 23.6536 16.6673 23.8232 16.6673 24C16.6673 24.1768 16.7376 24.3464 16.8626 24.4714C16.9876 24.5964 17.1572 24.6667 17.334 24.6667H20.6673C20.8441 24.6667 21.0137 24.5964 21.1387 24.4714C21.2637 24.3464 21.334 24.1768 21.334 24C21.334 23.8232 21.2637 23.6536 21.1387 23.5286C21.0137 23.4036 20.8441 23.3333 20.6673 23.3333ZM26.6673 18.99V24.6667C26.6663 25.5504 26.3147 26.3976 25.6898 27.0225C25.0649 27.6474 24.2177 27.9989 23.334 28H16.6673C15.7836 27.9989 14.9364 27.6474 14.3115 27.0225C13.6866 26.3976 13.335 25.5504 13.334 24.6667V15.3333C13.335 14.4496 13.6866 13.6024 14.3115 12.9775C14.9364 12.3526 15.7836 12.0011 16.6673 12H19.6773C20.2904 11.9984 20.8977 12.1184 21.4641 12.353C22.0306 12.5876 22.5449 12.9321 22.9773 13.3667L25.3 15.6907C25.7348 16.1228 26.0796 16.637 26.3143 17.2033C26.549 17.7697 26.669 18.3769 26.6673 18.99ZM22.0347 14.3093C21.8248 14.1061 21.5893 13.9313 21.334 13.7893V16.6667C21.334 16.8435 21.4042 17.013 21.5292 17.1381C21.6543 17.2631 21.8238 17.3333 22.0007 17.3333H24.878C24.736 17.0781 24.5609 16.8428 24.3573 16.6333L22.0347 14.3093ZM25.334 18.99C25.334 18.88 25.3127 18.7747 25.3027 18.6667H22.0007C21.4702 18.6667 20.9615 18.456 20.5864 18.0809C20.2114 17.7058 20.0007 17.1971 20.0007 16.6667V13.3647C19.8927 13.3547 19.7867 13.3333 19.6773 13.3333H16.6673C16.1369 13.3333 15.6282 13.544 15.2531 13.9191C14.878 14.2942 14.6673 14.8029 14.6673 15.3333V24.6667C14.6673 25.1971 14.878 25.7058 15.2531 26.0809C15.6282 26.456 16.1369 26.6667 16.6673 26.6667H23.334C23.8644 26.6667 24.3731 26.456 24.7482 26.0809C25.1233 25.7058 25.334 25.1971 25.334 24.6667V18.99Z" fill="#0166E4"/>
</g>
<defs>
<clipPath id="clip0_2131_16069">
<rect width="16" height="16" fill="white" transform="translate(12 12)"/>
</clipPath>
</defs>
</svg>
