<svg width="32" height="32" viewBox="0 0 32 32" fill="none" xmlns="http://www.w3.org/2000/svg">
<g id="file-edit 1" clip-path="url(#clip0_6117_4445)">
<path id="Vector" d="M16 9.33333V0.613333C17.2173 1.07467 18.3373 1.78533 19.2867 2.73333L23.932 7.38133C24.8813 8.32933 25.592 9.44933 26.0533 10.6667H17.3333C16.5973 10.6667 16 10.068 16 9.33333ZM17.6933 25.9733C16.6093 27.0573 16 28.5267 16 30.06V32H17.94C19.4733 32 20.9427 31.3907 22.0267 30.3067L31.1027 21.2307C32.2987 20.0347 32.2987 18.0933 31.1027 16.8973C29.9067 15.7013 27.9653 15.7013 26.7693 16.8973L17.6933 25.9733ZM13.3333 30.06C13.3333 27.804 14.212 25.6827 15.8067 24.088L24.8827 15.012C25.4013 14.4933 26.0053 14.0947 26.6573 13.8107C26.652 13.6507 26.6453 13.492 26.6347 13.332H17.3333C15.128 13.332 13.3333 11.5373 13.3333 9.332V0.032C13.1187 0.0173333 12.904 0 12.6867 0H6.66667C2.99067 0 0 2.99067 0 6.66667V25.3333C0 29.0093 2.99067 32 6.66667 32H13.3333V30.06Z" fill="#407BFF"/>
</g>
<defs>
<clipPath id="clip0_6117_4445">
<rect width="32" height="32" fill="white"/>
</clipPath>
</defs>
</svg>
