<svg width="17" height="17" viewBox="0 0 17 17" fill="none" xmlns="http://www.w3.org/2000/svg">
<g id="hr-person (2) 1" clip-path="url(#clip0_6144_7149)">
<path id="Vector" d="M6.83333 2.16667C6.83333 1.246 7.57933 0.5 8.5 0.5C9.42067 0.5 10.1667 1.246 10.1667 2.16667C10.1667 3.08733 9.42067 3.83333 8.5 3.83333C7.57933 3.83333 6.83333 3.08733 6.83333 2.16667ZM14.5 2.5C13.3973 2.5 12.5 3.39733 12.5 4.5V7.956C12.3227 7.89333 12.1387 7.84667 11.9453 7.836C11.4167 7.808 10.9007 7.98667 10.4967 8.34867L8.49067 10.1947C8.43533 10.1387 8.384 10.08 8.326 10.026L6.49667 8.34267C6.09867 7.98667 5.58067 7.80867 5.05467 7.836C4.86133 7.84667 4.67733 7.89333 4.5 7.956V4.5C4.5 3.39733 3.60267 2.5 2.5 2.5C1.39733 2.5 0.5 3.39733 0.5 4.5V11.234C0.5 12.6587 1.05467 13.998 2.062 15.0053L3.362 16.3053C3.492 16.4353 3.66267 16.5007 3.83333 16.5007C4.004 16.5007 4.17467 16.4353 4.30467 16.3053C4.56533 16.0447 4.56533 15.6227 4.30467 15.3627L3.00467 14.0627C2.24933 13.3073 1.83333 12.3027 1.83333 11.234V4.5C1.83333 4.13267 2.132 3.83333 2.5 3.83333C2.868 3.83333 3.16667 4.13267 3.16667 4.5C3.16667 4.5 3.16333 9.884 3.16667 9.91067C3.18667 10.3473 3.35667 10.7833 3.664 11.1487L5.408 12.9627C5.66267 13.228 6.08467 13.2367 6.35067 12.9807C6.61533 12.7253 6.624 12.3033 6.36867 12.038L4.65467 10.258C4.444 10.0067 4.45 9.63267 4.66933 9.388C4.78733 9.256 4.95 9.178 5.12733 9.168C5.30267 9.156 5.47467 9.218 5.60067 9.33067L7.42267 11.008C8.10667 11.6373 8.49933 12.532 8.49933 13.4613V15.834C8.49933 16.202 8.79733 16.5007 9.166 16.5007C9.53467 16.5007 9.83267 16.202 9.83267 15.834V13.4613C9.83267 12.6933 9.63667 11.9447 9.28333 11.2773L11.392 9.33667C11.524 9.218 11.6953 9.156 11.872 9.168C12.0493 9.178 12.212 9.256 12.33 9.388C12.4367 9.50667 12.624 9.97467 12.3747 10.224L10.686 11.98C10.4307 12.2453 10.4393 12.6673 10.704 12.9227C10.8333 13.0473 10.9993 13.1087 11.166 13.1087C11.3413 13.1087 11.5153 13.04 11.6467 12.904L13.3653 11.114C13.6653 10.7567 13.8227 10.3173 13.8327 9.876C13.834 9.86067 13.8327 4.49933 13.8327 4.49933C13.8327 4.132 14.1313 3.83267 14.4993 3.83267C14.8673 3.83267 15.166 4.132 15.166 4.49933V11.2333C15.166 12.302 14.75 13.306 13.9947 14.062L12.6947 15.362C12.434 15.622 12.434 16.044 12.6947 16.3047C12.8247 16.4347 12.9953 16.5 13.166 16.5C13.3367 16.5 13.5073 16.4347 13.6373 16.3047L14.9373 15.0047C15.9447 13.9973 16.4993 12.658 16.4993 11.2333V4.5C16.4993 3.39733 15.6027 2.5 14.5 2.5ZM7.386 7.34933L7.962 7.87933C8.266 8.15933 8.734 8.15933 9.038 7.87933L9.594 7.368C10.04 6.96867 10.5827 6.71 11.1527 6.588C11.156 6.58267 11.158 6.58 11.1613 6.57467C10.886 5.38667 9.79933 4.5 8.50067 4.5C7.202 4.5 6.116 5.386 5.84 6.57333C5.84333 6.57867 5.84467 6.58133 5.848 6.586C6.402 6.70133 6.93533 6.94533 7.38667 7.34867L7.386 7.34933Z" fill="currentColor"/>
</g>
<defs>
<clipPath id="clip0_6144_7149">
<rect width="16" height="16" fill="white" transform="translate(0.5 0.5)"/>
</clipPath>
</defs>
</svg>
