<svg xmlns="http://www.w3.org/2000/svg" width="48" height="48" viewBox="0 0 48 48" fill="none">
  <g clip-path="url(#clip0_6002_14462)">
    <path d="M8.00586 12.162C8.00586 8.832 11.1719 5.212 14.2859 3.714C13.9199 3.348 13.5679 2.948 13.2659 2.518C12.5219 1.462 13.3639 0 14.6559 0H19.3499C20.7159 0 21.4619 1.552 20.6519 2.652C20.3719 3.032 20.0559 3.388 19.7279 3.714C22.8419 5.214 26.0039 8.832 26.0039 12.16C26.0039 15.38 23.5379 17.998 20.5039 17.998H13.5039C10.4699 17.998 8.00386 15.378 8.00386 12.16L8.00586 12.162ZM46.3019 17.362C45.2719 16.424 43.9299 15.938 42.5459 16.006C41.1519 16.07 39.8679 16.674 38.9579 17.676L31.8759 25.15C31.9399 25.57 32.0059 25.99 32.0059 26.426C32.0059 30.592 28.8959 34.178 24.7719 34.766L16.2679 35.958C15.1739 36.114 14.1619 35.354 14.0059 34.262C13.8499 33.168 14.6099 32.156 15.7019 32L24.0259 30.834C25.8979 30.566 27.5219 29.222 27.9059 27.37C28.4979 24.52 26.3259 22 23.5779 22H8.00386C3.58786 22 0.00585938 25.582 0.00585938 30V40C0.00585938 44.418 3.58786 48 8.00586 48H16.5299C22.1399 48 27.4899 45.644 31.2779 41.508L46.6819 24.69C48.5779 22.566 48.4059 19.276 46.3039 17.36L46.3019 17.362Z" fill="#3C3A36"/>
  </g>
  <defs>
    <clipPath id="clip0_6002_14462">
      <rect width="48" height="48" fill="white"/>
    </clipPath>
  </defs>
</svg>