<svg width="666" height="670" viewBox="0 0 704 800" fill="none" xmlns="http://www.w3.org/2000/svg">
<path d="M704 611.84H0V612.24H704V611.84Z" fill="#EBEBEB"/>
<path d="M633.459 637.584H586.826V637.984H633.459V637.584Z" fill="#EBEBEB"/>
<path d="M466.358 641.936H454.122V642.336H466.358V641.936Z" fill="#EBEBEB"/>
<path d="M585.418 622.736H558.398V623.136H585.418V622.736Z" fill="#EBEBEB"/>
<path d="M134.675 625.424H73.8633V625.824H134.675V625.424Z" fill="#EBEBEB"/>
<path d="M156.133 625.424H147.221V625.824H156.133V625.424Z" fill="#EBEBEB"/>
<path d="M317.011 632.176H185.109V632.576H317.011V632.176Z" fill="#EBEBEB"/>
<path d="M341.214 278.208H141.307V611.28H341.214V278.208Z" fill="#F0F0F0"/>
<path d="M334.147 288.688H148.361V350.208H334.147V288.688Z" fill="#E0E0E0"/>
<path d="M158.921 298.64H148.361V350.192H158.921V298.64Z" fill="#EBEBEB"/>
<path d="M209.961 298.64H199.401V350.192H209.961V298.64Z" fill="#EBEBEB"/>
<path d="M267.889 297.345L257.482 299.384L265.189 350.186L275.595 348.148L267.889 297.345Z" fill="#EBEBEB"/>
<path d="M172.001 305.44H161.441V350.208H172.001V305.44Z" fill="#EBEBEB"/>
<path d="M196.261 305.44H185.701V350.208H196.261V305.44Z" fill="#EBEBEB"/>
<path d="M257.495 305.44H246.935V350.208H257.495V305.44Z" fill="#EBEBEB"/>
<path d="M223.832 303.887L213.523 306.49L222.07 350.192L232.379 347.588L223.832 303.887Z" fill="#EBEBEB"/>
<path d="M181.125 296.08H175.845V350.192H181.125V296.08Z" fill="#EBEBEB"/>
<path d="M243.894 296.08H238.614V350.192H243.894V296.08Z" fill="#EBEBEB"/>
<path d="M148.375 421.472H334.16V359.952H148.375V421.472Z" fill="#E0E0E0"/>
<path d="M323.586 421.456H334.146V369.904H323.586V421.456Z" fill="#EBEBEB"/>
<path d="M272.561 421.456H283.121V369.904H272.561V421.456Z" fill="#EBEBEB"/>
<path d="M206.929 419.407L217.336 421.446L225.042 370.643L214.635 368.605L206.929 419.407Z" fill="#EBEBEB"/>
<path d="M310.506 421.472H321.066V376.704H310.506V421.472Z" fill="#EBEBEB"/>
<path d="M286.26 421.472H296.82V376.704H286.26V421.472Z" fill="#EBEBEB"/>
<path d="M225.027 421.472H235.587V376.704H225.027V421.472Z" fill="#EBEBEB"/>
<path d="M250.178 418.856L260.486 421.46L269.033 377.758L258.725 375.155L250.178 418.856Z" fill="#EBEBEB"/>
<path d="M301.382 421.456H306.662V367.344H301.382V421.456Z" fill="#EBEBEB"/>
<path d="M238.628 421.456H243.908V367.344H238.628V421.456Z" fill="#EBEBEB"/>
<path d="M158.921 369.904H148.361V421.456H158.921V369.904Z" fill="#EBEBEB"/>
<path d="M172.001 376.688H161.441V421.456H172.001V376.688Z" fill="#EBEBEB"/>
<path d="M196.261 376.688H185.701V421.456H196.261V376.688Z" fill="#EBEBEB"/>
<path d="M181.125 367.344H175.845V421.456H181.125V367.344Z" fill="#EBEBEB"/>
<path d="M334.147 431.2H148.361V492.72H334.147V431.2Z" fill="#E0E0E0"/>
<path d="M265.563 441.152H255.003V492.704H265.563V441.152Z" fill="#EBEBEB"/>
<path d="M323.499 439.853L313.093 441.892L320.799 492.694L331.205 490.656L323.499 439.853Z" fill="#EBEBEB"/>
<path d="M227.603 447.952H217.043V492.72H227.603V447.952Z" fill="#EBEBEB"/>
<path d="M251.863 447.952H241.303V492.72H251.863V447.952Z" fill="#EBEBEB"/>
<path d="M313.097 447.952H302.537V492.72H313.097V447.952Z" fill="#EBEBEB"/>
<path d="M279.438 446.4L269.13 449.004L277.677 492.706L287.985 490.102L279.438 446.4Z" fill="#EBEBEB"/>
<path d="M236.727 438.592H231.447V492.704H236.727V438.592Z" fill="#EBEBEB"/>
<path d="M299.496 438.592H294.216V492.704H299.496V438.592Z" fill="#EBEBEB"/>
<path d="M202.077 439.865L191.671 441.904L199.377 492.707L209.784 490.668L202.077 439.865Z" fill="#EBEBEB"/>
<path d="M191.671 447.952H181.111V492.72H191.671V447.952Z" fill="#EBEBEB"/>
<path d="M158.017 446.4L147.709 449.004L156.256 492.705L166.564 490.102L158.017 446.4Z" fill="#EBEBEB"/>
<path d="M178.084 438.592H172.804V492.704H178.084V438.592Z" fill="#EBEBEB"/>
<path d="M106.811 612.144H141.307L141.307 278.208H106.811L106.811 612.144Z" fill="#E0E0E0"/>
<path d="M458.219 603.424H428.919L444.322 460.8C444.692 457.82 445.98 455.086 447.958 453.085C449.936 451.083 452.474 449.945 455.122 449.872H582.912L564.171 603.36L458.219 603.424Z" fill="#F5F5F5"/>
<path d="M551.147 603.424H580.448L595.866 460.8C596.054 459.429 595.974 458.028 595.633 456.695C595.292 455.363 594.698 454.132 593.892 453.09C593.086 452.047 592.088 451.219 590.97 450.663C589.851 450.107 588.638 449.837 587.418 449.872H577.35C574.708 449.964 572.178 451.109 570.204 453.107C568.229 455.105 566.936 457.828 566.551 460.8L551.147 603.424Z" fill="#F0F0F0"/>
<path d="M540.363 603.2L545.671 534.24C545.783 532.744 546.343 531.337 547.258 530.254C548.172 529.171 549.387 528.477 550.697 528.288L552.88 527.968C554.641 527.717 556.273 526.785 557.502 525.329C558.73 523.872 559.479 521.979 559.624 519.968L560.596 507.392C560.691 506.173 560.563 504.944 560.218 503.785C559.873 502.625 559.319 501.56 558.592 500.657C557.865 499.754 556.98 499.033 555.994 498.539C555.008 498.046 553.943 497.792 552.866 497.792H601.836C602.913 497.792 603.978 498.046 604.964 498.539C605.95 499.033 606.835 499.754 607.562 500.657C608.289 501.56 608.843 502.625 609.188 503.785C609.533 504.944 609.662 506.173 609.566 507.392L608.594 519.968C608.45 521.979 607.7 523.872 606.472 525.329C605.244 526.785 603.612 527.717 601.85 527.968L599.668 528.288C598.358 528.479 597.145 529.174 596.231 530.257C595.316 531.34 594.755 532.745 594.641 534.24L589.333 603.2C589.143 605.623 588.162 607.879 586.583 609.522C585.004 611.165 582.941 612.078 580.8 612.08H531.83C533.971 612.078 536.034 611.165 537.613 609.522C539.192 607.879 540.173 605.623 540.363 603.2Z" fill="#E6E6E6"/>
<path d="M405.588 517.04C405.2 511.805 403.096 506.927 399.693 503.371C396.29 499.816 391.837 497.841 387.214 497.84H429.848C434.459 497.861 438.895 499.844 442.283 503.398C445.671 506.952 447.765 511.819 448.152 517.04L452.376 571.696H409.798L405.588 517.04Z" fill="#E6E6E6"/>
<path d="M368.277 497.904H387.2C391.823 497.905 396.277 499.88 399.68 503.435C403.083 506.991 405.187 511.869 405.575 517.104L409.799 571.76H511.344L515.568 517.104C515.952 511.882 518.045 507.013 521.433 503.458C524.822 499.904 529.26 497.922 533.872 497.904H552.809C553.887 497.904 554.952 498.158 555.938 498.651C556.924 499.145 557.808 499.866 558.536 500.769C559.263 501.672 559.816 502.737 560.161 503.897C560.506 505.056 560.635 506.285 560.539 507.504L559.568 520.08C559.423 522.091 558.674 523.984 557.445 525.441C556.217 526.897 554.585 527.829 552.823 528.08L550.641 528.4C549.33 528.589 548.116 529.283 547.201 530.366C546.287 531.449 545.727 532.856 545.615 534.352L540.363 603.2C540.173 605.623 539.192 607.879 537.613 609.522C536.034 611.165 533.971 612.078 531.83 612.08H389.312C387.171 612.078 385.109 611.165 383.53 609.522C381.951 607.879 380.97 605.623 380.78 603.2L375.472 534.24C375.355 532.746 374.793 531.342 373.879 530.26C372.965 529.178 371.754 528.482 370.445 528.288L368.263 527.968C366.501 527.715 364.868 526.783 363.638 525.327C362.408 523.871 361.655 521.979 361.504 519.968L360.547 507.392C360.466 506.182 360.605 504.965 360.956 503.819C361.308 502.673 361.864 501.621 362.59 500.731C363.315 499.84 364.195 499.129 365.174 498.643C366.152 498.156 367.209 497.905 368.277 497.904Z" fill="#F0F0F0"/>
<path d="M143.841 261.568C143.841 261.568 142.279 249.872 149.783 242.368C157.288 234.864 156.626 230.416 154.472 229.84C152.318 229.264 150.36 236.752 147.066 238.816C147.066 238.816 146.953 228.128 150.304 224.208C153.655 220.288 155.415 210.128 152.219 209.952C149.023 209.776 148.713 215.968 147.995 220.368C147.277 224.768 143.771 230.944 143.771 230.944C143.771 230.944 143.081 221.344 140.955 217.456C138.829 213.568 144.559 204.528 142.363 200.608C140.167 196.688 136.182 204.16 136.506 212.592C136.83 221.024 141.786 230.016 140.631 238.816C140.631 238.816 138.449 232.624 136.492 232.064C134.535 231.504 132.549 227.424 131.24 225.904C129.93 224.384 128.269 229.632 131.24 234.496C134.211 239.36 141.786 252.4 140.631 262.928L143.841 261.568Z" fill="#E6E6E6"/>
<path d="M148.319 256.24L150.783 273.76C150.96 275.032 150.893 276.333 150.585 277.572C150.277 278.811 149.737 279.96 149.001 280.94C148.265 281.919 147.351 282.705 146.321 283.245C145.292 283.784 144.173 284.064 143.039 284.064H140.42C139.287 284.064 138.167 283.784 137.138 283.245C136.109 282.705 135.195 281.919 134.459 280.94C133.723 279.96 133.182 278.811 132.875 277.572C132.567 276.333 132.499 275.032 132.676 273.76L135.168 256.24H148.319Z" fill="#E6E6E6"/>
<path d="M295.75 280.64H303.396V243.28H295.75V280.64Z" fill="#EBEBEB"/>
<path d="M258.776 280.64H266.422V243.28H258.776V280.64Z" fill="#EBEBEB"/>
<path d="M211.22 279.155L218.754 280.631L224.339 243.814L216.804 242.338L211.22 279.155Z" fill="#EBEBEB"/>
<path d="M286.274 280.624H293.92V248.192H286.274V280.624Z" fill="#EBEBEB"/>
<path d="M268.703 280.624H276.349V248.192H268.703V280.624Z" fill="#EBEBEB"/>
<path d="M224.322 280.624H231.968V248.192H224.322V280.624Z" fill="#EBEBEB"/>
<path d="M242.556 278.743L250.02 280.627L256.211 248.968L248.748 247.083L242.556 278.743Z" fill="#EBEBEB"/>
<path d="M279.657 280.64H283.486V241.424H279.657V280.64Z" fill="#EBEBEB"/>
<path d="M234.164 280.64H237.994V241.424H234.164V280.64Z" fill="#EBEBEB"/>
<path d="M206.905 250.976H169.636V280.208H206.905V250.976Z" fill="#EBEBEB"/>
<path d="M334.724 262.944H303.509V284.768H334.724V262.944Z" fill="#EBEBEB"/>
<path d="M327.43 243.76H311.815V265.584H327.43V243.76Z" fill="#EBEBEB"/>
<path d="M588.276 214.88H551.147V390.688H588.276V214.88Z" fill="#E0E0E0"/>
<path d="M445.435 391.168H584.292V214.896L445.435 214.896V391.168Z" fill="#E0E0E0"/>
<path d="M440.958 391.168H585.024V214.896L440.958 214.896V391.168Z" fill="#F0F0F0"/>
<path d="M447.124 383.056H579.11V220.496L447.124 220.496V383.056Z" fill="white"/>
<path d="M447.111 383.056H449.561V220.496H447.111V383.056Z" fill="#E0E0E0"/>
<path d="M449.166 337.408V341.792H579.462V337.408H449.166Z" fill="#E0E0E0"/>
<path d="M447.11 337.392H581.166V330.032H447.11V337.392Z" fill="#F0F0F0"/>
<path d="M352 684.096C502.772 684.096 624.997 675.987 624.997 665.984C624.997 655.981 502.772 647.872 352 647.872C201.228 647.872 79.0029 655.981 79.0029 665.984C79.0029 675.987 201.228 684.096 352 684.096Z" fill="#F5F5F5"/>
<path d="M453.306 244.512H201.4C195.708 244.512 191.094 249.756 191.094 256.224V593.28C191.094 599.748 195.708 604.992 201.4 604.992H453.306C458.998 604.992 463.612 599.748 463.612 593.28V256.224C463.612 249.756 458.998 244.512 453.306 244.512Z" fill="#E5B2C4"/>
<path opacity="0.6" d="M453.306 244.512H201.4C195.708 244.512 191.094 249.756 191.094 256.224V593.28C191.094 599.748 195.708 604.992 201.4 604.992H453.306C458.998 604.992 463.612 599.748 463.612 593.28V256.224C463.612 249.756 458.998 244.512 453.306 244.512Z" fill="white"/>
<path d="M419.472 409.84H235.249V445.68H419.472V409.84Z" fill="white"/>
<g opacity="0.4">
<path d="M251.722 431.248V432.192H245.33V421.92H251.525V422.848H246.288V426.512H250.962V427.424H246.288V431.248H251.722Z" fill="#263238"/>
<path d="M253.004 427.76H256.397V428.656H253.004V427.76Z" fill="#263238"/>
<path d="M269.646 427.712V432.192H268.731V427.808C268.731 426.208 268.013 425.344 266.788 425.344C266.47 425.327 266.153 425.39 265.859 425.527C265.565 425.663 265.301 425.872 265.085 426.137C264.869 426.402 264.707 426.718 264.609 427.062C264.512 427.406 264.482 427.769 264.521 428.128V432.192H263.592V427.808C263.592 426.208 262.874 425.344 261.635 425.344C261.317 425.327 261 425.39 260.706 425.527C260.412 425.663 260.147 425.872 259.932 426.137C259.716 426.402 259.553 426.718 259.456 427.062C259.359 427.406 259.328 427.769 259.368 428.128V432.192H258.438V424.464H259.326V425.872C259.591 425.4 259.961 425.016 260.399 424.758C260.836 424.499 261.325 424.376 261.818 424.4C262.315 424.352 262.814 424.48 263.245 424.767C263.676 425.053 264.018 425.484 264.225 426C264.507 425.484 264.905 425.064 265.378 424.783C265.851 424.501 266.381 424.369 266.915 424.4C267.297 424.367 267.681 424.432 268.038 424.59C268.395 424.748 268.717 424.995 268.979 425.312C269.241 425.63 269.437 426.011 269.552 426.426C269.668 426.841 269.7 427.281 269.646 427.712Z" fill="#263238"/>
<path d="M277.278 427.392V432.192H276.391V430.976C276.139 431.409 275.788 431.756 275.377 431.982C274.966 432.207 274.508 432.302 274.053 432.256C272.519 432.256 271.575 431.344 271.575 430.016C271.575 428.688 272.251 427.824 274.194 427.824H276.348V427.36C276.348 426.032 275.701 425.312 274.433 425.312C273.607 425.301 272.803 425.625 272.167 426.224L271.758 425.456C272.554 424.729 273.554 424.354 274.574 424.4C274.934 424.35 275.298 424.393 275.641 424.524C275.984 424.656 276.297 424.873 276.556 425.16C276.816 425.447 277.015 425.797 277.14 426.183C277.265 426.569 277.312 426.982 277.278 427.392ZM276.348 429.872V428.608H274.222C272.913 428.608 272.476 429.184 272.476 429.984C272.476 430.784 273.11 431.44 274.194 431.44C274.653 431.475 275.111 431.341 275.498 431.059C275.886 430.777 276.184 430.361 276.348 429.872Z" fill="#263238"/>
<path d="M279.559 422.032C279.56 421.933 279.579 421.836 279.614 421.745C279.649 421.655 279.7 421.573 279.762 421.505C279.825 421.437 279.899 421.383 279.98 421.347C280.061 421.311 280.148 421.294 280.234 421.296C280.319 421.294 280.404 421.311 280.483 421.346C280.563 421.381 280.635 421.433 280.697 421.5C280.758 421.567 280.807 421.647 280.842 421.736C280.876 421.824 280.894 421.919 280.896 422.016C280.898 422.116 280.882 422.216 280.85 422.309C280.817 422.402 280.769 422.487 280.707 422.558C280.646 422.63 280.572 422.686 280.491 422.725C280.41 422.764 280.323 422.784 280.234 422.784C280.146 422.786 280.059 422.768 279.977 422.731C279.895 422.695 279.82 422.64 279.757 422.569C279.694 422.499 279.644 422.416 279.61 422.324C279.576 422.231 279.559 422.132 279.559 422.032ZM279.77 424.464H280.685V432.192H279.77V424.464Z" fill="#263238"/>
<path d="M283.233 421.296H284.149V432.192H283.233V421.296Z" fill="#263238"/>
</g>
<path d="M419.472 458.8H235.249V494.64H419.472V458.8Z" fill="white"/>
<g opacity="0.4">
<path d="M252.398 474.448C252.398 476.64 250.99 477.968 248.709 477.968H246.288V481.168H245.33V470.896H248.709C251.004 470.928 252.398 472.256 252.398 474.448ZM251.441 474.448C251.441 472.848 250.497 471.872 248.625 471.872H246.231V477.008H248.625C250.497 477.008 251.441 476.064 251.441 474.448Z" fill="#263238"/>
<path d="M259.34 476.416V481.216H258.453V480C258.201 480.433 257.851 480.78 257.439 481.006C257.028 481.231 256.571 481.326 256.116 481.28C254.581 481.28 253.638 480.368 253.638 479.024C253.638 477.68 254.314 476.8 256.257 476.8H258.411V476.32C258.411 475.008 257.749 474.288 256.482 474.288C255.659 474.276 254.86 474.599 254.229 475.2L253.807 474.416C254.609 473.705 255.606 473.336 256.623 473.376C256.987 473.322 257.357 473.364 257.706 473.497C258.054 473.63 258.371 473.851 258.633 474.144C258.895 474.437 259.094 474.794 259.217 475.187C259.339 475.581 259.382 476.001 259.34 476.416ZM258.425 478.88V477.616H256.257C254.947 477.616 254.525 478.208 254.525 479.008C254.525 479.808 255.144 480.448 256.243 480.448C256.706 480.487 257.169 480.356 257.561 480.073C257.954 479.791 258.257 479.373 258.425 478.88Z" fill="#263238"/>
<path d="M260.889 480.32L261.297 479.504C262.007 480.067 262.853 480.369 263.719 480.368C265 480.368 265.535 479.872 265.535 479.104C265.535 477.088 261.128 478.672 261.128 475.632C261.128 474.368 262.085 473.424 263.817 473.424C264.662 473.415 265.493 473.664 266.225 474.144L265.817 474.976C265.224 474.531 264.527 474.303 263.817 474.32C262.592 474.32 262.043 474.864 262.043 475.6C262.043 477.68 266.45 476.112 266.45 479.072C266.45 480.416 265.422 481.28 263.634 481.28C262.651 481.309 261.687 480.972 260.889 480.32Z" fill="#263238"/>
<path d="M267.196 480.32L267.619 479.504C268.321 480.074 269.164 480.376 270.026 480.368C271.322 480.368 271.843 479.872 271.843 479.104C271.843 477.088 267.45 478.672 267.45 475.632C267.45 474.368 268.407 473.424 270.125 473.424C270.97 473.411 271.802 473.66 272.533 474.144L272.138 474.976C271.54 474.533 270.839 474.304 270.125 474.32C268.9 474.32 268.365 474.864 268.365 475.6C268.365 477.68 272.772 476.112 272.772 479.072C272.772 480.416 271.73 481.28 269.956 481.28C268.969 481.307 268.001 480.97 267.196 480.32Z" fill="#263238"/>
<path d="M284.29 473.488L281.727 481.2H280.868L278.784 474.88L276.644 481.2H275.785L273.152 473.488H274.025L276.165 480.048L278.348 473.488H279.136L281.305 480.048L283.459 473.488H284.29Z" fill="#263238"/>
<path d="M284.796 477.344C284.796 476.566 284.999 475.805 285.38 475.157C285.76 474.51 286.301 474.006 286.934 473.708C287.567 473.41 288.263 473.332 288.935 473.484C289.607 473.636 290.224 474.01 290.709 474.561C291.193 475.111 291.523 475.813 291.657 476.576C291.79 477.34 291.722 478.131 291.46 478.85C291.197 479.569 290.754 480.184 290.184 480.617C289.614 481.049 288.945 481.28 288.26 481.28C287.8 481.298 287.343 481.208 286.916 481.017C286.488 480.825 286.1 480.536 285.775 480.167C285.451 479.798 285.196 479.357 285.028 478.871C284.859 478.385 284.78 477.866 284.796 477.344ZM290.78 477.344C290.758 476.78 290.59 476.236 290.298 475.779C290.006 475.322 289.602 474.973 289.137 474.775C288.671 474.577 288.165 474.539 287.68 474.665C287.196 474.792 286.755 475.077 286.413 475.486C286.07 475.895 285.841 476.41 285.753 476.965C285.666 477.521 285.724 478.094 285.921 478.613C286.118 479.131 286.444 479.573 286.86 479.882C287.276 480.191 287.763 480.355 288.26 480.352C288.603 480.36 288.945 480.286 289.262 480.135C289.579 479.985 289.865 479.761 290.102 479.478C290.339 479.195 290.522 478.86 290.639 478.492C290.755 478.125 290.803 477.734 290.78 477.344Z" fill="#263238"/>
<path d="M297.003 473.424V474.432H296.778C296.456 474.414 296.135 474.478 295.836 474.617C295.538 474.757 295.271 474.97 295.053 475.24C294.835 475.51 294.673 475.832 294.577 476.182C294.481 476.531 294.453 476.901 294.497 477.264V481.2H293.582V473.488H294.455V474.992C294.692 474.47 295.062 474.042 295.517 473.762C295.971 473.483 296.489 473.365 297.003 473.424Z" fill="#263238"/>
<path d="M304.789 470.4V481.28H303.917V479.76C303.643 480.266 303.257 480.68 302.797 480.961C302.337 481.242 301.82 481.38 301.298 481.36C300.419 481.296 299.595 480.855 298.992 480.125C298.39 479.395 298.055 478.432 298.055 477.432C298.055 476.432 298.39 475.469 298.992 474.739C299.595 474.009 300.419 473.568 301.298 473.504C301.813 473.491 302.322 473.632 302.774 473.913C303.226 474.193 303.606 474.604 303.874 475.104V470.4H304.789ZM303.888 477.424C303.866 476.86 303.699 476.315 303.407 475.859C303.114 475.402 302.71 475.053 302.245 474.855C301.78 474.657 301.273 474.619 300.789 474.745C300.305 474.872 299.864 475.157 299.521 475.566C299.178 475.975 298.949 476.49 298.862 477.045C298.774 477.601 298.832 478.174 299.029 478.693C299.226 479.211 299.553 479.653 299.969 479.962C300.384 480.271 300.871 480.435 301.368 480.432C301.718 480.441 302.066 480.365 302.388 480.21C302.711 480.054 303.001 479.823 303.239 479.532C303.477 479.24 303.658 478.894 303.77 478.517C303.882 478.14 303.922 477.74 303.888 477.344V477.424Z" fill="#263238"/>
</g>
<path opacity="0.2" d="M419.472 531.2H235.249V567.04H419.472V531.2Z" fill="black"/>
<g opacity="0.5">
<path d="M280.051 514.736H277.038L276.39 516.336H275.799L278.263 510.208H278.826L281.29 516.336H280.699L280.051 514.736ZM279.84 514.208L278.544 510.912L277.249 514.208H279.84Z" fill="black"/>
<path d="M282.078 509.872H282.627V516.368H282.078V509.872Z" fill="black"/>
<path d="M286.204 511.728V512.336H286.064C285.867 512.317 285.669 512.348 285.485 512.428C285.3 512.508 285.134 512.634 284.999 512.797C284.864 512.961 284.762 513.156 284.703 513.37C284.643 513.584 284.627 513.81 284.656 514.032V516.384H284.106V511.776H284.641V512.672C284.783 512.349 285.009 512.084 285.29 511.915C285.57 511.746 285.89 511.68 286.204 511.728Z" fill="black"/>
<path d="M290.681 514.256H287.231C287.242 514.48 287.292 514.7 287.378 514.902C287.464 515.104 287.584 515.285 287.732 515.434C287.881 515.583 288.053 515.697 288.24 515.769C288.427 515.842 288.625 515.871 288.822 515.856C289.056 515.865 289.289 515.817 289.506 515.715C289.722 515.613 289.916 515.459 290.075 515.264L290.371 515.664C290.08 516.011 289.705 516.253 289.294 516.359C288.882 516.465 288.452 516.43 288.058 516.259C287.664 516.088 287.323 515.788 287.078 515.398C286.833 515.007 286.696 514.543 286.682 514.064C286.669 513.76 286.71 513.456 286.804 513.171C286.898 512.886 287.043 512.626 287.229 512.407C287.415 512.188 287.639 512.015 287.886 511.898C288.134 511.781 288.4 511.723 288.667 511.728C288.935 511.721 289.202 511.777 289.449 511.893C289.697 512.009 289.921 512.182 290.106 512.402C290.292 512.622 290.435 512.883 290.526 513.169C290.618 513.455 290.656 513.76 290.639 514.064C290.639 514.064 290.681 514.192 290.681 514.256ZM287.288 513.792H290.104C290.104 513.368 289.955 512.961 289.691 512.661C289.427 512.361 289.069 512.192 288.696 512.192C288.322 512.192 287.964 512.361 287.7 512.661C287.436 512.961 287.288 513.368 287.288 513.792Z" fill="black"/>
<path d="M294.751 513.6V516.448H294.272V515.728C294.123 515.991 293.912 516.202 293.664 516.338C293.415 516.474 293.138 516.528 292.864 516.496C291.949 516.496 291.456 515.952 291.456 515.152C291.456 514.352 291.85 513.84 293.019 513.84H294.272V513.568C294.272 512.784 293.878 512.352 293.117 512.352C292.605 512.33 292.104 512.524 291.709 512.896L291.47 512.432C291.937 512.009 292.521 511.788 293.117 511.808C293.335 511.766 293.559 511.782 293.77 511.856C293.982 511.93 294.175 512.059 294.334 512.234C294.493 512.408 294.613 512.623 294.686 512.86C294.758 513.098 294.78 513.351 294.751 513.6ZM294.216 515.072V514.304H292.934C292.146 514.304 291.893 514.656 291.893 515.136C291.893 515.616 292.273 516 292.92 516C293.212 516.025 293.503 515.94 293.747 515.758C293.992 515.575 294.176 515.306 294.272 514.992L294.216 515.072Z" fill="black"/>
<path d="M299.904 509.872V516.368H299.383V515.456C299.223 515.761 298.993 516.012 298.718 516.181C298.443 516.35 298.133 516.431 297.82 516.416C297.302 516.367 296.82 516.099 296.468 515.665C296.116 515.231 295.921 514.662 295.921 514.072C295.921 513.482 296.116 512.913 296.468 512.479C296.82 512.045 297.302 511.777 297.82 511.728C298.125 511.719 298.427 511.797 298.698 511.957C298.969 512.116 299.2 512.351 299.369 512.64V509.872H299.904ZM299.369 514.064C299.355 513.729 299.255 513.406 299.081 513.136C298.908 512.865 298.668 512.658 298.392 512.54C298.116 512.423 297.815 512.4 297.528 512.475C297.24 512.55 296.978 512.719 296.775 512.961C296.571 513.204 296.434 513.509 296.382 513.838C296.329 514.168 296.363 514.508 296.478 514.816C296.594 515.125 296.787 515.387 297.033 515.572C297.279 515.757 297.567 515.856 297.862 515.856C298.072 515.87 298.282 515.833 298.478 515.748C298.674 515.663 298.852 515.531 299 515.362C299.148 515.192 299.263 514.989 299.336 514.765C299.409 514.541 299.44 514.302 299.425 514.064H299.369Z" fill="black"/>
<path d="M304.903 511.76L302.875 516.928C302.537 517.824 302.101 518.112 301.467 518.112C301.104 518.123 300.75 517.974 300.481 517.696L300.735 517.232C300.933 517.457 301.201 517.584 301.481 517.584C301.847 517.584 302.087 517.392 302.326 516.8L302.495 516.368L300.679 511.76H301.312L302.847 515.68L304.368 511.76H304.903Z" fill="black"/>
<path d="M310.76 513.6V516.448H310.239V515.728C310.089 515.991 309.879 516.202 309.63 516.338C309.382 516.474 309.105 516.528 308.831 516.496C307.916 516.496 307.423 515.952 307.423 515.152C307.423 514.352 307.817 513.84 308.986 513.84H310.267V513.568C310.267 512.784 309.887 512.352 309.127 512.352C308.614 512.33 308.113 512.524 307.719 512.896L307.465 512.432C307.937 512.009 308.525 511.788 309.127 511.808C309.344 511.766 309.568 511.782 309.779 511.856C309.991 511.93 310.184 512.059 310.343 512.234C310.502 512.408 310.622 512.623 310.695 512.86C310.767 513.098 310.79 513.351 310.76 513.6ZM310.211 515.072V514.304H308.943C308.155 514.304 307.902 514.656 307.902 515.136C307.902 515.616 308.282 516 308.929 516C309.21 516.013 309.487 515.921 309.718 515.739C309.95 515.558 310.122 515.295 310.211 514.992V515.072Z" fill="black"/>
<path d="M321.024 513.696V516.368H320.489V513.76C320.489 512.784 320.052 512.288 319.32 512.288C319.132 512.271 318.942 512.301 318.764 512.375C318.587 512.45 318.426 512.567 318.292 512.719C318.158 512.871 318.055 513.055 317.989 513.256C317.924 513.458 317.897 513.674 317.912 513.888V516.304H317.377V513.76C317.377 512.784 316.941 512.288 316.194 512.288C316.006 512.271 315.816 512.301 315.639 512.375C315.461 512.45 315.3 512.567 315.166 512.719C315.032 512.871 314.929 513.055 314.863 513.256C314.798 513.458 314.772 513.674 314.786 513.888V516.304H314.237V511.696H314.758V512.544C314.913 512.257 315.134 512.024 315.397 511.869C315.66 511.714 315.955 511.643 316.251 511.664C316.546 511.638 316.841 511.718 317.094 511.893C317.346 512.068 317.544 512.33 317.659 512.64C317.823 512.326 318.059 512.07 318.342 511.898C318.625 511.726 318.943 511.645 319.264 511.664C319.507 511.615 319.757 511.633 319.993 511.719C320.228 511.804 320.442 511.953 320.615 512.153C320.788 512.353 320.916 512.598 320.988 512.867C321.059 513.136 321.071 513.42 321.024 513.696Z" fill="black"/>
<path d="M326.008 514.256H322.615C322.643 514.709 322.828 515.131 323.128 515.43C323.429 515.729 323.821 515.882 324.22 515.856C324.452 515.866 324.683 515.818 324.897 515.716C325.111 515.614 325.303 515.459 325.459 515.264L325.768 515.664C325.571 515.909 325.329 516.104 325.059 516.233C324.789 516.363 324.498 516.425 324.206 516.416C323.927 516.436 323.647 516.39 323.385 516.28C323.122 516.17 322.883 515.998 322.683 515.777C322.482 515.555 322.325 515.288 322.221 514.993C322.117 514.698 322.069 514.382 322.08 514.064C322.08 513.47 322.287 512.9 322.657 512.48C323.027 512.06 323.528 511.824 324.051 511.824C324.573 511.824 325.075 512.06 325.445 512.48C325.814 512.9 326.022 513.47 326.022 514.064C326.022 514.064 326.008 514.192 326.008 514.256ZM322.615 513.792H325.501C325.501 513.357 325.349 512.94 325.078 512.632C324.808 512.325 324.441 512.152 324.058 512.152C323.675 512.152 323.308 512.325 323.037 512.632C322.767 512.94 322.615 513.357 322.615 513.792Z" fill="black"/>
<path d="M333.836 513.696V516.368H333.287V513.76C333.287 512.784 332.865 512.288 332.133 512.288C331.943 512.268 331.753 512.296 331.574 512.37C331.395 512.443 331.233 512.56 331.099 512.713C330.964 512.866 330.861 513.05 330.797 513.253C330.732 513.456 330.707 513.673 330.725 513.888V516.304H330.176V513.76C330.176 512.784 329.753 512.288 329.007 512.288C328.818 512.268 328.627 512.296 328.448 512.37C328.27 512.443 328.107 512.56 327.973 512.713C327.839 512.866 327.735 513.05 327.671 513.253C327.606 513.456 327.582 513.673 327.599 513.888V516.304H327.05V511.696H327.571V512.544C327.725 512.256 327.945 512.022 328.209 511.867C328.472 511.711 328.767 511.641 329.063 511.664C329.358 511.638 329.653 511.718 329.906 511.893C330.159 512.068 330.357 512.33 330.471 512.64C330.635 512.326 330.871 512.07 331.154 511.898C331.437 511.726 331.756 511.645 332.076 511.664C332.32 511.615 332.57 511.633 332.805 511.719C333.041 511.804 333.254 511.953 333.428 512.153C333.601 512.353 333.729 512.598 333.8 512.867C333.871 513.136 333.884 513.42 333.836 513.696Z" fill="black"/>
<path d="M339.44 514.064C339.454 514.372 339.412 514.679 339.316 514.967C339.221 515.255 339.074 515.518 338.885 515.738C338.696 515.959 338.469 516.133 338.218 516.25C337.967 516.366 337.698 516.423 337.427 516.416C337.114 516.431 336.804 516.35 336.529 516.181C336.254 516.012 336.024 515.761 335.864 515.456V516.368H335.329V509.872H335.878V512.64C336.046 512.35 336.277 512.114 336.548 511.955C336.819 511.795 337.122 511.717 337.427 511.728C337.697 511.719 337.966 511.773 338.217 511.888C338.468 512.003 338.695 512.175 338.884 512.395C339.073 512.614 339.22 512.876 339.316 513.163C339.412 513.45 339.454 513.757 339.44 514.064ZM338.891 514.064C338.878 513.729 338.778 513.406 338.604 513.136C338.43 512.865 338.19 512.658 337.914 512.54C337.638 512.423 337.338 512.4 337.05 512.475C336.763 512.55 336.501 512.719 336.297 512.961C336.093 513.204 335.957 513.509 335.904 513.838C335.851 514.168 335.885 514.508 336.001 514.816C336.117 515.125 336.31 515.387 336.556 515.572C336.802 515.757 337.09 515.856 337.385 515.856C337.59 515.861 337.794 515.817 337.983 515.728C338.173 515.639 338.344 515.505 338.485 515.337C338.627 515.168 338.736 514.968 338.806 514.749C338.876 514.53 338.905 514.297 338.891 514.064Z" fill="black"/>
<path d="M344.101 514.256H340.736C340.746 514.48 340.796 514.7 340.882 514.902C340.968 515.104 341.089 515.285 341.237 515.434C341.385 515.583 341.557 515.697 341.744 515.769C341.932 515.842 342.129 515.871 342.327 515.856C342.561 515.856 342.792 515.797 343.004 515.683C343.215 515.57 343.402 515.405 343.552 515.2L343.861 515.6C343.57 515.947 343.196 516.189 342.784 516.295C342.372 516.401 341.943 516.366 341.548 516.195C341.154 516.024 340.813 515.724 340.568 515.334C340.324 514.943 340.186 514.479 340.172 514C340.159 513.696 340.2 513.392 340.294 513.107C340.389 512.822 340.533 512.562 340.719 512.343C340.905 512.124 341.129 511.951 341.376 511.834C341.624 511.717 341.89 511.659 342.158 511.664C342.425 511.656 342.691 511.713 342.938 511.829C343.185 511.945 343.408 512.119 343.592 512.339C343.776 512.559 343.918 512.82 344.008 513.107C344.098 513.393 344.135 513.697 344.115 514L344.101 514.256ZM340.707 513.792H343.523C343.523 513.368 343.375 512.961 343.111 512.661C342.847 512.361 342.489 512.192 342.115 512.192C341.742 512.192 341.384 512.361 341.12 512.661C340.856 512.961 340.707 513.368 340.707 513.792Z" fill="black"/>
<path d="M347.269 511.728V512.336H347.143C346.946 512.317 346.748 512.348 346.564 512.428C346.38 512.508 346.213 512.634 346.078 512.797C345.943 512.961 345.841 513.156 345.782 513.37C345.723 513.584 345.706 513.81 345.735 514.032V516.384H345.186V511.776H345.706V512.672C345.849 512.351 346.076 512.087 346.356 511.918C346.636 511.749 346.955 511.683 347.269 511.728Z" fill="black"/>
<path d="M350.817 511.808C350.817 511.168 350.367 510.736 349.578 510.736C349.301 510.718 349.024 510.772 348.767 510.894C348.511 511.016 348.283 511.203 348.1 511.44L347.691 511.088C347.931 510.78 348.23 510.538 348.564 510.38C348.898 510.222 349.259 510.152 349.62 510.176C350.705 510.176 351.394 510.768 351.394 511.776C351.394 513.264 349.986 513.376 349.986 514.592H349.409C349.409 513.088 350.817 512.944 350.817 511.808ZM349.297 515.952C349.314 515.846 349.364 515.75 349.437 515.681C349.51 515.612 349.603 515.574 349.698 515.574C349.793 515.574 349.885 515.612 349.958 515.681C350.032 515.75 350.081 515.846 350.099 515.952C350.11 516.019 350.108 516.088 350.093 516.154C350.078 516.22 350.05 516.281 350.012 516.334C349.974 516.386 349.926 516.429 349.871 516.458C349.817 516.487 349.758 516.502 349.698 516.502C349.638 516.502 349.578 516.487 349.524 516.458C349.47 516.429 349.422 516.386 349.384 516.334C349.345 516.281 349.318 516.22 349.302 516.154C349.287 516.088 349.285 516.019 349.297 515.952Z" fill="black"/>
<path d="M354.633 510.24H355.886V515.2H358.589V516.352H354.633V510.24Z" fill="black"/>
<path d="M358.871 514.016C358.842 513.498 358.952 512.982 359.185 512.535C359.418 512.088 359.763 511.731 360.177 511.51C360.59 511.289 361.053 511.215 361.504 511.296C361.955 511.377 362.375 511.61 362.708 511.966C363.041 512.321 363.273 512.782 363.373 513.289C363.473 513.795 363.437 514.324 363.269 514.807C363.101 515.29 362.81 515.705 362.432 515.998C362.055 516.29 361.608 516.447 361.152 516.448C360.859 516.47 360.565 516.423 360.289 516.311C360.013 516.199 359.76 516.023 359.546 515.795C359.332 515.567 359.162 515.291 359.046 514.985C358.93 514.679 358.87 514.349 358.871 514.016ZM362.208 514.016C362.191 513.784 362.116 513.562 361.99 513.377C361.864 513.193 361.694 513.054 361.501 512.978C361.307 512.902 361.098 512.891 360.899 512.948C360.7 513.004 360.519 513.126 360.38 513.297C360.241 513.468 360.148 513.681 360.114 513.911C360.079 514.141 360.105 514.377 360.187 514.591C360.268 514.804 360.403 514.986 360.575 515.115C360.746 515.243 360.946 515.311 361.152 515.312C361.298 515.315 361.444 515.283 361.579 515.217C361.714 515.152 361.835 515.055 361.935 514.933C362.034 514.81 362.11 514.665 362.157 514.507C362.204 514.349 362.221 514.182 362.208 514.016Z" fill="black"/>
<path d="M368.516 511.648V515.584C368.554 515.938 368.52 516.297 368.416 516.633C368.312 516.969 368.14 517.273 367.915 517.521C367.69 517.769 367.417 517.955 367.118 518.063C366.819 518.171 366.502 518.199 366.192 518.144C365.468 518.176 364.753 517.946 364.151 517.488L364.63 516.512C365.041 516.846 365.532 517.03 366.038 517.04C366.882 517.04 367.263 516.608 367.263 515.76V515.552C367.094 515.751 366.89 515.907 366.664 516.009C366.438 516.111 366.196 516.157 365.953 516.144C365.676 516.17 365.396 516.131 365.133 516.029C364.869 515.926 364.627 515.762 364.422 515.548C364.217 515.334 364.053 515.073 363.941 514.784C363.829 514.494 363.771 514.181 363.771 513.864C363.771 513.547 363.829 513.234 363.941 512.944C364.053 512.655 364.217 512.394 364.422 512.18C364.627 511.966 364.869 511.802 365.133 511.699C365.396 511.597 365.676 511.558 365.953 511.584C366.218 511.56 366.484 511.608 366.729 511.725C366.974 511.842 367.191 512.024 367.361 512.256V511.648H368.516ZM367.333 513.872C367.337 513.712 367.312 513.552 367.258 513.404C367.205 513.256 367.124 513.122 367.022 513.011C366.919 512.901 366.797 512.817 366.664 512.764C366.531 512.711 366.389 512.69 366.249 512.704C366.105 512.685 365.959 512.7 365.82 512.75C365.682 512.799 365.554 512.882 365.446 512.991C365.337 513.101 365.25 513.235 365.191 513.386C365.132 513.536 365.101 513.699 365.101 513.864C365.101 514.029 365.132 514.192 365.191 514.342C365.25 514.493 365.337 514.627 365.446 514.737C365.554 514.846 365.682 514.929 365.82 514.978C365.959 515.028 366.105 515.043 366.249 515.024C366.388 515.037 366.529 515.018 366.661 514.965C366.793 514.913 366.914 514.83 367.016 514.722C367.118 514.613 367.199 514.481 367.254 514.335C367.309 514.189 367.335 514.031 367.333 513.872Z" fill="black"/>
<path d="M371.712 510.24C371.714 510.133 371.734 510.027 371.773 509.929C371.812 509.832 371.869 509.744 371.939 509.672C372.009 509.6 372.091 509.545 372.18 509.511C372.269 509.476 372.364 509.463 372.458 509.472C372.55 509.461 372.643 509.472 372.732 509.503C372.82 509.535 372.902 509.587 372.972 509.656C373.042 509.725 373.099 509.809 373.139 509.904C373.179 509.999 373.201 510.103 373.204 510.208C373.204 510.433 373.126 510.649 372.986 510.808C372.846 510.967 372.656 511.056 372.458 511.056C372.26 511.056 372.07 510.967 371.93 510.808C371.791 510.649 371.712 510.433 371.712 510.208V510.24ZM371.853 511.648H373.05V516.448H371.853V511.648Z" fill="black"/>
<path d="M378.386 513.6V516.304H377.189V513.824C377.189 513.056 376.879 512.704 376.344 512.704C375.809 512.704 375.344 513.104 375.344 513.968V516.304H374.147V511.504H375.302V512.064C375.484 511.851 375.703 511.685 375.946 511.578C376.189 511.47 376.45 511.423 376.71 511.44C376.953 511.426 377.196 511.475 377.42 511.582C377.645 511.69 377.845 511.853 378.006 512.061C378.167 512.269 378.285 512.515 378.35 512.781C378.416 513.048 378.428 513.328 378.386 513.6Z" fill="black"/>
</g>
<path d="M419.472 529.008H235.249V564.848H419.472V529.008Z" fill="#E5B2C4"/>
<path d="M303.565 552.496L301.312 548.8H300.636H297.961V552.528H296.412V540.256H300.636C303.452 540.256 305.128 541.856 305.128 544.544C305.163 545.395 304.951 546.236 304.523 546.936C304.095 547.636 303.476 548.156 302.762 548.416L305.325 552.528L303.565 552.496ZM303.565 544.496C303.565 542.736 302.537 541.744 300.552 541.744H297.933V547.264H300.552C302.495 547.28 303.523 546.256 303.523 544.512L303.565 544.496Z" fill="white"/>
<path d="M314.716 548.416H308.084C308.188 549.207 308.55 549.926 309.097 550.429C309.644 550.933 310.338 551.185 311.041 551.136C311.483 551.154 311.923 551.063 312.331 550.87C312.74 550.677 313.106 550.385 313.406 550.016L314.223 551.104C313.62 551.799 312.854 552.282 312.016 552.494C311.178 552.707 310.304 552.64 309.499 552.302C308.693 551.965 307.99 551.37 307.475 550.59C306.959 549.81 306.652 548.877 306.592 547.904C306.562 547.276 306.648 546.647 306.842 546.058C307.037 545.469 307.337 544.933 307.723 544.482C308.109 544.031 308.573 543.676 309.086 543.439C309.599 543.202 310.149 543.088 310.703 543.104C311.253 543.087 311.801 543.201 312.31 543.439C312.82 543.677 313.28 544.033 313.66 544.485C314.041 544.938 314.334 545.475 314.521 546.064C314.707 546.653 314.783 547.28 314.744 547.904C314.744 548.048 314.73 548.256 314.716 548.416ZM308.084 547.2H313.322C313.255 546.464 312.95 545.782 312.466 545.287C311.982 544.791 311.354 544.517 310.703 544.517C310.052 544.517 309.424 544.791 308.94 545.287C308.456 545.782 308.151 546.464 308.084 547.2Z" fill="white"/>
<path d="M324.629 543.216V551.216C324.629 554.496 323.15 556.016 320.405 556.016C319.004 556.084 317.625 555.598 316.505 554.64L317.209 553.344C318.11 554.139 319.222 554.562 320.362 554.544C322.291 554.544 323.178 553.536 323.178 551.424V550.688C322.814 551.163 322.361 551.539 321.851 551.788C321.342 552.038 320.79 552.154 320.236 552.128C319.186 552.128 318.18 551.654 317.438 550.811C316.696 549.968 316.279 548.824 316.279 547.632C316.279 546.44 316.696 545.296 317.438 544.453C318.18 543.61 319.186 543.136 320.236 543.136C320.815 543.116 321.391 543.25 321.916 543.528C322.442 543.806 322.903 544.22 323.263 544.736V543.296L324.629 543.216ZM323.221 547.616C323.252 546.977 323.113 546.342 322.823 545.793C322.533 545.244 322.105 544.807 321.594 544.537C321.083 544.268 320.513 544.179 319.956 544.282C319.4 544.384 318.884 544.674 318.475 545.114C318.065 545.554 317.781 546.123 317.66 546.748C317.538 547.373 317.584 548.025 317.792 548.62C317.999 549.215 318.36 549.726 318.825 550.086C319.291 550.446 319.841 550.639 320.405 550.64C320.765 550.664 321.126 550.604 321.465 550.462C321.803 550.32 322.113 550.101 322.373 549.817C322.634 549.533 322.84 549.191 322.978 548.812C323.117 548.433 323.185 548.026 323.178 547.616H323.221Z" fill="white"/>
<path d="M327.191 540.336C327.193 540.189 327.221 540.044 327.272 539.909C327.323 539.774 327.397 539.651 327.49 539.549C327.583 539.446 327.693 539.365 327.813 539.311C327.933 539.257 328.062 539.23 328.191 539.232C328.328 539.213 328.466 539.228 328.597 539.274C328.728 539.321 328.849 539.398 328.952 539.502C329.055 539.605 329.137 539.733 329.194 539.875C329.25 540.017 329.279 540.172 329.279 540.328C329.279 540.484 329.25 540.639 329.194 540.781C329.137 540.923 329.055 541.051 328.952 541.154C328.849 541.258 328.728 541.335 328.597 541.382C328.466 541.428 328.328 541.443 328.191 541.424C328.062 541.428 327.934 541.403 327.814 541.351C327.694 541.298 327.584 541.219 327.491 541.118C327.398 541.017 327.323 540.895 327.272 540.761C327.221 540.627 327.193 540.482 327.191 540.336ZM327.459 543.216H328.937V552.496H327.459V543.216Z" fill="white"/>
<path d="M330.726 551.52L331.345 550.192C332.184 550.811 333.161 551.144 334.161 551.152C335.569 551.152 336.104 550.672 336.104 549.888C336.104 547.808 330.937 549.616 330.937 545.904C330.937 544.304 332.246 543.12 334.344 543.12C335.383 543.101 336.407 543.394 337.315 543.968L336.681 545.296C335.978 544.793 335.16 544.537 334.33 544.56C333.035 544.56 332.401 545.104 332.401 545.84C332.401 548.032 337.583 546.24 337.583 549.856C337.583 551.456 336.175 552.608 334.048 552.608C332.87 552.628 331.714 552.249 330.726 551.52Z" fill="white"/>
<path d="M344.087 552C343.574 552.445 342.943 552.676 342.299 552.656C341.951 552.701 341.599 552.657 341.269 552.527C340.938 552.397 340.638 552.185 340.389 551.906C340.14 551.626 339.95 551.287 339.832 550.913C339.714 550.539 339.672 550.139 339.708 549.744V544.64H338.3V543.264H339.708V541.232H341.116V543.264H343.552V544.64H341.2V549.68C341.167 549.886 341.176 550.098 341.227 550.299C341.277 550.5 341.368 550.686 341.492 550.84C341.616 550.995 341.77 551.116 341.942 551.192C342.113 551.268 342.298 551.298 342.482 551.28C342.898 551.285 343.304 551.133 343.636 550.848L344.087 552Z" fill="white"/>
<path d="M352.957 548.416H346.368C346.472 549.21 346.836 549.931 347.386 550.435C347.937 550.939 348.633 551.189 349.339 551.136C349.779 551.155 350.217 551.064 350.623 550.871C351.029 550.678 351.393 550.386 351.69 550.016L352.507 551.104C351.906 551.801 351.141 552.285 350.303 552.499C349.465 552.712 348.591 552.646 347.786 552.308C346.981 551.97 346.279 551.374 345.765 550.592C345.251 549.811 344.947 548.877 344.889 547.904C344.86 547.276 344.946 546.647 345.14 546.058C345.335 545.47 345.635 544.933 346.021 544.482C346.407 544.031 346.871 543.676 347.384 543.439C347.897 543.202 348.447 543.088 349.001 543.104C349.551 543.089 350.097 543.205 350.606 543.444C351.114 543.682 351.573 544.039 351.953 544.491C352.334 544.942 352.627 545.479 352.814 546.067C353.002 546.655 353.079 547.28 353.042 547.904C353.027 548.077 352.999 548.249 352.957 548.416ZM346.368 547.2H351.62C351.538 546.474 351.227 545.806 350.744 545.322C350.26 544.838 349.638 544.571 348.994 544.571C348.35 544.571 347.727 544.838 347.244 545.322C346.761 545.806 346.449 546.474 346.368 547.2Z" fill="white"/>
<path d="M359.449 543.12V544.72H359.111C358.745 544.691 358.377 544.756 358.036 544.91C357.696 545.065 357.39 545.305 357.142 545.613C356.894 545.92 356.711 546.288 356.606 546.687C356.5 547.087 356.476 547.508 356.534 547.92V552.544H355.056V543.264H356.464V544.864C356.761 544.278 357.201 543.802 357.73 543.493C358.26 543.183 358.856 543.054 359.449 543.12Z" fill="white"/>
<g opacity="0.6">
<path d="M295.103 284.176L295.736 282.672C296.829 283.713 298.211 284.28 299.636 284.272C301.678 284.272 302.551 283.376 302.551 282.208C302.551 279.008 295.398 280.992 295.398 276.016C295.398 273.936 296.806 272.176 299.918 272.176C301.258 272.151 302.577 272.562 303.72 273.36L303.156 274.96C302.189 274.256 301.066 273.879 299.918 273.872C297.904 273.872 297.102 274.832 297.102 276C297.102 279.2 304.269 277.216 304.269 282.16C304.269 284.208 302.861 285.968 299.693 285.968C298.024 286.008 296.397 285.373 295.103 284.176Z" fill="#263238"/>
<path d="M306.155 272.384C306.157 272.223 306.187 272.064 306.243 271.916C306.3 271.768 306.381 271.635 306.484 271.523C306.586 271.411 306.706 271.324 306.839 271.266C306.971 271.208 307.112 271.18 307.254 271.184C307.393 271.178 307.533 271.203 307.664 271.258C307.795 271.314 307.915 271.398 308.018 271.507C308.12 271.616 308.202 271.746 308.259 271.891C308.317 272.036 308.348 272.193 308.352 272.352C308.352 272.683 308.236 273 308.03 273.234C307.824 273.469 307.545 273.6 307.254 273.6C306.962 273.6 306.683 273.469 306.477 273.234C306.271 273 306.155 272.683 306.155 272.352V272.384ZM306.437 275.584H308.07V285.76H306.437V275.584Z" fill="#263238"/>
<path d="M319.715 275.536V284.32C319.715 287.92 318.109 289.552 315.082 289.552C313.563 289.607 312.073 289.07 310.858 288.032L311.633 286.608C312.613 287.49 313.832 287.959 315.082 287.936C317.194 287.936 318.152 286.816 318.152 284.512V283.712C317.753 284.235 317.257 284.65 316.699 284.927C316.141 285.204 315.536 285.335 314.927 285.312C314.338 285.35 313.748 285.251 313.194 285.021C312.639 284.791 312.132 284.435 311.703 283.974C311.273 283.514 310.932 282.959 310.698 282.343C310.464 281.727 310.344 281.063 310.344 280.392C310.344 279.721 310.464 279.057 310.698 278.441C310.932 277.825 311.273 277.27 311.703 276.81C312.132 276.349 312.639 275.993 313.194 275.763C313.748 275.533 314.338 275.434 314.927 275.472C315.55 275.435 316.171 275.56 316.745 275.837C317.318 276.115 317.828 276.537 318.236 277.072V275.472L319.715 275.536ZM318.138 280.336C318.169 279.637 318.014 278.943 317.695 278.344C317.375 277.745 316.905 277.268 316.345 276.976C315.785 276.684 315.161 276.589 314.553 276.703C313.945 276.818 313.381 277.137 312.935 277.619C312.488 278.102 312.178 278.725 312.046 279.409C311.914 280.093 311.965 280.806 312.194 281.457C312.422 282.108 312.816 282.666 313.326 283.059C313.836 283.452 314.438 283.663 315.054 283.664C315.457 283.704 315.863 283.648 316.245 283.5C316.628 283.351 316.979 283.113 317.276 282.801C317.573 282.489 317.81 282.11 317.97 281.689C318.13 281.267 318.212 280.812 318.208 280.352L318.138 280.336Z" fill="#263238"/>
<path d="M331.316 279.856V285.712H329.683V280C329.683 278 328.81 277.024 327.275 277.024C326.885 276.995 326.494 277.064 326.131 277.226C325.767 277.388 325.439 277.639 325.17 277.961C324.901 278.283 324.698 278.669 324.575 279.091C324.452 279.512 324.413 279.959 324.459 280.4V285.648H322.84V275.472H324.403V277.072C324.787 276.53 325.281 276.101 325.842 275.823C326.404 275.544 327.016 275.424 327.627 275.472C328.135 275.433 328.644 275.522 329.119 275.731C329.593 275.94 330.022 276.266 330.374 276.684C330.725 277.102 330.992 277.603 331.155 278.151C331.318 278.699 331.373 279.281 331.316 279.856Z" fill="#263238"/>
<path d="M347.212 275.536V285.712H345.678V284.112C345.32 284.636 344.858 285.054 344.328 285.333C343.799 285.611 343.219 285.741 342.636 285.712C342.113 285.773 341.584 285.7 341.088 285.499C340.593 285.297 340.143 284.971 339.773 284.546C339.403 284.121 339.122 283.607 338.949 283.041C338.777 282.476 338.719 281.874 338.779 281.28V275.424H340.398V281.072C340.398 283.056 341.285 284.064 342.819 284.064C343.21 284.096 343.602 284.029 343.967 283.868C344.332 283.707 344.661 283.456 344.93 283.133C345.2 282.81 345.403 282.423 345.525 282.001C345.646 281.578 345.684 281.129 345.635 280.688V275.424L347.212 275.536Z" fill="#263238"/>
<path d="M359.575 280.624C359.607 281.311 359.512 281.998 359.297 282.641C359.082 283.284 358.751 283.869 358.326 284.358C357.901 284.848 357.39 285.231 356.827 285.483C356.264 285.736 355.66 285.852 355.055 285.824C354.461 285.85 353.869 285.72 353.327 285.442C352.785 285.164 352.306 284.747 351.93 284.224V289.472H350.311V275.584H351.859V277.184C352.231 276.627 352.716 276.18 353.273 275.882C353.829 275.584 354.441 275.443 355.055 275.472C355.657 275.442 356.258 275.555 356.819 275.804C357.38 276.053 357.889 276.432 358.314 276.916C358.74 277.401 359.071 277.981 359.288 278.619C359.505 279.258 359.603 279.94 359.575 280.624ZM357.942 280.624C357.914 279.955 357.715 279.31 357.368 278.769C357.021 278.228 356.543 277.814 355.991 277.578C355.439 277.343 354.839 277.297 354.264 277.445C353.69 277.594 353.166 277.93 352.758 278.413C352.35 278.896 352.076 279.504 351.969 280.163C351.862 280.821 351.927 281.501 352.157 282.118C352.386 282.734 352.77 283.261 353.26 283.633C353.75 284.004 354.326 284.204 354.915 284.208C355.325 284.218 355.733 284.131 356.113 283.952C356.493 283.773 356.836 283.507 357.12 283.171C357.405 282.834 357.624 282.433 357.766 281.995C357.907 281.557 357.967 281.09 357.942 280.624Z" fill="#263238"/>
</g>
<path d="M419.472 360.864H235.249V396.704H419.472V360.864Z" fill="white"/>
<g opacity="0.4">
<path d="M245.33 372.944H246.288V382.272H251.342V383.216H245.33V372.944Z" fill="#263238"/>
<path d="M257.89 378.432V383.232H257.017V382.032C256.76 382.46 256.409 382.804 255.999 383.028C255.589 383.253 255.133 383.351 254.679 383.312C253.145 383.312 252.201 382.4 252.201 381.056C252.201 379.712 252.863 378.88 254.82 378.88H256.974V378.416C256.974 377.088 256.313 376.368 255.045 376.368C254.223 376.356 253.423 376.679 252.793 377.28L252.37 376.496C253.174 375.788 254.17 375.421 255.186 375.456C255.544 375.407 255.908 375.449 256.249 375.58C256.591 375.71 256.903 375.926 257.162 376.211C257.421 376.497 257.621 376.844 257.747 377.228C257.873 377.612 257.921 378.024 257.89 378.432ZM256.974 380.896V379.632H254.848C253.525 379.632 253.102 380.224 253.102 381.024C253.102 381.824 253.736 382.464 254.82 382.464C255.279 382.496 255.735 382.361 256.122 382.08C256.51 381.798 256.808 381.383 256.974 380.896Z" fill="#263238"/>
<path d="M259.438 382.4L259.847 381.584C260.557 382.147 261.402 382.449 262.269 382.448C263.564 382.448 264.085 381.952 264.085 381.184C264.085 379.168 259.692 380.752 259.692 377.712C259.692 376.448 260.635 375.504 262.367 375.504C263.212 375.491 264.045 375.74 264.775 376.224L264.366 377.056C263.774 376.611 263.077 376.383 262.367 376.4C261.142 376.4 260.607 376.944 260.607 377.68C260.607 379.76 265 378.192 265 381.152C265 382.496 263.972 383.36 262.184 383.36C261.202 383.384 260.239 383.048 259.438 382.4Z" fill="#263238"/>
<path d="M270.336 382.752C269.936 383.113 269.439 383.305 268.928 383.296C268.66 383.329 268.389 383.293 268.135 383.191C267.881 383.09 267.651 382.924 267.46 382.708C267.27 382.492 267.124 382.229 267.035 381.941C266.945 381.652 266.914 381.344 266.943 381.04V376.384H265.718V375.504H266.943V373.808H267.858V375.504H269.914V376.384H267.858V380.992C267.834 381.176 267.847 381.364 267.896 381.542C267.945 381.72 268.029 381.883 268.142 382.018C268.254 382.154 268.392 382.258 268.546 382.325C268.699 382.391 268.863 382.417 269.027 382.4C269.396 382.413 269.757 382.27 270.04 382L270.336 382.752Z" fill="#263238"/>
<path d="M283.008 372.944V383.216H282.219L276.418 374.88V383.216H275.461V372.944H276.249L282.064 381.28V372.944H283.008Z" fill="#263238"/>
<path d="M290.949 378.432V383.232H290.048V382.032C289.794 382.462 289.443 382.808 289.032 383.033C288.621 383.258 288.165 383.354 287.71 383.312C286.176 383.312 285.232 382.4 285.232 381.056C285.232 379.712 285.908 378.88 287.865 378.88H290.048V378.416C290.048 377.088 289.386 376.368 288.119 376.368C287.296 376.356 286.497 376.679 285.866 377.28L285.444 376.496C286.246 375.785 287.243 375.417 288.26 375.456C288.617 375.409 288.978 375.454 289.318 375.585C289.659 375.717 289.969 375.933 290.226 376.218C290.484 376.503 290.682 376.85 290.807 377.233C290.932 377.616 290.981 378.025 290.949 378.432ZM290.034 380.896V379.632H287.894C286.584 379.632 286.162 380.224 286.162 381.024C286.162 381.824 286.795 382.464 287.879 382.464C288.341 382.5 288.8 382.367 289.19 382.084C289.58 381.802 289.881 381.386 290.048 380.896H290.034Z" fill="#263238"/>
<path d="M304.649 378.736V383.216H303.734V378.848C303.734 377.248 303.002 376.384 301.777 376.384C301.459 376.367 301.142 376.43 300.848 376.566C300.554 376.703 300.29 376.912 300.074 377.177C299.858 377.442 299.695 377.758 299.598 378.102C299.501 378.446 299.471 378.809 299.51 379.168V383.216H298.595V378.848C298.595 377.248 297.863 376.384 296.623 376.384C296.306 376.367 295.989 376.43 295.695 376.566C295.401 376.703 295.136 376.912 294.92 377.177C294.704 377.442 294.542 377.758 294.445 378.102C294.347 378.446 294.317 378.809 294.357 379.168V383.216H293.441V375.504H294.272V376.912C294.538 376.44 294.908 376.056 295.345 375.798C295.783 375.539 296.272 375.416 296.764 375.44C297.263 375.393 297.763 375.522 298.196 375.808C298.629 376.094 298.975 376.524 299.186 377.04C299.464 376.524 299.859 376.104 300.33 375.822C300.801 375.541 301.33 375.408 301.861 375.44C302.247 375.397 302.635 375.454 302.999 375.607C303.362 375.759 303.69 376.003 303.958 376.32C304.226 376.637 304.428 377.02 304.548 377.438C304.667 377.856 304.702 378.3 304.649 378.736Z" fill="#263238"/>
<path d="M313.083 379.68H307.451C307.471 380.056 307.555 380.425 307.701 380.764C307.846 381.102 308.049 381.406 308.297 381.655C308.546 381.905 308.835 382.097 309.149 382.219C309.463 382.341 309.795 382.392 310.126 382.368C310.517 382.382 310.906 382.3 311.266 382.125C311.626 381.951 311.948 381.69 312.21 381.36L312.717 382.032C312.229 382.611 311.602 383.014 310.913 383.19C310.225 383.367 309.506 383.309 308.847 383.024C308.188 382.738 307.617 382.239 307.206 381.587C306.795 380.936 306.562 380.161 306.536 379.36C306.512 378.85 306.582 378.341 306.739 377.863C306.896 377.385 307.138 376.949 307.449 376.581C307.761 376.214 308.135 375.923 308.55 375.727C308.964 375.53 309.41 375.433 309.859 375.44C310.307 375.43 310.752 375.526 311.166 375.722C311.58 375.918 311.954 376.209 312.264 376.578C312.573 376.946 312.812 377.384 312.965 377.863C313.119 378.342 313.183 378.852 313.153 379.36C313.097 379.456 313.083 379.568 313.083 379.68ZM307.451 378.912H312.266C312.266 378.186 312.013 377.49 311.561 376.977C311.109 376.464 310.497 376.176 309.859 376.176C309.22 376.176 308.608 376.464 308.156 376.977C307.704 377.49 307.451 378.186 307.451 378.912Z" fill="#263238"/>
</g>
<path d="M419.472 311.904H235.249V347.744H419.472V311.904Z" fill="white"/>
<g opacity="0.4">
<path d="M246.288 324.928V328.96H250.962V329.904H246.288V334.256H245.33V323.984H251.525V324.928H246.288Z" fill="#263238"/>
<path d="M252.976 324.096C252.973 323.943 253.011 323.792 253.084 323.663C253.157 323.535 253.262 323.434 253.386 323.374C253.51 323.314 253.647 323.297 253.78 323.326C253.912 323.355 254.034 323.429 254.129 323.537C254.225 323.645 254.289 323.784 254.315 323.934C254.341 324.085 254.326 324.24 254.273 324.381C254.22 324.522 254.131 324.642 254.018 324.725C253.905 324.808 253.772 324.851 253.637 324.848C253.462 324.848 253.294 324.769 253.17 324.628C253.045 324.487 252.976 324.295 252.976 324.096ZM253.173 326.544H254.088V334.256H253.173V326.544Z" fill="#263238"/>
<path d="M260.072 326.48V327.488H259.847C259.523 327.47 259.2 327.534 258.901 327.674C258.602 327.815 258.333 328.029 258.115 328.301C257.897 328.573 257.735 328.897 257.64 329.249C257.545 329.6 257.52 329.972 257.566 330.336V334.272H256.65V326.56H257.523V328C257.767 327.487 258.139 327.069 258.593 326.798C259.047 326.527 259.562 326.416 260.072 326.48Z" fill="#263238"/>
<path d="M260.832 333.376L261.24 332.544C261.944 333.124 262.793 333.432 263.662 333.424C264.957 333.424 265.478 332.912 265.478 332.16C265.478 330.144 261.085 331.728 261.085 328.672C261.085 327.424 262.029 326.48 263.761 326.48C264.607 326.459 265.441 326.709 266.168 327.2L265.76 328.032C265.168 327.587 264.47 327.359 263.761 327.376C262.536 327.376 262.001 327.92 262.001 328.656C262.001 330.736 266.394 329.168 266.394 332.128C266.394 333.456 265.366 334.32 263.578 334.32C262.597 334.349 261.634 334.018 260.832 333.376Z" fill="#263238"/>
<path d="M271.744 333.792C271.34 334.141 270.844 334.327 270.336 334.32C270.069 334.356 269.799 334.322 269.544 334.222C269.29 334.123 269.059 333.959 268.869 333.744C268.678 333.528 268.532 333.267 268.442 332.979C268.353 332.691 268.322 332.384 268.351 332.08V327.424H267.126V326.544H268.351V324.8H269.266V326.496H271.322V327.376H269.266V331.968C269.242 332.153 269.256 332.342 269.305 332.52C269.354 332.698 269.438 332.862 269.55 332.999C269.662 333.135 269.8 333.242 269.953 333.31C270.106 333.378 270.271 333.406 270.435 333.392C270.803 333.397 271.162 333.256 271.449 332.992L271.744 333.792Z" fill="#263238"/>
<path d="M284.416 323.984V334.256H283.628L277.827 325.92V334.256H276.869V323.984H277.658L283.473 332.32V323.984H284.416Z" fill="#263238"/>
<path d="M292.343 329.472V334.272H291.456V333.072C291.203 333.499 290.855 333.842 290.446 334.064C290.038 334.287 289.584 334.38 289.133 334.336C287.584 334.336 286.641 333.44 286.641 332.096C286.641 330.752 287.316 329.92 289.274 329.92H291.456V329.44C291.456 328.128 290.794 327.408 289.527 327.408C288.704 327.396 287.905 327.719 287.274 328.32L286.852 327.536C287.655 326.826 288.651 326.458 289.668 326.496C290.024 326.449 290.386 326.493 290.725 326.625C291.065 326.757 291.374 326.973 291.63 327.259C291.887 327.544 292.084 327.891 292.207 328.274C292.331 328.657 292.377 329.066 292.343 329.472ZM291.428 331.936V330.672H289.288C287.978 330.672 287.556 331.264 287.556 332.048C287.556 332.832 288.189 333.504 289.274 333.504C289.737 333.54 290.198 333.408 290.591 333.126C290.983 332.844 291.286 332.427 291.456 331.936H291.428Z" fill="#263238"/>
<path d="M306.043 329.776V334.256H305.127V329.888C305.127 328.288 304.395 327.424 303.17 327.424C302.853 327.407 302.536 327.47 302.242 327.607C301.947 327.743 301.683 327.952 301.467 328.217C301.251 328.482 301.089 328.798 300.992 329.142C300.894 329.486 300.864 329.85 300.903 330.208V334.256H299.988V329.888C299.988 328.288 299.256 327.424 298.017 327.424C297.699 327.407 297.383 327.47 297.088 327.607C296.794 327.743 296.53 327.952 296.314 328.217C296.098 328.482 295.936 328.798 295.838 329.142C295.741 329.486 295.711 329.85 295.75 330.208V334.256H294.835V326.544H295.68V328C295.945 327.528 296.315 327.144 296.753 326.886C297.19 326.627 297.68 326.504 298.172 326.528C298.671 326.481 299.171 326.61 299.604 326.896C300.037 327.182 300.382 327.612 300.594 328.128C300.869 327.61 301.264 327.187 301.736 326.905C302.207 326.623 302.737 326.493 303.269 326.528C303.649 326.489 304.032 326.547 304.39 326.698C304.748 326.849 305.072 327.089 305.337 327.4C305.603 327.712 305.805 328.086 305.927 328.497C306.049 328.909 306.088 329.345 306.043 329.776Z" fill="#263238"/>
<path d="M314.477 330.72H308.845C308.865 331.096 308.95 331.465 309.095 331.804C309.24 332.143 309.443 332.446 309.692 332.695C309.94 332.945 310.23 333.137 310.544 333.259C310.857 333.381 311.189 333.432 311.521 333.408C311.913 333.423 312.303 333.338 312.663 333.161C313.024 332.984 313.345 332.719 313.604 332.384L314.111 333.072C313.623 333.651 312.996 334.054 312.308 334.23C311.62 334.407 310.901 334.349 310.242 334.064C309.582 333.778 309.011 333.279 308.6 332.627C308.189 331.976 307.956 331.201 307.93 330.4C307.907 329.89 307.976 329.381 308.133 328.903C308.29 328.425 308.532 327.989 308.844 327.621C309.155 327.254 309.53 326.963 309.944 326.767C310.359 326.57 310.804 326.473 311.253 326.48C311.701 326.47 312.147 326.566 312.561 326.762C312.975 326.958 313.348 327.249 313.658 327.618C313.968 327.986 314.207 328.424 314.36 328.903C314.513 329.382 314.577 329.892 314.548 330.4C314.491 330.48 314.477 330.592 314.477 330.72ZM308.845 329.936H313.661C313.661 329.21 313.407 328.514 312.956 328.001C312.504 327.488 311.892 327.2 311.253 327.2C310.614 327.2 310.002 327.488 309.551 328.001C309.099 328.514 308.845 329.21 308.845 329.936Z" fill="#263238"/>
</g>
<path d="M165.933 616.448H164.596C164.596 614.192 166.243 561.328 174.339 552.448C182.66 543.248 192.446 552.32 192.53 552.448L191.686 553.6C191.32 553.264 182.717 545.328 175.254 553.6C167.553 561.936 165.947 615.904 165.933 616.448Z" fill="#B2E5BD"/>
<path d="M165.257 627.056L163.934 626.912C163.934 626.272 169.171 562.72 148.91 536.288L149.91 535.296C170.551 562.224 165.313 626.416 165.257 627.056Z" fill="#B2E5BD"/>
<path d="M165.905 620.272C165.736 617.264 161.836 546.672 177.408 530.352L178.309 531.472C163.202 547.248 167.186 619.472 167.229 620.16L165.905 620.272Z" fill="#B2E5BD"/>
<path d="M163.933 620.224C163.933 619.744 163.455 572.224 152.374 565.072C151.432 564.366 150.354 563.928 149.232 563.794C148.11 563.66 146.975 563.835 145.925 564.304C139.434 567.36 135.985 581.44 135.942 581.584L134.661 581.184C134.802 580.576 138.322 566.256 145.418 562.912C146.655 562.348 147.992 562.13 149.318 562.278C150.644 562.425 151.919 562.934 153.036 563.76C164.764 571.392 165.257 618.16 165.271 620.208L163.933 620.224Z" fill="#B2E5BD"/>
<path d="M168.496 620.256C168.411 618.656 166.708 582.752 175.677 569.424C178.07 565.888 180.717 564.208 183.59 564.448C189.968 564.944 194.854 574.768 195.121 575.184L193.966 575.936C193.966 575.84 189.151 566.336 183.491 565.952C181.111 565.744 178.83 567.232 176.733 570.352C168.059 583.152 169.805 619.808 169.819 620.176L168.496 620.256Z" fill="#B2E5BD"/>
<path d="M166.708 625.232L165.384 625.12C165.384 624.256 171.016 538.528 161.724 524.224L162.794 523.328C172.396 538.08 166.947 621.68 166.708 625.232Z" fill="#B2E5BD"/>
<path d="M142.842 571.44C142.842 571.44 148.587 573.856 146.883 579.536C145.179 585.216 126.988 594.576 126.988 594.576C126.988 594.576 119.371 586.656 126.368 573.776C133.366 560.896 142.687 567.376 142.842 571.44Z" fill="#B2E5BD"/>
<path opacity="0.2" d="M142.842 571.44C142.842 571.44 148.587 573.856 146.883 579.536C145.179 585.216 126.988 594.576 126.988 594.576C126.988 594.576 119.371 586.656 126.368 573.776C133.366 560.896 142.687 567.376 142.842 571.44Z" fill="black"/>
<path d="M167.834 560.624C167.834 560.624 161.709 560.336 161.357 566.32C161.005 572.304 174.593 588.912 174.593 588.912C174.593 588.912 184.308 584.912 182.224 569.952C180.14 554.992 169.355 556.928 167.834 560.624Z" fill="#B2E5BD"/>
<path opacity="0.2" d="M167.834 560.624C167.834 560.624 161.709 560.336 161.357 566.32C161.005 572.304 174.593 588.912 174.593 588.912C174.593 588.912 184.308 584.912 182.224 569.952C180.14 554.992 169.355 556.928 167.834 560.624Z" fill="black"/>
<path d="M173.015 531.92C173.015 531.92 168.932 531.424 169.256 528.608C169.579 525.792 185.124 518.512 194.29 530.208C194.29 530.208 188.418 541.664 179.942 541.824C171.466 541.984 173.015 531.92 173.015 531.92Z" fill="#B2E5BD"/>
<path opacity="0.2" d="M173.015 531.92C173.015 531.92 168.932 531.424 169.256 528.608C169.579 525.792 185.124 518.512 194.29 530.208C194.29 530.208 188.418 541.664 179.942 541.824C171.466 541.984 173.015 531.92 173.015 531.92Z" fill="black"/>
<path d="M165.412 525.056C165.412 525.056 169.101 527.088 170.143 524.496C171.185 521.904 161.371 506.4 148.122 510.864C148.122 510.864 147.77 524.112 154.894 529.344C162.019 534.576 165.412 525.056 165.412 525.056Z" fill="#B2E5BD"/>
<path opacity="0.2" d="M165.412 525.056C165.412 525.056 169.101 527.088 170.143 524.496C171.185 521.904 161.371 506.4 148.122 510.864C148.122 510.864 147.77 524.112 154.894 529.344C162.019 534.576 165.412 525.056 165.412 525.056Z" fill="black"/>
<path d="M184.73 569.168C184.73 569.168 181.914 566.576 184.956 565.312C187.997 564.048 202.908 564.416 203.062 581.2C203.062 581.2 185.688 584.48 183.548 578.08C181.407 571.68 184.73 569.168 184.73 569.168Z" fill="#B2E5BD"/>
<path opacity="0.2" d="M184.73 569.168C184.73 569.168 181.914 566.576 184.956 565.312C187.997 564.048 202.908 564.416 203.062 581.2C203.062 581.2 185.688 584.48 183.548 578.08C181.407 571.68 184.73 569.168 184.73 569.168Z" fill="black"/>
<path d="M149.248 531.504C149.248 531.504 152.064 528.912 149.023 527.664C145.982 526.416 131.071 526.752 130.916 543.536C130.916 543.536 148.291 546.832 150.431 540.432C152.571 534.032 149.248 531.504 149.248 531.504Z" fill="#B2E5BD"/>
<path opacity="0.2" d="M149.248 531.504C149.248 531.504 152.064 528.912 149.023 527.664C145.982 526.416 131.071 526.752 130.916 543.536C130.916 543.536 148.291 546.832 150.431 540.432C152.571 534.032 149.248 531.504 149.248 531.504Z" fill="black"/>
<path d="M158.485 545.024C158.485 545.024 158.739 541.824 156.5 543.12C154.261 544.416 146.503 553.888 154.557 562.928C154.557 562.928 165.412 553.792 163.455 549.04C161.498 544.288 158.485 545.024 158.485 545.024Z" fill="#B2E5BD"/>
<path opacity="0.2" d="M158.485 545.024C158.485 545.024 158.739 541.824 156.5 543.12C154.261 544.416 146.503 553.888 154.557 562.928C154.557 562.928 165.412 553.792 163.455 549.04C161.498 544.288 158.485 545.024 158.485 545.024Z" fill="black"/>
<path d="M187.264 549.504C187.264 549.504 185.575 546.992 188.053 546.688C190.531 546.384 201.57 549.728 198.993 562.272C198.993 562.272 185.533 561.12 184.913 555.872C184.294 550.624 187.264 549.504 187.264 549.504Z" fill="#B2E5BD"/>
<path opacity="0.2" d="M187.264 549.504C187.264 549.504 185.575 546.992 188.053 546.688C190.531 546.384 201.57 549.728 198.993 562.272C198.993 562.272 185.533 561.12 184.913 555.872C184.294 550.624 187.264 549.504 187.264 549.504Z" fill="black"/>
<path d="M143.842 666.752H187.363L193.15 618.656H138.055L143.842 666.752Z" fill="#263238"/>
<path opacity="0.2" d="M143.842 666.752H187.363L193.15 618.656H138.055L143.842 666.752Z" fill="white"/>
<path d="M198.613 614.752V619.328C198.613 620.796 198.1 622.204 197.186 623.243C196.272 624.281 195.033 624.864 193.741 624.864H136.928C135.636 624.864 134.397 624.281 133.484 623.243C132.57 622.204 132.057 620.796 132.057 619.328V614.752H198.613Z" fill="#263238"/>
<path d="M561.257 158.896H520.805C517.504 158.896 514.338 160.386 512.004 163.039C509.67 165.691 508.358 169.289 508.358 173.04V213.04C508.357 214.899 508.677 216.74 509.302 218.458C509.927 220.175 510.843 221.737 511.999 223.052C513.155 224.367 514.528 225.41 516.039 226.122C517.55 226.834 519.169 227.2 520.805 227.2H532.618L529.802 239.824L541.066 227.2H561.327C564.632 227.2 567.802 225.708 570.138 223.053C572.475 220.397 573.788 216.795 573.788 213.04V173.04C573.788 171.174 573.463 169.327 572.833 167.605C572.202 165.883 571.278 164.319 570.113 163.005C568.948 161.69 567.566 160.65 566.046 159.945C564.526 159.24 562.899 158.883 561.257 158.896Z" fill="#ADFFC1"/>
<path opacity="0.7" d="M561.257 158.896H520.805C517.504 158.896 514.338 160.386 512.004 163.039C509.67 165.691 508.358 169.289 508.358 173.04V213.04C508.357 214.899 508.677 216.74 509.302 218.458C509.927 220.175 510.843 221.737 511.999 223.052C513.155 224.367 514.528 225.41 516.039 226.122C517.55 226.834 519.169 227.2 520.805 227.2H532.618L529.802 239.824L541.066 227.2H561.327C564.632 227.2 567.802 225.708 570.138 223.053C572.475 220.397 573.788 216.795 573.788 213.04V173.04C573.788 171.174 573.463 169.327 572.833 167.605C572.202 165.883 571.278 164.319 570.113 163.005C568.948 161.69 567.566 160.65 566.046 159.945C564.526 159.24 562.899 158.883 561.257 158.896Z" fill="white"/>
<path d="M541.038 210.72C549.709 210.72 556.737 202.733 556.737 192.88C556.737 183.027 549.709 175.04 541.038 175.04C532.368 175.04 525.339 183.027 525.339 192.88C525.339 202.733 532.368 210.72 541.038 210.72Z" fill="white"/>
<path d="M541.038 170.064C537.067 170.064 533.185 171.402 529.883 173.909C526.581 176.416 524.008 179.98 522.488 184.149C520.969 188.318 520.571 192.905 521.346 197.331C522.12 201.757 524.033 205.822 526.841 209.013C529.649 212.204 533.226 214.377 537.121 215.258C541.016 216.138 545.053 215.686 548.722 213.959C552.39 212.232 555.526 209.308 557.732 205.556C559.939 201.804 561.116 197.393 561.116 192.88C561.118 189.883 560.6 186.915 559.592 184.146C558.583 181.377 557.104 178.861 555.24 176.742C553.375 174.623 551.161 172.942 548.724 171.796C546.287 170.651 543.675 170.062 541.038 170.064ZM552.429 186.064L540.334 202.256C540.162 202.49 539.947 202.677 539.703 202.805C539.46 202.932 539.194 202.996 538.926 202.992C538.658 202.994 538.393 202.929 538.15 202.802C537.907 202.675 537.691 202.488 537.518 202.256L529.647 191.712C529.481 191.504 529.353 191.259 529.272 190.993C529.191 190.728 529.157 190.446 529.174 190.165C529.19 189.884 529.256 189.61 529.368 189.359C529.479 189.108 529.634 188.885 529.823 188.703C530.013 188.522 530.232 188.385 530.469 188.302C530.705 188.219 530.954 188.191 531.2 188.219C531.447 188.247 531.685 188.332 531.902 188.468C532.119 188.603 532.31 188.787 532.463 189.008L538.926 197.664L549.613 183.36C549.934 182.957 550.38 182.712 550.857 182.676C551.334 182.64 551.805 182.816 552.17 183.167C552.535 183.517 552.766 184.015 552.814 184.556C552.863 185.096 552.724 185.637 552.429 186.064Z" fill="#ADFFC1"/>
<path d="M554.245 405.696C554.245 405.696 529.731 402.176 492.588 413.696C492.588 413.696 486.618 338.272 487.322 327.904C488.026 317.536 544.67 320.576 544.67 320.576C544.67 320.576 546.078 350.768 549.767 368.976C553.456 387.184 556.16 402.192 554.245 405.696Z" fill="#E5B2C4"/>
<path opacity="0.2" d="M554.245 405.696C554.245 405.696 529.731 402.176 492.588 413.696C492.588 413.696 486.618 338.272 487.322 327.904C488.026 317.536 544.67 320.576 544.67 320.576C544.67 320.576 546.078 350.768 549.767 368.976C553.456 387.184 556.16 402.192 554.245 405.696Z" fill="black"/>
<path d="M474.679 655.392L484.676 658.608L487.055 640.928L488.336 631.472L478.34 628.256L476.636 640.928L474.679 655.392Z" fill="#E4897B"/>
<path d="M532.153 656.32L542.46 657.872L542.558 640.928L542.629 630.4L532.308 628.864L532.238 640.928L532.153 656.32Z" fill="#E4897B"/>
<path opacity="0.2" d="M532.309 628.864L532.238 640.928H542.559L542.629 630.4L532.309 628.864Z" fill="black"/>
<path opacity="0.2" d="M476.636 640.928H487.055L488.336 631.472L478.339 628.256L476.636 640.928Z" fill="black"/>
<path d="M430.298 334.096L420.372 330.768L422.188 343.648C422.188 343.648 431.2 346 432.044 340.672L430.298 334.096Z" fill="#E4897B"/>
<path d="M410.46 333.76L415.332 344.224L422.189 343.648L420.372 330.768L410.46 333.76Z" fill="#E4897B"/>
<path d="M443.999 337.392L427.694 333.248L426.216 342.24L441.014 346.336L443.999 337.392Z" fill="#E4897B"/>
<path d="M493.321 329.264L492.363 330.56C490.307 333.296 485.323 339.904 480.128 345.6C475.904 350.24 471.68 354.288 468.864 355.104C460.88 357.44 431.861 347.728 431.861 347.728L434.86 334.352C434.86 334.352 461.894 338.432 463.992 338.432C465.583 338.432 482.028 311.36 486.013 309.136L493.321 329.264Z" fill="#E5B2C4"/>
<path opacity="0.2" d="M492.363 330.56C490.308 333.296 485.323 339.904 480.128 345.6C481.17 336.224 484.197 327.616 488.182 322.176C488.553 321.651 488.979 321.178 489.449 320.768L492.363 330.56Z" fill="black"/>
<path d="M474.805 653.616L486.154 653.28C486.358 653.273 486.559 653.345 486.723 653.484C486.887 653.624 487.004 653.823 487.055 654.048L489.449 664.432C489.506 664.681 489.513 664.941 489.47 665.193C489.426 665.445 489.334 665.683 489.198 665.889C489.063 666.095 488.889 666.263 488.688 666.382C488.488 666.501 488.267 666.568 488.041 666.576C483.943 666.576 478.016 666.576 472.876 666.688C466.85 666.88 463.02 666.544 455.98 666.688C451.756 666.816 450.348 661.984 452.151 661.488C460.218 659.216 465.498 659.664 472.369 654.544C473.095 653.995 473.935 653.674 474.805 653.616Z" fill="#263238"/>
<path d="M473.82 655.28C472.159 655.696 469.202 656.256 468.019 655.152C467.847 654.99 467.711 654.783 467.623 654.55C467.534 654.316 467.497 654.062 467.512 653.808C467.512 653.656 467.546 653.506 467.613 653.374C467.68 653.242 467.776 653.132 467.892 653.056C469.145 652.208 473.384 654.496 473.876 654.752C473.919 654.778 473.955 654.818 473.98 654.866C474.005 654.914 474.018 654.968 474.017 655.024C474.015 655.086 473.994 655.145 473.958 655.191C473.922 655.238 473.874 655.269 473.82 655.28ZM468.188 653.504H468.104C468.057 653.535 468.018 653.579 467.99 653.632C467.963 653.686 467.949 653.746 467.949 653.808C467.937 653.973 467.96 654.14 468.017 654.293C468.073 654.446 468.161 654.581 468.272 654.688C468.934 655.312 470.652 655.376 472.933 654.864C471.286 654.08 468.991 653.168 468.216 653.504H468.188Z" fill="#E5B2C4"/>
<path d="M473.82 655.28H473.651C472.37 654.672 469.807 652.208 469.948 650.88C469.948 650.56 470.173 650.16 470.849 650.064C471.097 650.027 471.349 650.046 471.591 650.12C471.833 650.195 472.059 650.322 472.257 650.496C473.665 651.696 473.989 654.848 474.017 654.976C474.021 655.025 474.014 655.074 473.997 655.119C473.98 655.163 473.953 655.202 473.919 655.232L473.82 655.28ZM470.666 650.688C470.455 650.768 470.441 650.896 470.441 650.944C470.356 651.744 472.102 653.696 473.412 654.528C473.261 653.184 472.738 651.929 471.919 650.944C471.78 650.811 471.618 650.714 471.443 650.659C471.268 650.604 471.085 650.592 470.905 650.624C470.823 650.632 470.743 650.654 470.666 650.688Z" fill="#E5B2C4"/>
<path d="M532.562 653.616L543.91 653.28C544.116 653.272 544.319 653.343 544.485 653.483C544.652 653.622 544.771 653.821 544.825 654.048L547.205 664.432C547.265 664.681 547.274 664.942 547.232 665.195C547.19 665.449 547.097 665.688 546.962 665.895C546.826 666.101 546.65 666.27 546.448 666.388C546.247 666.506 546.024 666.571 545.797 666.576C541.7 666.576 535.772 666.576 530.619 666.688C524.606 666.88 520.763 666.544 513.723 666.688C509.499 666.816 508.091 661.984 509.893 661.488C517.961 659.216 523.227 659.664 530.098 654.544C530.831 653.989 531.682 653.669 532.562 653.616Z" fill="#263238"/>
<path d="M531.591 655.28C529.929 655.696 526.958 656.256 525.79 655.152C525.617 654.99 525.481 654.783 525.393 654.55C525.305 654.316 525.267 654.062 525.283 653.808C525.282 653.656 525.317 653.506 525.384 653.374C525.45 653.242 525.547 653.132 525.663 653.056C526.902 652.208 531.154 654.496 531.633 654.752C531.68 654.773 531.719 654.811 531.744 654.86C531.77 654.91 531.78 654.967 531.774 655.024C531.77 655.083 531.75 655.139 531.717 655.185C531.685 655.231 531.64 655.264 531.591 655.28ZM525.959 653.504H525.874C525.828 653.534 525.79 653.579 525.765 653.633C525.74 653.687 525.729 653.747 525.733 653.808C525.719 653.974 525.741 654.141 525.798 654.294C525.854 654.448 525.943 654.583 526.057 654.688C526.719 655.312 528.423 655.376 530.718 654.864C529.042 654.08 526.747 653.168 525.973 653.504H525.959Z" fill="#E5B2C4"/>
<path d="M531.591 655.28H531.408C530.14 654.672 527.564 652.208 527.719 650.88C527.719 650.56 527.93 650.16 528.606 650.064C528.854 650.025 529.106 650.044 529.348 650.118C529.59 650.192 529.816 650.321 530.014 650.496C530.999 651.743 531.614 653.31 531.774 654.976C531.781 655.025 531.775 655.075 531.758 655.121C531.74 655.166 531.712 655.205 531.675 655.232L531.591 655.28ZM528.423 650.688C528.225 650.768 528.211 650.896 528.211 650.944C528.113 651.744 529.873 653.696 531.182 654.528C531.021 653.187 530.5 651.936 529.69 650.944C529.55 650.812 529.388 650.715 529.213 650.66C529.038 650.605 528.855 650.593 528.676 650.624L528.423 650.688Z" fill="#E5B2C4"/>
<path d="M553.414 398.816C558.877 425.712 549.5 637.312 549.5 637.312H531.393L523.649 460.976L495.137 637.312L475.777 635.712C488.449 499.104 499.615 417.552 499.615 417.552V407.248L553.414 398.816Z" fill="#263238"/>
<path opacity="0.4" d="M475.777 635.712L495.137 637.312L517.581 498.496L523.649 460.976L531.393 637.312H549.5C549.5 637.312 558.877 425.712 553.414 398.816L499.587 407.248V417.552C499.587 417.552 488.435 499.104 475.777 635.712Z" fill="white"/>
<path d="M543.657 299.2C543.102 312.06 543.389 324.949 544.516 337.76C545.276 346.72 546.318 355.184 547.43 362.816C550.035 380.72 552.992 394.144 553.414 398.832L499.586 407.264C479.959 344.864 487.351 308.608 487.351 308.608C491.376 306.72 495.499 305.116 499.699 303.808C500.586 303.536 501.487 303.28 502.416 303.04C509.976 301.349 517.616 300.153 525.296 299.456C526.704 299.312 528.239 299.2 529.675 299.12C537.025 298.704 543.657 299.2 543.657 299.2Z" fill="#263238"/>
<path d="M514.849 271.12C515.243 279.68 516.046 295.744 522.311 299.824C522.311 299.824 518.411 308.256 509.977 309.12C503.599 309.76 504.021 302.608 504.021 302.608C507.71 299.488 506.837 294.192 504.021 288.208L514.849 271.12Z" fill="#E4897B"/>
<path opacity="0.2" d="M510.428 278.096L504.063 288.208C504.733 289.591 505.299 291.036 505.753 292.528C508.71 291.184 512.103 286.128 511.61 282.464C511.456 280.938 511.055 279.457 510.428 278.096Z" fill="black"/>
<path d="M487.393 253.888C486.168 258.336 486.844 267.456 492.293 264.496C497.742 261.536 489.505 246.256 487.393 253.888Z" fill="#263238"/>
<path d="M515.553 259.904C516.159 271.312 516.961 277.952 512.582 284.416C505.923 294.128 493.025 290.512 489.421 279.504C486.183 269.584 485.746 252.592 495.053 246.832C497.116 245.557 499.43 244.897 501.778 244.914C504.127 244.932 506.433 245.626 508.481 246.932C510.529 248.238 512.253 250.113 513.489 252.382C514.726 254.65 515.436 257.238 515.553 259.904Z" fill="#E4897B"/>
<path d="M508.513 253.696V240.896C508.513 240.896 520.453 239.888 519.918 246.832C526.535 250.56 523.409 262.256 514.525 267.984C509.653 263.552 510.216 252.896 510.216 252.896C509.695 253.2 509.104 253.456 508.513 253.696Z" fill="#263238"/>
<path d="M520.411 268.8C520.181 270.196 519.707 271.525 519.018 272.709C518.329 273.893 517.438 274.909 516.398 275.696C513.582 277.792 511.146 275.216 511.048 271.616C510.963 268.416 512.301 263.36 515.539 262.72C516.248 262.595 516.972 262.671 517.648 262.941C518.325 263.212 518.931 263.669 519.414 264.271C519.896 264.874 520.24 265.603 520.414 266.393C520.588 267.183 520.587 268.01 520.411 268.8Z" fill="#E4897B"/>
<path d="M500.727 264.992C500.825 265.92 500.473 266.72 499.938 266.784C499.403 266.848 498.896 266.16 498.798 265.184C498.699 264.208 499.051 263.456 499.572 263.392C500.093 263.328 500.628 264 500.727 264.992Z" fill="#263238"/>
<path d="M491.519 266.16C491.617 267.088 491.265 267.888 490.73 267.952C490.195 268.016 489.688 267.328 489.59 266.352C489.491 265.376 489.843 264.624 490.378 264.56C490.913 264.496 491.392 265.232 491.519 266.16Z" fill="#263238"/>
<path d="M494.489 266.24C493.778 269.101 492.721 271.836 491.35 274.368C491.957 274.723 492.623 274.927 493.305 274.969C493.987 275.01 494.669 274.887 495.306 274.608L494.489 266.24Z" fill="#DE5753"/>
<path d="M500.051 277.584C499.704 277.685 499.351 277.759 498.995 277.808C498.932 277.808 498.871 277.779 498.826 277.728C498.781 277.677 498.756 277.608 498.756 277.536C498.756 277.464 498.781 277.395 498.826 277.344C498.871 277.293 498.932 277.264 498.995 277.264C500.006 277.16 500.982 276.787 501.843 276.175C502.703 275.564 503.426 274.731 503.951 273.744C503.963 273.712 503.981 273.682 504.004 273.658C504.026 273.634 504.053 273.615 504.082 273.603C504.111 273.591 504.142 273.586 504.173 273.589C504.203 273.591 504.234 273.6 504.261 273.616C504.29 273.631 504.316 273.653 504.337 273.68C504.359 273.707 504.375 273.739 504.386 273.773C504.396 273.807 504.401 273.844 504.399 273.88C504.396 273.916 504.388 273.952 504.374 273.984C503.913 274.893 503.291 275.682 502.547 276.302C501.802 276.922 500.952 277.359 500.051 277.584Z" fill="#263238"/>
<path d="M503.205 261.264C503.12 261.287 503.031 261.284 502.947 261.256C502.863 261.228 502.787 261.175 502.726 261.104C502.318 260.596 501.812 260.203 501.248 259.956C500.683 259.709 500.076 259.614 499.474 259.68C499.412 259.696 499.347 259.698 499.285 259.685C499.222 259.671 499.162 259.644 499.109 259.603C499.057 259.563 499.012 259.51 498.977 259.449C498.943 259.388 498.92 259.32 498.91 259.248C498.898 259.178 498.898 259.105 498.911 259.035C498.923 258.964 498.948 258.898 498.983 258.838C499.019 258.779 499.064 258.728 499.117 258.688C499.169 258.649 499.229 258.621 499.291 258.608C500.051 258.505 500.821 258.61 501.539 258.913C502.256 259.216 502.9 259.71 503.416 260.352C503.462 260.401 503.499 260.461 503.524 260.527C503.549 260.593 503.562 260.664 503.562 260.736C503.562 260.808 503.549 260.879 503.524 260.945C503.499 261.011 503.462 261.071 503.416 261.12C503.356 261.185 503.284 261.234 503.205 261.264Z" fill="#263238"/>
<path d="M487.168 263.072C487.077 263.111 486.977 263.111 486.886 263.072C486.767 263.025 486.669 262.926 486.614 262.797C486.559 262.668 486.55 262.52 486.591 262.384C486.823 261.56 487.228 260.813 487.77 260.206C488.311 259.598 488.975 259.149 489.702 258.896C489.826 258.86 489.956 258.881 490.066 258.954C490.176 259.028 490.255 259.148 490.287 259.288C490.318 259.428 490.3 259.577 490.235 259.701C490.171 259.826 490.065 259.916 489.942 259.952C489.366 260.154 488.843 260.513 488.418 260.998C487.993 261.484 487.68 262.081 487.506 262.736C487.479 262.82 487.434 262.895 487.375 262.953C487.316 263.012 487.245 263.053 487.168 263.072Z" fill="#263238"/>
<path d="M513.807 258.432C513.807 258.432 506.767 255.504 503.557 250.864C503.557 250.864 497.165 252.768 495.855 255.664C495.258 255.083 494.871 254.27 494.77 253.384C494.668 252.497 494.859 251.6 495.306 250.864C495.306 250.864 490.519 252.016 489.575 255.664C488.797 255.243 488.159 254.55 487.753 253.686C487.348 252.822 487.197 251.833 487.323 250.864C487.323 250.864 485.197 251.776 484.507 255.664C484.507 255.664 479.227 243.152 496.672 239.568C495.352 239.059 493.968 238.794 492.574 238.784C492.574 238.784 504.754 233.2 514.398 238.304C524.043 243.408 522.368 253.296 513.807 258.432Z" fill="#263238"/>
<path d="M557.568 409.6L540.672 412.16C540.672 412.16 533.702 356.816 530.633 338.944V300.8L539.461 298.16L546.304 300.8C548.181 308.474 549.624 316.277 550.626 324.16C551.457 330.144 552.203 336.544 552.865 343.024C553.78 351.856 554.541 360.848 555.188 369.264C556.202 382.848 556.878 394.864 557.244 402.208C557.455 406.816 557.568 409.6 557.568 409.6Z" fill="#E5B2C4"/>
<path d="M530.647 338.912C530.647 338.912 532.055 311.984 539.475 298.096C539.475 298.096 539.292 294.128 537.813 293.488C536.335 292.848 530.647 296.688 530.647 296.688C530.647 296.688 527.113 293.936 526.338 295.216C525.564 296.496 523.677 305.008 530.647 338.912Z" fill="#E5B2C4"/>
<path opacity="0.7" d="M530.647 338.912C530.647 338.912 532.055 311.984 539.475 298.096C539.475 298.096 539.292 294.128 537.813 293.488C536.335 292.848 530.647 296.688 530.647 296.688C530.647 296.688 527.113 293.936 526.338 295.216C525.564 296.496 523.677 305.008 530.647 338.912Z" fill="white"/>
<path d="M492.237 416.976L494.166 418.576C494.166 418.576 491.35 400.736 492.504 355.616C492.504 353.44 492.631 351.344 492.701 349.344C494.109 311.168 499.347 304.224 499.741 303.808L494.87 305.696L486.042 309.152C483.381 341.712 492.237 416.976 492.237 416.976Z" fill="#E5B2C4"/>
<path d="M492.997 342.768C492.997 342.768 488.125 316.592 489.575 307.568C491.026 298.544 496.221 302.56 496.221 302.56C496.221 302.56 500.994 298.176 502.416 303.008C502.416 303.008 495.855 308.256 492.997 342.768Z" fill="#E5B2C4"/>
<path opacity="0.7" d="M492.997 342.768C492.997 342.768 488.125 316.592 489.575 307.568C491.026 298.544 496.221 302.56 496.221 302.56C496.221 302.56 500.994 298.176 502.416 303.008C502.416 303.008 495.855 308.256 492.997 342.768Z" fill="white"/>
<path opacity="0.2" d="M552.837 342.96C545.628 338.368 544.671 326.384 544.671 326.384C545.107 326.192 547.783 325.152 550.599 324.096C551.429 330.08 552.176 336.48 552.837 342.96Z" fill="black"/>
<path opacity="0.2" d="M517.58 498.496L523.649 460.976L522.48 441.12C522.48 441.12 514.159 475.552 517.58 498.496Z" fill="black"/>
<path opacity="0.2" d="M557.216 402.144C552.682 401.792 548.768 401.456 548.768 401.456L547.909 380.512C549.322 379.507 551.019 379.152 552.654 379.52C553.768 376.174 554.612 372.72 555.174 369.2C556.16 382.784 556.85 394.816 557.216 402.144Z" fill="black"/>
<path d="M558.765 369.184L549.937 385.296L556.92 389.856L565.213 375.344L558.765 369.184Z" fill="#E4897B"/>
<path d="M545.923 300.544C551.865 301.28 577.125 340.672 578.237 352.544C579.349 364.416 563.397 384.912 563.397 384.912L552.752 377.792C552.752 377.792 563.566 358.896 564.129 353.792C564.692 348.688 544.346 328.064 544.346 328.064C542.808 323.313 541.961 318.309 541.84 313.248C541.559 304.576 545.923 300.544 545.923 300.544Z" fill="#E5B2C4"/>
<path d="M547.895 380.528C547.895 380.528 556.976 382.736 560.637 389.232C560.637 389.232 556.836 402.752 554.118 404.224C551.401 405.696 544.67 405.696 544.67 405.696C544.67 405.696 544.234 390.656 547.895 380.528Z" fill="#E5B2C4"/>
</svg>
