<svg width="32" height="32" viewBox="0 0 32 32" fill="none" xmlns="http://www.w3.org/2000/svg">
<g id="password (1) 1">
<path id="Vector" d="M19.9995 22.6661C19.9995 23.0197 19.859 23.3589 19.6089 23.6089C19.3589 23.859 19.0197 23.9995 18.6661 23.9995H13.3328C12.9792 23.9995 12.64 23.859 12.39 23.6089C12.1399 23.3589 11.9995 23.0197 11.9995 22.6661C11.9995 22.3125 12.1399 21.9734 12.39 21.7233C12.64 21.4733 12.9792 21.3328 13.3328 21.3328H18.6661C19.0197 21.3328 19.3589 21.4733 19.6089 21.7233C19.859 21.9734 19.9995 22.3125 19.9995 22.6661ZM19.6088 9.72346C19.3588 9.4735 19.0197 9.33308 18.6661 9.33308C18.3126 9.33308 17.9735 9.4735 17.7235 9.72346L15.9995 11.4475L14.2755 9.72346C14.1525 9.59611 14.0053 9.49453 13.8427 9.42466C13.68 9.35478 13.505 9.318 13.328 9.31646C13.151 9.31492 12.9754 9.34865 12.8115 9.41569C12.6477 9.48274 12.4988 9.58174 12.3736 9.70693C12.2484 9.83212 12.1494 9.98099 12.0824 10.1449C12.0153 10.3087 11.9816 10.4843 11.9831 10.6613C11.9847 10.8384 12.0214 11.0133 12.0913 11.176C12.1612 11.3387 12.2628 11.4858 12.3901 11.6088L14.1141 13.3328L12.3901 15.0568C12.2628 15.1798 12.1612 15.3269 12.0913 15.4896C12.0214 15.6523 11.9847 15.8272 11.9831 16.0043C11.9816 16.1813 12.0153 16.3569 12.0824 16.5207C12.1494 16.6846 12.2484 16.8335 12.3736 16.9587C12.4988 17.0838 12.6477 17.1828 12.8115 17.2499C12.9754 17.3169 13.151 17.3507 13.328 17.3491C13.505 17.3476 13.68 17.3108 13.8427 17.2409C14.0053 17.171 14.1525 17.0695 14.2755 16.9421L15.9995 15.2181L17.7235 16.9421C17.9749 17.185 18.3117 17.3194 18.6613 17.3164C19.0109 17.3133 19.3453 17.1731 19.5925 16.9259C19.8398 16.6787 19.98 16.3443 19.983 15.9947C19.9861 15.6451 19.8517 15.3083 19.6088 15.0568L17.8848 13.3328L19.6088 11.6088C19.8588 11.3588 19.9992 11.0197 19.9992 10.6661C19.9992 10.3126 19.8588 9.97349 19.6088 9.72346ZM29.3328 21.3328H23.9995C23.6458 21.3328 23.3067 21.4733 23.0566 21.7233C22.8066 21.9734 22.6661 22.3125 22.6661 22.6661C22.6661 23.0197 22.8066 23.3589 23.0566 23.6089C23.3067 23.859 23.6458 23.9995 23.9995 23.9995H29.3328C29.6864 23.9995 30.0256 23.859 30.2756 23.6089C30.5257 23.3589 30.6661 23.0197 30.6661 22.6661C30.6661 22.3125 30.5257 21.9734 30.2756 21.7233C30.0256 21.4733 29.6864 21.3328 29.3328 21.3328ZM28.5515 13.3328L30.2755 11.6088C30.4028 11.4858 30.5044 11.3387 30.5743 11.176C30.6441 11.0133 30.6809 10.8384 30.6825 10.6613C30.684 10.4843 30.6503 10.3087 30.5832 10.1449C30.5162 9.98099 30.4172 9.83212 30.292 9.70693C30.1668 9.58174 30.0179 9.48274 29.8541 9.41569C29.6902 9.34865 29.5146 9.31492 29.3376 9.31646C29.1606 9.318 28.9856 9.35478 28.8229 9.42466C28.6602 9.49453 28.5131 9.59611 28.3901 9.72346L26.6661 11.4475L24.9421 9.72346C24.8191 9.59611 24.672 9.49453 24.5093 9.42466C24.3467 9.35478 24.1717 9.318 23.9947 9.31646C23.8176 9.31492 23.642 9.34865 23.4782 9.41569C23.3143 9.48274 23.1655 9.58174 23.0403 9.70693C22.9151 9.83212 22.8161 9.98099 22.749 10.1449C22.682 10.3087 22.6483 10.4843 22.6498 10.6613C22.6513 10.8384 22.6881 11.0133 22.758 11.176C22.8279 11.3387 22.9294 11.4858 23.0568 11.6088L24.7808 13.3328L23.0568 15.0568C22.9294 15.1798 22.8279 15.3269 22.758 15.4896C22.6881 15.6523 22.6513 15.8272 22.6498 16.0043C22.6483 16.1813 22.682 16.3569 22.749 16.5207C22.8161 16.6846 22.9151 16.8335 23.0403 16.9587C23.1655 17.0838 23.3143 17.1828 23.4782 17.2499C23.642 17.3169 23.8176 17.3507 23.9947 17.3491C24.1717 17.3476 24.3467 17.3108 24.5093 17.2409C24.672 17.171 24.8191 17.0695 24.9421 16.9421L26.6661 15.2181L28.3901 16.9421C28.6416 17.185 28.9784 17.3194 29.328 17.3164C29.6776 17.3133 30.012 17.1731 30.2592 16.9259C30.5064 16.6787 30.6467 16.3443 30.6497 15.9947C30.6527 15.6451 30.5183 15.3083 30.2755 15.0568L28.5515 13.3328ZM7.99946 21.3328H2.66612C2.3125 21.3328 1.97336 21.4733 1.72331 21.7233C1.47327 21.9734 1.33279 22.3125 1.33279 22.6661C1.33279 23.0197 1.47327 23.3589 1.72331 23.6089C1.97336 23.859 2.3125 23.9995 2.66612 23.9995H7.99946C8.35308 23.9995 8.69222 23.859 8.94227 23.6089C9.19231 23.3589 9.33279 23.0197 9.33279 22.6661C9.33279 22.3125 9.19231 21.9734 8.94227 21.7233C8.69222 21.4733 8.35308 21.3328 7.99946 21.3328ZM8.94212 9.72346C8.69209 9.4735 8.35301 9.33308 7.99946 9.33308C7.6459 9.33308 7.30683 9.4735 7.05679 9.72346L5.33279 11.4475L3.60879 9.72346C3.48579 9.59611 3.33867 9.49453 3.176 9.42466C3.01332 9.35478 2.83836 9.318 2.66133 9.31646C2.48429 9.31492 2.30871 9.34865 2.14485 9.41569C1.98099 9.48274 1.83212 9.58174 1.70693 9.70693C1.58174 9.83212 1.48274 9.98099 1.41569 10.1449C1.34865 10.3087 1.31492 10.4843 1.31646 10.6613C1.318 10.8384 1.35478 11.0133 1.42466 11.176C1.49453 11.3387 1.59611 11.4858 1.72346 11.6088L3.44746 13.3328L1.72346 15.0568C1.59611 15.1798 1.49453 15.3269 1.42466 15.4896C1.35478 15.6523 1.318 15.8272 1.31646 16.0043C1.31492 16.1813 1.34865 16.3569 1.41569 16.5207C1.48274 16.6846 1.58174 16.8335 1.70693 16.9587C1.83212 17.0838 1.98099 17.1828 2.14485 17.2499C2.30871 17.3169 2.48429 17.3507 2.66133 17.3491C2.83836 17.3476 3.01332 17.3108 3.176 17.2409C3.33867 17.171 3.48579 17.0695 3.60879 16.9421L5.33279 15.2181L7.05679 16.9421C7.17979 17.0695 7.32691 17.171 7.48958 17.2409C7.65226 17.3108 7.82722 17.3476 8.00425 17.3491C8.18129 17.3507 8.35687 17.3169 8.52073 17.2499C8.68459 17.1828 8.83346 17.0838 8.95865 16.9587C9.08384 16.8335 9.18284 16.6846 9.24989 16.5207C9.31693 16.3569 9.35066 16.1813 9.34912 16.0043C9.34759 15.8272 9.3108 15.6523 9.24093 15.4896C9.17105 15.3269 9.06947 15.1798 8.94212 15.0568L7.21812 13.3328L8.94212 11.6088C9.19208 11.3588 9.33251 11.0197 9.33251 10.6661C9.33251 10.3126 9.19208 9.97349 8.94212 9.72346Z" fill="#407BFF"/>
</g>
</svg>
