<svg width="200" height="200" viewBox="0 0 200 200" fill="none" xmlns="http://www.w3.org/2000/svg">
<path d="M66.0762 23.968C66.0762 23.968 35.7682 39.408 20.6522 63.2C5.53622 86.992 6.73222 117.6 25.1002 140.32C43.4682 163.04 78.5762 160.056 107.972 174.448C137.368 188.84 169.8 185.876 183.7 155.384C197.6 124.892 176.64 113.496 173.04 78.208C169.44 42.92 137.628 -8.752 66.0762 23.968Z" fill="#B0D0F7"/>
<path opacity="0.7" d="M66.0762 23.968C66.0762 23.968 35.7682 39.408 20.6522 63.2C5.53622 86.992 6.73222 117.6 25.1002 140.32C43.4682 163.04 78.5762 160.056 107.972 174.448C137.368 188.84 169.8 185.876 183.7 155.384C197.6 124.892 176.64 113.496 173.04 78.208C169.44 42.92 137.628 -8.752 66.0762 23.968Z" fill="white"/>
<path d="M155.299 162.292C155.299 162.292 138.267 132.4 142.199 124.776C146.131 117.152 156.171 130.86 156.171 130.86C156.171 130.86 147.439 102.98 152.243 90.8C157.047 78.62 165.343 90.8 165.779 99.42C166.215 108.04 164.031 122.74 164.031 122.74C164.031 122.74 167.527 92.34 175.823 101.448C184.119 110.556 165.343 140.988 165.343 140.988C165.343 140.988 178.007 133.892 177.567 143.016C177.127 152.14 162.287 160.252 162.287 160.252" fill="#B0D0F7"/>
<path d="M155.443 156.716C155.443 156.716 139.683 142.012 147.363 135.424C155.043 128.836 159.083 142.52 159.083 142.52C159.083 142.52 150.595 100.444 164.335 98.92C178.075 97.396 167.971 135.42 167.971 135.42C167.971 135.42 179.691 119.2 178.883 132.4C178.075 145.6 160.699 156.736 160.699 156.736" stroke="#263238" stroke-miterlimit="10"/>
<path d="M163.183 154.04L152.535 142.5" stroke="#263238" stroke-miterlimit="10"/>
<path d="M160.965 154.928L163.849 121.196" stroke="#263238" stroke-miterlimit="10"/>
<path d="M160.523 152.484L170.063 139.836" stroke="#263238" stroke-miterlimit="10"/>
<path d="M174.323 150.132H144.863L147.811 184.88H171.375L174.323 150.132Z" fill="#263238"/>
<path d="M61.8604 109.836C58.0301 107.957 54.0707 106.353 50.0124 105.036C44.1644 103.236 37.2644 104.884 37.1124 106.832C36.9604 108.78 38.0004 107.888 39.3644 110C40.7284 112.112 40.1124 117.048 42.0644 121.548C44.0164 126.048 49.8604 128.296 49.8604 128.296L61.8604 109.836Z" fill="#B0D0F7" stroke="#263238" stroke-linecap="round" stroke-linejoin="round"/>
<path opacity="0.3" d="M57.9601 114.188C57.9601 114.188 48.9601 108.488 43.7121 106.536C38.4641 104.584 38.1641 107.436 38.1641 107.436C39.0274 107.753 39.7684 108.335 40.2807 109.099C40.793 109.863 41.0504 110.769 41.0161 111.688C41.0161 115.056 42.7001 122.032 46.7921 123.472C50.8841 124.912 57.9601 114.188 57.9601 114.188Z" fill="black"/>
<path d="M122.179 120.557C124.531 119.663 125.66 116.892 124.701 114.366C123.741 111.84 121.057 110.517 118.704 111.411C116.352 112.304 115.223 115.076 116.182 117.602C117.142 120.127 119.827 121.45 122.179 120.557Z" fill="#B0D0F7" stroke="#263238" stroke-linecap="round" stroke-linejoin="round"/>
<path d="M57.6914 168.328L62.7394 183.472C62.8763 183.882 63.1389 184.239 63.49 184.492C63.8411 184.745 64.2628 184.88 64.6954 184.88H72.5634C72.9659 184.881 73.3598 184.763 73.6961 184.542C74.0324 184.321 74.2964 184.006 74.4554 183.636L77.9754 175.468" fill="#B0D0F7"/>
<mask id="mask0_2589_21538" style="mask-type:luminance" maskUnits="userSpaceOnUse" x="57" y="168" width="21" height="17">
<path d="M57.6914 168.328L62.7394 183.472C62.8763 183.882 63.1389 184.239 63.49 184.492C63.8411 184.745 64.2628 184.88 64.6954 184.88H72.5634C72.9659 184.881 73.3598 184.763 73.6961 184.542C74.0324 184.321 74.2964 184.006 74.4554 183.636L77.9754 175.468" fill="white"/>
</mask>
<g mask="url(#mask0_2589_21538)">
<path opacity="0.3" d="M60.2227 168.328L64.3987 183.472C64.4777 183.852 64.6794 184.196 64.9728 184.45C65.2662 184.705 65.6351 184.856 66.0227 184.88H72.5467C72.905 184.862 73.2486 184.732 73.5297 184.509C73.8107 184.286 74.0152 183.981 74.1147 183.636L77.0347 175.468" fill="black"/>
</g>
<path d="M57.6914 168.328L62.7394 183.472C62.8763 183.882 63.1389 184.239 63.49 184.492C63.8411 184.745 64.2628 184.88 64.6954 184.88H72.5634C72.9659 184.881 73.3598 184.763 73.6961 184.542C74.0324 184.321 74.2964 184.006 74.4554 183.636L77.9754 175.468" stroke="#263238" stroke-linecap="round" stroke-linejoin="round"/>
<path d="M95.6587 168.328L90.6147 183.472C90.4778 183.882 90.2152 184.239 89.8641 184.492C89.513 184.745 89.0913 184.88 88.6587 184.88H80.7987C80.3962 184.881 80.0024 184.763 79.666 184.542C79.3297 184.321 79.0657 184.006 78.9067 183.636L75.3867 175.468" fill="#263238"/>
<path d="M95.6587 168.328L90.6147 183.472C90.4778 183.882 90.2152 184.239 89.8641 184.492C89.513 184.745 89.0913 184.88 88.6587 184.88H80.7987C80.3962 184.881 80.0024 184.763 79.666 184.542C79.3297 184.321 79.0657 184.006 78.9067 183.636L75.3867 175.468" stroke="#263238" stroke-linecap="round" stroke-linejoin="round"/>
<path d="M112.378 168.328L107.33 183.472C107.193 183.882 106.93 184.239 106.579 184.492C106.228 184.745 105.806 184.88 105.374 184.88H97.5057C97.1032 184.881 96.7094 184.763 96.3731 184.542C96.0367 184.321 95.7727 184.006 95.6138 183.636L92.0938 175.468" fill="#B0D0F7"/>
<mask id="mask1_2589_21538" style="mask-type:luminance" maskUnits="userSpaceOnUse" x="92" y="168" width="21" height="17">
<path d="M112.378 168.328L107.33 183.472C107.193 183.882 106.93 184.239 106.579 184.492C106.228 184.745 105.806 184.88 105.374 184.88H97.5057C97.1032 184.881 96.7094 184.763 96.3731 184.542C96.0367 184.321 95.7727 184.006 95.6138 183.636L92.0938 175.468" fill="white"/>
</mask>
<g mask="url(#mask1_2589_21538)">
<path opacity="0.3" d="M108.8 168.328L105.348 183.472C105.156 184.312 104.62 184.88 104.012 184.88H98.6321C98.0721 184.88 97.5641 184.392 97.3401 183.636L93.9961 175.636" fill="black"/>
</g>
<path d="M112.378 168.328L107.33 183.472C107.193 183.882 106.93 184.239 106.579 184.492C106.228 184.745 105.806 184.88 105.374 184.88H97.5057C97.1032 184.881 96.7094 184.763 96.3731 184.542C96.0367 184.321 95.7727 184.006 95.6138 183.636L92.0938 175.468" stroke="#263238" stroke-linecap="round" stroke-linejoin="round"/>
<path d="M85.4008 178.292C109.297 178.292 128.669 160.724 128.669 139.052C128.669 117.38 109.297 99.812 85.4008 99.812C61.5046 99.812 42.1328 117.38 42.1328 139.052C42.1328 160.724 61.5046 178.292 85.4008 178.292Z" fill="#B0D0F7"/>
<mask id="mask2_2589_21538" style="mask-type:luminance" maskUnits="userSpaceOnUse" x="42" y="99" width="87" height="80">
<path d="M85.4008 178.292C109.297 178.292 128.669 160.724 128.669 139.052C128.669 117.38 109.297 99.812 85.4008 99.812C61.5046 99.812 42.1328 117.38 42.1328 139.052C42.1328 160.724 61.5046 178.292 85.4008 178.292Z" fill="white"/>
</mask>
<g mask="url(#mask2_2589_21538)">
<path opacity="0.3" d="M115.199 112.24C117.737 117.272 119.059 122.829 119.059 128.464C119.059 150.136 99.6874 167.704 75.7914 167.704C66.8988 167.749 58.1827 165.224 50.6914 160.432C58.2354 170.556 71.0074 177.232 85.4914 177.232C108.691 177.232 127.491 160.188 127.491 139.16C127.467 128.636 122.771 119.128 115.199 112.24Z" fill="black"/>
</g>
<path d="M85.4008 178.292C109.297 178.292 128.669 160.724 128.669 139.052C128.669 117.38 109.297 99.812 85.4008 99.812C61.5046 99.812 42.1328 117.38 42.1328 139.052C42.1328 160.724 61.5046 178.292 85.4008 178.292Z" stroke="#263238" stroke-linecap="round" stroke-linejoin="round"/>
<path d="M125.029 142.572C124.085 150.476 120.441 157.648 114.953 163.312" stroke="#B0D0F7" stroke-width="2" stroke-linecap="round" stroke-linejoin="round"/>
<path d="M124.312 130.4C124.951 133.047 125.273 135.761 125.272 138.484" stroke="#B0D0F7" stroke-width="2" stroke-linecap="round" stroke-linejoin="round"/>
<path d="M74.6719 102.26C78.237 101.427 81.8866 101.008 85.5479 101.012C87.8919 101.012 90.2328 101.183 92.5519 101.524" stroke="#263238" stroke-width="4" stroke-linecap="round" stroke-linejoin="round"/>
<path d="M93.8888 129.652C93.8888 129.652 98.0888 126.8 98.2408 121.552C98.3928 116.304 91.4888 108.656 85.9408 105.504C80.3928 102.352 76.3408 102.956 76.1928 105.204C76.0448 107.452 74.0928 110.004 73.3448 114.352C72.5968 118.7 72.2928 125.152 78.1448 127.252" fill="#B0D0F7"/>
<path d="M93.8888 129.652C93.8888 129.652 98.0888 126.8 98.2408 121.552C98.3928 116.304 91.4888 108.656 85.9408 105.504C80.3928 102.352 76.3408 102.956 76.1928 105.204C76.0448 107.452 74.0928 110.004 73.3448 114.352C72.5968 118.7 72.2928 125.152 78.1448 127.252" stroke="#263238" stroke-linecap="round" stroke-linejoin="round"/>
<path opacity="0.3" d="M84.8519 127.968L85.7119 128.096C89.3999 128.628 90.6959 126.22 90.5879 122.604C90.4399 117.504 83.6919 106.704 80.8399 105.204C77.9879 103.704 77.0919 105.804 77.0919 105.804C77.0919 105.804 77.4919 106.072 76.0879 110.732C75.4399 112.884 73.0279 120.388 75.4159 123.716C77.5279 126.656 81.4519 127.46 84.8519 127.968Z" fill="black"/>
<path opacity="0.3" d="M96.8021 122.8H96.7461C96.6937 122.793 96.6433 122.776 96.5976 122.749C96.5519 122.723 96.5119 122.688 96.4799 122.646C96.4479 122.604 96.4246 122.556 96.4112 122.505C96.3979 122.454 96.3948 122.4 96.4021 122.348C96.4454 122.04 96.4708 121.731 96.4781 121.42C96.5581 118.62 94.2741 114.6 90.5181 110.892C90.4805 110.855 90.4506 110.811 90.4301 110.762C90.4096 110.714 90.3988 110.662 90.3984 110.609C90.3981 110.556 90.4081 110.504 90.4279 110.455C90.4478 110.406 90.4771 110.362 90.5141 110.324C90.5511 110.286 90.5952 110.257 90.6438 110.236C90.6924 110.215 90.7445 110.205 90.7973 110.204C90.85 110.204 90.9023 110.214 90.9512 110.234C91 110.254 91.0445 110.283 91.0821 110.32C95.0501 114.24 97.3661 118.396 97.2781 121.44C97.2695 121.78 97.2428 122.119 97.1981 122.456C97.1846 122.551 97.1371 122.639 97.0643 122.702C96.9916 122.765 96.8985 122.8 96.8021 122.8Z" fill="black"/>
<path opacity="0.3" d="M94.6475 127.624C94.5718 127.624 94.4976 127.603 94.4334 127.563C94.3693 127.523 94.318 127.465 94.2853 127.397C94.2526 127.328 94.24 127.252 94.2489 127.177C94.2577 127.102 94.2878 127.031 94.3355 126.972C94.9947 126.164 95.5213 125.257 95.8955 124.284C95.9331 124.185 96.0086 124.105 96.1054 124.061C96.2022 124.018 96.3123 124.014 96.4115 124.052C96.5106 124.09 96.5908 124.165 96.6343 124.262C96.6778 124.359 96.6811 124.469 96.6435 124.568C96.2393 125.621 95.6695 126.603 94.9555 127.476C94.9182 127.522 94.8713 127.559 94.8181 127.585C94.7648 127.61 94.7065 127.624 94.6475 127.624Z" fill="black"/>
<path opacity="0.3" d="M65.5178 146.644C66.7008 141.903 62.5774 136.791 56.3079 135.227C50.0384 133.663 43.9969 136.238 42.8139 140.979C41.6309 145.721 45.7543 150.832 52.0238 152.397C58.2934 153.961 64.3348 151.386 65.5178 146.644Z" fill="black"/>
<path d="M64.9553 145.783C66.1383 141.042 62.0149 135.93 55.7454 134.366C49.4759 132.802 43.4344 135.377 42.2514 140.118C41.0684 144.86 45.1918 149.971 51.4613 151.536C57.7309 153.1 63.7723 150.525 64.9553 145.783Z" fill="#B0D0F7" stroke="#263238" stroke-linecap="round" stroke-linejoin="round"/>
<path d="M50.0737 141.52C50.1457 142.592 49.7337 143.496 49.1577 143.52C48.5817 143.544 48.0497 142.72 47.9577 141.648C47.8657 140.576 48.2977 139.668 48.8777 139.648C49.4577 139.628 50.0017 140.444 50.0737 141.52Z" stroke="#263238" stroke-linecap="round" stroke-linejoin="round"/>
<path d="M57.9995 143.508C58.0715 144.584 57.6595 145.484 57.0835 145.508C56.5075 145.532 55.9755 144.708 55.8835 143.632C55.7915 142.556 56.2235 141.656 56.8035 141.632C57.3835 141.608 57.9155 142.432 57.9995 143.508Z" stroke="#263238" stroke-linecap="round" stroke-linejoin="round"/>
<path d="M71.0826 146.288C70.9981 147.058 70.8181 147.815 70.5466 148.54C68.2506 154.744 59.9386 157.428 51.7266 154.756" stroke="#263238" stroke-width="3" stroke-linecap="round" stroke-linejoin="round"/>
<path d="M69.7461 145.7H72.2941" stroke="#263238" stroke-width="3" stroke-linecap="round" stroke-linejoin="round"/>
<path d="M53.5131 129.092C53.2331 130.256 52.5171 131.092 51.9131 130.94C51.3091 130.788 51.0451 129.74 51.3291 128.564C51.6131 127.388 52.3251 126.564 52.9291 126.712C53.5331 126.86 53.7971 127.924 53.5131 129.092Z" fill="#263238" stroke="#263238" stroke-linecap="round" stroke-linejoin="round"/>
<path d="M60.8906 130.7C61.1721 129.532 60.9112 128.467 60.3077 128.321C59.7042 128.176 58.9867 129.005 58.7051 130.173C58.4236 131.342 58.6845 132.407 59.288 132.552C59.8915 132.698 60.609 131.868 60.8906 130.7Z" fill="#263238" stroke="#263238" stroke-linecap="round" stroke-linejoin="round"/>
<path d="M71.9062 173.2L76.3063 183.64C76.4642 184.013 76.7286 184.332 77.0665 184.556C77.4044 184.78 77.8008 184.9 78.2063 184.9H86.2063C86.608 184.899 87.0008 184.782 87.3368 184.562C87.6728 184.341 87.9374 184.028 88.0983 183.66L92.8983 172.568H92.6903" fill="#B0D0F7"/>
<mask id="mask3_2589_21538" style="mask-type:luminance" maskUnits="userSpaceOnUse" x="71" y="172" width="22" height="13">
<path d="M71.9062 173.2L76.3063 183.64C76.4642 184.013 76.7286 184.332 77.0665 184.556C77.4044 184.78 77.8008 184.9 78.2063 184.9H86.2063C86.608 184.899 87.0008 184.782 87.3368 184.562C87.6728 184.341 87.9374 184.028 88.0983 183.66L92.8983 172.568H92.6903" fill="white"/>
</mask>
<g mask="url(#mask3_2589_21538)">
<path opacity="0.3" d="M81.2041 171.868C78.6681 171.868 75.7161 172.2 73.3281 171.648L77.4401 183.62C77.538 183.968 77.7422 184.276 78.0241 184.502C78.306 184.728 78.6514 184.86 79.0121 184.88H85.6041C85.9605 184.86 86.302 184.73 86.5814 184.508C86.8609 184.286 87.0645 183.983 87.1641 183.64L91.1441 171.428L89.5441 171.648C84.4681 172.2 84.6001 171.868 81.2041 171.868Z" fill="black"/>
</g>
<path d="M71.9062 173.2L76.3063 183.64C76.4642 184.013 76.7286 184.332 77.0665 184.556C77.4044 184.78 77.8008 184.9 78.2063 184.9H86.2063C86.608 184.899 87.0008 184.782 87.3368 184.562C87.6728 184.341 87.9374 184.028 88.0983 183.66L92.8983 172.568H92.6903" stroke="#263238" stroke-linecap="round" stroke-linejoin="round"/>
<path d="M151.597 10.576L129.473 42.452C129.473 42.452 127.581 46.964 125.253 50.312C122.925 53.66 116.397 57.008 116.397 57.008C116.397 57.008 115.817 63.264 113.925 65.448C112.033 67.632 107.957 66.324 107.957 66.324C107.957 66.324 106.209 68.216 104.317 69.088C102.425 69.96 96.6052 66.76 96.6052 66.76C96.6052 66.76 101.841 72.436 102.569 74.328C103.297 76.22 104.609 77.82 102.281 79.568C99.9532 81.316 97.3292 78.84 97.3292 78.84C97.3292 78.84 98.4972 82.624 95.1492 83.352C91.8012 84.08 88.1532 76.8 86.6972 74.328C85.2412 71.856 81.0212 62.536 80.2972 62.1C79.5732 61.664 78.5532 59.336 80.0092 57.152C81.4652 54.968 91.7932 40.996 92.9572 40C94.1212 39.004 116.397 33.72 116.397 33.72L124.841 10.432" fill="white"/>
<mask id="mask4_2589_21538" style="mask-type:luminance" maskUnits="userSpaceOnUse" x="79" y="10" width="73" height="74">
<path d="M151.597 10.576L129.473 42.452C129.473 42.452 127.581 46.964 125.253 50.312C122.925 53.66 116.397 57.008 116.397 57.008C116.397 57.008 115.817 63.264 113.925 65.448C112.033 67.632 107.957 66.324 107.957 66.324C107.957 66.324 106.209 68.216 104.317 69.088C102.425 69.96 96.6052 66.76 96.6052 66.76C96.6052 66.76 101.841 72.436 102.569 74.328C103.297 76.22 104.609 77.82 102.281 79.568C99.9532 81.316 97.3292 78.84 97.3292 78.84C97.3292 78.84 98.4972 82.624 95.1492 83.352C91.8012 84.08 88.1532 76.8 86.6972 74.328C85.2412 71.856 81.0212 62.536 80.2972 62.1C79.5732 61.664 78.5532 59.336 80.0092 57.152C81.4652 54.968 91.7932 40.996 92.9572 40C94.1212 39.004 116.397 33.72 116.397 33.72L124.841 10.432" fill="white"/>
</mask>
<g mask="url(#mask4_2589_21538)">
<path opacity="0.2" d="M127.196 42.8C127.196 42.8 124.796 50 122.196 51.4C119.596 52.8 104.796 56.6 98.9961 55.8C93.1961 55 89.9961 52.8 89.9961 52.8C89.9961 52.8 86.7961 57 85.3961 58.4C84.4212 59.3054 83.2611 59.9878 81.9961 60.4C81.9961 60.4 88.9561 77.884 93.9601 83.296C94.3489 83.4161 94.7618 83.4354 95.1601 83.352C98.5081 82.624 97.3401 78.84 97.3401 78.84C97.3401 78.84 99.9601 81.312 102.292 79.568C104.624 77.824 103.308 76.22 102.58 74.328C101.852 72.436 96.5961 66.76 96.5961 66.76C96.5961 66.76 102.416 69.96 104.308 69.088C106.2 68.216 107.948 66.32 107.948 66.32C107.948 66.32 112.024 67.632 113.916 65.448C115.808 63.264 116.388 57.008 116.388 57.008C116.388 57.008 122.936 53.66 125.268 50.312C127.6 46.964 129.488 42.452 129.488 42.452L138.604 29.32L127.196 42.8Z" fill="black"/>
</g>
<path d="M151.597 10.576L129.473 42.452C129.473 42.452 127.581 46.964 125.253 50.312C122.925 53.66 116.397 57.008 116.397 57.008C116.397 57.008 115.817 63.264 113.925 65.448C112.033 67.632 107.957 66.324 107.957 66.324C107.957 66.324 106.209 68.216 104.317 69.088C102.425 69.96 96.6052 66.76 96.6052 66.76C96.6052 66.76 101.841 72.436 102.569 74.328C103.297 76.22 104.609 77.82 102.281 79.568C99.9532 81.316 97.3292 78.84 97.3292 78.84C97.3292 78.84 98.4972 82.624 95.1492 83.352C91.8012 84.08 88.1532 76.8 86.6972 74.328C85.2412 71.856 81.0212 62.536 80.2972 62.1C79.5732 61.664 78.5532 59.336 80.0092 57.152C81.4652 54.968 91.7932 40.996 92.9572 40C94.1212 39.004 116.397 33.72 116.397 33.72L124.841 10.432" stroke="#263238" stroke-linecap="round" stroke-linejoin="round"/>
<path d="M75.9297 95.576L76.5097 97.76L85.5337 95.576L93.9777 73.452L88.4457 71.56L75.9297 95.576Z" fill="white" stroke="#263238" stroke-linecap="round" stroke-linejoin="round"/>
<path d="M78.6944 66.176L91.2104 70.836L85.0984 98.488L70.3984 93.976L78.6944 66.176Z" fill="white" stroke="#263238" stroke-linecap="round" stroke-linejoin="round"/>
<path d="M70.8906 92.324L83.9346 96.16L89.6106 71.56L78.1826 67.888L70.8906 92.324Z" fill="#B0D0F7" stroke="#263238" stroke-linecap="round" stroke-linejoin="round"/>
<path d="M78.1324 73.972C77.5647 73.8218 76.9715 73.7945 76.3924 73.892L72.9844 85.312C73.4776 85.7927 74.0844 86.1408 74.7484 86.324C77.4204 87.06 80.3484 84.888 81.2844 81.476C82.2204 78.064 80.8004 74.704 78.1324 73.972Z" fill="white" stroke="#263238" stroke-linecap="round" stroke-linejoin="round"/>
<path d="M77.6475 75.864C77.6303 75.8563 77.6163 75.843 77.6076 75.8263C77.5989 75.8096 77.596 75.7905 77.5995 75.772L77.7515 75.18C77.7608 75.1551 77.7642 75.1283 77.7617 75.1018C77.7591 75.0754 77.7506 75.0498 77.7367 75.0271C77.7229 75.0044 77.7041 74.9851 77.6817 74.9707C77.6593 74.9563 77.6339 74.9472 77.6075 74.944L76.9715 74.792C76.9466 74.7819 76.9197 74.7778 76.8929 74.7799C76.8661 74.7821 76.8402 74.7905 76.8172 74.8045C76.7943 74.8185 76.7749 74.8377 76.7607 74.8606C76.7465 74.8834 76.7379 74.9092 76.7355 74.936L76.6115 75.548C76.6068 75.5663 76.5958 75.5824 76.5805 75.5934C76.5651 75.6043 76.5463 75.6095 76.5275 75.608C76.3107 75.5858 76.0923 75.5858 75.8755 75.608L74.7115 79.516C75.6195 80.46 77.0355 80.932 76.8475 81.724C76.7395 82.172 76.3315 82.524 75.6155 82.364C75.4658 82.344 75.3221 82.292 75.1943 82.2115C75.0665 82.131 74.9575 82.0239 74.8748 81.8975C74.792 81.7711 74.7375 81.6284 74.7148 81.479C74.6922 81.3297 74.702 81.1772 74.7435 81.032L74.7795 80.872C74.7995 80.784 74.7475 80.712 74.6235 80.684L74.3795 80.624L73.6875 82.936C73.9654 83.1887 74.2902 83.3844 74.6435 83.512C74.6614 83.5199 74.6761 83.5338 74.6848 83.5513C74.6936 83.5689 74.696 83.5889 74.6915 83.608L74.5475 84.116C74.5364 84.1408 74.5316 84.168 74.5334 84.1951C74.5351 84.2223 74.5434 84.2486 74.5576 84.2718C74.5718 84.295 74.5913 84.3144 74.6147 84.3284C74.638 84.3424 74.6644 84.3505 74.6915 84.352L75.3515 84.512C75.3747 84.5243 75.4004 84.5312 75.4267 84.532C75.4529 84.5329 75.479 84.5277 75.503 84.5169C75.5269 84.506 75.5481 84.4899 75.5648 84.4696C75.5815 84.4494 75.5934 84.4256 75.5995 84.4L75.7075 83.896C75.7135 83.8774 75.7252 83.8611 75.741 83.8496C75.7568 83.8381 75.7759 83.8319 75.7955 83.832C77.2035 83.98 78.1595 83.288 78.4555 82.056C78.6875 81.072 78.3555 80.236 77.3275 79.448C76.3875 78.736 75.3955 78.384 75.5675 77.656C75.6875 77.152 76.1475 76.92 76.7675 77.068C76.9209 77.0927 77.0672 77.1503 77.1963 77.237C77.3253 77.3236 77.434 77.4371 77.515 77.5698C77.596 77.7024 77.6472 77.8511 77.6653 78.0054C77.6833 78.1598 77.6677 78.3162 77.6195 78.464L77.5915 78.576C77.5915 78.644 77.6315 78.704 77.7555 78.736L78.9275 79.016C78.9525 79.0253 78.9792 79.0287 79.0057 79.0262C79.0321 79.0236 79.0577 79.0151 79.0804 79.0012C79.1031 78.9874 79.1224 78.9686 79.1368 78.9462C79.1512 78.9238 79.1603 78.8984 79.1635 78.872L79.2515 78.5C79.5195 77.328 78.9555 76.332 77.6475 75.864Z" fill="#263238"/>
<path d="M89.0276 51.62C89.0276 51.62 90.7756 54.24 91.0676 56.572C91.3157 58.5596 90.8508 60.5709 89.7556 62.248C88.8836 63.556 88.0116 64.72 87.2836 66.76C86.5556 68.8 86.4116 71.708 85.3916 73.16C84.3716 74.612 83.7916 76.068 85.2436 77.38C86.6956 78.692 90.4836 78.544 92.5236 74.76C94.5636 70.976 95.8716 66.9 97.1796 65.444C98.4876 63.988 102.712 60.644 102.712 60.644C102.712 60.644 114.208 59.044 116.392 57.008C118.576 54.972 120.468 49.44 120.468 49.44" fill="white"/>
<mask id="mask5_2589_21538" style="mask-type:luminance" maskUnits="userSpaceOnUse" x="84" y="49" width="37" height="30">
<path d="M89.0276 51.62C89.0276 51.62 90.7756 54.24 91.0676 56.572C91.3157 58.5596 90.8508 60.5709 89.7556 62.248C88.8836 63.556 88.0116 64.72 87.2836 66.76C86.5556 68.8 86.4116 71.708 85.3916 73.16C84.3716 74.612 83.7916 76.068 85.2436 77.38C86.6956 78.692 90.4836 78.544 92.5236 74.76C94.5636 70.976 95.8716 66.9 97.1796 65.444C98.4876 63.988 102.712 60.644 102.712 60.644C102.712 60.644 114.208 59.044 116.392 57.008C118.576 54.972 120.468 49.44 120.468 49.44" fill="white"/>
</mask>
<g mask="url(#mask5_2589_21538)">
<path opacity="0.2" d="M119.6 51.4C119.6 51.4 113.4 55.4 108.6 56.6C103.8 57.8 100.8 57.8 98.9996 60.2C97.1996 62.6 95.3996 70.2 92.9996 71.6C90.5996 73 90.1996 68 86.7996 69L86.6876 69.04C86.3556 70.6 86.0636 72.2 85.3916 73.164C84.3716 74.62 83.7916 76.072 85.2436 77.384C86.6956 78.696 90.4836 78.548 92.5236 74.764C94.5636 70.98 95.8716 66.904 97.1796 65.448C98.4876 63.992 102.712 60.648 102.712 60.648C102.712 60.648 114.208 59.048 116.392 57.012C117.712 55.78 118.924 53.276 119.676 51.484L119.6 51.4Z" fill="black"/>
</g>
<path d="M89.0276 51.62C89.0276 51.62 90.7756 54.24 91.0676 56.572C91.3157 58.5596 90.8508 60.5709 89.7556 62.248C88.8836 63.556 88.0116 64.72 87.2836 66.76C86.5556 68.8 86.4116 71.708 85.3916 73.16C84.3716 74.612 83.7916 76.068 85.2436 77.38C86.6956 78.692 90.4836 78.544 92.5236 74.76C94.5636 70.976 95.8716 66.9 97.1796 65.444C98.4876 63.988 102.712 60.644 102.712 60.644C102.712 60.644 114.208 59.044 116.392 57.008C118.576 54.972 120.468 49.44 120.468 49.44" stroke="#263238" stroke-linecap="round" stroke-linejoin="round"/>
<path d="M84.5156 58.9C84.5156 58.9 88.3036 60.936 91.0676 58.608" stroke="#263238" stroke-linecap="round" stroke-linejoin="round"/>
<path d="M97.3206 78.84L93.9766 72.436" stroke="#263238" stroke-linecap="round" stroke-linejoin="round"/>
<path d="M107.949 66.324C107.949 66.324 110.569 64.14 110.421 59.336" stroke="#263238" stroke-linecap="round" stroke-linejoin="round"/>
<path d="M28.3984 184.88H186.798" stroke="#263238" stroke-linecap="round" stroke-linejoin="round"/>
<path d="M14.3984 184.88H21.5984" stroke="#263238" stroke-linecap="round" stroke-linejoin="round"/>
</svg>
