<svg xmlns="http://www.w3.org/2000/svg" width="25" height="24" viewBox="0 0 25 24" fill="none">
  <g clip-path="url(#clip0_6210_2484)">
    <path d="M24.3281 1.21999V4.27999C24.3281 4.67799 24.0061 4.99999 23.6081 4.99999H20.5481C20.2571 4.99999 19.9941 4.82499 19.8831 4.55599C19.7711 4.28699 19.8331 3.97699 20.0391 3.77099L20.8811 2.92899C20.1761 2.34399 19.2811 1.99999 18.3281 1.99999C16.7371 1.99999 15.2981 2.94199 14.6601 4.39999C14.4401 4.90499 13.8551 5.13799 13.3441 4.91599C12.8381 4.69499 12.6071 4.10499 12.8281 3.59899C13.7841 1.41199 15.9431 -0.00100708 18.3281 -0.00100708C19.8221 -0.00100708 21.2271 0.553993 22.3041 1.50499L23.0991 0.708993C23.3051 0.502993 23.6141 0.441993 23.8841 0.552993C24.1531 0.663993 24.3281 0.926993 24.3281 1.21799V1.21999ZM23.3121 7.08399C22.8011 6.86499 22.2161 7.09599 21.9961 7.59999C21.3581 9.05799 19.9191 9.99999 18.3281 9.99999C17.3751 9.99999 16.4801 9.65599 15.7751 9.07099L16.6171 8.22899C16.8231 8.02299 16.8851 7.71399 16.7731 7.44399C16.6621 7.17499 16.3991 6.99999 16.1081 6.99999H13.0481C12.6501 6.99999 12.3281 7.32199 12.3281 7.71999V10.78C12.3281 11.071 12.5031 11.334 12.7721 11.445C13.0421 11.556 13.3511 11.495 13.5571 11.289L14.3521 10.494C15.4281 11.445 16.8331 12 18.3281 12C20.7141 12 22.8731 10.587 23.8281 8.39999C24.0501 7.89399 23.8181 7.30499 23.3121 7.08399ZM8.82812 9.00099C9.34113 9.00099 9.84013 8.97299 10.3281 8.92699V6.00099C10.3281 3.84999 11.1821 1.90099 12.5631 0.462993C11.4351 0.169993 10.1701 0.00099292 8.82812 0.00099292C4.13413 -7.08003e-06 0.328125 2.01499 0.328125 4.49999C0.328125 6.98499 4.13413 8.99999 8.82812 8.99999V9.00099ZM8.82812 14.001C10.3981 14.001 11.8371 13.81 13.0701 13.5C13.0641 13.5 13.0581 13.502 13.0511 13.502C12.7021 13.502 12.3501 13.435 12.0131 13.297C11.0351 12.892 10.3971 11.975 10.3391 10.934C9.84612 10.975 9.34513 11.001 8.82812 11.001C5.24813 11.001 2.20413 9.99699 0.328125 8.40099V10.568C0.328125 12.189 3.96313 14.001 8.82812 14.001ZM0.328125 13.827V15.567C0.328125 17.188 3.96313 19.001 8.82812 19.001C13.6931 19.001 17.3281 17.189 17.3281 15.567V13.827C15.4521 15.161 12.4081 16 8.82812 16C5.24813 16 2.20413 15.162 0.328125 13.827ZM0.328125 18.827V19.787C0.328125 22.554 4.60413 24.001 8.82812 24.001C13.0521 24.001 17.3281 22.554 17.3281 19.787V18.827C15.4521 20.161 12.4081 21.001 8.82812 21.001C5.24813 21.001 2.20413 20.162 0.328125 18.827Z" fill="currentColor"/>
  </g>
  <defs>
    <clipPath id="clip0_6210_2484">
      <rect width="24" height="24" fill="white" transform="translate(0.328125)"/>
    </clipPath>
  </defs>
</svg>