<svg width="32" height="32" viewBox="0 0 32 32" fill="none" xmlns="http://www.w3.org/2000/svg">
<g id="replace 1" clip-path="url(#clip0_6117_4398)">
<path id="Vector" d="M9.33333 3.80818e-06H5.33333C2.38667 3.80818e-06 0 2.38667 0 5.33334V9.33334C0 12.28 2.38667 14.6667 5.33333 14.6667H9.33333C12.28 14.6667 14.6667 12.28 14.6667 9.33334V5.33334C14.6667 2.38667 12.28 3.80818e-06 9.33333 3.80818e-06ZM26.6667 17.3333H22.6667C19.72 17.3333 17.3333 19.72 17.3333 22.6667V26.6667C17.3333 29.6133 19.72 32 22.6667 32H26.6667C29.6133 32 32 29.6133 32 26.6667V22.6667C32 19.72 29.6133 17.3333 26.6667 17.3333ZM17.3333 6.66667C17.3333 5.25334 17.92 3.93334 19 2.96L21.76 0.360004C22.2933 -0.146663 23.1333 -0.119996 23.64 0.413337C24.1467 0.946671 24.12 1.8 23.5867 2.29334L20.8133 4.89334C20.6667 5.02667 20.5467 5.17334 20.44 5.32H25.3333C28.28 5.32 30.6667 7.70667 30.6667 10.6533V13.32C30.6667 14.0533 30.0667 14.6533 29.3333 14.6533C28.6 14.6533 28 14.0533 28 13.32V10.6533C28 9.18667 26.8 7.98667 25.3333 7.98667H20.44C20.5467 8.13334 20.6667 8.26667 20.8 8.4L23.5867 11.0133C24.12 11.52 24.1467 12.36 23.64 12.8933C23.3733 13.1733 23.0267 13.3067 22.6667 13.3067C22.3333 13.3067 22.0133 13.1867 21.7467 12.9467L18.9733 10.3467C17.92 9.37334 17.32 8.05334 17.32 6.65334L17.3333 6.66667ZM14.6667 25.3333C14.6667 26.7467 14.08 28.0533 13 29.04L10.24 31.64C9.98667 31.88 9.65333 32 9.32 32C8.96 32 8.61333 31.8533 8.34667 31.5867C7.84 31.0533 7.86667 30.2 8.4 29.7067L11.1733 27.1067C11.32 26.9733 11.44 26.8267 11.5467 26.68H6.65333C3.70667 26.68 1.32 24.2933 1.32 21.3467V18.68C1.32 17.9467 1.92 17.3467 2.65333 17.3467C3.38667 17.3467 3.98667 17.9467 3.98667 18.68V21.3467C3.98667 22.8133 5.18667 24.0133 6.65333 24.0133H11.5467C11.44 23.8667 11.32 23.7333 11.1867 23.6L8.4 20.9867C7.86667 20.48 7.84 19.64 8.34667 19.1067C8.85333 18.5733 9.69333 18.5467 10.2267 19.0533L13 21.6533C14.0533 22.6267 14.6533 23.9467 14.6533 25.3467L14.6667 25.3333Z" fill="#407BFF"/>
</g>
<defs>
<clipPath id="clip0_6117_4398">
<rect width="32" height="32" fill="white"/>
</clipPath>
</defs>
</svg>
