<svg xmlns="http://www.w3.org/2000/svg" width="49" height="48" viewBox="0 0 49 48" fill="none">
  <g clip-path="url(#clip0_6002_22410)">
    <path d="M0.915301 17.1041C0.484346 16.3048 0.28469 15.4011 0.338742 14.4946C0.392794 13.5881 0.698413 12.7146 1.2213 11.9721C2.07582 10.7183 3.22019 9.68923 4.5573 8.97211L19.5593 1.16411C21.0338 0.397372 22.6713 -0.00292969 24.3333 -0.00292969C25.9953 -0.00292969 27.6328 0.397372 29.1073 1.16411L44.1073 8.97811C45.4444 9.69523 46.5888 10.7243 47.4433 11.9781C47.9662 12.7206 48.2718 13.5941 48.3259 14.5006C48.3799 15.4071 48.1803 16.3108 47.7493 17.1101C47.2853 17.9878 46.5895 18.7213 45.7375 19.2309C44.8855 19.7405 43.91 20.0065 42.9173 20.0001H5.7493C4.75562 20.0063 3.77931 19.7395 2.92688 19.2288C2.07444 18.7182 1.37862 17.9832 0.915301 17.1041ZM46.3333 44.0001C46.3333 42.9393 45.9119 41.9218 45.1617 41.1717C44.4116 40.4215 43.3942 40.0001 42.3333 40.0001V24.0001H38.3333V40.0001H32.3333V24.0001H28.3333V40.0001H20.3333V24.0001H16.3333V40.0001H10.3333V24.0001H6.3333V40.0001C5.27244 40.0001 4.25502 40.4215 3.50487 41.1717C2.75473 41.9218 2.3333 42.9393 2.3333 44.0001C1.80287 44.0001 1.29416 44.2108 0.919088 44.5859C0.544015 44.961 0.333301 45.4697 0.333301 46.0001C0.333301 46.5305 0.544015 47.0393 0.919088 47.4143C1.29416 47.7894 1.80287 48.0001 2.3333 48.0001H46.3333C46.8637 48.0001 47.3724 47.7894 47.7475 47.4143C48.1226 47.0393 48.3333 46.5305 48.3333 46.0001C48.3333 45.4697 48.1226 44.961 47.7475 44.5859C47.3724 44.2108 46.8637 44.0001 46.3333 44.0001Z" fill="#3C3A36"/>
  </g>
  <defs>
    <clipPath id="clip0_6002_22410">
      <rect width="48" height="48" fill="white" transform="translate(0.333008)"/>
    </clipPath>
  </defs>
</svg>