<svg xmlns="http://www.w3.org/2000/svg" width="49" height="48" viewBox="0 0 49 48" fill="none">
  <g clip-path="url(#clip0_6002_11478)">
    <path d="M20.68 6L16.666 5.972C16.6586 4.38556 16.0232 2.86662 14.8988 1.74745C13.7744 0.628279 12.2525 -1.72745e-05 10.666 3.56218e-10L6.66602 3.56219e-10C5.07472 3.56221e-10 3.54859 0.632141 2.42337 1.75736C1.29816 2.88258 0.666016 4.4087 0.666016 6L0.666016 10C0.666011 11.5889 1.29623 13.1129 2.41842 14.2377C3.54061 15.3625 5.06314 15.9963 6.65202 16L6.62402 19.986C6.62217 20.2488 6.67214 20.5094 6.77108 20.7529C6.87001 20.9964 7.01596 21.218 7.20059 21.405C7.38522 21.5921 7.60491 21.7409 7.84709 21.843C8.08927 21.9451 8.3492 21.9984 8.61202 22H8.62402C9.15203 22 9.65863 21.7912 10.0333 21.4192C10.408 21.0471 10.6203 20.542 10.624 20.014L10.652 16H10.666C12.2573 16 13.7834 15.3679 14.9087 14.2426C16.0339 13.1174 16.666 11.5913 16.666 10V9.972L20.652 10H20.666C20.9287 10.0009 21.1889 9.9501 21.4319 9.85044C21.6749 9.75078 21.8959 9.60423 22.0823 9.41916C22.2686 9.2341 22.4167 9.01413 22.5181 8.77183C22.6195 8.52954 22.6721 8.26964 22.673 8.007C22.6739 7.74436 22.6231 7.4841 22.5235 7.2411C22.4238 6.9981 22.2772 6.7771 22.0922 6.59074C21.9071 6.40437 21.6871 6.25628 21.4448 6.15492C21.2025 6.05356 20.9427 6.00092 20.68 6ZM12.666 10C12.666 10.5304 12.4553 11.0391 12.0802 11.4142C11.7052 11.7893 11.1964 12 10.666 12H6.66602C6.13558 12 5.62687 11.7893 5.2518 11.4142C4.87673 11.0391 4.66602 10.5304 4.66602 10V6C4.66602 5.46957 4.87673 4.96086 5.2518 4.58579C5.62687 4.21071 6.13558 4 6.66602 4H10.666C11.1964 4 11.7052 4.21071 12.0802 4.58579C12.4553 4.96086 12.666 5.46957 12.666 6V10Z" fill="#3C3A36"/>
    <path d="M42.6652 0H38.6652C37.0763 -4.32526e-06 35.5523 0.630215 34.4275 1.75241C33.3027 2.8746 32.6689 4.39713 32.6652 5.986L28.6772 5.958H28.6652C28.1348 5.95614 27.6253 6.16508 27.249 6.53884C26.8726 6.9126 26.6601 7.42057 26.6582 7.951C26.6564 8.48143 26.8653 8.99088 27.2391 9.36726C27.6128 9.74365 28.1208 9.95614 28.6512 9.958L32.6652 9.986V10C32.6652 11.5913 33.2974 13.1174 34.4226 14.2426C35.5478 15.3679 37.0739 16 38.6652 16H38.6932L38.6652 19.986C38.6634 20.2486 38.7133 20.5091 38.8121 20.7524C38.9109 20.9958 39.0567 21.2173 39.2411 21.4043C39.4255 21.5913 39.645 21.7402 39.8869 21.8424C40.1289 21.9446 40.3886 21.9982 40.6512 22H40.6652C41.1932 22 41.6998 21.7912 42.0745 21.4192C42.4492 21.0471 42.6615 20.542 42.6652 20.014L42.6932 16C44.2797 15.9926 45.7986 15.3572 46.9178 14.2328C48.0369 13.1084 48.6652 11.5865 48.6652 10V6C48.6652 4.4087 48.0331 2.88258 46.9079 1.75736C45.7826 0.632141 44.2565 0 42.6652 0ZM44.6652 10C44.6652 10.5304 44.4545 11.0391 44.0794 11.4142C43.7044 11.7893 43.1956 12 42.6652 12H38.6652C38.1348 12 37.6261 11.7893 37.251 11.4142C36.8759 11.0391 36.6652 10.5304 36.6652 10V6C36.6652 5.46957 36.8759 4.96086 37.251 4.58579C37.6261 4.21071 38.1348 4 38.6652 4H42.6652C43.1956 4 43.7044 4.21071 44.0794 4.58579C44.4545 4.96086 44.6652 5.46957 44.6652 6V10Z" fill="#3C3A36"/>
    <path d="M42.6792 32L42.7072 28.012C42.7088 27.7494 42.6586 27.489 42.5596 27.2457C42.4605 27.0025 42.3145 26.7811 42.1299 26.5943C41.9453 26.4074 41.7257 26.2588 41.4837 26.1568C41.2416 26.0549 40.9819 26.0016 40.7192 26H40.7072C40.1792 26 39.6726 26.2088 39.2979 26.5808C38.9233 26.9529 38.7109 27.458 38.7072 27.986L38.6792 32H38.6652C37.0739 32 35.5478 32.6321 34.4226 33.7574C33.2974 34.8826 32.6652 36.4087 32.6652 38V38.028L28.6792 38H28.6652C28.1348 37.9981 27.6253 38.2071 27.249 38.5808C26.8726 38.9546 26.6601 39.4626 26.6582 39.993C26.6564 40.5234 26.8653 41.0329 27.2391 41.4093C27.6128 41.7856 28.1208 41.9981 28.6512 42L32.6652 42.028C32.6726 43.6144 33.308 45.1334 34.4324 46.2526C35.5569 47.3717 37.0788 48 38.6652 48H42.6652C44.2565 48 45.7826 47.3679 46.9079 46.2426C48.0331 45.1174 48.6652 43.5913 48.6652 42V38C48.6652 36.4111 48.035 34.8871 46.9128 33.7623C45.7906 32.6375 44.2681 32.0037 42.6792 32ZM44.6652 42C44.6652 42.5304 44.4545 43.0391 44.0794 43.4142C43.7044 43.7893 43.1956 44 42.6652 44H38.6652C38.1348 44 37.6261 43.7893 37.251 43.4142C36.8759 43.0391 36.6652 42.5304 36.6652 42V38C36.6652 37.4696 36.8759 36.9609 37.251 36.5858C37.6261 36.2107 38.1348 36 38.6652 36H42.6652C43.1956 36 43.7044 36.2107 44.0794 36.5858C44.4545 36.9609 44.6652 37.4696 44.6652 38V42Z" fill="#3C3A36"/>
    <path d="M20.68 38.042L16.666 38.014V38C16.666 36.4087 16.0339 34.8826 14.9087 33.7574C13.7834 32.6321 12.2573 32 10.666 32H10.638L10.666 28.014C10.6679 27.7514 10.618 27.4909 10.5191 27.2476C10.4203 27.0042 10.2746 26.7827 10.0901 26.5957C9.90572 26.4087 9.68628 26.2598 9.44432 26.1576C9.20237 26.0554 8.94266 26.0018 8.68002 26H8.66602C8.138 26 7.6314 26.2088 7.25673 26.5808C6.88206 26.9529 6.66971 27.458 6.66602 27.986L6.63802 32C5.05157 32.0074 3.53263 32.6428 2.41346 33.7672C1.29429 34.8916 0.665998 36.4135 0.666016 38L0.666016 42C0.666016 43.5913 1.29816 45.1174 2.42337 46.2426C3.54859 47.3679 5.07472 48 6.66602 48H10.666C12.2549 48 13.7789 47.3698 14.9037 46.2476C16.0285 45.1254 16.6623 43.6029 16.666 42.014L20.654 42.042H20.666C21.1964 42.0439 21.7059 41.8349 22.0823 41.4612C22.4587 41.0874 22.6712 40.5794 22.673 40.049C22.6749 39.5186 22.4659 39.0091 22.0922 38.6327C21.7184 38.2564 21.2104 38.0439 20.68 38.042ZM12.666 42C12.666 42.5304 12.4553 43.0391 12.0802 43.4142C11.7052 43.7893 11.1964 44 10.666 44H6.66602C6.13558 44 5.62687 43.7893 5.2518 43.4142C4.87673 43.0391 4.66602 42.5304 4.66602 42V38C4.66602 37.4696 4.87673 36.9609 5.2518 36.5858C5.62687 36.2107 6.13558 36 6.66602 36H10.666C11.1964 36 11.7052 36.2107 12.0802 36.5858C12.4553 36.9609 12.666 37.4696 12.666 38V42Z" fill="#3C3A36"/>
  </g>
  <defs>
    <clipPath id="clip0_6002_11478">
      <rect width="48" height="48" fill="white" transform="translate(0.666016)"/>
    </clipPath>
  </defs>
</svg>