<svg xmlns="http://www.w3.org/2000/svg" width="24" height="24" viewBox="0 0 24 24" fill="none">
  <g clip-path="url(#clip0_6210_11240)">
    <path d="M8.5 9.00101C9.013 9.00101 9.512 8.97301 10 8.92701V6.00101C10 3.85001 10.854 1.90101 12.235 0.463007C11.107 0.170007 9.842 0.00100745 8.5 0.00100745C3.806 7.45209e-06 0 2.01501 0 4.50001C0 6.98501 3.806 9.00001 8.5 9.00001V9.00101ZM8.5 14.001C10.07 14.001 11.509 13.81 12.742 13.5C12.736 13.5 12.73 13.502 12.723 13.502C12.374 13.502 12.022 13.435 11.685 13.297C10.707 12.892 10.069 11.975 10.011 10.934C9.518 10.975 9.017 11.001 8.5 11.001C4.92 11.001 1.876 9.99701 0 8.40101V10.568C0 12.189 3.635 14.001 8.5 14.001ZM0 13.827V15.567C0 17.188 3.635 19.001 8.5 19.001C13.365 19.001 17 17.189 17 15.567V13.827C15.124 15.161 12.08 16 8.5 16C4.92 16 1.876 15.162 0 13.827ZM0 18.827V19.787C0 22.554 4.276 24.001 8.5 24.001C12.724 24.001 17 22.554 17 19.787V18.827C15.124 20.161 12.08 21.001 8.5 21.001C4.92 21.001 1.876 20.162 0 18.827Z" fill="currentColor"/>
    <path d="M21.6585 2.3415C21.4398 2.12284 21.1431 2 20.8339 2C20.5246 2 20.228 2.12284 20.0092 2.3415L16.993 5.35777L13.9767 2.3415C13.7567 2.12904 13.4621 2.01147 13.1562 2.01413C12.8504 2.01679 12.5579 2.13945 12.3416 2.35571C12.1254 2.57197 12.0027 2.86451 12 3.17033C11.9974 3.47616 12.115 3.77079 12.3274 3.99077L15.3437 7.00704L12.3274 10.0233C12.115 10.2433 11.9974 10.5379 12 10.8437C12.0027 11.1496 12.1254 11.4421 12.3416 11.6584C12.5579 11.8746 12.8504 11.9973 13.1562 12C13.4621 12.0026 13.7567 11.885 13.9767 11.6726L16.993 8.65631L20.0092 11.6726C20.2292 11.885 20.5238 12.0026 20.8297 12C21.1355 11.9973 21.428 11.8746 21.6443 11.6584C21.8605 11.4421 21.9832 11.1496 21.9859 10.8437C21.9885 10.5379 21.871 10.2433 21.6585 10.0233L18.6422 7.00704L21.6585 3.99077C21.8772 3.77204 22 3.47542 22 3.16614C22 2.85685 21.8772 2.56023 21.6585 2.3415Z" fill="currentColor"/>
  </g>
  <defs>
    <clipPath id="clip0_6210_11240">
      <rect width="24" height="24" fill="white"/>
    </clipPath>
  </defs>
</svg>