<svg width="200" height="200" viewBox="0 0 200 200" fill="none" xmlns="http://www.w3.org/2000/svg">
<path d="M154.533 34.424C154.533 34.424 135.929 19.224 111.733 25.956C87.5371 32.688 77.4011 53.556 63.5291 67.884C56.2611 75.388 45.5291 78.152 36.8891 83.932C9.28913 102.404 13.3691 143.932 34.6571 159.596C55.2331 174.72 82.6091 172.596 105.813 165.616C148.237 152.848 199.329 113.896 177.269 64.016C172.107 52.511 164.32 42.376 154.533 34.424Z" fill="#B0D0F7"/>
<path opacity="0.7" d="M154.533 34.424C154.533 34.424 135.929 19.224 111.733 25.956C87.5371 32.688 77.4011 53.556 63.5291 67.884C56.2611 75.388 45.5291 78.152 36.8891 83.932C9.28913 102.404 13.3691 143.932 34.6571 159.596C55.2331 174.72 82.6091 172.596 105.813 165.616C148.237 152.848 199.329 113.896 177.269 64.016C172.107 52.511 164.32 42.376 154.533 34.424Z" fill="white"/>
<path d="M100 179.656C146.67 179.656 184.504 176.642 184.504 172.924C184.504 169.206 146.67 166.192 100 166.192C53.3298 166.192 15.4961 169.206 15.4961 172.924C15.4961 176.642 53.3298 179.656 100 179.656Z" fill="#B0D0F7"/>
<path opacity="0.5" d="M100 179.656C146.67 179.656 184.504 176.642 184.504 172.924C184.504 169.206 146.67 166.192 100 166.192C53.3298 166.192 15.4961 169.206 15.4961 172.924C15.4961 176.642 53.3298 179.656 100 179.656Z" fill="white"/>
<path d="M167.735 32.504H80.3071C78.4094 32.504 76.8711 34.0423 76.8711 35.94V81.512C76.8711 83.4096 78.4094 84.948 80.3071 84.948H167.735C169.633 84.948 171.171 83.4096 171.171 81.512V35.94C171.171 34.0423 169.633 32.504 167.735 32.504Z" fill="#263238"/>
<path d="M170.528 34.468H83.1001C81.2024 34.468 79.6641 36.0063 79.6641 37.904V83.476C79.6641 85.3736 81.2024 86.912 83.1001 86.912H170.528C172.426 86.912 173.964 85.3736 173.964 83.476V37.904C173.964 36.0063 172.426 34.468 170.528 34.468Z" fill="white" stroke="#263238" stroke-miterlimit="10"/>
<path d="M114.621 39.3833L113.609 41.0122V42.0005H113.055V41.0395L112.039 39.3833H112.676L113.328 40.4849L113.984 39.3833H114.621ZM115.738 39.977C115.931 39.977 116.107 40.0239 116.266 40.1177C116.424 40.2088 116.552 40.3338 116.648 40.4927C116.747 40.6489 116.797 40.8247 116.797 41.02C116.797 41.2153 116.747 41.3911 116.648 41.5474C116.552 41.7036 116.424 41.8286 116.266 41.9224C116.107 42.0135 115.931 42.0591 115.738 42.0591C115.548 42.0591 115.372 42.0135 115.211 41.9224C115.052 41.8286 114.924 41.7036 114.828 41.5474C114.732 41.3911 114.684 41.2153 114.684 41.02C114.684 40.8247 114.732 40.6489 114.828 40.4927C114.924 40.3338 115.052 40.2088 115.211 40.1177C115.372 40.0239 115.548 39.977 115.738 39.977ZM115.738 40.4575C115.645 40.4575 115.557 40.4796 115.477 40.5239C115.396 40.5682 115.331 40.632 115.281 40.7153C115.234 40.7987 115.211 40.9002 115.211 41.02C115.211 41.1398 115.234 41.2414 115.281 41.3247C115.331 41.408 115.396 41.4718 115.477 41.5161C115.557 41.5578 115.645 41.5786 115.738 41.5786C115.832 41.5786 115.919 41.5578 116 41.5161C116.081 41.4718 116.146 41.408 116.195 41.3247C116.245 41.2414 116.27 41.1398 116.27 41.02C116.27 40.9002 116.245 40.7987 116.195 40.7153C116.146 40.632 116.081 40.5682 116 40.5239C115.919 40.4796 115.832 40.4575 115.738 40.4575ZM119.008 40.0278V41.2036C119.008 41.3781 118.969 41.5291 118.891 41.6567C118.812 41.7817 118.706 41.8781 118.57 41.9458C118.438 42.0135 118.286 42.0474 118.117 42.0474C117.945 42.0474 117.792 42.0135 117.656 41.9458C117.523 41.8781 117.418 41.7817 117.34 41.6567C117.264 41.5291 117.227 41.3781 117.227 41.2036V40.0278H117.727L117.73 41.1138C117.73 41.2674 117.766 41.382 117.836 41.4575C117.906 41.533 118 41.5708 118.117 41.5708C118.232 41.5708 118.324 41.533 118.395 41.4575C118.467 41.382 118.504 41.2674 118.504 41.1138V40.0278H119.008ZM120.816 40.5825C120.733 40.5356 120.646 40.5122 120.555 40.5122C120.44 40.5122 120.345 40.55 120.27 40.6255C120.194 40.6984 120.128 40.7895 120.07 40.8989V42.0005H119.574V40.0278H120.07V40.3989C120.138 40.2817 120.217 40.1841 120.309 40.1059C120.402 40.0278 120.508 39.9888 120.625 39.9888C120.695 39.9888 120.759 40.0005 120.816 40.0239V40.5825ZM123.863 41.5122V42.0005H122.438V41.5122H122.879V39.8716H122.438V39.3833H123.863V39.8716H123.422V41.5122H123.863ZM125.035 40.0278V40.3091C125.095 40.2283 125.176 40.1528 125.277 40.0825C125.382 40.0122 125.5 39.977 125.633 39.977C125.833 39.977 126.001 40.0447 126.137 40.1802C126.272 40.3156 126.34 40.5187 126.34 40.7895V42.0005H125.844L125.84 40.8559C125.84 40.7231 125.807 40.6242 125.742 40.5591C125.68 40.494 125.592 40.4614 125.48 40.4614C125.392 40.4614 125.309 40.4901 125.23 40.5474C125.155 40.6046 125.09 40.6724 125.035 40.7505V42.0005H124.539V40.0278H125.035ZM128.066 40.0278V40.4419H127.555V42.0005H127.059V40.4419H126.758V40.0278H127.059V39.852C127.059 39.701 127.09 39.5721 127.152 39.4653C127.217 39.3559 127.302 39.2726 127.406 39.2153C127.51 39.158 127.625 39.1294 127.75 39.1294C127.833 39.1294 127.906 39.1385 127.969 39.1567C128.031 39.175 128.086 39.1997 128.133 39.2309V39.645C128.047 39.5929 127.948 39.5682 127.836 39.5708C127.758 39.5734 127.691 39.5994 127.637 39.6489C127.582 39.6958 127.555 39.7739 127.555 39.8833V40.0278H128.066ZM129.375 39.977C129.568 39.977 129.743 40.0239 129.902 40.1177C130.061 40.2088 130.189 40.3338 130.285 40.4927C130.384 40.6489 130.434 40.8247 130.434 41.02C130.434 41.2153 130.384 41.3911 130.285 41.5474C130.189 41.7036 130.061 41.8286 129.902 41.9224C129.743 42.0135 129.568 42.0591 129.375 42.0591C129.185 42.0591 129.009 42.0135 128.848 41.9224C128.689 41.8286 128.561 41.7036 128.465 41.5474C128.368 41.3911 128.32 41.2153 128.32 41.02C128.32 40.8247 128.368 40.6489 128.465 40.4927C128.561 40.3338 128.689 40.2088 128.848 40.1177C129.009 40.0239 129.185 39.977 129.375 39.977ZM129.375 40.4575C129.281 40.4575 129.194 40.4796 129.113 40.5239C129.033 40.5682 128.967 40.632 128.918 40.7153C128.871 40.7987 128.848 40.9002 128.848 41.02C128.848 41.1398 128.871 41.2414 128.918 41.3247C128.967 41.408 129.033 41.4718 129.113 41.5161C129.194 41.5578 129.281 41.5786 129.375 41.5786C129.469 41.5786 129.556 41.5578 129.637 41.5161C129.717 41.4718 129.783 41.408 129.832 41.3247C129.882 41.2414 129.906 41.1398 129.906 41.02C129.906 40.9002 129.882 40.7987 129.832 40.7153C129.783 40.632 129.717 40.5682 129.637 40.5239C129.556 40.4796 129.469 40.4575 129.375 40.4575Z" fill="black"/>
<path d="M88.4844 71.664H165.2" stroke="#263238" stroke-miterlimit="10"/>
<path d="M90.9807 40.848C90.9807 41.4421 90.8045 42.0229 90.4744 42.5169C90.1443 43.0109 89.6751 43.396 89.1262 43.6233C88.5773 43.8507 87.9733 43.9102 87.3906 43.7943C86.8079 43.6784 86.2726 43.3923 85.8525 42.9722C85.4324 42.552 85.1463 42.0168 85.0304 41.4341C84.9145 40.8513 84.974 40.2473 85.2013 39.6984C85.4287 39.1495 85.8137 38.6804 86.3077 38.3503C86.8017 38.0202 87.3825 37.844 87.9767 37.844C88.3712 37.844 88.7618 37.9217 89.1262 38.0727C89.4907 38.2236 89.8219 38.4449 90.1008 38.7239C90.3798 39.0028 90.601 39.334 90.752 39.6984C90.903 40.0629 90.9807 40.4535 90.9807 40.848Z" fill="#B0D0F7" stroke="#263238" stroke-miterlimit="10"/>
<path d="M85.9883 38.596L89.9883 43.072" stroke="#263238" stroke-miterlimit="10"/>
<path d="M90.2598 38.636L86.1758 43.032" stroke="#263238" stroke-miterlimit="10"/>
<path d="M159.006 82.516H143.278C142.835 82.5165 142.397 82.4297 141.987 82.2604C141.578 82.0911 141.206 81.8428 140.893 81.5295C140.579 81.2163 140.331 80.8444 140.162 80.435C139.993 80.0257 139.906 79.587 139.906 79.144C139.906 78.7012 139.993 78.2627 140.163 77.8536C140.332 77.4445 140.581 77.0728 140.894 76.7596C141.207 76.4465 141.579 76.1981 141.988 76.0287C142.397 75.8592 142.835 75.772 143.278 75.772H159.006C159.9 75.7731 160.757 76.1287 161.389 76.7608C162.022 77.393 162.377 78.25 162.378 79.144C162.378 80.0383 162.023 80.896 161.391 81.5284C160.758 82.1607 159.901 82.516 159.006 82.516Z" fill="#B0D0F7" stroke="#263238" stroke-miterlimit="10"/>
<path d="M143.438 79.26V77.852H143.793V79.248C143.793 79.796 144.046 80.048 144.49 80.048C144.934 80.048 145.193 79.8 145.193 79.248V77.852H145.533V79.26C145.533 79.5379 145.423 79.8045 145.227 80.0011C145.03 80.1976 144.763 80.308 144.485 80.308C144.208 80.308 143.941 80.1976 143.744 80.0011C143.548 79.8045 143.438 79.5379 143.438 79.26Z" fill="#263238"/>
<path d="M148.613 78.716C148.613 79.256 148.213 79.58 147.581 79.58H146.969V80.332H146.613V77.852H147.597C148.225 77.852 148.613 78.18 148.613 78.716ZM148.261 78.716C148.261 78.364 148.021 78.16 147.569 78.16H146.969V79.272H147.569C148.021 79.272 148.261 79.072 148.261 78.716Z" fill="#263238"/>
<path d="M149.492 77.852H150.536C150.707 77.8382 150.88 77.8601 151.042 77.9162C151.204 77.9722 151.353 78.0613 151.48 78.1778C151.606 78.2943 151.706 78.4357 151.775 78.593C151.844 78.7503 151.88 78.9202 151.88 79.092C151.88 79.2638 151.844 79.4337 151.775 79.591C151.706 79.7484 151.606 79.8897 151.48 80.0062C151.353 80.1227 151.204 80.2118 151.042 80.2679C150.88 80.3239 150.707 80.3458 150.536 80.332H149.492V77.852ZM150.512 80.024C150.642 80.036 150.773 80.0209 150.896 79.9795C151.019 79.9381 151.133 79.8715 151.229 79.7837C151.325 79.696 151.402 79.5892 151.455 79.4701C151.507 79.351 151.535 79.2222 151.535 79.092C151.535 78.9618 151.507 78.833 151.455 78.7139C151.402 78.5948 151.325 78.488 151.229 78.4003C151.133 78.3126 151.019 78.2459 150.896 78.2045C150.773 78.1631 150.642 78.148 150.512 78.16H149.844V80.024H150.512Z" fill="#263238"/>
<path d="M154.311 79.712H152.991L152.719 80.332H152.355L153.479 77.852H153.827L154.955 80.332H154.583L154.311 79.712ZM154.187 79.428L153.651 78.228L153.115 79.428H154.187Z" fill="#263238"/>
<path d="M156.043 78.16H155.199V77.852H157.247V78.16H156.399V80.332H156.047L156.043 78.16Z" fill="#263238"/>
<path d="M159.784 80.024V80.332H158V77.852H159.748V78.16H158.352V78.92H159.6V79.224H158.356V80.024H159.784Z" fill="#263238"/>
<path d="M92 64.8005L92 70.4005" stroke="#263238" stroke-miterlimit="10"/>
<path d="M183.476 41.2479C186.032 30.6566 179.518 19.9983 168.927 17.4418C158.336 14.8854 147.677 21.3989 145.121 31.9903C142.565 42.5816 149.078 53.2399 159.669 55.7964C170.261 58.3528 180.919 51.8393 183.476 41.2479Z" fill="#263238"/>
<path d="M184.646 39.1379C186.351 28.7973 179.35 19.0328 169.009 17.3283C158.668 15.6239 148.904 22.6249 147.199 32.9655C145.495 43.3061 152.496 53.0706 162.837 54.7751C173.177 56.4795 182.942 49.4785 184.646 39.1379Z" fill="white" stroke="#263238" stroke-miterlimit="10"/>
<path d="M180.278 48.44C178.515 50.4891 176.334 52.1374 173.881 53.2741C171.429 54.4108 168.761 55.0097 166.058 55.0305C163.355 55.0513 160.679 54.4937 158.209 53.3949C155.739 52.2961 153.533 50.6817 151.738 48.66C152.502 47.412 153.698 46.296 155.054 46.068C155.601 45.9748 156.141 45.852 156.674 45.7C156.802 45.668 156.926 45.632 157.05 45.592C157.402 45.484 157.75 45.364 158.09 45.232C158.262 45.164 158.43 45.096 158.598 45.02C158.766 44.944 158.974 44.856 159.162 44.768C159.35 44.68 159.53 44.584 159.71 44.488C159.89 44.392 160.07 44.292 160.246 44.188C160.422 44.084 160.598 43.976 160.77 43.864C160.942 43.752 161.054 43.676 161.194 43.576C161.244 43.5454 161.292 43.512 161.338 43.476C161.482 43.372 161.622 43.264 161.762 43.156C161.926 43.028 162.082 42.9 162.238 42.756C162.394 42.612 162.542 42.484 162.694 42.356C162.986 42.076 163.27 41.78 163.538 41.468L164.594 41.288L164.754 41.26L168.794 40.568L170.11 40.34L170.45 40.284C170.894 41.272 171.83 41.912 172.85 42.332L172.982 42.388C173.23 42.488 173.482 42.572 173.734 42.648C175.07 43.048 176.49 43.284 177.65 44.056C179.122 45.024 179.902 46.68 180.278 48.44Z" fill="#B0D0F7"/>
<path d="M163.623 41.136C162.947 41.9162 162.042 42.4633 161.036 42.6995C160.031 42.9358 158.977 42.8492 158.023 42.452C157.941 42.7308 157.917 43.0237 157.954 43.3122C157.99 43.6007 158.086 43.8785 158.235 44.128C157.918 43.9589 157.651 43.7089 157.461 43.4033C157.272 43.0978 157.166 42.7475 157.156 42.388C156.904 42.9377 156.747 43.526 156.691 44.128C154.799 44.492 152.791 43.388 151.851 41.704C151.409 40.8399 151.17 39.8862 151.153 38.9156C151.135 37.945 151.34 36.9833 151.751 36.104L150.687 37.5C150.343 36.656 150.627 35.684 151.087 34.904C151.547 34.124 152.195 33.46 152.663 32.68C153.903 30.592 153.739 28 154.131 25.608C154.224 24.706 154.557 23.8453 155.095 23.116C155.675 22.428 156.671 22.016 157.495 22.348C157.643 21.224 159.059 20.7 160.111 20.272C161.851 19.572 163.711 18.884 165.559 19.208C168.523 19.728 170.499 22.644 173.335 23.64C174.803 24.156 176.407 24.124 177.907 24.536C179.407 24.948 180.927 26.044 181.023 27.596L179.423 26.76C180.585 28.2581 181.263 30.0739 181.368 31.9664C181.473 33.8589 181 35.7386 180.011 37.356L179.711 35.88C179.879 36.596 179.287 37.252 178.711 37.712C177.131 38.972 175.147 39.904 173.139 39.672C172.547 39.604 171.967 39.436 171.375 39.34C169.653 39.0811 167.894 39.429 166.399 40.324C165.57 40.8538 164.607 41.1355 163.623 41.136Z" fill="#263238"/>
<path d="M164.327 37.764C163.755 38.564 162.831 40.964 162.615 42.964C162.399 44.964 162.615 48.244 163.115 48.244C163.615 48.244 164.471 43.964 164.471 43.964C164.471 43.964 164.827 45.604 165.671 46.104C166.515 46.604 168.023 49.952 168.023 49.952C168.023 49.952 170.023 46.316 170.303 45.104C170.583 43.892 170.663 43.324 171.019 43.748C171.653 44.7466 172.201 45.797 172.659 46.888C173.015 47.744 173.299 44.088 172.799 42.088C172.299 40.088 171.159 38.74 171.019 38.24C170.879 37.74 170.091 37.24 170.091 37.24C167.323 34.34 164.899 36.98 164.327 37.764Z" fill="white" stroke="#263238" stroke-linecap="round" stroke-linejoin="round"/>
<path d="M163.754 38.976C164.317 40.2622 164.747 41.6025 165.038 42.976C165.394 44.904 167.678 49.112 168.034 49.964C168.39 50.816 169.462 47.256 169.886 44.832C170.31 42.408 169.79 36.536 169.79 36.536C167.794 39.168 163.754 38.976 163.754 38.976Z" fill="white" stroke="#263238" stroke-linecap="round" stroke-linejoin="round"/>
<path d="M159.576 25.732C159.22 26.5899 158.82 27.4285 158.376 28.244C158.004 28.968 157.492 29.728 157.576 30.576C157.66 31.424 160.016 36.176 161.016 37.26C162.016 38.344 165.46 41.048 166.948 40.036C170.24 37.796 169.944 31.16 169.592 30.076C169.24 28.992 168.792 29.276 168.792 29.276C168.608 29.392 168.132 29.008 167.956 28.936C166.94 28.508 165.828 28.48 164.8 28.06C163.698 27.6283 162.709 26.9543 161.904 26.088C161.264 25.368 160.704 24.54 159.716 24.268C160.02 24.352 159.836 25.052 159.576 25.732Z" fill="white" stroke="#263238" stroke-linecap="round" stroke-linejoin="round"/>
<path d="M160.238 31.26C160.344 31.0817 160.486 30.9273 160.655 30.8065C160.823 30.6856 161.015 30.6009 161.218 30.5577C161.421 30.5145 161.63 30.5137 161.833 30.5554C162.036 30.5971 162.229 30.6804 162.398 30.8" stroke="#263238" stroke-linecap="round" stroke-linejoin="round"/>
<path d="M166.399 29.08C164.515 28.492 164.227 29.96 164.227 29.96" stroke="#263238" stroke-linecap="round" stroke-linejoin="round"/>
<path d="M162.476 32.564C162.552 32.888 162.496 33.18 162.348 33.216C162.2 33.252 162.016 33.016 161.948 32.688C161.88 32.36 161.928 32.072 162.076 32.036C162.224 32 162.4 32.236 162.476 32.564Z" fill="#263238"/>
<path d="M166.332 31.6C166.408 31.928 166.352 32.22 166.204 32.256C166.056 32.292 165.872 32.052 165.804 31.728C165.736 31.404 165.784 31.108 165.932 31.076C166.08 31.044 166.252 31.284 166.332 31.6Z" fill="#263238"/>
<path d="M164.242 30.88C164.242 32.816 165.526 34.052 165.442 34.736C165.44 34.7516 165.435 34.7666 165.426 34.7797C165.418 34.7928 165.406 34.8037 165.392 34.8115C165.379 34.8192 165.364 34.8237 165.348 34.8245C165.332 34.8253 165.317 34.8224 165.302 34.816C165.006 34.66 164.654 34.416 164.362 34.264" stroke="#263238" stroke-linecap="round" stroke-linejoin="round"/>
<path d="M162.98 35.92C163.262 36.2732 163.633 36.5445 164.055 36.7056C164.478 36.8667 164.935 36.9117 165.38 36.836" stroke="#263238" stroke-linecap="round" stroke-linejoin="round"/>
<path d="M164.133 39.888C164.133 39.888 165.833 43.804 167.241 43.464C168.649 43.124 169.477 36.696 169.477 36.696C169.477 36.696 167.805 39.836 166.409 40.324C165.249 40.732 164.133 39.888 164.133 39.888Z" fill="#263238"/>
<path d="M162.698 42.348C162.55 42.488 162.398 42.628 162.242 42.748C162.086 42.868 161.93 43.016 161.766 43.148C161.63 43.26 161.486 43.364 161.342 43.468C161.296 43.504 161.248 43.5374 161.198 43.568C161.058 43.672 160.918 43.764 160.774 43.856C160.63 43.948 160.43 44.08 160.25 44.18C160.07 44.28 159.894 44.388 159.714 44.48C159.534 44.572 159.35 44.672 159.166 44.76C158.982 44.848 158.794 44.936 158.602 45.012C158.41 45.088 158.266 45.16 158.094 45.224C157.754 45.356 157.406 45.476 157.054 45.584C156.93 45.624 156.802 45.66 156.678 45.692C156.145 45.844 155.604 45.9668 155.058 46.06C153.702 46.288 152.506 47.404 151.742 48.652" stroke="#263238" stroke-linecap="round" stroke-linejoin="round"/>
<path d="M180.279 48.44C179.903 46.68 179.123 45.024 177.659 44.04C176.499 43.268 175.079 43.036 173.743 42.632C173.491 42.556 173.239 42.472 172.991 42.372L172.859 42.32" stroke="#263238" stroke-linecap="round" stroke-linejoin="round"/>
<path d="M168.913 52.24C168.913 52.684 168.665 53.04 168.361 53.04C168.057 53.04 167.809 52.684 167.809 52.24C167.809 51.796 168.057 51.44 168.361 51.44C168.665 51.44 168.913 51.796 168.913 52.24Z" fill="#263238"/>
<path d="M157.059 48.504C157.991 50.1514 158.682 51.9242 159.111 53.768" stroke="#263238" stroke-linecap="round" stroke-linejoin="round"/>
<path d="M158.941 48.692L159.469 51.596" stroke="#263238" stroke-linecap="round" stroke-linejoin="round"/>
<path d="M184.646 39.1379C186.351 28.7973 179.35 19.0328 169.009 17.3283C158.668 15.6239 148.904 22.6249 147.199 32.9655C145.495 43.3061 152.496 53.0706 162.837 54.7751C173.177 56.4795 182.942 49.4785 184.646 39.1379Z" stroke="#263238" stroke-miterlimit="10"/>
<path d="M128.875 158.504V172.572C128.875 173.58 137.591 175.948 148.675 175.948C159.759 175.948 169.011 173.58 169.011 172.572V158.504H128.875Z" fill="white" stroke="#263238" stroke-miterlimit="10"/>
<path d="M128.875 167.228C128.875 168.236 137.591 170.608 148.675 170.608C159.759 170.608 169.011 168.236 169.011 167.228" fill="white"/>
<path d="M128.875 167.228C128.875 168.236 137.591 170.608 148.675 170.608C159.759 170.608 169.011 168.236 169.011 167.228" stroke="#263238" stroke-width="2" stroke-miterlimit="10"/>
<path d="M169.011 158.504C169.011 158.944 167.311 159.504 164.475 159.992C154.177 161.539 143.705 161.539 133.407 159.992C130.575 159.504 128.875 158.944 128.875 158.504C128.875 157.492 137.859 156.68 148.939 156.68C160.019 156.68 169.011 157.492 169.011 158.504Z" fill="#B0D0F7" stroke="#263238" stroke-miterlimit="10"/>
<path d="M164.474 160C154.176 161.547 143.705 161.547 133.406 160C136.33 159.488 142.206 159.14 148.938 159.14C155.67 159.14 161.55 159.48 164.474 160Z" fill="#263238"/>
<path d="M156.117 96.376C156.117 96.376 156.117 94.304 153.217 91.408C150.317 88.512 148.457 86.848 148.457 86.848C148.457 86.848 147.005 91.612 149.697 94.516C151.677 96.5591 153.824 98.4324 156.117 100.116V96.376Z" fill="#B0D0F7"/>
<path d="M151.908 109.312C151.908 109.312 151.908 107.24 149.008 104.344C146.108 101.448 144.244 99.784 144.244 99.784C144.244 99.784 142.796 104.548 145.488 107.448C147.461 109.491 149.601 111.364 151.888 113.048L151.908 109.312Z" fill="#B0D0F7"/>
<path d="M155.935 99.908C155.935 99.908 156.159 97.844 159.347 95.268C162.535 92.692 164.547 91.24 164.547 91.24C164.547 91.24 165.487 96.132 162.503 98.728C160.323 100.544 157.995 102.173 155.543 103.6L155.935 99.908Z" fill="#B0D0F7"/>
<path d="M150.855 115.2C150.855 115.2 151.286 113.176 154.73 110.948C158.174 108.72 160.33 107.488 160.33 107.488C160.33 107.488 160.75 112.452 157.51 114.724C155.147 116.305 152.656 117.686 150.062 118.852L150.855 115.2Z" fill="#B0D0F7"/>
<path d="M151.809 131.836C151.809 131.836 151.809 129.764 154.705 126.864C157.601 123.964 159.469 122.308 159.469 122.308C159.469 122.308 160.921 127.072 158.229 129.968C156.25 132.012 154.102 133.885 151.809 135.568V131.836Z" fill="#B0D0F7"/>
<path d="M151.761 135.9C151.761 135.9 152.053 133.848 149.597 130.568C147.141 127.288 145.541 125.368 145.541 125.368C145.541 125.368 143.425 129.872 145.681 133.112C147.35 135.413 149.21 137.57 151.241 139.56L151.761 135.9Z" fill="#B0D0F7"/>
<path d="M148.898 147.964C148.898 147.964 148.898 145.892 151.802 142.996C154.706 140.1 156.562 138.436 156.562 138.436C156.562 138.436 157.998 143.2 155.318 146.1C153.338 148.142 151.19 150.015 148.898 151.7V147.964Z" fill="#B0D0F7"/>
<path d="M156.572 155.468C155.469 157.413 154.24 159.284 152.892 161.068C152.516 161.068 152.132 161.096 151.748 161.104H151.42L150.864 158.976L150.832 158.856C150.727 158.224 150.754 157.577 150.912 156.956C151.087 156.106 151.37 155.282 151.756 154.504C151.932 154.132 152.156 153.736 152.38 153.324C154.452 149.8 155.832 147.724 155.832 147.724C155.832 147.724 158.444 151.964 156.572 155.468Z" fill="#B0D0F7"/>
<path d="M151.326 161.124C151.126 160.456 150.926 159.772 150.73 159.088C150.578 158.556 150.43 158.024 150.282 157.488C150.134 156.952 150.002 156.468 149.882 155.972C149.438 154.304 149.082 152.808 148.902 151.74C148.72 150.597 148.72 149.431 148.902 148.288C148.982 147.744 149.094 147.196 149.23 146.64C149.738 144.528 150.554 142.268 151.162 139.48C151.294 138.888 151.414 138.28 151.518 137.64V137.564C151.574 137.208 151.63 136.84 151.678 136.464C151.678 136.368 151.702 136.276 151.71 136.18C151.73 136.008 151.75 135.836 151.762 135.66V135.64C151.782 135.448 151.794 135.24 151.802 135.064C151.84 134.315 151.84 133.565 151.802 132.816C151.562 127.776 149.874 122.88 150.202 118.748C150.238 118.279 150.305 117.812 150.402 117.352C150.649 116.231 150.97 115.127 151.362 114.048C151.49 113.676 151.63 113.308 151.762 112.94C151.762 112.916 151.762 112.892 151.79 112.864C151.818 112.836 151.846 112.724 151.87 112.656C153.17 109.4 154.766 106.324 155.55 102.256C155.646 101.728 155.734 101.204 155.814 100.676V100.656C155.846 100.424 155.882 100.192 155.914 99.96C155.914 99.832 155.95 99.7 155.966 99.56C156.01 99.256 156.046 98.944 156.078 98.64C156.19 97.7 156.274 96.756 156.342 95.812" stroke="#263238" stroke-linecap="round" stroke-linejoin="round"/>
<path d="M155.906 101.28L159.034 98.884" stroke="#263238" stroke-linecap="round" stroke-linejoin="round"/>
<path d="M156.054 98.52L154.746 96.192" stroke="#263238" stroke-linecap="round" stroke-linejoin="round"/>
<path d="M150.602 117.124C150.602 117.124 153.218 115.16 155.906 113.2" stroke="#263238" stroke-linecap="round" stroke-linejoin="round"/>
<path d="M151.91 113.04C151.91 113.04 149.73 108.768 147.258 105.928" stroke="#263238" stroke-linecap="round" stroke-linejoin="round"/>
<path d="M151.914 134.8C153.408 132.052 155.295 129.536 157.514 127.332" stroke="#263238" stroke-linecap="round" stroke-linejoin="round"/>
<path d="M151.4 137.688C150.608 135.819 149.659 134.021 148.564 132.312C147.04 130.06 146.82 129.768 146.82 129.768" stroke="#263238" stroke-linecap="round" stroke-linejoin="round"/>
<path d="M148.898 151.756C149.562 150.111 150.35 148.518 151.254 146.992C152.16 145.576 153.182 144.238 154.31 142.992" stroke="#263238" stroke-linecap="round" stroke-linejoin="round"/>
<path d="M151.75 161.116C151.787 159.997 152.06 158.899 152.55 157.892C153.658 155.784 154.878 153.02 155.386 151.932" stroke="#263238" stroke-linecap="round" stroke-linejoin="round"/>
<path d="M137.133 124.048C137.133 124.048 136.905 122.748 138.409 120.616C139.913 118.484 140.901 117.24 140.901 117.24C140.901 117.24 142.329 120.068 140.953 122.184C139.933 123.678 138.789 125.083 137.533 126.384L137.133 124.048Z" fill="#B0D0F7"/>
<path d="M141.172 131.7C141.172 131.7 140.948 130.4 142.452 128.272C143.956 126.144 144.944 124.892 144.944 124.892C144.944 124.892 146.368 127.724 144.996 129.832C143.982 131.326 142.845 132.732 141.596 134.036L141.172 131.7Z" fill="#B0D0F7"/>
<path d="M137.625 126.24C137.625 126.24 137.257 124.968 134.985 123.7C132.713 122.432 131.277 121.744 131.277 121.744C131.277 121.744 131.221 124.912 133.393 126.208C134.959 127.113 136.598 127.884 138.293 128.512L137.625 126.24Z" fill="#B0D0F7"/>
<path d="M142.472 135.264C142.472 135.264 141.98 134.044 139.58 133.02C137.18 131.996 135.684 131.46 135.684 131.46C135.684 131.46 135.96 134.616 138.236 135.688C139.887 136.422 141.597 137.018 143.348 137.468L142.472 135.264Z" fill="#B0D0F7"/>
<path d="M143.681 145.816C143.681 145.816 143.457 144.512 141.325 143.016C139.193 141.52 137.845 140.676 137.845 140.676C137.845 140.676 137.445 143.82 139.445 145.348C140.911 146.406 142.46 147.342 144.077 148.148L143.681 145.816Z" fill="#B0D0F7"/>
<path d="M144.155 148.356C144.155 148.356 143.755 147.1 144.931 144.78C146.107 142.46 146.931 141.092 146.931 141.092C146.931 141.092 148.747 143.692 147.671 145.972C146.868 147.596 145.932 149.151 144.871 150.62L144.155 148.356Z" fill="#B0D0F7"/>
<path d="M147.795 158.832C147.795 158.832 147.947 157.524 150.007 155.88C152.067 154.236 153.351 153.348 153.351 153.348C153.351 153.348 153.923 156.464 152.011 158.1C150.61 159.247 149.116 160.275 147.543 161.172L147.795 158.832Z" fill="#B0D0F7"/>
<path d="M147.255 155.6C147.255 155.6 147.031 154.304 144.899 152.8C142.767 151.296 141.419 150.46 141.419 150.46C141.419 150.46 141.019 153.604 143.019 155.128C144.484 156.189 146.035 157.125 147.655 157.928L147.255 155.6Z" fill="#B0D0F7"/>
<path d="M146.825 161.132C146.281 161.132 145.737 161.108 145.205 161.088C144.509 161.068 143.829 161.036 143.161 161.004C141.753 159.032 142.881 156.204 142.881 156.204C142.881 156.204 143.969 157.348 145.653 159.352C146.12 159.892 146.514 160.49 146.825 161.132Z" fill="#B0D0F7"/>
<path opacity="0.2" d="M156.117 96.376C156.117 96.376 156.117 94.304 153.217 91.408C150.317 88.512 148.457 86.848 148.457 86.848C148.457 86.848 147.005 91.612 149.697 94.516C151.677 96.5591 153.824 98.4324 156.117 100.116V96.376Z" fill="black"/>
<path opacity="0.2" d="M151.908 109.312C151.908 109.312 151.908 107.24 149.008 104.344C146.108 101.448 144.244 99.784 144.244 99.784C144.244 99.784 142.796 104.548 145.488 107.448C147.461 109.491 149.601 111.364 151.888 113.048L151.908 109.312Z" fill="black"/>
<path opacity="0.2" d="M155.935 99.908C155.935 99.908 156.159 97.844 159.347 95.268C162.535 92.692 164.547 91.24 164.547 91.24C164.547 91.24 165.487 96.132 162.503 98.728C160.323 100.544 157.995 102.173 155.543 103.6L155.935 99.908Z" fill="black"/>
<path opacity="0.2" d="M150.855 115.2C150.855 115.2 151.286 113.176 154.73 110.948C158.174 108.72 160.33 107.488 160.33 107.488C160.33 107.488 160.75 112.452 157.51 114.724C155.147 116.305 152.656 117.686 150.062 118.852L150.855 115.2Z" fill="black"/>
<path opacity="0.2" d="M151.809 131.836C151.809 131.836 151.809 129.764 154.705 126.864C157.601 123.964 159.469 122.308 159.469 122.308C159.469 122.308 160.921 127.072 158.229 129.968C156.25 132.012 154.102 133.885 151.809 135.568V131.836Z" fill="black"/>
<path opacity="0.2" d="M148.898 147.964C148.898 147.964 148.898 145.892 151.802 142.996C154.706 140.1 156.562 138.436 156.562 138.436C156.562 138.436 157.998 143.2 155.318 146.1C153.338 148.142 151.19 150.015 148.898 151.7V147.964Z" fill="black"/>
<path opacity="0.2" d="M137.133 124.048C137.133 124.048 136.905 122.748 138.409 120.616C139.913 118.484 140.901 117.24 140.901 117.24C140.901 117.24 142.329 120.068 140.953 122.184C139.933 123.678 138.789 125.083 137.533 126.384L137.133 124.048Z" fill="black"/>
<path opacity="0.2" d="M149.596 130.568C147.136 127.284 145.54 125.368 145.54 125.368C145.54 125.368 145.448 125.56 145.324 125.892C145.226 125.543 145.099 125.203 144.944 124.876C144.944 124.876 143.956 126.124 142.452 128.256C140.948 130.388 141.172 131.684 141.172 131.684L141.572 134.02C142.698 132.849 143.734 131.595 144.672 130.268C144.753 131.287 145.1 132.267 145.676 133.112C147.345 135.413 149.205 137.57 151.236 139.56L151.756 135.884C151.756 135.884 152.052 133.848 149.596 130.568Z" fill="black"/>
<path opacity="0.2" d="M137.625 126.24C137.625 126.24 137.257 124.968 134.985 123.7C132.713 122.432 131.277 121.744 131.277 121.744C131.277 121.744 131.221 124.912 133.393 126.208C134.959 127.113 136.598 127.884 138.293 128.512L137.625 126.24Z" fill="black"/>
<path opacity="0.2" d="M142.472 135.264C142.472 135.264 141.98 134.044 139.58 133.02C137.18 131.996 135.684 131.46 135.684 131.46C135.684 131.46 135.96 134.616 138.236 135.688C139.887 136.422 141.597 137.018 143.348 137.468L142.472 135.264Z" fill="black"/>
<path opacity="0.2" d="M143.681 145.816C143.681 145.816 143.457 144.512 141.325 143.016C139.193 141.52 137.845 140.676 137.845 140.676C137.845 140.676 137.445 143.82 139.445 145.348C140.911 146.406 142.46 147.342 144.077 148.148L143.681 145.816Z" fill="black"/>
<path opacity="0.2" d="M144.155 148.356C144.155 148.356 143.755 147.1 144.931 144.78C146.107 142.46 146.931 141.092 146.931 141.092C146.931 141.092 148.747 143.692 147.671 145.972C146.868 147.596 145.932 149.151 144.871 150.62L144.155 148.356Z" fill="black"/>
<path opacity="0.2" d="M155.835 147.724C155.835 147.724 154.455 149.816 152.383 153.324C152.143 153.724 151.935 154.124 151.759 154.504C151.267 154.876 150.679 155.328 150.007 155.864C147.947 157.508 147.795 158.816 147.795 158.816L147.543 161.156C148.694 160.498 149.804 159.77 150.867 158.976L151.423 161.104H151.751C152.151 161.104 152.519 161.084 152.895 161.068C154.243 159.284 155.472 157.413 156.575 155.468C158.447 151.964 155.835 147.724 155.835 147.724Z" fill="black"/>
<path opacity="0.2" d="M147.255 155.6C147.255 155.6 147.031 154.304 144.899 152.8C142.767 151.296 141.419 150.46 141.419 150.46C141.419 150.46 141.019 153.604 143.019 155.128C144.484 156.189 146.035 157.125 147.655 157.928L147.255 155.6Z" fill="black"/>
<path opacity="0.2" d="M146.825 161.132C146.281 161.132 145.737 161.108 145.205 161.088C144.509 161.068 143.829 161.036 143.161 161.004C141.753 159.032 142.881 156.204 142.881 156.204C142.881 156.204 143.969 157.348 145.653 159.352C146.12 159.892 146.514 160.49 146.825 161.132Z" fill="black"/>
<path d="M147.478 161.14C147.594 159.888 147.67 158.74 147.666 157.988C147.655 157.261 147.529 156.54 147.294 155.852C147.186 155.508 147.046 155.16 146.894 154.808C146.342 153.548 145.59 152.228 144.914 150.56C144.746 150.16 144.586 149.736 144.442 149.284C144.378 149.1 144.314 148.908 144.254 148.716C144.256 148.688 144.256 148.66 144.254 148.632C144.21 148.492 144.174 148.352 144.134 148.212C144.098 148.088 144.07 147.96 144.042 147.812C143.95 147.412 143.882 146.988 143.826 146.572C143.402 143.348 143.942 140.036 143.27 137.444C143.195 137.155 143.102 136.871 142.994 136.592C142.719 135.918 142.4 135.264 142.038 134.632C141.914 134.408 141.786 134.192 141.638 133.98C141.632 133.965 141.626 133.95 141.618 133.936C141.59 133.888 141.566 133.848 141.538 133.808C140.374 131.904 139.038 130.152 138.106 127.688C137.986 127.368 137.874 127.044 137.766 126.712C137.758 126.695 137.751 126.678 137.746 126.66C137.706 126.536 137.666 126.416 137.63 126.288C137.606 126.224 137.582 126.156 137.562 126.088C137.498 125.888 137.438 125.688 137.378 125.488C137.206 124.912 137.05 124.332 136.906 123.744" stroke="#263238" stroke-linecap="round" stroke-linejoin="round"/>
<path d="M137.798 127.096L135.578 125.932" stroke="#263238" stroke-linecap="round" stroke-linejoin="round"/>
<path d="M137.406 125.384L137.974 123.784" stroke="#263238" stroke-linecap="round" stroke-linejoin="round"/>
<path d="M142.842 136.456C142.842 136.456 140.998 135.512 139.09 134.572" stroke="#263238" stroke-linecap="round" stroke-linejoin="round"/>
<path d="M141.598 134.036C142.141 132.315 142.858 130.653 143.738 129.076" stroke="#263238" stroke-linecap="round" stroke-linejoin="round"/>
<path d="M143.937 147.672C142.702 146.113 141.247 144.741 139.617 143.6" stroke="#263238" stroke-linecap="round" stroke-linejoin="round"/>
<path d="M144.574 149.44C144.87 148.179 145.271 146.945 145.774 145.752C146.49 144.176 146.574 143.968 146.574 143.968" stroke="#263238" stroke-linecap="round" stroke-linejoin="round"/>
<path d="M147.57 160.232C148.295 159.337 149.099 158.509 149.97 157.756C150.523 157.348 151.042 156.896 151.522 156.404" stroke="#263238" stroke-linecap="round" stroke-linejoin="round"/>
<path d="M147.664 158C147.069 157.039 146.401 156.126 145.664 155.268C144.944 154.48 144.158 153.753 143.316 153.096" stroke="#263238" stroke-linecap="round" stroke-linejoin="round"/>
<path d="M143.621 158.8C143.929 159.24 144.549 160.16 145.221 161.084" stroke="#263238" stroke-linecap="round" stroke-linejoin="round"/>
<path d="M110.057 169.64C106.425 167.092 102.237 162.968 100.857 156.964C99.7511 159.82 98.26 162.512 96.4249 164.964C93.8366 168.314 90.2508 170.756 86.1849 171.936C85.1889 172.24 84.6289 172.58 84.6289 172.94C84.6289 174.216 91.6609 175.252 100.337 175.252C109.013 175.252 116.049 174.216 116.049 172.94C116.049 172.628 115.617 172.324 114.849 172.052C113.149 171.471 111.537 170.659 110.057 169.64Z" fill="white" stroke="#263238" stroke-miterlimit="10"/>
<path d="M99.2716 104.8L96.0156 159.772L100.448 166.192L104.82 160.648L102.304 104.952L99.2716 104.8Z" fill="white" stroke="#263238" stroke-miterlimit="10"/>
<path d="M118.45 100.096H74.9023V102.968C74.9023 105.156 86.4463 106.932 100.686 106.932C114.926 106.932 126.47 105.156 126.47 102.968V100.096H118.45Z" fill="#263238"/>
<path d="M100.686 104.06C114.926 104.06 126.47 102.285 126.47 100.096C126.47 97.9067 114.926 96.132 100.686 96.132C86.4462 96.132 74.9023 97.9067 74.9023 100.096C74.9023 102.285 86.4462 104.06 100.686 104.06Z" fill="#B0D0F7"/>
<path d="M100.686 104.06C114.926 104.06 126.47 102.285 126.47 100.096C126.47 97.9067 114.926 96.132 100.686 96.132C86.4462 96.132 74.9023 97.9067 74.9023 100.096C74.9023 102.285 86.4462 104.06 100.686 104.06Z" stroke="#263238" stroke-linecap="round" stroke-linejoin="round"/>
<path d="M118.274 92.16H105.074C105.074 92.16 105.074 95.704 106.938 100.34C106.938 101.228 109.07 101.94 111.702 101.94C114.334 101.94 116.462 101.224 116.462 100.34C116.466 100.296 116.466 100.252 116.462 100.208C118.254 95.636 118.274 92.16 118.274 92.16Z" fill="white" stroke="#263238" stroke-linecap="round" stroke-linejoin="round"/>
<path d="M111.718 94.084C115.378 94.084 118.346 93.2226 118.346 92.16C118.346 91.0974 115.378 90.236 111.718 90.236C108.057 90.236 105.09 91.0974 105.09 92.16C105.09 93.2226 108.057 94.084 111.718 94.084Z" fill="white" stroke="#263238" stroke-linecap="round" stroke-linejoin="round"/>
<path d="M111.718 93.768C115.003 93.768 117.666 93.0481 117.666 92.16C117.666 91.2719 115.003 90.552 111.718 90.552C108.433 90.552 105.77 91.2719 105.77 92.16C105.77 93.0481 108.433 93.768 111.718 93.768Z" fill="white" stroke="#263238" stroke-linecap="round" stroke-linejoin="round"/>
<path d="M106.332 92.84C107.284 93.388 109.336 93.764 111.72 93.764C114.104 93.764 116.156 93.388 117.104 92.84C116.156 92.296 114.1 91.916 111.72 91.916C109.34 91.916 107.284 92.296 106.332 92.84Z" fill="#263238" stroke="#263238" stroke-linecap="round" stroke-linejoin="round"/>
<path d="M108.945 92.992C108.945 92.992 107.221 88.688 107.725 87.54C108.229 86.392 109.877 86.536 110.453 87.684C111.029 88.832 111.313 93.136 111.313 93.136C111.313 93.136 109.597 93.712 108.945 92.992Z" fill="#B0D0F7" stroke="#263238" stroke-miterlimit="10"/>
<path d="M110.454 93.424C110.454 93.424 109.09 85.824 109.446 84.384C109.802 82.944 111.602 82.444 112.89 83.52C114.178 84.596 113.69 90.052 113.69 90.84C113.69 91.628 113.618 93.28 113.618 93.28C112.595 93.6105 111.503 93.6603 110.454 93.424Z" fill="#B0D0F7" stroke="#263238" stroke-miterlimit="10"/>
<path d="M113.252 93.28C113.252 93.28 112.188 90.336 112.824 89.188C113.46 88.04 114.76 88.472 114.76 89.404C114.76 90.336 114.832 92.564 114.688 93.064C114.544 93.564 113.756 93.712 113.252 93.28Z" fill="#B0D0F7" stroke="#263238" stroke-miterlimit="10"/>
<path d="M111.673 93.2C109.877 86.4 111.385 83.012 111.385 83.012C111.385 83.012 113.537 86.744 112.389 93.2" stroke="#263238" stroke-linecap="round" stroke-linejoin="round"/>
<path d="M108.73 87.396C108.73 87.396 107.078 87.468 109.806 93.136" stroke="#263238" stroke-linecap="round" stroke-linejoin="round"/>
<path d="M69.4788 170.308C65.8468 168.06 61.6588 164.428 60.2788 159.136C59.1528 161.685 57.6596 164.056 55.8468 166.172C53.2988 169.152 49.6588 171.232 45.6068 172.316C44.6108 172.584 44.0508 172.884 44.0508 173.2C44.0508 174.324 51.0828 175.236 59.7588 175.236C68.4348 175.236 75.4708 174.324 75.4708 173.2C75.4708 172.924 75.0388 172.656 74.2708 172.4C72.5919 171.907 70.9819 171.204 69.4788 170.308Z" fill="white" stroke="#263238" stroke-miterlimit="10"/>
<path d="M58.6935 113.176L55.4375 161.608L59.8695 167.268L64.2415 162.384L61.7255 113.312L58.6935 113.176Z" fill="white" stroke="#263238" stroke-miterlimit="10"/>
<path d="M77.54 115.4H34V118.276C34 120.46 45.544 122.236 59.784 122.236C74.024 122.236 85.568 120.46 85.568 118.276V115.4H77.54Z" fill="#263238"/>
<path d="M59.7801 119.368C74.0202 119.368 85.5641 117.593 85.5641 115.404C85.5641 113.215 74.0202 111.44 59.7801 111.44C45.54 111.44 33.9961 113.215 33.9961 115.404C33.9961 117.593 45.54 119.368 59.7801 119.368Z" fill="#B0D0F7" stroke="#263238" stroke-miterlimit="10"/>
<path d="M101.12 162.552C100.256 163.512 98.7202 163.508 97.5202 163.132C95.6482 162.556 94.0402 161.324 92.1962 160.676C89.9322 159.876 87.2482 159.908 85.4882 158.276C84.6068 157.395 84.0259 156.258 83.8282 155.028L83.7802 154.756C83.6249 153.436 83.6155 152.102 83.7522 150.78L88.1322 148.224C91.0202 152.324 95.9322 156.2 98.7442 158.468C99.4598 159.009 100.136 159.6 100.768 160.236C101.78 161.492 101.12 162.552 101.12 162.552Z" fill="white"/>
<path d="M83.7366 150.776C83.5999 152.098 83.6093 153.432 83.7646 154.752C83.9288 156.082 84.5295 157.32 85.4726 158.272C87.2326 159.908 89.9166 159.872 92.1806 160.672C94.0246 161.32 95.6326 162.552 97.5046 163.128C98.7366 163.504 100.257 163.508 101.105 162.548C101.105 162.548 101.765 161.488 100.737 160.228C99.7086 158.968 92.0326 153.796 88.1006 148.228L83.7366 150.776Z" stroke="#263238" stroke-miterlimit="10"/>
<path d="M47.9537 98.832C47.9537 98.832 42.8977 104 43.3577 110.228C43.8177 116.456 51.8897 119.22 57.2217 121.352C60.536 122.709 63.5976 124.616 66.2777 126.992C66.2777 126.992 64.5377 131.868 69.1097 137.96C73.6817 144.052 84.0457 151.676 84.0457 151.676C84.9998 151.666 85.929 151.37 86.7133 150.827C87.4976 150.284 88.1011 149.518 88.4457 148.628C88.4457 148.628 78.4457 131.104 75.9777 123.792C75.9777 123.792 75.5177 118.192 73.2137 116.172C73.2137 116.172 76.2697 112.908 76.2417 109.24C76.2137 105.572 72.8017 99.852 68.8017 97.2L68.5057 98.116L64.9057 101.04C64.9057 101.04 56.7057 101.688 51.0177 96.968V95.6L50.5657 96.168L47.9537 98.832Z" fill="#263238"/>
<path d="M72.0234 114.48C72.4566 115.02 72.8573 115.585 73.2234 116.172" stroke="white" stroke-linecap="round" stroke-linejoin="round"/>
<path d="M61.9414 104.956C61.9414 104.956 67.2934 109.088 70.9294 113.18" stroke="white" stroke-linecap="round" stroke-linejoin="round"/>
<path d="M66.2773 108.592C66.2773 108.592 68.1733 106.776 68.5213 104.956" stroke="white" stroke-linecap="round" stroke-linejoin="round"/>
<path d="M101.12 162.552C100.256 163.512 98.7203 163.508 97.5203 163.132C95.6483 162.556 94.0403 161.324 92.1963 160.676C89.9323 159.876 87.2483 159.908 85.4883 158.276C84.5843 157.436 83.7683 155.56 83.6523 153.292C84.7177 154.385 85.9438 155.309 87.2883 156.032C88.6483 156.744 90.0883 157.584 91.4363 158.32C92.8206 159.14 94.3474 159.691 95.9363 159.944C96.4062 159.995 96.8816 159.942 97.3283 159.788C98.4603 159.296 98.2843 158.536 98.3123 158.144C99.1671 158.798 99.9869 159.496 100.768 160.236C101.78 161.492 101.12 162.552 101.12 162.552Z" fill="#263238"/>
<path d="M63.6908 168.136C63.6908 171.276 62.7468 174.536 60.5548 176.768C60.1941 177.197 59.702 177.495 59.1548 177.616C58.7974 177.628 58.4424 177.552 58.1214 177.395C57.8004 177.237 57.5233 177.003 57.3148 176.712C56.4348 175.64 56.1628 174.176 56.2228 172.788C56.2828 171.4 56.6228 170.044 56.8428 168.672C56.9308 168.1 56.9988 167.528 57.0428 166.952C57.1435 165.579 57.114 164.199 56.9548 162.832C56.7828 161.356 56.4548 159.888 57.5388 158.76C58.3668 157.9 59.9388 156.608 61.1388 157.588C61.512 157.956 61.7716 158.424 61.8868 158.936C62.0708 159.508 62.2548 160.08 62.4268 160.66C63.2097 163.077 63.6355 165.596 63.6908 168.136Z" fill="white"/>
<path d="M56.9578 162.832C57.1847 164.775 57.147 166.739 56.8458 168.672C56.6298 170.044 56.2818 171.4 56.2258 172.788C56.1698 174.176 56.4378 175.64 57.3178 176.712C57.5264 177.003 57.8035 177.237 58.1245 177.395C58.4455 177.552 58.8004 177.628 59.1578 177.616C59.7051 177.495 60.1971 177.197 60.5578 176.768C62.7498 174.52 63.6898 171.276 63.6938 168.136C63.6978 164.996 62.8458 161.92 61.8738 158.936C61.7586 158.424 61.499 157.956 61.1258 157.588C59.9258 156.608 58.3698 157.9 57.5258 158.76C56.4578 159.888 56.8018 161.356 56.9578 162.832Z" stroke="#263238" stroke-miterlimit="10"/>
<path d="M56.8913 160.8C56.8913 160.8 59.1433 164.18 62.4153 160.8C62.4153 160.8 61.9633 151.328 62.9753 146.428C63.9873 141.528 67.8233 126.196 62.4153 120.9C57.0073 115.604 52.1553 120.56 51.2553 124.844C50.3553 129.128 53.1713 141.3 54.8553 146.936C56.5393 152.572 56.8913 160.8 56.8913 160.8Z" fill="#263238"/>
<path d="M64.169 123.636C64.169 123.636 60.801 114.8 53.625 119.912" stroke="white" stroke-linecap="round" stroke-linejoin="round"/>
<path d="M63.6908 168.136C63.6908 171.276 62.7468 174.536 60.5548 176.768C60.1941 177.197 59.702 177.495 59.1548 177.616C58.7974 177.628 58.4424 177.552 58.1214 177.395C57.8004 177.237 57.5233 177.003 57.3148 176.712C56.4348 175.64 56.1628 174.176 56.2228 172.788C56.2828 171.4 56.6228 170.044 56.8428 168.672C56.9308 168.1 56.9988 167.528 57.0428 166.952C57.2948 168.152 57.3428 170.804 57.3788 171.296C57.3923 171.781 57.4759 172.262 57.6268 172.724C57.7042 172.954 57.8304 173.165 57.9968 173.341C58.1632 173.518 58.3658 173.657 58.5908 173.748C58.8843 173.827 59.194 173.825 59.486 173.74C59.778 173.655 60.0412 173.492 60.2468 173.268C60.6528 172.815 60.9521 172.276 61.1228 171.692C62.2028 168.644 62.3468 165.352 62.3028 162.12C62.2762 161.631 62.3125 161.14 62.4108 160.66C63.1991 163.076 63.6303 165.595 63.6908 168.136Z" fill="#263238"/>
<path d="M49.5495 59.2C49.1745 60.0723 49.0312 61.0267 49.1335 61.9707C49.2359 62.9147 49.5803 63.8163 50.1335 64.588C52.0455 67.312 57.9295 69.864 61.3335 68.416C64.7375 66.968 70.8655 67.044 73.6735 68.816C76.4815 70.588 87.0375 69.372 87.0375 62.968C87.0375 62.968 88.4855 64.24 88.1455 66.104C88.1455 66.104 92.8255 61.964 87.2935 55.816C87.2935 55.816 88.8615 52.98 85.5655 52.56C82.2695 52.14 81.9655 50.352 81.6495 48.48C81.3335 46.608 81.4095 42.04 77.3135 42.08C77.3135 42.08 70.6975 35.528 63.3135 38.76C55.9295 41.992 57.7135 46.76 54.2415 46.084C54.0988 46.4974 54.0988 46.9466 54.2415 47.36C54.2415 47.36 55.3495 49.912 53.7335 51.104C52.1175 52.296 47.8215 54.428 47.6055 60.304C47.7934 59.9562 48.0753 59.6683 48.4191 59.4731C48.7628 59.2779 49.1545 59.1832 49.5495 59.2Z" fill="#263238"/>
<path d="M60.3477 65.576L61.5957 64.912V61.836C61.5957 61.836 63.5157 65.36 65.6997 65.732C67.8837 66.104 70.4157 62.292 70.4157 62.292C70.4157 62.292 69.9837 64.744 70.4157 65.36C70.8477 65.976 74.4597 67.864 74.4597 67.864C74.4597 67.864 68.9117 73.084 67.6597 77.064C67.6597 77.064 67.2597 73.304 64.6677 71.324C62.6876 69.8807 61.1834 67.8793 60.3477 65.576Z" fill="white"/>
<path d="M60.3469 65.576C58.883 66.0091 57.344 66.1277 55.8309 65.924C53.6509 65.524 50.0869 64.236 47.5029 66.104C44.9189 67.972 45.3989 75.472 45.1029 77.572C44.8069 79.672 44.5629 81.72 42.7669 83.528C40.9709 85.336 39.7669 90.524 40.2389 92.44C40.2389 92.44 38.9149 94.236 39.8789 97.568C40.8429 100.9 41.6149 100.28 41.6149 100.28C41.6149 100.28 45.5669 100.436 47.6149 99.2C47.6149 99.2 49.6629 97.536 50.3469 96.164C51.0309 94.792 49.8869 92.44 49.8869 92.44L51.0269 93.64V96.98C51.0269 96.98 55.3069 100.104 59.6989 100.72C64.8989 101.052 64.7269 101.044 64.7269 101.044L68.4069 98.448C68.4069 98.448 70.0069 93.468 71.5309 91.668C73.0549 89.868 76.6349 86.776 76.8629 84.948C77.0909 83.12 76.3109 78.8 76.3109 78.8C76.3109 78.8 78.9229 81.532 79.5309 84.624C80.1389 87.716 88.3309 81.464 88.3309 81.464C88.3309 81.464 85.9109 76.88 85.2749 74.412C84.6389 71.944 83.6749 69.044 81.2989 68.692C78.9229 68.34 74.2629 68 74.2629 68C74.2629 68 69.1229 72.8 67.6949 77.276C67.6949 77.276 67.1549 73.804 64.6509 71.34C62.1469 68.876 60.4189 67.304 60.3469 65.576Z" fill="#B0D0F7"/>
<path opacity="0.6" d="M74.4595 67.864C74.4595 67.864 68.9195 73.22 67.8035 76.628C67.8035 76.628 66.4035 73.028 64.2795 70.944C62.1555 68.86 61.1075 67.236 60.3475 65.576L59.3315 65.924C59.3315 65.924 58.3475 68.3 58.1875 69.412L61.0635 70.952L60.8275 76.232C60.8275 76.232 65.8995 81.456 66.4275 84.632L67.8195 85.432C67.8195 85.432 68.4995 81.476 68.1755 79.324C68.1755 79.324 68.9755 78.252 70.9435 77.46C72.9115 76.668 74.2515 75.968 74.2515 75.968L73.6915 72.576C75.1353 72.2214 76.5358 71.709 77.8675 71.048L75.3675 68.064L74.4595 67.864Z" fill="white"/>
<path opacity="0.2" d="M83.2561 82.624C83.2561 82.624 81.6561 78.064 75.2081 75.1L75.5521 76.46L73.9241 76.248C73.9241 76.248 74.3241 83.184 71.9641 85.448C69.6041 87.712 60.5241 85.884 58.1641 87.916L62.2881 88.24C62.2881 88.24 58.7281 89.216 58.5401 90.44C58.3521 91.664 63.4361 91.028 65.4721 91.984C65.4721 91.984 65.9481 97.984 64.1521 100.992L64.7321 101.032L68.5041 98.116C68.5041 98.116 70.7841 91.888 72.5041 90.44C74.2241 88.992 76.8321 86.58 76.7921 84.636C76.7521 82.692 76.4321 78.636 76.4321 78.636C76.4321 78.636 78.6361 81.396 79.2321 83.604C79.8281 85.812 83.2561 82.624 83.2561 82.624Z" fill="black"/>
<path d="M83.0298 90.624C83.0298 90.624 84.3818 96.304 89.5698 96.164C89.5698 96.164 90.1778 96.44 90.8578 94.88C91.5378 93.32 92.2338 91.712 91.5858 88.652C90.9378 85.592 88.8018 82.204 88.8018 82.204L82.5898 85.7L83.0298 90.624Z" fill="white"/>
<path d="M74 52.572C74 52.572 73.6 45.552 68.4 43.9C63.2 42.248 58.676 46.3 57.668 51.82C57.668 51.82 58.868 57.66 59.616 59.052C60.364 60.444 63.388 65.172 65.552 65.736C67.716 66.3 70.724 62.044 71.924 60.204C73.124 58.364 73.98 55.268 74.156 52.572" fill="white"/>
<path d="M74 52.572C74 52.572 73.6 45.552 68.4 43.9C63.2 42.248 58.676 46.3 57.668 51.82C57.668 51.82 58.868 57.66 59.616 59.052C60.364 60.444 63.388 65.172 65.552 65.736C67.716 66.3 70.724 62.044 71.924 60.204C73.124 58.364 73.98 55.268 74.156 52.572" stroke="#263238" stroke-miterlimit="10"/>
<path d="M65.4609 60.244C65.5803 60.447 65.7285 60.6316 65.9009 60.792C66.5089 61.356 66.7009 60.46 66.7009 59.992C66.668 58.8716 66.8612 57.7561 67.2689 56.712" stroke="#263238" stroke-linecap="round" stroke-linejoin="round"/>
<path d="M68.0195 55.66C68.5035 54.92 69.7315 54.06 70.9115 54.86" stroke="#263238" stroke-linecap="round" stroke-linejoin="round"/>
<path d="M61.7578 54.532C63.0538 53.732 64.5898 54.212 64.8418 55.268" stroke="#263238" stroke-linecap="round" stroke-linejoin="round"/>
<path d="M69.1989 57.6C69.1789 58.068 68.9909 58.44 68.7789 58.432C68.5669 58.424 68.4109 58.032 68.4269 57.568C68.4429 57.104 68.6349 56.724 68.8469 56.732C69.0589 56.74 69.1989 57.124 69.1989 57.6Z" fill="#263238"/>
<path d="M63.8245 57.468C63.8045 57.936 63.6165 58.308 63.4045 58.3C63.1925 58.292 63.0325 57.9 63.0525 57.436C63.0725 56.972 63.2605 56.592 63.4725 56.6C63.6845 56.608 63.8445 56.996 63.8245 57.468Z" fill="#263238"/>
<path d="M73.2188 57.548C73.2188 57.548 73.6467 57.78 74.6667 56.892C75.6867 56.004 76.5548 54.28 76.1388 53.56C75.7228 52.84 74.4587 53.884 74.4587 53.884L73.2188 57.548Z" fill="white" stroke="#263238" stroke-miterlimit="10"/>
<path d="M57.7829 52.908C57.7829 52.908 56.6989 52.256 56.0709 52.776C55.3749 53.348 56.3869 55.272 56.7349 55.82C57.1749 56.512 58.0389 57.1 58.7709 56.468L57.7829 52.908Z" fill="white" stroke="#263238" stroke-miterlimit="10"/>
<path d="M63.3281 60.976C63.4909 61.3944 63.7529 61.7669 64.0915 62.0617C64.4302 62.3564 64.8353 62.5645 65.2721 62.668" stroke="#263238" stroke-linecap="round" stroke-linejoin="round"/>
<path d="M70.6585 61.972C70.0305 63.376 70.0625 64.612 70.4345 66.104" stroke="#263238" stroke-linecap="round" stroke-linejoin="round"/>
<path d="M61.4637 61.836C61.5798 62.727 61.624 63.6259 61.5957 64.524C61.6369 65.1202 61.5524 65.7185 61.3477 66.28" stroke="#263238" stroke-linecap="round" stroke-linejoin="round"/>
<path d="M57.3032 52.18C57.3032 52.18 63.2232 51.944 64.5872 45.8C64.5872 45.8 67.1792 52.344 74.7312 52.908C74.7312 52.908 76.0792 48.256 75.3192 45.272C74.5592 42.288 70.8392 39.708 65.8472 40.12C60.8552 40.532 56.7312 42.344 57.3032 52.18Z" fill="#263238"/>
<path d="M51.0312 93.632V96.972C51.0312 96.972 56.9753 101.496 64.9193 101.044L68.3992 98.44C68.3992 98.44 69.5672 94.06 71.9432 91.104C74.3192 88.148 77.2632 86.82 76.8112 83.128C76.3592 79.436 76.2352 78.192 76.2352 78.192" stroke="#263238" stroke-linecap="round" stroke-linejoin="round"/>
<path d="M61.4646 65.2C61.4646 65.2 58.0646 66.516 54.5886 65.744C51.1126 64.972 48.7126 64.792 46.7526 66.752C44.7926 68.712 45.8646 79.152 44.1726 81.492C42.4806 83.832 39.2646 88.536 40.2446 92.452" stroke="#263238" stroke-linecap="round" stroke-linejoin="round"/>
<path d="M50.3377 94.332C51.2697 96.024 49.3297 97.532 47.9377 98.832C46.5457 100.132 42.5857 100.432 41.3617 100.208C40.1377 99.984 39.2977 95.7 39.5257 94.324C39.7537 92.948 40.5217 91.648 41.6697 91.104C42.8177 90.56 43.6697 86.984 44.5137 86.496C45.3577 86.008 45.8617 87.596 45.8617 87.596" stroke="#263238" stroke-miterlimit="10"/>
<path d="M61.1211 88.1L68.9051 89.048C69.6411 89.136 70.4451 89.264 70.9291 89.824" stroke="#263238" stroke-linecap="round" stroke-linejoin="round"/>
<path d="M52.2148 82.056C52.2148 82.056 52.6868 78.084 52.2148 76.232" stroke="#263238" stroke-linecap="round" stroke-linejoin="round"/>
<path d="M52.4258 80.608C53.2716 79.7602 53.9621 78.7705 54.4658 77.684" stroke="#263238" stroke-linecap="round" stroke-linejoin="round"/>
<path d="M81.2767 82.064C80.7562 81.9795 80.2664 81.7619 79.8547 81.4324C79.4431 81.1029 79.1236 80.6726 78.9272 80.1832C78.7308 79.6938 78.6642 79.162 78.7338 78.6394C78.8035 78.1167 79.007 77.6209 79.3247 77.2C79.7247 76.648 80.3287 76.244 80.7167 75.672C80.9422 75.3315 81.0866 74.9437 81.1386 74.5386C81.1906 74.1335 81.1489 73.7219 81.0168 73.3355C80.8846 72.949 80.6655 72.5981 80.3763 72.3097C80.0871 72.0213 79.7355 71.8031 79.3487 71.672C80.117 71.6059 80.8899 71.614 81.6567 71.696C83.2327 71.924 84.1887 73.024 83.8567 74.68C83.5247 76.336 81.5847 76.556 80.4327 77.48C80.1346 77.6911 79.8929 77.9722 79.729 78.2986C79.5651 78.6251 79.4839 78.9868 79.4927 79.352C79.5212 79.9221 79.7016 80.4741 80.0153 80.951C80.329 81.4279 80.7645 81.8121 81.2767 82.064Z" fill="white" stroke="#263238" stroke-miterlimit="10"/>
<path d="M70.2305 65.2C71.7103 66.5993 73.5538 67.5544 75.5505 67.956C78.6705 68.484 82.1425 68.332 83.3025 69.704C84.4625 71.076 86.1945 78.404 88.4505 81.676C90.7065 84.948 93.9345 91.796 89.9985 96C89.9985 96 85.7425 97.392 83.3145 91.6" stroke="#263238" stroke-linecap="round" stroke-linejoin="round"/>
<path d="M75.5508 77.368C75.5508 77.368 78.0228 80.24 79.0628 83.128" stroke="#263238" stroke-linecap="round" stroke-linejoin="round"/>
<path d="M80.8015 91.104C81.8941 90.402 83.1943 90.0957 84.4855 90.236C86.6135 90.488 86.4175 91.084 86.0455 91.236C85.6735 91.388 79.9855 92.688 79.7975 92.352C79.6095 92.016 80.8015 91.104 80.8015 91.104Z" fill="white" stroke="#263238" stroke-miterlimit="10"/>
<path d="M60.3477 65.576C60.5277 67.46 62.0957 68.856 63.4757 70.156C64.6205 71.1737 65.6109 72.3527 66.4157 73.656C68.4997 77.28 68.0397 81.772 67.5157 85.92" stroke="#263238" stroke-linecap="round" stroke-linejoin="round"/>
<path d="M59.6008 65.556C58.9305 66.6665 58.4568 67.8844 58.2008 69.156C58.1727 69.2431 58.1727 69.3369 58.2008 69.424C58.2487 69.4982 58.3187 69.5555 58.4008 69.588L61.0768 70.964C60.8289 72.2443 60.7283 73.5488 60.7768 74.852C60.7748 75.088 60.8099 75.3229 60.8808 75.548C61.003 75.833 61.1781 76.0922 61.3968 76.312C63.5688 78.788 65.9128 81.4 66.4248 84.652" stroke="#263238" stroke-linecap="round" stroke-linejoin="round"/>
<path d="M74.7167 67.716C74.1589 68.0378 73.6531 68.4424 73.2167 68.916C70.894 71.2524 69.0549 74.024 67.8047 77.072" stroke="#263238" stroke-linecap="round" stroke-linejoin="round"/>
<path d="M75.0522 67.748C76.0202 68.8147 76.9535 69.9213 77.8522 71.068C76.6073 71.9136 75.1728 72.4385 73.6762 72.596C73.8642 73.62 74.0482 74.644 74.2362 75.664C74.2661 75.7699 74.2661 75.8821 74.2362 75.988C74.1672 76.1097 74.0563 76.2021 73.9242 76.248C71.9442 77.212 69.5522 77.632 68.1602 79.344" stroke="#263238" stroke-linecap="round" stroke-linejoin="round"/>
<path d="M64.5898 45.8C64.5898 45.8 64.9378 53.716 74.4618 53.884" stroke="#263238" stroke-linecap="round" stroke-linejoin="round"/>
<path d="M85.56 82.056C86.1714 83.6294 86.5279 85.2903 86.616 86.976C86.676 89.468 84.38 90.808 82.748 91.104C81.116 91.4 79.124 91.308 77.796 89.636C76.468 87.964 76 84.4 76 84.4L85.56 82.056Z" fill="white" stroke="#263238" stroke-miterlimit="10"/>
<path d="M87.7205 81.48C87.4032 81.4964 87.0927 81.5781 86.8085 81.72C85.3339 82.3412 83.9188 83.0949 82.5805 83.972C82.4605 84.052 82.3245 84.152 82.3125 84.296C82.3125 84.52 82.5645 84.644 82.7845 84.696C84.0685 84.936 85.3885 84.652 86.6605 84.368C87.0322 84.3029 87.3939 84.19 87.7365 84.032C88.8005 83.488 89.5085 81.504 87.7205 81.48Z" fill="white" stroke="#263238" stroke-miterlimit="10"/>
<path d="M88.4441 84.4C87.369 84.5261 86.3066 84.7429 85.2681 85.048C84.9382 85.1108 84.6241 85.2386 84.3441 85.424C84.2929 85.4538 84.2498 85.4955 84.2184 85.5457C84.187 85.5959 84.1684 85.653 84.1641 85.712C84.1641 85.856 84.3081 85.948 84.4361 86.008C84.8957 86.1889 85.3796 86.3008 85.8721 86.34C87.0721 86.492 88.5201 86.684 89.5561 85.916C90.6961 85.084 89.3841 84.332 88.4441 84.4Z" fill="white" stroke="#263238" stroke-miterlimit="10"/>
<path d="M85.316 87.024C84.9606 87.0217 84.6106 87.1113 84.3 87.284C84.2036 87.3369 84.1255 87.4178 84.076 87.516C84.0418 87.6209 84.0424 87.734 84.0777 87.8385C84.113 87.943 84.1812 88.0333 84.272 88.096C84.4552 88.2162 84.6629 88.2941 84.88 88.324L87.044 88.792C87.492 88.888 88.032 88.96 88.312 88.512C88.4061 88.3556 88.4559 88.1765 88.4559 87.994C88.4559 87.8115 88.4061 87.6324 88.312 87.476C87.78 86.824 86.044 86.976 85.316 87.024Z" fill="white" stroke="#263238" stroke-miterlimit="10"/>
<path d="M42.0188 90.8C41.3468 92.092 41.2748 93.6 41.2188 95.048" stroke="#263238" stroke-linecap="round" stroke-linejoin="round"/>
<path d="M42.4961 91.66C42.5069 93.1549 42.9561 94.6138 43.788 95.8559C44.6199 97.0981 45.7979 98.0688 47.1761 98.648" stroke="#263238" stroke-linecap="round" stroke-linejoin="round"/>
<path d="M69.7442 90.308C67.6002 90.152 65.4242 90 63.3242 90.444" stroke="#263238" stroke-linecap="round" stroke-linejoin="round"/>
<path d="M64.6523 71.332L56.8203 71.628L58.3683 85.92L65.6723 85.452L64.6523 71.332Z" fill="white" stroke="#263238" stroke-miterlimit="10"/>
<path d="M64.7246 75.424L65.1606 76.18L62.9286 80.26C64.1286 79.972 66.0766 77.828 66.4006 78.26C66.7246 78.692 61.2006 84.136 59.8486 84.476C58.8808 84.6692 57.8844 84.6692 56.9166 84.476C55.8406 85.736 49.8286 95.6 49.8286 95.6C49.8286 95.6 43.6886 94.936 44.9006 88.2C44.9006 88.2 52.4686 82.032 54.6886 80.06C54.6886 80.06 55.5766 76.608 56.9526 76.236L57.4406 77.436C57.4406 77.436 64.8166 74.064 65.0406 74.312C65.2646 74.56 65.0406 75.132 65.0406 75.132C65.0406 75.132 60.9206 78.916 59.9326 79.132" fill="white"/>
<path d="M64.7246 75.424L65.1606 76.18L62.9286 80.26C64.1286 79.972 66.0766 77.828 66.4006 78.26C66.7246 78.692 61.2006 84.136 59.8486 84.476C58.8808 84.6692 57.8844 84.6692 56.9166 84.476C55.8406 85.736 49.8286 95.6 49.8286 95.6C49.8286 95.6 43.6886 94.936 44.9006 88.2C44.9006 88.2 52.4686 82.032 54.6886 80.06C54.6886 80.06 55.5766 76.5 56.9526 76.236L57.4406 77.436C57.4406 77.436 64.8166 74.064 65.0406 74.312C65.2646 74.56 65.0406 75.132 65.0406 75.132C65.0406 75.132 60.9206 78.916 59.9326 79.132" stroke="#263238" stroke-miterlimit="10"/>
<path opacity="0.2" d="M64.8945 44.292C65.8522 45.3773 66.9252 46.3551 68.0945 47.208C68.6224 47.5542 69.17 47.8694 69.7345 48.152C71.5832 49.0928 73.5122 49.8665 75.4985 50.464" stroke="white" stroke-width="0.75" stroke-linecap="round" stroke-linejoin="round"/>
<path opacity="0.2" d="M65.3008 42.688C68.093 44.389 71.12 45.6707 74.2848 46.492" stroke="white" stroke-width="0.75" stroke-linecap="round" stroke-linejoin="round"/>
<path d="M61.7578 62.236C61.7578 62.236 62.8858 67.288 65.4618 67.748C68.0378 68.208 70.0898 62.748 70.0898 62.748C70.0898 62.748 67.5338 65.752 65.9218 65.728C64.3098 65.704 61.7578 62.236 61.7578 62.236Z" fill="#263238"/>
<path d="M58.6117 73.924C58.9431 73.924 59.2117 73.6554 59.2117 73.324C59.2117 72.9926 58.9431 72.724 58.6117 72.724C58.2803 72.724 58.0117 72.9926 58.0117 73.324C58.0117 73.6554 58.2803 73.924 58.6117 73.924Z" fill="white" stroke="#263238" stroke-miterlimit="10"/>
</svg>
