<svg width="670" height="670" viewBox="0 0 700 700" fill="none" xmlns="http://www.w3.org/2000/svg">
<path d="M210.071 56.21H91.1973V180.124H210.071V56.21Z" fill="#E8E8E8"/>
<path d="M202.021 56.21H83.1465V180.124H202.021V56.21Z" fill="#EBEBEB"/>
<path d="M186.047 72.87H99.1348V163.464H186.047V72.87Z" fill="#FAFAFA"/>
<path d="M99.1351 164.066C98.4956 164.979 97.7689 165.828 96.9651 166.6C95.5651 168 93.6051 170.03 91.3651 172.2C89.1251 174.37 87.1651 176.288 85.7651 177.646C85.0079 178.432 84.1782 179.144 83.2871 179.774C83.9015 178.858 84.61 178.009 85.4011 177.24C86.8011 175.84 88.7611 173.796 91.0011 171.64C93.2411 169.484 95.2011 167.552 96.6711 166.18C97.4127 165.387 98.2389 164.678 99.1351 164.066Z" fill="#8CCB95"/>
<path d="M186.047 163.8C186.936 164.443 187.761 165.17 188.511 165.97C189.911 167.37 191.941 169.33 194.111 171.57C196.281 173.81 198.185 175.77 199.557 177.17C200.347 177.923 201.059 178.754 201.685 179.648C200.789 179.019 199.963 178.296 199.221 177.492C197.821 176.092 195.791 174.132 193.621 171.892C191.451 169.652 189.547 167.692 188.175 166.292C187.38 165.539 186.666 164.703 186.047 163.8Z" fill="#8CCB95"/>
<path d="M185.809 73.108C186.446 72.2151 187.173 71.3894 187.979 70.644C189.379 69.244 191.325 67.214 193.509 65.044C195.693 62.874 197.709 60.956 199.179 59.598C199.938 58.8097 200.773 58.097 201.671 57.47C201.03 58.3564 200.303 59.1771 199.501 59.92C198.101 61.32 196.155 63.364 193.901 65.52C191.647 67.676 189.701 69.608 188.217 70.98C187.488 71.7688 186.681 72.4818 185.809 73.108Z" fill="#8CCB95"/>
<path d="M98.8958 73.332C98.0071 72.6889 97.182 71.9623 96.4318 71.162C95.0318 69.762 92.9878 67.802 90.8318 65.562C88.6758 63.322 86.7438 61.362 85.3718 59.962C84.5835 59.2112 83.875 58.3808 83.2578 57.484C84.1431 58.1207 84.9637 58.8428 85.7078 59.64C87.1078 61.04 89.1518 63 91.3078 65.24C93.4638 67.48 95.3958 69.44 96.7678 70.84C97.563 71.5933 98.2763 72.4286 98.8958 73.332Z" fill="#8CCB95"/>
<path d="M185.808 163.464C185.808 163.464 185.808 163.31 185.808 163.03C185.808 162.75 185.808 162.302 185.808 161.77C185.808 160.636 185.808 158.97 185.808 156.884C185.808 152.6 185.808 146.356 185.808 138.418C185.808 122.556 185.724 99.946 185.654 72.87L185.948 73.15H99.2738L99.5958 72.828C99.5958 106.078 99.5958 137.228 99.5958 163.422L99.3158 163.142L162.092 163.282L179.704 163.366H184.366H179.774H162.204L99.2038 163.506H98.9238V163.226C98.9238 136.99 98.9238 105.826 98.9238 72.632V72.296H99.2598H185.934H186.214V72.59C186.214 99.736 186.102 122.416 186.074 138.39C186.074 146.3 186.074 152.516 185.99 156.786C185.99 158.886 185.99 160.51 185.99 161.616C185.99 162.148 185.99 162.554 185.99 162.848C185.99 163.142 185.808 163.464 185.808 163.464Z" fill="#8CCB95"/>
<path d="M122.066 110.712C122.066 110.712 120.204 133.112 144.466 133.112C144.494 121.17 134.624 111.72 122.066 110.712Z" fill="#EBEBEB"/>
<path d="M166.517 110.726C166.517 110.726 144.117 108.864 144.117 133.126C156.059 133.168 165.509 123.284 166.517 110.726Z" fill="#EBEBEB"/>
<path d="M143.417 98.448C143.417 98.448 125.091 114.898 144.425 133.14C153.413 123.62 152.601 108.682 143.417 98.448Z" fill="#8CCB95"/>
<path d="M516.126 509.964C508.728 505.34 500.372 502.467 491.696 501.564C487.706 501.158 483.296 501.27 480.132 503.692C479.765 503.909 479.462 504.218 479.253 504.589C479.044 504.96 478.937 505.38 478.942 505.806C479.141 506.393 479.543 506.889 480.076 507.206C490.016 514.78 505.052 515.746 516.126 509.936" fill="#8CCB95"/>
<path d="M515.494 509.264C509.836 505.113 504.556 500.471 499.716 495.39C494.856 490.273 491.441 483.959 489.818 477.092C489.398 475.006 489.272 472.626 490.602 470.974C503.202 480.774 513.002 493.5 515.494 509.264Z" fill="#8CCB95"/>
<path d="M515.998 509.866C514.83 503 514.925 495.978 516.278 489.146C517.86 482.384 521.542 475.916 527.324 472.052C529.494 477.134 528.556 482.986 527.03 488.292C524.658 496.518 520.96 504.301 516.082 511.336" fill="#8CCB95"/>
<path d="M528.32 532C520.844 532.91 514.32 536.858 508.72 541.912C503.11 547.03 499.201 553.743 497.52 561.148C504.87 560.7 511.1 555.548 515.608 549.724C520.116 543.9 523.266 537.544 528.208 532.112" fill="#8CCB95"/>
<path d="M531.008 535.486C528.063 528.005 527.033 519.907 528.011 511.928C528.989 503.948 531.944 496.338 536.608 489.79C540.878 504.952 539.31 522.088 531.008 535.486Z" fill="#8CCB95"/>
<path d="M547.289 554.89C540.448 554.463 533.632 556.06 527.692 559.481C521.752 562.901 516.95 567.995 513.885 574.126C513.465 574.952 513.101 576.002 513.661 576.744C513.949 577.023 514.302 577.228 514.687 577.34C515.073 577.453 515.48 577.469 515.873 577.388C522.453 576.968 528.291 573.006 533.107 568.498C537.923 563.99 542.123 558.768 547.443 554.876" fill="#8CCB95"/>
<path d="M546.771 553.84C543.265 542.547 543.051 530.488 546.154 519.078C547.372 514.598 549.431 509.894 553.575 507.794C553.739 507.683 553.925 507.608 554.12 507.574C554.316 507.54 554.516 507.548 554.709 507.598C555.042 507.774 555.297 508.069 555.423 508.424C556.81 511.554 557.411 514.976 557.173 518.392C556.924 521.794 556.4 525.169 555.604 528.486C554.302 534.66 553.617 541.296 550.229 546.616C549.425 547.894 548.705 549.222 548.073 550.592C547.429 551.992 547.429 552.426 546.841 553.504" fill="#8CCB95"/>
<path d="M589.89 560.266C586.698 548.1 590.086 533.372 597.744 523.404C598.318 522.676 599.06 521.892 599.984 522.004C601.384 522.13 601.762 524.02 601.692 525.434C601.118 537.933 597.027 550.017 589.89 560.294" fill="#8CCB95"/>
<path d="M593.783 562.912C608.553 566.762 625.493 563.024 637.771 553.966C630.412 550.277 622.003 549.248 613.971 551.054C606.019 552.874 598.753 556.43 593.797 562.912" fill="#8CCB95"/>
<path d="M597.059 554.82C605.333 541.338 621.181 532.546 636.987 531.748C635.167 538.174 629.875 543.158 623.925 546.182C617.975 549.206 611.325 550.508 604.759 551.782C602.211 552.272 598.711 552.818 597.059 554.82Z" fill="#8CCB95"/>
<path d="M590.718 515.564C592.958 507.892 595.212 500.164 595.828 492.184C596.444 484.204 595.296 475.902 591.166 469.056C583.438 484.008 582.668 501.466 590.48 516.362" fill="#8CCB95"/>
<path d="M616.729 502.418C625.759 485.996 644.183 472.892 662.831 471.044C655.635 488.964 636.021 502.796 616.729 502.418Z" fill="#8CCB95"/>
<path d="M611.045 505.638C624.513 507.682 635.993 516.292 648.579 521.5C651.215 522.779 654.141 523.339 657.063 523.124C658.425 523.117 659.753 522.691 660.865 521.903C661.977 521.116 662.819 520.005 663.278 518.722C663.737 517.439 663.789 516.046 663.429 514.732C663.068 513.418 662.312 512.247 661.263 511.378C659.479 509.734 657.385 508.463 655.103 507.64C641.383 501.928 626.683 501.788 612.235 505.246" fill="#8CCB95"/>
<path d="M603.246 515.088C606.298 515.956 607.334 517.538 609.756 519.596C617.991 526.595 627.732 531.597 638.218 534.212C639.31 534.478 640.724 534.59 641.27 533.61C641.816 532.63 641.144 531.706 640.528 530.95C635.956 525.584 630.022 521.551 623.35 519.274C616.77 516.838 611.086 513.884 603.246 514.514" fill="#8CCB95"/>
<path d="M594.441 458.01C599.97 463.097 606.502 466.97 613.617 469.381C620.732 471.792 628.273 472.688 635.755 472.01C636.442 472.024 637.11 471.785 637.631 471.338C638.667 470.204 637.421 468.454 636.231 467.516C624.079 458.052 609.379 454.118 594.455 457.954" fill="#8CCB95"/>
<path d="M604.871 454.202C612.183 448.818 620.665 445.241 629.624 443.761C638.583 442.282 647.764 442.943 656.419 445.69C649.923 452.088 640.921 455.49 631.849 456.47C622.793 457.299 613.662 456.532 604.871 454.202Z" fill="#8CCB95"/>
<path d="M600.727 427.98C599.537 415.856 600.307 406.294 599.467 394.114C599.467 393.134 599.201 391.972 598.291 391.622C597.017 391.132 595.967 392.686 595.491 393.974C593.725 399.62 593.273 405.595 594.168 411.442C595.063 417.289 597.283 422.855 600.657 427.714" fill="#8CCB95"/>
<path d="M599.859 429.31C608.077 424.228 614.237 417.606 619.935 409.808C623.897 404.376 627.243 397.88 626.347 391.216C620.747 391.104 615.483 394.17 611.857 398.412C608.402 402.803 605.89 407.86 604.479 413.266C602.869 418.6 601.749 424.074 599.859 429.31Z" fill="#8CCB95"/>
<path d="M619.584 423.836C637.656 417.143 654.387 407.277 668.99 394.702C663.096 392.322 656.39 393.75 650.44 396.102C636.958 401.548 625.94 410.732 619.332 423.668" fill="#8CCB95"/>
<path d="M605.402 435.946C614.53 436.94 623.798 437.598 632.842 436.086C641.886 434.574 650.146 431.074 658.448 427.574C659.189 427.347 659.815 426.847 660.198 426.174C660.327 425.789 660.336 425.374 660.223 424.984C660.111 424.594 659.882 424.247 659.568 423.99C658.931 423.481 658.183 423.131 657.384 422.968C648.354 420.434 638.596 421.568 629.706 424.62C621.236 427.494 613.09 431.248 605.402 435.82" fill="#8CCB95"/>
<path d="M553.324 458.43C547.108 445.83 547.514 431.214 552.876 418.264C556.67 424.032 557.076 431.368 556.432 438.242C555.788 445.116 553.632 452.158 553.52 459.06" fill="#8CCB95"/>
<path d="M528.458 445.886C520.668 445.785 512.943 447.31 505.776 450.364C498.609 453.419 492.158 457.935 486.836 463.624C494.592 464.842 502.572 462.84 509.628 459.424C516.684 456.008 522.956 451.15 529.228 446.348" fill="#8CCB95"/>
<path d="M511.758 440.3C504.156 439.684 496.834 438.746 489.526 440.986C482.218 443.226 475.526 448.308 472.6 455.35C479.771 455.926 486.965 454.567 493.432 451.416C499.859 448.264 505.992 444.544 511.758 440.3Z" fill="#8CCB95"/>
<path d="M536.496 440.552C529.664 436.072 522.636 431.522 514.684 429.66C506.732 427.798 497.492 429.17 491.934 435.176C498.388 438.956 506.2 439.376 513.676 439.376C521.152 439.376 530.308 439.278 537.35 441.77" fill="#8CCB95"/>
<path d="M536.537 440.916C524.847 429.436 520.423 408.814 525.127 393.134C534.351 407.258 538.384 424.148 536.537 440.916Z" fill="#8CCB95"/>
<path d="M568.682 408.394C570.894 403.27 572.434 397.894 574.422 392.672C576.222 387.378 578.989 382.465 582.584 378.182C586.244 373.879 591.447 371.184 597.074 370.678C595.272 378.585 591.843 386.029 587.006 392.537C582.168 399.045 576.028 404.474 568.976 408.478" fill="#8CCB95"/>
<path d="M562.871 415.17C559.217 410.158 555.003 403.34 550.061 399.588C545.119 395.836 538.665 393.568 532.631 395.01C535.759 400.489 540.12 405.163 545.369 408.663C550.618 412.162 556.611 414.39 562.871 415.17Z" fill="#8CCB95"/>
<path d="M564.032 408.8C561.638 402.724 559.23 396.578 558.264 390.124C557.298 383.67 557.886 376.768 561.19 371.14C567.602 383.264 569.674 396.34 564.354 408.94" fill="#8CCB95"/>
<path d="M568.736 371.154C572.376 359.128 583.38 350.266 595.266 346.206C596.743 345.608 598.341 345.368 599.928 345.506C600.718 345.598 601.463 345.918 602.072 346.428C602.682 346.938 603.129 347.615 603.358 348.376C603.792 350.42 602.098 352.254 600.558 353.612C591.263 361.544 580.457 367.512 568.792 371.154" fill="#8CCB95"/>
<path d="M568.878 361.312C569.34 353.57 569.816 345.702 572.336 338.352C574.856 331.002 579.728 324.114 586.798 320.908C588.002 328.734 584.544 336.518 580.372 343.308C576.2 350.098 571.188 356.398 568.682 363.916" fill="#8CCB95"/>
<path d="M568.681 366.66C565.685 357.896 565.363 346.766 560.127 339.122C556.459 333.788 550.579 330.148 547.415 324.506C545.507 329.924 545.773 335.87 548.157 341.096C550.541 346.269 553.826 350.976 557.859 354.998C561.751 359.198 565.069 362.264 568.681 366.66Z" fill="#8CCB95"/>
<path d="M568.736 624.722C568.512 624.722 568.302 566.258 568.288 494.172C568.274 422.086 568.442 363.594 568.68 363.594C568.918 363.594 569.114 422.044 569.128 494.172C569.142 566.3 568.974 624.722 568.736 624.722Z" fill="#8CCB95"/>
<path d="M619.824 449.61C619.119 449.954 618.383 450.23 617.626 450.436L611.578 452.48C606.482 454.216 599.468 456.68 591.866 459.844C584.264 463.008 577.236 465.696 573.19 469.196C571.579 470.548 570.296 472.247 569.438 474.166C568.864 475.566 568.766 476.378 568.682 476.364C568.648 476.16 568.648 475.952 568.682 475.748C568.773 475.166 568.918 474.595 569.116 474.04C569.878 472.002 571.134 470.183 572.77 468.748C575.212 466.686 577.943 464.992 580.876 463.722C584.11 462.21 587.708 460.628 591.516 459.06C599.146 455.938 606.216 453.46 611.368 451.906C613.944 451.108 616.044 450.506 617.514 450.114C618.266 449.873 619.039 449.704 619.824 449.61Z" fill="#8CCB95"/>
<path d="M636.568 408.478C636.568 408.478 636.386 408.73 635.952 409.136L634.076 410.9L627.076 417.256L603.766 438.018C594.666 446.11 586.812 453.852 581.366 459.676C578.636 462.588 576.48 464.996 575.01 466.676C574.338 467.46 573.778 468.076 573.316 468.608C572.854 469.14 572.714 469.28 572.686 469.252C572.831 468.99 572.999 468.741 573.19 468.51C573.54 468.034 574.058 467.334 574.758 466.466C576.158 464.716 578.244 462.266 580.918 459.27C587.952 451.585 595.392 444.28 603.206 437.388C612.334 429.296 620.65 421.988 626.684 416.808L633.866 410.648L635.84 409.01C636.061 408.805 636.305 408.627 636.568 408.478Z" fill="#8CCB95"/>
<path d="M593.95 446.25C593.712 446.138 595.602 441.756 597.506 436.198C599.41 430.64 600.306 425.964 600.558 426.006C600.81 426.048 600.236 430.85 598.304 436.478C597.497 438.86 596.562 441.196 595.504 443.478C595.121 444.472 594.598 445.405 593.95 446.25Z" fill="#8CCB95"/>
<path d="M568.793 481.6C568.271 481.11 567.801 480.565 567.393 479.976L563.795 475.37C560.785 471.464 556.613 466.088 551.937 460.194C547.261 454.3 542.963 448.994 539.855 445.2L536.201 440.678C535.722 440.145 535.299 439.563 534.941 438.942C535.496 439.398 536.002 439.909 536.453 440.468C537.391 441.476 538.721 442.974 540.331 444.836C543.565 448.574 547.947 453.796 552.623 459.704C557.299 465.612 561.415 471.044 564.313 475.034C565.713 477.036 566.903 478.66 567.687 479.808C568.107 480.372 568.477 480.972 568.793 481.6Z" fill="#8CCB95"/>
<path d="M557.594 467.25C557.454 467.404 554.472 463.848 552.904 458.472C552.021 455.606 551.66 452.604 551.84 449.61H552.204C552.05 450.282 551.924 450.646 551.854 450.632C551.784 450.618 551.784 450.24 551.854 449.554H552.232C552.407 452.471 552.909 455.359 553.73 458.164C555.228 463.4 557.818 467.11 557.594 467.25Z" fill="#8CCB95"/>
<path d="M543.2 449.064C542.194 448.293 541.093 447.653 539.924 447.16C536.976 446.279 533.875 446.031 530.824 446.432C527.736 446.67 524.674 447.167 521.668 447.916C520.438 448.31 519.179 448.61 517.902 448.812C519.027 448.146 520.244 447.651 521.514 447.342C524.522 446.407 527.627 445.82 530.768 445.592C533.931 445.171 537.148 445.517 540.148 446.6C541.424 447.036 542.505 447.909 543.2 449.064Z" fill="#8CCB95"/>
<path d="M539.7 444.654C539.7 444.78 537.796 443.884 534.688 442.82C526.557 440.034 517.849 439.374 509.39 440.902C506.156 441.476 504.196 442.078 504.154 441.938C504.564 441.68 505.013 441.491 505.484 441.378C506.725 440.943 507.992 440.588 509.278 440.314C517.82 438.438 526.724 439.114 534.884 442.26C536.11 442.73 537.307 443.272 538.468 443.884C539.294 444.332 539.728 444.598 539.7 444.654Z" fill="#8CCB95"/>
<path d="M568.68 426.006C568.456 426.006 566.818 420.406 565.026 413.294C563.234 406.182 561.946 400.428 562.226 400.372C562.506 400.316 564.088 405.972 565.88 413.084C567.672 420.196 568.904 425.95 568.68 426.006Z" fill="#8CCB95"/>
<path d="M568.919 426.006C568.667 426.09 567.603 422.282 564.859 418.39C563.138 416.09 561.129 414.019 558.881 412.23C559.733 412.443 560.523 412.85 561.191 413.42C562.885 414.661 564.358 416.181 565.545 417.914C567.356 420.271 568.519 423.061 568.919 426.006Z" fill="#8CCB95"/>
<path d="M568.737 593.6C568.653 593.6 568.471 592.2 567.813 589.708C566.849 586.213 565.541 582.823 563.907 579.586C559.875 571.34 552.525 560.868 543.187 550.396C538.553 545.104 534.073 540.12 530.265 535.346C526.845 531.141 523.751 526.681 521.011 522.004C519.178 518.848 517.619 515.542 516.349 512.12C515.915 510.888 515.607 509.95 515.425 509.32C515.305 508.957 515.229 508.581 515.201 508.2C515.285 508.2 515.705 509.6 516.671 511.924C518.054 515.278 519.683 518.525 521.543 521.64C524.334 526.242 527.455 530.635 530.881 534.786C534.703 539.504 539.197 544.474 543.831 549.766C553.197 560.28 560.533 570.864 564.467 579.264C566.063 582.556 567.298 586.01 568.149 589.568C568.382 590.532 568.555 591.509 568.667 592.494C568.733 592.859 568.757 593.23 568.737 593.6Z" fill="#8CCB95"/>
<path d="M614.908 541.422C614.13 541.937 613.321 542.404 612.486 542.822C610.297 544.068 608.201 545.472 606.214 547.022C603.273 549.308 600.516 551.822 597.968 554.54C595.07 557.592 592.088 561.148 589.05 564.942C582.974 572.572 577.29 579.32 573.888 584.71C572.152 587.384 570.892 589.638 570.066 591.22C569.685 592.064 569.241 592.879 568.736 593.656C568.776 593.417 568.852 593.186 568.96 592.97C569.142 592.536 569.394 591.878 569.772 591.08C570.84 588.781 572.042 586.547 573.37 584.388C576.688 578.872 582.33 572.026 588.392 564.41C591.444 560.602 594.454 557.046 597.408 553.994C599.998 551.284 602.808 548.793 605.808 546.546C607.848 545.038 610.018 543.712 612.29 542.584C613.088 542.178 613.69 541.926 614.18 541.744C614.398 541.588 614.646 541.478 614.908 541.422Z" fill="#8CCB95"/>
<path d="M615.804 558.334C614.122 558.711 612.414 558.959 610.694 559.076C606.589 559.502 602.531 560.298 598.57 561.456C594.655 562.734 590.983 564.66 587.706 567.154C585.2 569.1 584.024 570.696 583.912 570.598C584.088 570.162 584.344 569.763 584.668 569.422C585.463 568.405 586.353 567.468 587.328 566.622C590.566 563.926 594.293 561.877 598.304 560.588C602.32 559.398 606.458 558.665 610.638 558.404C612.354 558.222 614.084 558.199 615.804 558.334Z" fill="#8CCB95"/>
<path d="M585.396 568.75C585.13 568.596 587.44 565.068 589.218 560.35C590.996 555.632 591.29 551.39 591.598 551.432C591.73 552.363 591.702 553.31 591.514 554.232C591.258 556.437 590.756 558.607 590.016 560.7C589.242 562.775 588.247 564.76 587.048 566.622C586.617 567.417 586.059 568.136 585.396 568.75Z" fill="#8CCB95"/>
<path d="M629.86 496.006C629.598 496.175 629.322 496.32 629.034 496.44L626.626 497.532C625.576 497.98 624.302 498.554 622.86 499.31C621.418 500.066 619.738 500.822 617.974 501.886L615.174 503.468C614.208 504.028 613.242 504.686 612.234 505.316C610.176 506.576 608.118 508.116 605.92 509.67C596.503 516.702 588.286 525.212 581.588 534.87C580.104 537.124 578.634 539.238 577.458 541.338C576.856 542.374 576.226 543.354 575.708 544.334L574.21 547.134C573.216 548.926 572.516 550.634 571.816 552.104C571.116 553.574 570.57 554.904 570.164 555.94L569.156 558.376C569.053 558.67 568.917 558.952 568.75 559.216C568.792 558.909 568.872 558.608 568.988 558.32C569.226 557.662 569.506 556.836 569.856 555.814C570.299 554.492 570.809 553.193 571.382 551.922C572.04 550.424 572.712 548.688 573.678 546.868L575.078 543.984C575.582 542.99 576.198 541.996 576.8 540.932C577.948 538.804 579.404 536.732 580.888 534.394C587.557 524.614 595.842 516.04 605.388 509.04C607.628 507.472 609.714 505.946 611.8 504.714C612.836 504.084 613.802 503.44 614.782 502.894L617.582 501.34C619.36 500.318 621.082 499.576 622.552 498.876C623.801 498.254 625.081 497.698 626.388 497.21L628.866 496.272C629.183 496.136 629.518 496.046 629.86 496.006Z" fill="#8CCB95"/>
<path d="M593.32 520.478C593.663 519.301 594.362 518.259 595.322 517.496C597.571 515.532 600.443 514.431 603.428 514.388C606.349 514.368 609.243 514.935 611.94 516.054C613.083 516.415 614.167 516.938 615.16 517.608C614.011 517.38 612.886 517.042 611.8 516.6C609.127 515.686 606.323 515.213 603.498 515.2C600.699 515.259 597.991 516.211 595.77 517.916C594.895 518.711 594.076 519.568 593.32 520.478Z" fill="#8CCB95"/>
<path d="M587.861 526.12C587.623 525.994 589.681 522.97 590.157 518.644C590.633 514.318 589.387 510.902 589.639 510.832C589.891 510.762 590.199 511.588 590.591 513.016C591.588 516.78 591.123 520.782 589.289 524.216C588.575 525.504 588.001 526.176 587.861 526.12Z" fill="#8CCB95"/>
<path d="M528.361 602C529.621 624.4 536.355 647.066 546.715 670.04H591.739C601.623 647.22 607.881 624.54 609.001 602H528.361Z" fill="#8CCB95"/>
<path d="M601.707 638.078C601.707 638.316 586.881 638.512 568.583 638.512C550.285 638.512 535.473 638.316 535.473 638.078C535.473 637.84 550.299 637.658 568.583 637.658C586.867 637.658 601.707 637.854 601.707 638.078Z" fill="#FAFAFA"/>
<path d="M600.699 646.17C600.699 646.408 586.797 646.604 569.661 646.604C552.525 646.604 538.609 646.408 538.609 646.17C538.609 645.932 552.511 645.75 569.661 645.75C586.811 645.75 600.699 645.946 600.699 646.17Z" fill="#FAFAFA"/>
<path d="M547.4 616.602C547.96 623.507 547.96 630.445 547.4 637.35C547.162 637.35 546.98 632.702 546.98 626.976C546.98 621.25 547.204 616.602 547.4 616.602Z" fill="#FAFAFA"/>
<path d="M571.565 616.602C571.803 616.602 571.985 621.404 571.985 627.34C571.985 633.276 571.803 638.078 571.565 638.078C571.327 638.078 571.145 633.276 571.145 627.34C571.145 621.404 571.327 616.602 571.565 616.602Z" fill="#FAFAFA"/>
<path d="M594.217 616.42C594.455 616.42 594.637 621.32 594.637 627.368C594.637 633.416 594.455 638.33 594.217 638.33C593.979 638.33 593.797 633.43 593.797 627.368C593.797 621.306 593.979 616.42 594.217 616.42Z" fill="#FAFAFA"/>
<path d="M607.602 616.602C607.602 616.84 590.214 617.022 568.766 617.022C547.318 617.022 529.93 616.84 529.93 616.602C529.93 616.364 547.304 616.182 568.766 616.182C590.228 616.182 607.602 616.364 607.602 616.602Z" fill="#FAFAFA"/>
<path d="M583.409 393.722H73.1367V409.444H583.409V393.722Z" fill="#EBEBEB"/>
<path d="M117.279 407.512L79.0449 669.97H87.2489L134.401 409.444L117.279 407.512Z" fill="#EBEBEB"/>
<path d="M547.372 405.846L587.706 669.97H579.516L530.236 408.254L547.372 405.846Z" fill="#EBEBEB"/>
<path d="M92.5135 330.4V365.792H86.6055V369.6H92.5135V393.288H203.001V371.728H194.825V367.024H203.001V360.024H206.641V356.832H202.301V330.4H92.5135Z" fill="#F5F5F5"/>
<path d="M173.643 330.456V392.882H202.973V371.336H194.797V367.038L202.973 367.178V360.136H206.683L206.613 356.496L202.301 356.398V330.358L173.643 330.456Z" fill="#8CCB95"/>
<path d="M175.729 369.082C175.729 369.306 155.751 369.474 131.097 369.474C106.443 369.474 86.4512 369.306 86.4512 369.082C86.4512 368.858 106.443 368.69 131.097 368.69C155.751 368.69 175.729 368.872 175.729 369.082Z" fill="#8CCB95"/>
<path d="M175.729 365.484C175.729 365.708 155.751 365.876 131.097 365.876C106.443 365.876 86.4512 365.708 86.4512 365.484C86.4512 365.26 106.443 365.092 131.097 365.092C155.751 365.092 175.729 365.274 175.729 365.484Z" fill="#8CCB95"/>
<path d="M181.469 355.81C181.469 356.034 161.477 356.202 136.837 356.202C112.197 356.202 92.1914 356.034 92.1914 355.81C92.1914 355.586 112.169 355.418 136.837 355.418C161.505 355.418 181.469 355.6 181.469 355.81Z" fill="#8CCB95"/>
<path d="M182.001 382.2C182.001 382.424 162.023 382.606 137.369 382.606C112.715 382.606 92.7227 382.424 92.7227 382.2C92.7227 381.976 112.701 381.808 137.369 381.808C162.037 381.808 182.001 381.962 182.001 382.2Z" fill="#8CCB95"/>
<path d="M211.162 306.656H191.898V329.56H211.162V306.656Z" fill="#F5F5F5"/>
<path d="M192.556 305.158H105.504V330.988H192.556V305.158Z" fill="#8CCB95"/>
<path d="M211.737 307.342H190.219V305.2H211.737C212.026 305.2 212.304 305.315 212.509 305.52C212.714 305.725 212.829 306.002 212.829 306.292C212.818 306.574 212.698 306.841 212.494 307.037C212.291 307.233 212.019 307.342 211.737 307.342Z" fill="#8CCB95"/>
<path d="M211.737 331.002H190.219V328.818H211.737C212.026 328.818 212.304 328.933 212.509 329.138C212.714 329.343 212.829 329.62 212.829 329.91C212.829 330.2 212.714 330.477 212.509 330.682C212.304 330.887 212.026 331.002 211.737 331.002Z" fill="#8CCB95"/>
<path d="M185.726 305.158H175.436V330.988H185.726V305.158Z" fill="#EBEBEB"/>
<path d="M124.083 305.452H113.793V331.282H124.083V305.452Z" fill="#EBEBEB"/>
<path d="M211.163 310.45C211.163 310.45 206.963 310.562 201.853 310.562C196.743 310.562 192.529 310.562 192.529 310.45C192.529 310.338 196.729 310.324 201.853 310.324C206.977 310.324 211.163 310.38 211.163 310.45Z" fill="#8CCB95"/>
<path d="M211.163 313.88C211.163 313.88 206.963 313.992 201.853 313.992C196.743 313.992 192.529 313.992 192.529 313.88C192.529 313.768 196.729 313.768 201.853 313.768C206.977 313.768 211.163 313.81 211.163 313.88Z" fill="#8CCB95"/>
<path d="M211.163 318.108C211.163 318.108 206.963 318.22 201.853 318.22C196.743 318.22 192.529 318.22 192.529 318.108C192.529 317.996 196.729 317.996 201.853 317.996C206.977 317.996 211.163 318.038 211.163 318.108Z" fill="#8CCB95"/>
<path d="M211.163 322.336C211.163 322.336 206.963 322.448 201.853 322.448C196.743 322.448 192.529 322.448 192.529 322.336C192.529 322.224 196.729 322.224 201.853 322.224C206.977 322.224 211.163 322.266 211.163 322.336Z" fill="#8CCB95"/>
<path d="M211.163 326.564C211.163 326.564 206.963 326.676 201.853 326.676C196.743 326.676 192.529 326.676 192.529 326.564C192.529 326.452 196.729 326.452 201.853 326.452C206.977 326.452 211.163 326.494 211.163 326.564Z" fill="#8CCB95"/>
<path d="M169.89 315.784H130.732V320.432H169.89V315.784Z" fill="#EBEBEB"/>
<path d="M174.272 280.084L185.108 305.536H178.136L173.32 291.942L174.272 280.084Z" fill="#8CCB95"/>
<path d="M141.008 257.068L136.822 305.536H172.228L176.12 257.068H141.008Z" fill="#EBEBEB"/>
<path d="M144.467 260.904L140.799 301.504L167.385 301.854L170.969 260.666L144.467 260.904Z" fill="#FAFAFA"/>
<path d="M150.109 266.532L148.023 294.462H162.205L164.697 266.532H150.109Z" fill="#8CCB95"/>
<path d="M556.978 76.9104L543.889 76.9813L544.241 142.122L557.331 142.051L556.978 76.9104Z" fill="#8CCB95"/>
<path d="M464.372 77.0759L430.465 77.2593L430.659 113.225L464.567 113.041L464.372 77.0759Z" fill="#EBEBEB"/>
<path d="M498.111 76.9073L464.203 77.0908L464.398 113.056L498.305 112.873L498.111 76.9073Z" fill="#F5F5F5"/>
<path d="M430.515 87.22C453.041 87.416 475.637 87.22 498.163 86.912C498.245 86.8955 498.32 86.851 498.373 86.7859C498.426 86.7208 498.456 86.6392 498.456 86.555C498.456 86.4708 498.426 86.3892 498.373 86.3241C498.32 86.259 498.245 86.2144 498.163 86.198C475.641 86.0673 453.097 86.2026 430.529 86.604C430.447 86.604 430.369 86.6364 430.311 86.6942C430.253 86.752 430.221 86.8303 430.221 86.912C430.221 86.9937 430.253 87.072 430.311 87.1298C430.369 87.1875 430.447 87.22 430.529 87.22H430.515Z" fill="#8CCB95"/>
<path d="M470.933 112.46L409.334 112.793L409.493 142.095L471.092 141.762L470.933 112.46Z" fill="#EBEBEB"/>
<path d="M532.236 112.114L470.637 112.448L470.795 141.749L532.394 141.416L532.236 112.114Z" fill="#F5F5F5"/>
<path d="M409.361 120.96C450.283 121.422 491.345 120.96 532.267 120.358C532.363 120.358 532.456 120.32 532.524 120.251C532.592 120.183 532.631 120.091 532.631 119.994C532.631 119.897 532.592 119.805 532.524 119.737C532.456 119.668 532.363 119.63 532.267 119.63C491.345 119.42 450.269 119.434 409.361 120.344C409.279 120.344 409.201 120.376 409.143 120.434C409.085 120.492 409.053 120.57 409.053 120.652C409.053 120.734 409.085 120.812 409.143 120.87C409.201 120.928 409.279 120.96 409.361 120.96Z" fill="#8CCB95"/>
<path d="M624.974 142.114H386.33V152.614H624.974V142.114Z" fill="#8CCB95"/>
<path d="M435.092 147.168H425.404V182.994H435.092V147.168Z" fill="#8CCB95"/>
<path d="M579.713 147.168H570.025V182.994H579.713V147.168Z" fill="#8CCB95"/>
<path d="M569.742 52.6213L556.652 52.6922L557.137 142.291L570.227 142.22L569.742 52.6213Z" fill="#EBEBEB"/>
<path d="M590.201 69.3107L569.859 69.4207L570.252 142.024L590.594 141.914L590.201 69.3107Z" fill="#F5F5F5"/>
<path d="M590.072 83.314C586.692 83.6646 583.291 83.7816 579.894 83.664C576.502 83.7819 573.106 83.6649 569.73 83.314C576.503 82.8473 583.3 82.8473 590.072 83.314Z" fill="#8CCB95"/>
<path d="M590.072 80.262C586.692 80.6126 583.291 80.7296 579.894 80.612C576.502 80.7299 573.106 80.6129 569.73 80.262C576.503 79.7954 583.3 79.7954 590.072 80.262Z" fill="#8CCB95"/>
<path d="M590.072 131.012C583.3 131.479 576.503 131.479 569.73 131.012C576.503 130.545 583.3 130.545 590.072 131.012Z" fill="#8CCB95"/>
<path d="M590.072 127.96C583.3 128.427 576.503 128.427 569.73 127.96C576.503 127.493 583.3 127.493 590.072 127.96Z" fill="#8CCB95"/>
<path d="M580.231 121.31C580.035 121.31 579.867 113.988 579.867 104.944C579.867 95.9 580.035 88.592 580.231 88.592C580.427 88.592 580.581 95.914 580.581 104.944C580.581 113.974 580.413 121.31 580.231 121.31Z" fill="#8CCB95"/>
<path d="M612.431 87.164H590.283V141.974H612.431V87.164Z" fill="#EBEBEB"/>
<path d="M566.776 67.942C566.779 68.6874 566.56 69.4169 566.148 70.0381C565.736 70.6592 565.149 71.1441 564.461 71.4313C563.773 71.7185 563.015 71.7951 562.284 71.6513C561.553 71.5076 560.88 71.15 560.352 70.6239C559.824 70.0978 559.464 69.4268 559.318 68.6959C559.171 67.965 559.245 67.207 559.529 66.5181C559.814 65.8291 560.297 65.2401 560.916 64.8257C561.536 64.4112 562.265 64.19 563.01 64.19C564.006 64.19 564.962 64.5848 565.668 65.2881C566.374 65.9913 566.772 66.9456 566.776 67.942Z" fill="#8CCB95"/>
<path d="M564.174 78.302H561.85V131.6H564.174V78.302Z" fill="#8CCB95"/>
<path d="M643.791 669.97C643.791 670.166 512.191 670.334 350.015 670.334C187.839 670.334 56.2109 670.166 56.2109 669.97C56.2109 669.774 187.727 669.606 350.015 669.606C512.303 669.606 643.791 669.76 643.791 669.97Z" fill="#263238"/>
<path d="M347.605 492.618L405.327 669.97H394.813L327.193 492.618H347.605Z" fill="#8CCB95"/>
<path d="M347.606 492.618H346.206H342.286L327.138 492.702L327.278 492.492C338.87 522.69 363.86 588 392.812 663.6C393.596 665.672 394.38 667.8 395.164 669.774L394.828 669.55H405.328L404.978 670.026C388.864 620.312 374.486 576.002 364.14 544.11C358.988 528.136 354.844 515.284 351.988 506.394C350.588 501.956 349.468 498.512 348.712 496.16L347.872 493.486C347.69 492.884 347.606 492.562 347.606 492.562C347.606 492.562 347.718 492.842 347.914 493.43L348.796 496.048C349.566 498.386 350.7 501.788 352.156 506.184C355.068 515.046 359.268 527.856 364.504 543.76C374.934 575.694 389.424 620.046 405.664 669.76L405.818 670.236H394.618L394.52 669.998C393.75 667.954 392.952 665.896 392.168 663.824C363.398 588.112 338.548 522.732 327.082 492.576V492.366H327.306L342.538 492.45H346.416C347.2 492.59 347.606 492.618 347.606 492.618Z" fill="#263238"/>
<path d="M234.009 492.618L176.287 669.97H186.787L254.421 492.618H234.009Z" fill="#8CCB95"/>
<path d="M234.01 492.618C234.01 492.618 234.444 492.618 235.312 492.618H239.19L254.422 492.534H254.646L254.562 492.744C243.11 522.9 218.26 588.28 189.49 663.992L187.124 670.166L187.04 670.404H175.84L175.994 669.928L217.168 543.928L229.516 506.352C230.916 501.956 232.106 498.554 232.876 496.216L233.758 493.598C233.954 493.01 234.066 492.73 234.066 492.73C234.066 492.73 233.982 493.052 233.8 493.654L232.96 496.328C232.204 498.68 231.098 502.124 229.684 506.562C226.814 515.452 222.684 528.304 217.532 544.278C207.172 576.17 192.808 620.48 176.694 670.194L176.344 669.718H186.844L186.508 669.942L188.86 663.768C217.812 588.168 242.802 522.802 254.324 492.674L254.478 492.884L239.316 492.8H235.41L234.01 492.618Z" fill="#263238"/>
<path d="M328.679 496.51C328.362 496.779 328.025 497.022 327.671 497.238L324.703 499.198L313.769 506.366C304.543 512.442 291.817 520.87 277.831 530.25L242.019 554.4L231.155 561.694L228.201 563.57C227.867 563.818 227.511 564.033 227.137 564.214C227.445 563.939 227.772 563.686 228.117 563.458L231.001 561.4L241.739 553.924C250.825 547.652 263.439 539.042 277.439 529.662C291.439 520.282 304.193 511.91 313.503 505.946C318.151 502.978 321.903 500.584 324.563 498.946L327.601 497.098C327.945 496.875 328.305 496.678 328.679 496.51Z" fill="#263238"/>
<path d="M217.937 303.548C217.937 303.548 199.849 305.41 197.217 316.302C194.585 327.194 186.017 461.902 197.217 480.984C208.417 500.066 352.617 497.406 362.627 494.788C372.637 492.17 377.355 485.674 376.333 477.736C375.311 469.798 277.115 459.956 277.115 459.956L283.107 319.368C283.107 319.368 247.799 301.588 217.937 303.548Z" fill="#263238"/>
<path d="M376.418 481.138H375.984H374.697L369.754 481.264C365.456 481.376 359.24 481.432 351.554 481.418C336.154 481.418 314.944 480.886 291.55 479.206C279.86 478.352 268.73 477.274 258.636 476.126C248.542 474.978 239.47 473.718 231.882 472.528C228.074 471.968 224.658 471.366 221.648 470.862C218.638 470.358 216.048 469.896 213.934 469.462L209.076 468.524L207.816 468.272L207.396 468.16C207.541 468.141 207.686 468.141 207.83 468.16L209.104 468.342L213.99 469.14C216.104 469.504 218.694 469.938 221.718 470.386C224.742 470.834 228.158 471.422 231.952 471.94C239.554 473.074 248.626 474.236 258.706 475.384C268.786 476.532 279.916 477.554 291.606 478.408C314.986 480.088 336.196 480.662 351.554 480.83C359.226 480.914 365.442 480.928 369.754 480.914H375.998L376.418 481.138Z" fill="#455A64"/>
<path d="M355.249 566.202C355.137 566.37 332.289 550.312 304.233 530.362C276.177 510.412 253.511 494.074 253.623 493.962C253.735 493.85 276.583 509.852 304.653 529.816C332.723 549.78 355.361 566.034 355.249 566.202Z" fill="#263238"/>
<path d="M230.722 182.602L219.172 162.26C226.305 150.678 228.848 136.846 226.301 123.484C223.755 110.121 216.302 98.1948 205.408 90.0486C194.514 81.9024 180.967 78.1256 167.43 79.4606C153.892 80.7956 141.344 87.1459 132.251 97.2631C123.158 107.38 118.179 120.533 118.291 134.135C118.403 147.738 123.599 160.806 132.858 170.772C142.116 180.738 154.768 186.88 168.325 187.991C181.883 189.103 195.366 185.103 206.124 176.778L230.722 182.602Z" fill="white"/>
<path d="M230.721 182.602L206.053 177.002H205.717L205.927 176.722L206.235 177.03C198.651 182.955 189.632 186.762 180.097 188.062C177.241 188.468 174.355 188.618 171.473 188.51C169.989 188.426 168.477 188.384 166.951 188.258L162.345 187.572C148.619 184.879 136.435 177.06 128.269 165.704C123.734 159.441 120.588 152.281 119.043 144.704C117.474 136.667 117.694 128.384 119.687 120.442C121.749 112.153 125.756 104.474 131.377 98.042C137.083 91.4397 144.282 86.2945 152.377 83.034C160.141 79.9681 168.495 78.6859 176.821 79.282C184.684 79.8244 192.331 82.0899 199.221 85.918C211.603 92.7673 220.884 104.108 225.149 117.6C226.829 123.359 227.627 129.34 227.515 135.338C227.218 144.906 224.403 154.226 219.353 162.358V162.134L230.721 182.588C229.965 181.3 226.409 175.154 218.989 162.344V162.246V162.134C223.93 154.04 226.658 144.79 226.899 135.31C226.99 129.388 226.178 123.487 224.491 117.81C220.276 104.472 211.113 93.2553 198.885 86.464C192.087 82.7029 184.544 80.4851 176.793 79.968C168.594 79.386 160.369 80.6539 152.727 83.678C144.761 86.8927 137.677 91.961 132.063 98.462C126.526 104.796 122.581 112.361 120.555 120.526C118.579 128.342 118.354 136.497 119.897 144.41C121.393 151.906 124.477 158.995 128.941 165.2C136.979 176.43 148.994 184.175 162.541 186.858L167.091 187.558C168.603 187.684 170.087 187.726 171.557 187.824C174.405 187.938 177.258 187.803 180.083 187.418C189.53 186.171 198.482 182.458 206.039 176.652L207.439 175.602L206.389 177.002L206.263 176.666L230.721 182.602Z" fill="#263238"/>
<path d="M163.479 126.462H166.924L174.427 115.99V109.116C174.427 109.116 179.747 108.794 179.131 117.782C178.515 126.77 179.131 124.488 179.131 124.488C179.131 124.488 190.43 124.488 191.368 125.524C192.054 126.224 192.361 137.452 192.473 143.528C192.552 144.996 192.135 146.449 191.289 147.652C190.444 148.855 189.219 149.74 187.811 150.164C187.415 150.275 187.005 150.331 186.594 150.332C183.794 150.332 169.387 148.036 169.387 148.036H163.438L163.479 126.462Z" fill="#A2F26C"/>
<path d="M153.623 124.572L155.751 148.106H161.645V125.048L153.623 124.572Z" fill="#A2F26C"/>
<path d="M448.519 422.8C448.519 422.8 480.915 422.8 482.245 452.984C483.575 483.168 387.941 642.404 387.941 642.404L357.659 628.026L422.591 473.508L281.695 459.648L285.685 424.2L448.519 422.8Z" fill="#FFBE9D"/>
<path d="M394.339 633.22L393.401 635.362C393.401 635.362 423.081 665.882 420.421 672.91L348.867 640.71L360.557 617.33C368.971 627.06 379.863 632.632 394.339 633.22Z" fill="#455A64"/>
<g opacity="0.6">
<path d="M364.378 628.222C363.596 628.123 362.804 628.316 362.154 628.762C361.503 629.209 361.04 629.878 360.85 630.644C360.721 631.423 360.896 632.222 361.338 632.876C361.781 633.53 362.459 633.989 363.23 634.158C364.059 634.259 364.896 634.051 365.581 633.573C366.266 633.095 366.75 632.381 366.94 631.568C366.995 630.743 366.726 629.929 366.19 629.299C365.654 628.669 364.894 628.272 364.07 628.194" fill="white"/>
</g>
<g opacity="0.6">
<path d="M348.867 640.724L351.667 635.124L419.217 668.038C419.217 668.038 421.779 670.838 420.407 672.938L348.867 640.724Z" fill="white"/>
</g>
<path d="M393.555 635.67C393.387 636.006 391.567 635.39 389.355 635.74C387.143 636.09 385.547 637.14 385.281 636.86C385.015 636.58 386.457 634.788 389.159 634.41C391.861 634.032 393.779 635.376 393.555 635.67Z" fill="#263238"/>
<path d="M399.673 642.152C399.603 642.516 397.811 642.432 395.963 643.384C394.115 644.336 393.065 645.736 392.729 645.568C392.393 645.4 393.051 643.314 395.375 642.18C397.699 641.046 399.813 641.816 399.673 642.152Z" fill="#263238"/>
<path d="M399.896 653.044C399.546 653.044 399.896 651.014 401.59 649.502C403.284 647.99 405.328 647.976 405.342 648.326C405.356 648.676 403.942 649.25 402.542 650.51C401.142 651.77 400.26 653.17 399.896 653.044Z" fill="#263238"/>
<path d="M387.227 308.994L392.981 326.592L361.607 329.042L357.953 319.62L387.227 308.994Z" fill="#FFBE9D"/>
<path d="M476.309 332.08C476.911 333.284 478.479 333.48 479.683 334.11C480.804 334.752 481.723 335.696 482.334 336.835C482.946 337.973 483.225 339.26 483.141 340.55C482.939 343.129 482.087 345.614 480.663 347.774C480.225 348.652 479.587 349.414 478.801 350C478.402 350.277 477.928 350.425 477.443 350.425C476.957 350.425 476.484 350.277 476.085 350C475.161 349.23 475.273 347.802 475.469 346.612C476.211 342.146 475.245 336.504 476.295 332.094" fill="#FFBE9D"/>
<path d="M267.652 111.426C267.386 109.463 267.865 107.471 268.995 105.844C270.125 104.216 271.823 103.071 273.756 102.634L308.392 80.598C321.594 77.63 338.226 99.68 340.592 112.98C342.983 127.598 343.921 142.417 343.392 157.22C342.44 179.984 327.516 182.42 327.516 182.42L338.716 258.118L284.746 224.84L267.652 111.426Z" fill="#FFBE9D"/>
<path d="M333.397 131.866C333.49 132.61 333.289 133.362 332.837 133.96C332.384 134.559 331.717 134.958 330.975 135.072C330.246 135.207 329.493 135.047 328.881 134.627C328.269 134.207 327.849 133.561 327.713 132.832C327.621 132.088 327.822 131.336 328.274 130.738C328.726 130.139 329.394 129.74 330.135 129.626C330.865 129.491 331.618 129.651 332.23 130.071C332.842 130.491 333.261 131.137 333.397 131.866Z" fill="#263238"/>
<path d="M337.849 123.69C337.569 123.998 335.273 123.956 332.375 125.09C329.477 126.224 327.559 127.736 327.195 127.652C326.831 127.568 327.195 127.162 328.077 126.462C329.293 125.468 330.671 124.692 332.151 124.166C333.562 123.623 335.062 123.343 336.575 123.34C337.583 123.312 337.989 123.55 337.849 123.69Z" fill="#263238"/>
<path d="M304.725 133.252C304.814 133.998 304.609 134.749 304.155 135.347C303.7 135.945 303.032 136.343 302.289 136.458C301.562 136.589 300.812 136.427 300.204 136.007C299.595 135.588 299.177 134.944 299.041 134.218C298.945 133.473 299.145 132.72 299.598 132.12C300.05 131.521 300.72 131.123 301.463 131.012C302.193 130.877 302.946 131.037 303.558 131.457C304.169 131.877 304.589 132.523 304.725 133.252Z" fill="#263238"/>
<path d="M307.735 129.556C307.315 129.724 305.159 128.436 301.813 127.946C298.467 127.456 295.849 127.946 295.527 127.722C295.205 127.498 295.849 127.26 296.927 126.994C298.606 126.66 300.331 126.627 302.023 126.896C303.661 127.12 305.243 127.652 306.685 128.464C307.679 129.038 308.001 129.486 307.735 129.556Z" fill="#263238"/>
<path d="M321.398 148.596C322.961 147.889 324.608 147.385 326.298 147.098C327.068 146.93 327.796 146.692 327.866 146.132C327.842 145.312 327.563 144.519 327.068 143.864C326.135 141.997 325.127 140.089 324.044 138.138C319.844 129.976 316.652 123.228 317.044 123.06C317.436 122.892 321.076 129.374 325.304 137.536L328.23 143.304C328.839 144.199 329.111 145.28 329 146.356C328.917 146.647 328.77 146.915 328.569 147.14C328.367 147.366 328.118 147.543 327.838 147.658C327.415 147.824 326.973 147.937 326.522 147.994C324.846 148.408 323.125 148.61 321.398 148.596Z" fill="#263238"/>
<path d="M327.503 182.476C317.046 184.022 306.365 182.566 296.703 178.276C296.703 178.276 305.901 194.012 328.021 189.308L327.503 182.476Z" fill="#EB996E"/>
<path d="M321.749 156.142C320.996 155.161 320.033 154.362 318.931 153.802C317.828 153.242 316.615 152.937 315.379 152.908C314.664 152.923 313.971 153.154 313.391 153.572C312.811 153.989 312.372 154.573 312.131 155.246C311.889 156.115 311.861 157.03 312.048 157.912C312.236 158.795 312.634 159.619 313.209 160.314C313.773 161.05 314.54 161.605 315.416 161.911C316.291 162.217 317.237 162.26 318.137 162.036C319.597 161.434 320.842 160.404 321.707 159.082C322.02 158.745 322.246 158.337 322.365 157.892C322.416 157.611 322.405 157.323 322.332 157.047C322.26 156.771 322.127 156.515 321.945 156.296" fill="#EB996E"/>
<path d="M312.565 151.788C313.069 151.69 313.461 155.036 316.597 157.08C319.733 159.124 323.261 158.34 323.345 158.802C323.345 159.012 322.631 159.544 321.119 159.768C319.164 160.023 317.182 159.582 315.519 158.522C313.923 157.496 312.788 155.889 312.355 154.042C312.061 152.6 312.341 151.788 312.565 151.788Z" fill="#263238"/>
<path d="M308.714 115.794C308.42 116.634 305.312 116.284 301.714 116.788C298.116 117.292 295.148 118.314 294.644 117.572C294.42 117.208 294.924 116.41 296.044 115.57C297.61 114.536 299.391 113.873 301.251 113.63C303.112 113.388 305.003 113.572 306.782 114.17C308.154 114.8 308.84 115.388 308.714 115.794Z" fill="#263238"/>
<path d="M338.017 116.788C337.415 117.558 334.699 117.138 331.521 117.46C328.343 117.782 325.711 118.594 325.011 117.922C324.689 117.6 325.011 116.844 326.145 116.06C327.686 115.072 329.444 114.472 331.267 114.311C333.091 114.15 334.926 114.433 336.617 115.136C337.821 115.738 338.269 116.41 338.017 116.788Z" fill="#263238"/>
<path d="M252.462 169.61C253.022 159.46 254.646 126.966 261.198 109.242C267.75 91.518 276.976 83.58 286.468 79.842C290.053 78.3102 293.972 77.7296 297.848 78.1564C301.723 78.5831 305.422 80.0028 308.588 82.278C313.46 85.722 316.288 97.062 316.288 97.062C316.288 97.062 293.258 105.014 286.888 119.462C279.51 135.982 278.194 144.018 278.194 144.018L276.206 152.824C276.206 152.824 280.532 191.1 282.478 199.024L251.258 229.208C252.28 219.24 251.902 179.746 252.462 169.61Z" fill="#263238"/>
<path d="M316.975 97.118C316.975 97.118 330.317 94.108 337.051 108.794C340.103 115.444 343.127 135.576 343.127 135.576C343.127 135.576 344.261 119.126 342.497 110.18C340.733 101.234 334.923 90.314 327.279 84.784C319.635 79.254 313.839 77.168 301.883 79.268C305.483 80.1682 308.752 82.0769 311.305 84.77C313.111 86.884 314.007 88.76 316.975 97.118Z" fill="#263238"/>
<path d="M278.447 145.11C277.635 140.182 271.867 137.494 267.863 140.476C265.665 142.1 264.181 145.04 264.993 150.276C267.177 164.276 280.715 159.152 280.673 158.76C280.631 158.368 279.399 150.864 278.447 145.11Z" fill="#FFBE9D"/>
<path d="M275.59 154.126C275.59 154.126 275.38 154.336 275.002 154.588C274.457 154.919 273.807 155.034 273.182 154.91C271.628 154.602 270.032 152.446 269.57 149.954C269.346 148.764 269.394 147.539 269.71 146.37C269.767 145.913 269.936 145.477 270.203 145.101C270.469 144.725 270.824 144.42 271.236 144.214C271.505 144.101 271.805 144.084 272.085 144.165C272.366 144.247 272.609 144.422 272.776 144.662C273.028 145.026 272.972 145.306 273.056 145.32C273.14 145.334 273.322 145.04 273.056 144.48C272.925 144.147 272.683 143.87 272.37 143.696C271.94 143.468 271.437 143.418 270.97 143.556C270.414 143.76 269.919 144.102 269.532 144.551C269.145 144.999 268.879 145.538 268.758 146.118C268.356 147.414 268.279 148.789 268.534 150.122C269.052 152.922 270.9 155.33 273.014 155.596C273.404 155.646 273.8 155.607 274.173 155.484C274.546 155.36 274.887 155.154 275.17 154.882C275.618 154.462 275.646 154.14 275.59 154.126Z" fill="#EB996E"/>
<path d="M291.971 78.302C291.971 78.414 293.903 78.134 296.983 78.19C298.785 78.2254 300.57 78.5418 302.275 79.128C304.345 79.8935 306.247 81.0536 307.875 82.544C310.888 85.2368 313.236 88.5912 314.735 92.344C315.883 95.144 316.135 97.132 316.303 97.104C316.283 96.6552 316.217 96.2095 316.107 95.774C314.991 90.5289 312.223 85.7793 308.211 82.222C306.532 80.6665 304.555 79.4664 302.401 78.694C300.65 78.1084 298.814 77.8197 296.969 77.84C295.733 77.8395 294.498 77.919 293.273 78.078C292.833 78.1165 292.398 78.1914 291.971 78.302Z" fill="#455A64"/>
<path d="M266.644 156.716C266.649 156.637 266.649 156.557 266.644 156.478L266.448 155.848C266.35 155.554 266.252 155.204 266.126 154.812L265.748 153.412C264.985 150.352 264.664 147.197 264.796 144.046C264.974 139.371 266.123 134.785 268.17 130.578C270.786 125.485 274.519 121.049 279.09 117.6C281.435 115.79 283.89 114.125 286.44 112.616C288.904 111.132 291.382 109.9 293.678 108.528C297.693 106.078 301.512 103.321 305.102 100.282C308.168 97.692 310.534 95.466 312.102 93.898C312.9 93.114 313.502 92.498 313.908 92.064L314.37 91.574C314.468 91.462 314.524 91.406 314.51 91.392L314.342 91.532L313.838 91.994L311.99 93.8C310.352 95.326 307.958 97.51 304.864 100.044C301.262 103.033 297.443 105.752 293.44 108.178C291.172 109.578 288.666 110.74 286.188 112.238C283.613 113.747 281.139 115.421 278.782 117.25C274.134 120.732 270.342 125.228 267.694 130.396C265.64 134.661 264.514 139.314 264.39 144.046C264.294 147.224 264.666 150.399 265.496 153.468L265.916 154.868C266.07 155.26 266.196 155.596 266.294 155.89L266.546 156.52C266.602 156.646 266.63 156.716 266.644 156.716Z" fill="#455A64"/>
<path d="M262.795 151.788C262.795 151.788 262.795 151.704 262.795 151.564L262.711 150.892C262.711 150.304 262.487 149.492 262.375 148.33C262.045 145.177 261.994 142 262.221 138.838C262.563 134.154 263.504 129.534 265.021 125.09C266.916 119.662 269.682 114.579 273.211 110.04C276.845 105.554 281.086 101.596 285.811 98.28C290.011 95.144 294.211 92.68 297.557 90.468C300.903 88.256 303.689 86.562 305.551 85.274C306.489 84.658 307.189 84.14 307.665 83.79L308.211 83.398L308.393 83.244C308.393 83.244 308.309 83.244 308.183 83.356L307.609 83.706L305.439 85.106C303.563 86.324 300.791 88.046 297.361 90.146C293.931 92.246 289.843 94.766 285.531 97.902C280.796 101.222 276.553 105.195 272.931 109.704C269.332 114.286 266.517 119.433 264.601 124.936C263.066 129.423 262.125 134.092 261.801 138.824C261.606 142 261.714 145.188 262.123 148.344C262.263 149.464 262.459 150.318 262.557 150.906C262.557 151.172 262.655 151.396 262.697 151.564C262.739 151.732 262.781 151.788 262.795 151.788Z" fill="#455A64"/>
<path d="M337.541 205.702C337.541 205.702 355.587 213.038 359.045 222.432C362.503 231.826 388.739 309.4 388.739 309.4L358.289 321.076L344.401 257.236L337.541 205.702Z" fill="#455A64"/>
<path d="M244.245 425.992C244.245 425.992 430.445 417.438 442.135 420.518C453.825 423.598 460.811 429.492 463.135 443.506C465.459 457.52 501.355 643.188 501.355 643.188L468.707 652.792C468.707 652.792 422.899 548.212 420.953 530.712C419.007 513.212 412.553 477.344 412.553 477.344C412.553 477.344 341.769 478.506 289.647 477.344C237.525 476.182 244.525 427.938 244.525 427.938L244.245 425.992Z" fill="#FFBE9D"/>
<path d="M468.3 653.632L468.062 653.072C466.186 648.788 422.198 548.198 420.266 530.782C418.474 514.724 412.832 482.762 411.992 478.044C404.992 478.156 338.674 479.136 289.66 478.044C273.462 477.68 261.268 472.766 253.386 463.456C241.458 449.358 243.586 429.618 243.852 427.952L243.418 425.334H244.202C251.818 424.984 430.668 416.808 442.316 419.888C455.392 423.346 461.622 430.164 463.834 443.422C466.13 457.254 501.634 641.242 502.054 643.104L502.166 643.72L468.3 653.632ZM413.154 476.63L413.266 477.218C413.336 477.568 419.734 513.31 421.666 530.628C423.5 547.162 465.472 643.622 469.112 651.938L500.57 642.698C498.274 630.812 464.702 457.058 462.462 443.618C460.362 431.018 454.426 424.494 441.966 421.218C430.934 418.292 258.272 426.076 245.07 426.678L245.28 427.952V428.05C245.28 428.26 242.48 448.406 254.492 462.574C262.108 471.562 273.952 476.294 289.716 476.658C341.222 477.806 411.88 476.658 412.594 476.658L413.154 476.63Z" fill="#EB996E"/>
<path d="M256.816 325.57L261.506 354.578C261.506 354.578 241.136 393.176 238.84 426.356C237.748 442.12 246.792 474.404 246.792 474.404C246.792 474.404 318.528 482.286 357.224 481.278L398.51 479.472L405.79 414.974L359.45 408.282L360.15 320.39C360.15 320.39 368.55 297.248 369.194 290.402C370.678 275.954 370.062 261.338 355.628 242.606L337.54 205.702L331.506 202.902L334.376 247.604L282.38 198.198L256.046 207.648L248.584 242.858L256.816 325.57Z" fill="#455A64"/>
<g opacity="0.3">
<path d="M346.949 418.964C343.575 419.552 319.229 419.902 315.855 420.49C315.28 420.666 314.677 420.723 314.08 420.658C313.483 420.593 312.905 420.407 312.383 420.112C311.961 419.713 311.669 419.197 311.544 418.631C311.42 418.064 311.468 417.473 311.683 416.934C312.129 415.85 312.83 414.89 313.727 414.134C319.621 408.534 327.279 405.3 334.727 402.136C337.107 401.142 339.683 400.12 342.175 400.736C343.396 401.14 344.502 401.836 345.394 402.762C346.287 403.689 346.941 404.82 347.299 406.056C348.009 408.524 348.302 411.093 348.167 413.658" fill="black"/>
</g>
<g opacity="0.3">
<path d="M258.735 345.8C267.429 343.77 272.889 335.202 276.417 326.998C279.945 318.794 282.857 309.736 289.773 304.08C294.841 299.88 301.631 298.032 306.013 293.16C308.096 290.773 309.477 287.857 310.003 284.733C310.529 281.61 310.18 278.401 308.995 275.464C307.735 272.468 305.201 269.64 301.995 269.472C298.215 269.276 295.275 272.552 292.965 275.562C282.399 289.403 272.436 303.683 263.075 318.402C258.049 326.312 253.037 335.916 256.537 344.61" fill="black"/>
</g>
<path d="M258.79 212.268C258.79 212.268 244.076 216.944 238.756 226.17C233.436 235.396 224.616 280.196 222.488 292.264C220.36 304.332 210.07 353.99 222.488 361.802C234.906 369.614 251.23 357.602 255.486 350.448C259.742 343.294 277.116 306.096 277.116 306.096L261.506 292.978C261.506 292.978 264.306 257.502 263.284 250.04C262.262 242.578 258.79 212.268 258.79 212.268Z" fill="#FFBE9D"/>
<path d="M212.646 304.374L246.792 306.6L262.388 288.288L266.7 259.448L265.552 204.274C265.552 204.274 235.074 211.708 228.48 234.878C223.594 252 212.646 304.374 212.646 304.374Z" fill="#455A64"/>
<path d="M273.071 239.12C271.111 238.854 268.605 241.164 270.271 246.736C271.671 251.384 274.303 255.906 274.107 258.496C273.911 261.086 272.903 266.476 272.903 269.276C272.781 272.013 272.515 274.743 272.105 277.452L248.865 305.452L268.983 323.204L284.901 298.2C284.901 298.2 289.703 298.998 292.489 295.806L296.689 291.004C296.689 291.004 307.469 287.014 305.271 281.204C305.271 281.204 308.463 278.166 305.565 273.294C305.565 273.294 307.077 268.226 304.879 265.244C304.879 265.244 304.683 258.454 302.877 257.25C301.071 256.046 282.395 255.85 282.395 255.85C281.378 252.746 280.205 249.694 278.881 246.708C276.837 243.334 275.801 239.484 273.071 239.12Z" fill="#FFBE9D"/>
<path d="M281.022 266.658C281.022 266.728 280.532 266.462 280.098 265.804C279.533 264.917 279.285 263.865 279.397 262.819C279.509 261.773 279.974 260.797 280.714 260.05C281.274 259.504 281.75 259.336 281.792 259.406C280.959 260.414 280.387 261.611 280.126 262.892C280.127 264.2 280.434 265.49 281.022 266.658Z" fill="#EB996E"/>
<path d="M304.095 264.74C301.28 265.561 298.384 266.072 295.457 266.266C292.556 266.688 289.617 266.786 286.693 266.56C289.57 266.059 292.473 265.718 295.387 265.538C298.272 265.106 301.18 264.839 304.095 264.74Z" fill="#EB996E"/>
<path d="M305.746 272.748C303.425 273.69 300.975 274.276 298.48 274.484C296.019 274.939 293.504 275.024 291.018 274.736C291.018 274.526 294.322 274.316 298.382 273.756C302.442 273.196 305.704 272.552 305.746 272.748Z" fill="#EB996E"/>
<path d="M305.341 280.966C301.718 282.077 297.91 282.453 294.141 282.072C295.983 281.669 297.857 281.43 299.741 281.358C301.592 281.065 303.466 280.934 305.341 280.966Z" fill="#EB996E"/>
<path d="M287.701 283.486C287.701 283.57 287.309 283.486 286.833 283.22C286.205 282.792 285.765 282.141 285.601 281.4C285.421 280.667 285.521 279.893 285.881 279.23C286.161 278.74 286.469 278.544 286.539 278.6C286.609 278.656 285.965 279.818 286.301 281.232C286.637 282.646 287.799 283.304 287.701 283.486Z" fill="#EB996E"/>
<path d="M283.109 276.822C283.109 276.892 282.647 276.654 282.213 276.052C281.655 275.257 281.335 274.32 281.289 273.35C281.231 272.378 281.444 271.408 281.905 270.55C282.283 269.906 282.647 269.626 282.717 269.682C282.288 270.84 282.052 272.06 282.017 273.294C282.195 274.52 282.564 275.71 283.109 276.822Z" fill="#EB996E"/>
<path d="M299.6 289.8C298.585 290.338 297.47 290.662 296.324 290.752C295.215 291.071 294.051 291.152 292.908 290.99C293.921 290.446 295.037 290.121 296.184 290.038C297.292 289.711 298.458 289.629 299.6 289.8Z" fill="#EB996E"/>
<path d="M290.598 255.976C290.598 256.186 287.798 256.186 284.256 256.536C280.714 256.886 277.984 257.432 277.928 257.236C279.912 256.395 282.032 255.921 284.186 255.836C286.315 255.503 288.486 255.55 290.598 255.976Z" fill="#EB996E"/>
<path d="M352.072 323.274H467.796C469.839 323.274 471.797 324.085 473.241 325.529C474.685 326.973 475.496 328.932 475.496 330.974V413H344.4V330.96C344.404 328.925 345.213 326.974 346.651 325.534C348.088 324.094 350.037 323.281 352.072 323.274Z" fill="#8CCB95"/>
<path d="M475.496 418.964H321.496C321.496 417.397 322.119 415.894 323.227 414.786C324.334 413.678 325.837 413.056 327.404 413.056H475.496V418.964Z" fill="#8CCB95"/>
<path d="M470.653 329.042H348.377V413.056H470.653V329.042Z" fill="white"/>
<path d="M470.638 413C470.638 413 470.638 412.468 470.638 411.46C470.638 410.452 470.638 408.94 470.638 407.008C470.638 403.102 470.638 397.39 470.554 390.082C470.554 375.466 470.47 354.508 470.4 328.986L470.694 329.28H348.432L348.796 328.916C348.796 358.918 348.796 387.408 348.796 412.916L348.474 412.58L436.548 412.748L461.748 412.846H468.454H470.176H470.778H470.218H468.524H461.888L436.814 412.93L348.516 413.098H348.18V413C348.18 387.478 348.18 358.988 348.18 329V328.636H348.544H470.806H471.1V329C471.1 354.592 470.988 375.62 470.946 390.278C470.946 397.558 470.946 403.242 470.946 407.078C470.946 408.996 470.946 410.466 470.946 411.474C470.946 412.482 470.638 413 470.638 413Z" fill="#263238"/>
<path d="M474.853 413C474.853 413.21 441.799 413.364 401.031 413.364C360.263 413.364 327.195 413.21 327.195 413C327.195 412.79 360.249 412.636 401.031 412.636C441.813 412.636 474.853 412.86 474.853 413Z" fill="#263238"/>
<path d="M409.501 403.186C427.246 403.186 441.631 388.801 441.631 371.056C441.631 353.311 427.246 338.926 409.501 338.926C391.756 338.926 377.371 353.311 377.371 371.056C377.371 388.801 391.756 403.186 409.501 403.186Z" fill="#91E572"/>
<path d="M389.537 371.84L396.341 365.4L405.735 374.052L424.229 356.65L430.949 363.006L405.637 387.03L389.537 371.84Z" fill="white"/>
<path d="M272.132 277.452C272.286 277.578 262.64 289.226 250.586 303.45C238.532 317.674 228.634 329.098 228.48 329C228.326 328.902 237.972 317.24 250.026 303.002C262.08 288.764 271.978 277.326 272.132 277.452Z" fill="#EB996E"/>
<path d="M270.466 259.406C270.151 263.467 269.595 267.507 268.8 271.502C268.249 275.541 267.454 279.543 266.42 283.486C266.734 279.42 267.29 275.376 268.086 271.376C268.646 267.343 269.441 263.346 270.466 259.406Z" fill="#263238"/>
<path d="M360.15 320.39C360.2 320.104 360.275 319.823 360.374 319.55L361.13 317.198C361.802 315.168 362.796 312.228 363.93 308.574C365.284 304.305 366.415 299.969 367.318 295.582C368.446 290.226 368.948 284.758 368.816 279.286C368.31 269.324 365.512 259.612 360.64 250.908C359.193 248.257 357.604 245.687 355.88 243.208C355.292 242.326 354.788 241.668 354.48 241.206C354.299 240.976 354.145 240.727 354.018 240.464C354.231 240.657 354.424 240.873 354.592 241.108C354.956 241.556 355.502 242.186 356.132 243.054C357.951 245.481 359.616 248.02 361.116 250.656C363.344 254.581 365.178 258.717 366.59 263.004C368.346 268.255 369.359 273.726 369.6 279.258C369.741 284.789 369.214 290.317 368.032 295.722C367.089 300.12 365.902 304.462 364.476 308.728C363.272 312.368 362.208 315.294 361.452 317.296C361.088 318.229 360.794 318.999 360.57 319.606C360.462 319.883 360.321 320.147 360.15 320.39Z" fill="#263238"/>
<path d="M330.4 276.794C330.457 277.446 330.457 278.102 330.4 278.754C330.398 279.522 330.342 280.29 330.232 281.05C330.131 282.065 329.977 283.075 329.77 284.074C329.546 285.286 329.247 286.483 328.874 287.658C328.48 289.021 328.012 290.363 327.474 291.676C326.182 294.639 324.577 297.455 322.686 300.076C320.748 302.692 318.527 305.087 316.064 307.216C314.984 308.138 313.853 308.998 312.676 309.792C311.669 310.507 310.617 311.157 309.526 311.738C308.622 312.261 307.687 312.728 306.726 313.138C306.038 313.473 305.327 313.759 304.598 313.992C303.992 314.242 303.364 314.434 302.722 314.566C302.652 314.412 305.34 313.586 309.204 311.332C310.261 310.725 311.284 310.061 312.27 309.344C313.362 308.616 314.412 307.692 315.56 306.754C320.384 302.51 324.209 297.251 326.76 291.354C327.294 290.072 327.761 288.764 328.16 287.434C328.547 286.277 328.869 285.099 329.126 283.906C330.288 279.594 330.26 276.794 330.4 276.794Z" fill="#263238"/>
<path d="M368.886 289.52C368.806 289.443 368.74 289.353 368.69 289.254L368.2 288.4C367.738 287.63 367.108 286.58 366.31 285.278C365.512 283.976 364.266 282.38 362.964 280.56C361.662 278.74 360.01 276.752 358.26 274.526C351.064 265.734 340.438 254.184 328.258 241.85C316.078 229.516 304.64 218.764 296.254 211.05L290.542 205.94C288.862 204.456 287.406 203.14 286.188 202.132L283.388 199.766L282.674 199.136C282.581 199.071 282.501 198.99 282.436 198.898C282.536 198.947 282.63 199.008 282.716 199.08C282.926 199.234 283.178 199.416 283.472 199.654L286.356 201.908L290.794 205.632C292.516 207.116 294.448 208.81 296.576 210.672C305.074 218.232 316.54 228.97 328.776 241.29C341.012 253.61 351.554 265.258 358.652 274.148C360.388 276.402 361.956 278.432 363.3 280.252L366.548 285.068C367.29 286.468 367.948 287.476 368.326 288.274L368.774 289.114C368.867 289.385 368.904 289.52 368.886 289.52Z" fill="#263238"/>
<path d="M341.698 354.284C341.441 354.374 341.172 354.426 340.9 354.438L338.618 354.76C336.63 355.026 333.732 355.334 330.218 355.656C323.064 356.3 313.138 356.818 302.218 356.692C291.298 356.566 281.33 355.768 274.218 354.956C270.648 354.55 267.764 354.158 265.818 353.836L263.536 353.472C263.268 353.443 263.005 353.382 262.752 353.29C263.022 353.256 263.294 353.256 263.564 353.29L265.86 353.528C267.848 353.766 270.746 354.074 274.26 354.41C281.386 355.096 291.284 355.81 302.26 355.936C313.236 356.062 323.106 355.614 330.26 355.11C333.83 354.858 336.728 354.634 338.66 354.452L340.956 354.27C341.203 354.249 341.452 354.254 341.698 354.284Z" fill="#263238"/>
<path d="M402.332 323.176C402.332 323.176 425.264 314.23 427.434 313.516C429.604 312.802 449.652 311.234 449.652 311.234L475.496 320.516C475.496 320.516 475.734 325.822 469.7 325.108C464.38 324.209 459.135 322.918 454.006 321.244L450.38 323.4L402.332 323.176Z" fill="#FFBE9D"/>
<path d="M474.251 326.578C474.853 327.796 476.421 327.978 477.625 328.622C478.739 329.273 479.651 330.218 480.261 331.355C480.871 332.491 481.156 333.774 481.083 335.062C480.881 337.637 480.029 340.118 478.605 342.272C478.168 343.142 477.535 343.899 476.757 344.484C476.358 344.761 475.884 344.909 475.399 344.909C474.913 344.909 474.44 344.761 474.041 344.484C473.659 344.018 473.401 343.463 473.293 342.87C473.186 342.277 473.231 341.666 473.425 341.096C474.167 336.63 473.201 330.974 474.251 326.564" fill="#FFBE9D"/>
<path d="M500.235 636.258L501.019 638.442C501.019 638.442 543.579 640.108 546.491 647.024L472.459 673.036L464.801 648.046C477.611 649.278 489.329 645.806 500.235 636.258Z" fill="#455A64"/>
<g opacity="0.6">
<path d="M475.077 653.282C474.439 653.751 473.997 654.439 473.834 655.214C473.672 655.988 473.8 656.796 474.195 657.482C474.641 658.148 475.328 658.615 476.111 658.785C476.895 658.955 477.713 658.814 478.395 658.392C479.07 657.897 479.537 657.169 479.706 656.348C479.874 655.528 479.731 654.675 479.305 653.954C478.771 653.324 478.014 652.924 477.193 652.838C476.371 652.752 475.548 652.986 474.895 653.492" fill="white"/>
</g>
<g opacity="0.6">
<path d="M472.459 673.036L470.625 667.03L542.249 644.294C542.249 644.294 546.043 644.574 546.449 647.094L472.459 673.036Z" fill="white"/>
</g>
<path d="M501.355 638.568C501.467 638.932 499.717 639.73 498.345 641.522C496.973 643.314 496.567 645.162 496.189 645.134C495.811 645.106 495.601 642.824 497.295 640.696C498.989 638.568 501.313 638.204 501.355 638.568Z" fill="#263238"/>
<path d="M510.244 639.044C510.454 639.366 509.096 640.528 508.41 642.488C507.724 644.448 507.934 646.198 507.57 646.31C507.206 646.422 506.254 644.448 507.164 642.026C508.074 639.604 510.118 638.708 510.244 639.044Z" fill="#263238"/>
<path d="M517.917 646.8C517.623 646.996 516.517 645.4 516.713 643.062C516.909 640.724 518.365 639.38 518.617 639.618C518.869 639.856 518.211 641.298 518.043 643.188C517.875 645.078 518.267 646.632 517.917 646.8Z" fill="#263238"/>
</svg>
